<svg width="38" height="38" viewBox="0 0 38 38" fill="none" xmlns="http://www.w3.org/2000/svg">
<rect width="38" height="38" rx="5" fill="white"/>
<path d="M15.209 19.543L22.7923 19.543" stroke="black" stroke-linecap="round"/>
<path d="M15.209 22.793L19.5423 22.793" stroke="black" stroke-linecap="round"/>
<path d="M11.959 12.193C11.959 11.3529 11.959 10.9329 12.1225 10.612C12.2663 10.3297 12.4958 10.1003 12.778 9.95646C13.0989 9.79297 13.5189 9.79297 14.359 9.79297H19.6315C19.9984 9.79297 20.1819 9.79297 20.3545 9.83441C20.5076 9.87116 20.6539 9.93177 20.7881 10.014C20.9395 10.1068 21.0692 10.2365 21.3286 10.4959L25.3394 14.5067C25.5988 14.7661 25.7285 14.8958 25.8213 15.0472C25.9035 15.1814 25.9641 15.3277 26.0009 15.4808C26.0423 15.6534 26.0423 15.8369 26.0423 16.2037V25.8096C26.0423 26.6497 26.0423 27.0698 25.8788 27.3906C25.735 27.6729 25.5055 27.9023 25.2233 28.0461C24.9024 28.2096 24.4824 28.2096 23.6423 28.2096H14.359C13.5189 28.2096 13.0989 28.2096 12.778 28.0461C12.4958 27.9023 12.2663 27.6729 12.1225 27.3906C11.959 27.0698 11.959 26.6497 11.959 25.8096V12.193Z" stroke="black"/>
<path d="M19.541 9.79297V13.893C19.541 14.733 19.541 15.1531 19.7045 15.474C19.8483 15.7562 20.0778 15.9857 20.36 16.1295C20.6809 16.293 21.1009 16.293 21.941 16.293H26.041" stroke="black"/>
</svg>
