<svg width="22" height="22" viewBox="0 0 22 22" fill="none" xmlns="http://www.w3.org/2000/svg">
<path d="M9.73122 2.11493C9.73122 1.41289 10.2984 0.845703 11.0005 0.845703C11.7025 0.845703 12.2697 1.41289 12.2697 2.11493V9.73032H19.8851C20.5871 9.73032 21.1543 10.2975 21.1543 10.9995C21.1543 11.7016 20.5871 12.2688 19.8851 12.2688H12.2697V19.8842C12.2697 20.5862 11.7025 21.1534 11.0005 21.1534C10.2984 21.1534 9.73122 20.5862 9.73122 19.8842V12.2688H2.11583C1.41379 12.2688 0.846603 11.7016 0.846603 10.9995C0.846603 10.2975 1.41379 9.73032 2.11583 9.73032H9.73122V2.11493Z" fill="url(#paint0_linear_131_15955)"/>
<defs>
<linearGradient id="paint0_linear_131_15955" x1="0.846603" y1="10.9995" x2="21.1543" y2="10.9995" gradientUnits="userSpaceOnUse">
<stop stop-color="#F63E8B"/>
<stop offset="1" stop-color="#7B68EE"/>
</linearGradient>
</defs>
</svg>
