<svg width="28" height="28" viewBox="0 0 28 28" fill="none" xmlns="http://www.w3.org/2000/svg">
<path d="M11.1666 21.9602C10.945 21.9602 10.7233 21.8786 10.5483 21.7036L3.46664 14.6219C3.12831 14.2836 3.12831 13.7236 3.46664 13.3852L10.5483 6.30355C10.8866 5.96522 11.4466 5.96522 11.785 6.30355C12.1233 6.64189 12.1233 7.20189 11.785 7.54022L5.32164 14.0036L11.785 20.4669C12.1233 20.8052 12.1233 21.3652 11.785 21.7036C11.6216 21.8786 11.3883 21.9602 11.1666 21.9602Z" fill="#292D32"/>
<path d="M23.9143 14.875H4.2793C3.80096 14.875 3.4043 14.4783 3.4043 14C3.4043 13.5217 3.80096 13.125 4.2793 13.125H23.9143C24.3926 13.125 24.7893 13.5217 24.7893 14C24.7893 14.4783 24.3926 14.875 23.9143 14.875Z" fill="#292D32"/>
</svg>
