<svg width="16" height="16" viewBox="0 0 16 16" fill="none" xmlns="http://www.w3.org/2000/svg">
<path d="M11.8956 0.695808C12.6646 -0.0730817 13.9135 -0.0730817 14.6826 0.695808L15.0548 1.06833C15.8238 1.83738 15.8238 3.08507 15.0548 3.85411L8.2749 10.6309C8.0165 10.8924 7.68735 11.0462 7.32744 11.1569L4.54043 11.7999C4.37432 11.8368 4.20205 11.7876 4.08208 11.6676C3.96211 11.5476 3.91289 11.3754 3.9498 11.2092L4.59272 8.42223C4.67578 8.06232 4.85728 7.73317 5.11875 7.44708L11.8956 0.695808ZM13.9843 1.39195C13.5998 1.00742 12.9784 1.00742 12.5938 1.39195L11.7694 2.21451L13.5352 3.98024L14.3565 3.15582C14.741 2.77222 14.741 2.14899 14.3565 1.76447L13.9843 1.39195ZM5.55249 8.64371L5.08491 10.6648L7.07827 10.1972C7.28438 10.1572 7.45049 10.0649 7.57969 9.90802L12.8399 4.67545L11.0742 2.91065L5.81397 8.16998C5.68477 8.29918 5.59248 8.46529 5.55249 8.64371ZM6.39844 1.96842C6.66914 1.96842 6.89063 2.18867 6.89063 2.46061C6.89063 2.73254 6.66914 2.9528 6.39844 2.9528H2.46094C1.64544 2.9528 0.984375 3.61417 0.984375 4.42936V13.2887C0.984375 14.1039 1.64544 14.7653 2.46094 14.7653H11.3203C12.1355 14.7653 12.7969 14.1039 12.7969 13.2887V9.35123C12.7969 9.08053 13.0184 8.85905 13.2891 8.85905C13.5598 8.85905 13.7813 9.08053 13.7813 9.35123V13.2887C13.7813 14.6484 12.68 15.7497 11.3203 15.7497H2.46094C1.10188 15.7497 0 14.6484 0 13.2887V4.42936C0 3.0703 1.10188 1.96842 2.46094 1.96842H6.39844Z" fill="black"/>
</svg>
