<svg width="24" height="25" viewBox="0 0 24 25" fill="none" xmlns="http://www.w3.org/2000/svg">
<path d="M15 23.25H9C3.57 23.25 1.25 20.93 1.25 15.5V9.5C1.25 4.07 3.57 1.75 9 1.75H11C11.41 1.75 11.75 2.09 11.75 2.5C11.75 2.91 11.41 3.25 11 3.25H9C4.39 3.25 2.75 4.89 2.75 9.5V15.5C2.75 20.11 4.39 21.75 9 21.75H15C19.61 21.75 21.25 20.11 21.25 15.5V13.5C21.25 13.09 21.59 12.75 22 12.75C22.41 12.75 22.75 13.09 22.75 13.5V15.5C22.75 20.93 20.43 23.25 15 23.25Z" fill="#7B68EE"/>
<path d="M8.49935 18.1905C7.88935 18.1905 7.32935 17.9705 6.91935 17.5705C6.42935 17.0805 6.21935 16.3705 6.32935 15.6205L6.75935 12.6105C6.83935 12.0305 7.21935 11.2805 7.62935 10.8705L15.5093 2.99055C17.4993 1.00055 19.5193 1.00055 21.5093 2.99055C22.5993 4.08055 23.0893 5.19055 22.9893 6.30055C22.8993 7.20055 22.4193 8.08055 21.5093 8.98055L13.6293 16.8605C13.2193 17.2705 12.4693 17.6505 11.8893 17.7305L8.87935 18.1605C8.74935 18.1905 8.61935 18.1905 8.49935 18.1905ZM16.5693 4.05055L8.68935 11.9305C8.49935 12.1205 8.27935 12.5605 8.23935 12.8205L7.80935 15.8305C7.76935 16.1205 7.82935 16.3605 7.97935 16.5105C8.12935 16.6605 8.36935 16.7205 8.65935 16.6805L11.6693 16.2505C11.9293 16.2105 12.3793 15.9905 12.5593 15.8005L20.4393 7.92055C21.0893 7.27055 21.4293 6.69055 21.4793 6.15055C21.5393 5.50055 21.1993 4.81055 20.4393 4.04055C18.8393 2.44055 17.7393 2.89055 16.5693 4.05055Z" fill="#7B68EE"/>
<path d="M19.8496 10.3303C19.7796 10.3303 19.7096 10.3203 19.6496 10.3003C17.0196 9.56027 14.9296 7.47027 14.1896 4.84027C14.0796 4.44027 14.3096 4.03027 14.7096 3.91027C15.1096 3.80027 15.5196 4.03027 15.6296 4.43027C16.2296 6.56027 17.9196 8.25027 20.0496 8.85027C20.4496 8.96027 20.6796 9.38027 20.5696 9.78027C20.4796 10.1203 20.1796 10.3303 19.8496 10.3303Z" fill="#7B68EE"/>
</svg>
