<svg width="25" height="24" viewBox="0 0 25 24" fill="none" xmlns="http://www.w3.org/2000/svg">
<path d="M22.7012 4.84969V16.7397C22.7012 17.7097 21.9112 18.5997 20.9412 18.7197L20.6312 18.7597C18.9912 18.9797 16.6812 19.6597 14.8212 20.4397C14.1712 20.7097 13.4512 20.2197 13.4512 19.5097V5.59969C13.4512 5.22969 13.6612 4.88969 13.9912 4.70969C15.8212 3.71969 18.5912 2.83969 20.4712 2.67969H20.5312C21.7312 2.67969 22.7012 3.64969 22.7012 4.84969Z" fill="#7B68EE"/>
<path d="M11.4114 4.70969C9.58141 3.71969 6.81141 2.83969 4.93141 2.67969H4.86141C3.66141 2.67969 2.69141 3.64969 2.69141 4.84969V16.7397C2.69141 17.7097 3.48141 18.5997 4.45141 18.7197L4.76141 18.7597C6.40141 18.9797 8.71141 19.6597 10.5714 20.4397C11.2214 20.7097 11.9414 20.2197 11.9414 19.5097V5.59969C11.9414 5.21969 11.7414 4.88969 11.4114 4.70969ZM5.70141 7.73969H7.95141C8.36141 7.73969 8.70141 8.07969 8.70141 8.48969C8.70141 8.90969 8.36141 9.23969 7.95141 9.23969H5.70141C5.29141 9.23969 4.95141 8.90969 4.95141 8.48969C4.95141 8.07969 5.29141 7.73969 5.70141 7.73969ZM8.70141 12.2397H5.70141C5.29141 12.2397 4.95141 11.9097 4.95141 11.4897C4.95141 11.0797 5.29141 10.7397 5.70141 10.7397H8.70141C9.11141 10.7397 9.45141 11.0797 9.45141 11.4897C9.45141 11.9097 9.11141 12.2397 8.70141 12.2397Z" fill="#7B68EE"/>
</svg>
