<svg width="20" height="20" viewBox="0 0 20 20" fill="none" xmlns="http://www.w3.org/2000/svg">
<path d="M18.3307 18.96H1.66406C1.3224 18.96 1.03906 18.6766 1.03906 18.335C1.03906 17.9933 1.3224 17.71 1.66406 17.71H18.3307C18.6724 17.71 18.9557 17.9933 18.9557 18.335C18.9557 18.6766 18.6724 18.96 18.3307 18.96Z" fill="#C3C6CE"/>
<path d="M17.4104 18.96C17.0688 18.96 16.7854 18.6766 16.7854 18.335V10.835C16.7854 9.80163 15.8188 8.95996 14.6354 8.95996H5.36875C4.18542 8.95996 3.21875 9.80163 3.21875 10.835V18.335C3.21875 18.6766 2.93542 18.96 2.59375 18.96C2.25208 18.96 1.96875 18.6766 1.96875 18.335V10.835C1.96875 9.10996 3.49375 7.70996 5.36875 7.70996H14.6271C16.5021 7.70996 18.0271 9.10996 18.0271 10.835V18.335C18.0354 18.6766 17.7521 18.96 17.4104 18.96Z" fill="#C3C6CE"/>
<path d="M15.3642 8.95671C15.0225 8.95671 14.7392 8.67337 14.7392 8.33171V5.97337C14.7392 5.32337 14.1142 4.79004 13.3559 4.79004H6.64753C5.88086 4.79004 5.26419 5.32337 5.26419 5.97337V8.33171C5.26419 8.67337 4.98086 8.95671 4.63919 8.95671C4.29753 8.95671 4.00586 8.67337 4.00586 8.33171V5.97337C4.00586 4.63171 5.18919 3.54004 6.63919 3.54004H13.3475C14.7975 3.54004 15.9809 4.63171 15.9809 5.97337V8.33171C15.9892 8.67337 15.7059 8.95671 15.3642 8.95671Z" fill="#C3C6CE"/>
<path d="M14.4442 14.7926C13.4775 14.7926 12.6942 14.0092 12.6942 13.0426V12.7842C12.6942 12.5092 12.4692 12.2842 12.1942 12.2842C11.9192 12.2842 11.6942 12.5092 11.6942 12.7842V13.0426C11.6942 14.0092 10.9109 14.7926 9.94419 14.7926C8.97752 14.7926 8.19419 14.0092 8.19419 13.0426V12.7842C8.19419 12.5092 7.96919 12.2842 7.69419 12.2842C7.41919 12.2842 7.19419 12.5092 7.19419 12.7842V13.0426C7.19419 14.0092 6.41086 14.7926 5.44419 14.7926C4.47752 14.7926 3.69419 14.0092 3.69419 13.0426V12.7676C3.69419 12.5009 3.47752 12.2759 3.20252 12.2676H2.89419C2.55252 12.2592 2.26919 11.9759 2.27752 11.6342C2.28586 11.2926 2.56086 11.0176 2.90252 11.0176H2.91086H3.21919C4.16919 11.0342 4.94419 11.8176 4.94419 12.7676V13.0426C4.94419 13.3176 5.16919 13.5426 5.44419 13.5426C5.71919 13.5426 5.94419 13.3176 5.94419 13.0426V12.7842C5.94419 11.8176 6.72752 11.0342 7.69419 11.0342C8.66086 11.0342 9.44419 11.8176 9.44419 12.7842V13.0426C9.44419 13.3176 9.66919 13.5426 9.94419 13.5426C10.2192 13.5426 10.4442 13.3176 10.4442 13.0426V12.7842C10.4442 11.8176 11.2275 11.0342 12.1942 11.0342C13.1609 11.0342 13.9442 11.8176 13.9442 12.7842V13.0426C13.9442 13.3176 14.1692 13.5426 14.4442 13.5426C14.7192 13.5426 14.9442 13.3176 14.9442 13.0426V12.7842C14.9442 11.8176 15.7275 11.0342 16.6942 11.0342H17.0692C17.4109 11.0342 17.6942 11.3176 17.6942 11.6592C17.6942 12.0009 17.4109 12.2842 17.0692 12.2842H16.6942C16.4192 12.2842 16.1942 12.5092 16.1942 12.7842V13.0426C16.1942 14.0092 15.4109 14.7926 14.4442 14.7926Z" fill="#C3C6CE"/>
<path d="M6.66406 4.79167C6.3224 4.79167 6.03906 4.50833 6.03906 4.16667V2.5C6.03906 2.15833 6.3224 1.875 6.66406 1.875C7.00573 1.875 7.28906 2.15833 7.28906 2.5V4.16667C7.28906 4.50833 7.00573 4.79167 6.66406 4.79167Z" fill="#C3C6CE"/>
<path d="M13.3359 4.79167C12.9943 4.79167 12.7109 4.50833 12.7109 4.16667V2.5C12.7109 2.15833 12.9943 1.875 13.3359 1.875C13.6776 1.875 13.9609 2.15833 13.9609 2.5V4.16667C13.9609 4.50833 13.6776 4.79167 13.3359 4.79167Z" fill="#C3C6CE"/>
<path d="M10 4.79004C9.65833 4.79004 9.375 4.50671 9.375 4.16504V1.66504C9.375 1.32337 9.65833 1.04004 10 1.04004C10.3417 1.04004 10.625 1.32337 10.625 1.66504V4.16504C10.625 4.50671 10.3417 4.79004 10 4.79004Z" fill="#C3C6CE"/>
</svg>
