<svg width="30" height="30" viewBox="0 0 30 30" fill="none" xmlns="http://www.w3.org/2000/svg">
<circle cx="15" cy="15" r="15" fill="white"/>
<circle cx="15" cy="15" r="14.5" stroke="#7F7F88" stroke-opacity="0.7" stroke-dasharray="2 2"/>
<path d="M12.1431 10.5366C11.8503 10.5366 11.6074 10.2937 11.6074 10.0008V7.85798C11.6074 7.56512 11.8503 7.32227 12.1431 7.32227C12.436 7.32227 12.6789 7.56512 12.6789 7.85798V10.0008C12.6789 10.2937 12.436 10.5366 12.1431 10.5366Z" fill="#7F7F88" fill-opacity="0.7"/>
<path d="M17.8575 10.5366C17.5646 10.5366 17.3218 10.2937 17.3218 10.0008V7.85798C17.3218 7.56512 17.5646 7.32227 17.8575 7.32227C18.1503 7.32227 18.3932 7.56512 18.3932 7.85798V10.0008C18.3932 10.2937 18.1503 10.5366 17.8575 10.5366Z" fill="#7F7F88" fill-opacity="0.7"/>
<path d="M21.0716 13.4581H8.92878C8.63592 13.4581 8.39307 13.2153 8.39307 12.9224C8.39307 12.6296 8.63592 12.3867 8.92878 12.3867H21.0716C21.3645 12.3867 21.6074 12.6296 21.6074 12.9224C21.6074 13.2153 21.3645 13.4581 21.0716 13.4581Z" fill="#7F7F88" fill-opacity="0.7"/>
<path d="M17.8571 22.6802H12.1428C9.53564 22.6802 8.03564 21.1802 8.03564 18.5731V12.5017C8.03564 9.89453 9.53564 8.39453 12.1428 8.39453H17.8571C20.4642 8.39453 21.9642 9.89453 21.9642 12.5017V18.5731C21.9642 21.1802 20.4642 22.6802 17.8571 22.6802ZM12.1428 9.46596C10.0999 9.46596 9.10707 10.4588 9.10707 12.5017V18.5731C9.10707 20.616 10.0999 21.6088 12.1428 21.6088H17.8571C19.8999 21.6088 20.8928 20.616 20.8928 18.5731V12.5017C20.8928 10.4588 19.8999 9.46596 17.8571 9.46596H12.1428Z" fill="#7F7F88" fill-opacity="0.7"/>
<path d="M12.4999 16.786C12.4071 16.786 12.3142 16.7646 12.2285 16.7289C12.1428 16.6932 12.0642 16.6431 11.9928 16.5789C11.9285 16.5074 11.8785 16.4289 11.8428 16.3431C11.8071 16.2574 11.7856 16.1646 11.7856 16.0717C11.7856 15.886 11.8642 15.7003 11.9928 15.5646C12.0642 15.5003 12.1428 15.4503 12.2285 15.4146C12.3571 15.3574 12.4999 15.3431 12.6428 15.3717C12.6857 15.3789 12.7285 15.3931 12.7714 15.4146C12.8142 15.4288 12.8571 15.4503 12.8999 15.4789C12.9356 15.5074 12.9714 15.536 13.0071 15.5646C13.0356 15.6003 13.0713 15.636 13.0928 15.6717C13.1213 15.7146 13.1428 15.7574 13.1571 15.8003C13.1785 15.8431 13.1928 15.886 13.1999 15.9289C13.2071 15.9789 13.2142 16.0217 13.2142 16.0717C13.2142 16.2574 13.1356 16.4431 13.0071 16.5789C12.8714 16.7074 12.6856 16.786 12.4999 16.786Z" fill="#7F7F88" fill-opacity="0.7"/>
<path d="M14.9999 16.7872C14.8142 16.7872 14.6285 16.7086 14.4928 16.58C14.4642 16.5443 14.4357 16.5086 14.4071 16.4729C14.3785 16.43 14.3571 16.3872 14.3428 16.3443C14.3213 16.3014 14.3071 16.2586 14.2999 16.2157C14.2928 16.1657 14.2856 16.1229 14.2856 16.0729C14.2856 15.98 14.3071 15.8872 14.3428 15.8014C14.3785 15.7157 14.4285 15.6372 14.4928 15.5657C14.6928 15.3657 15.0142 15.3014 15.2714 15.4157C15.3642 15.4514 15.4356 15.5015 15.5071 15.5657C15.6356 15.7015 15.7142 15.8872 15.7142 16.0729C15.7142 16.1229 15.7071 16.1657 15.6999 16.2157C15.6928 16.2586 15.6785 16.3014 15.6571 16.3443C15.6428 16.3872 15.6213 16.43 15.5928 16.4729C15.5642 16.5086 15.5356 16.5443 15.5071 16.58C15.4356 16.6443 15.3642 16.6943 15.2714 16.73C15.1856 16.7657 15.0928 16.7872 14.9999 16.7872Z" fill="#7F7F88" fill-opacity="0.7"/>
<path d="M12.4999 19.2872C12.4071 19.2872 12.3142 19.2657 12.2285 19.23C12.1428 19.1943 12.0642 19.1443 11.9928 19.08C11.9285 19.0086 11.8785 18.9372 11.8428 18.8443C11.8071 18.7586 11.7856 18.6657 11.7856 18.5729C11.7856 18.3872 11.8642 18.2015 11.9928 18.0657C12.0642 18.0015 12.1428 17.9514 12.2285 17.9157C12.4928 17.8014 12.8071 17.8657 13.0071 18.0657C13.0356 18.1015 13.0713 18.1372 13.0928 18.1729C13.1213 18.2157 13.1428 18.2586 13.1571 18.3014C13.1785 18.3443 13.1928 18.3872 13.1999 18.4372C13.2071 18.48 13.2142 18.53 13.2142 18.5729C13.2142 18.7586 13.1356 18.9443 13.0071 19.08C12.8714 19.2086 12.6856 19.2872 12.4999 19.2872Z" fill="#7F7F88" fill-opacity="0.7"/>
</svg>
