<svg width="21" height="20" viewBox="0 0 21 20" fill="none" xmlns="http://www.w3.org/2000/svg">
<path fill-rule="evenodd" clip-rule="evenodd" d="M19.7558 2.73005C20.3008 3.79961 20.3008 5.19974 20.3008 8V9.18422C20.3008 10.8734 20.3008 11.7179 20.0988 12.4069C19.6196 14.041 18.3417 15.3188 16.7076 15.798C16.0187 16 15.1741 16 13.485 16H12.9362L12.8711 16.0001C11.8509 16.0066 10.857 16.3251 10.023 16.9128L9.97 16.9506L7.35926 18.8154C6.46428 19.4546 5.28821 18.5314 5.69668 17.5103C5.98603 16.7869 5.45329 16 4.67419 16H4.07244C1.98941 16 0.300781 14.3114 0.300781 12.2283V8C0.300781 5.19974 0.300781 3.79961 0.845749 2.73005C1.32512 1.78924 2.09002 1.02433 3.03083 0.544967C4.10039 0 5.50052 0 8.30078 0H12.3008C15.101 0 16.5012 0 17.5707 0.544967C18.5115 1.02433 19.2764 1.78924 19.7558 2.73005ZM6.30078 5.25C5.88657 5.25 5.55078 5.58579 5.55078 6C5.55078 6.41421 5.88657 6.75 6.30078 6.75L10.3008 6.75C10.715 6.75 11.0508 6.41421 11.0508 6C11.0508 5.58579 10.715 5.25 10.3008 5.25L6.30078 5.25ZM6.30078 9.25C5.88657 9.25 5.55078 9.58579 5.55078 10C5.55078 10.4142 5.88657 10.75 6.30078 10.75H14.3008C14.715 10.75 15.0508 10.4142 15.0508 10C15.0508 9.58579 14.715 9.25 14.3008 9.25H6.30078Z" fill="#7B68EE"/>
</svg>
