<svg width="16" height="17" viewBox="0 0 16 17" fill="none" xmlns="http://www.w3.org/2000/svg">
<g clip-path="url(#clip0_6200_11505)">
<path d="M12.0844 1.58191C12.8656 0.80082 14.1344 0.80082 14.9156 1.58191L15.2938 1.96035C16.075 2.7416 16.075 4.0091 15.2938 4.79035L8.40625 11.6747C8.14375 11.9404 7.80938 12.0966 7.44375 12.2091L4.6125 12.8622C4.44375 12.8997 4.26875 12.8497 4.14688 12.7279C4.025 12.606 3.975 12.431 4.0125 12.2622L4.66563 9.43098C4.75 9.06535 4.93438 8.73098 5.2 8.44035L12.0844 1.58191ZM14.2063 2.2891C13.8156 1.89848 13.1844 1.89848 12.7938 2.2891L11.9563 3.12473L13.75 4.91848L14.5844 4.08098C14.975 3.69129 14.975 3.05816 14.5844 2.66754L14.2063 2.2891ZM5.64063 9.65598L5.16563 11.7091L7.19063 11.2341C7.4 11.1935 7.56875 11.0997 7.7 10.9404L13.0438 5.62473L11.25 3.83191L5.90625 9.17473C5.775 9.30598 5.68125 9.47473 5.64063 9.65598ZM6.5 2.87473C6.775 2.87473 7 3.09848 7 3.37473C7 3.65098 6.775 3.87473 6.5 3.87473H2.5C1.67156 3.87473 1 4.5466 1 5.37473V14.3747C1 15.2029 1.67156 15.8747 2.5 15.8747H11.5C12.3281 15.8747 13 15.2029 13 14.3747V10.3747C13 10.0997 13.225 9.87473 13.5 9.87473C13.775 9.87473 14 10.0997 14 10.3747V14.3747C14 15.756 12.8813 16.8747 11.5 16.8747H2.5C1.11938 16.8747 0 15.756 0 14.3747V5.37473C0 3.9941 1.11938 2.87473 2.5 2.87473H6.5Z" fill="#7B68EE"/>
</g>
<defs>
<clipPath id="clip0_6200_11505">
<rect width="16" height="16" fill="white" transform="translate(0 0.875)"/>
</clipPath>
</defs>
</svg>
