<svg width="16" height="18" viewBox="0 0 16 18" fill="none" xmlns="http://www.w3.org/2000/svg">
<g clip-path="url(#clip0_2847_32730)">
<g clip-path="url(#clip1_2847_32730)">
<path d="M6.19102 8.44093C5.89219 8.79952 5.35781 8.79952 5.02734 8.44093L2.2159 5.62843C1.88648 5.3296 1.88648 4.79522 2.2159 4.46476C2.54531 4.1378 3.07969 4.1378 3.4091 4.46476L5.625 6.68312L10.6523 1.65331C10.9828 1.3239 11.5172 1.3239 11.816 1.65331C12.1746 1.98272 12.1746 2.5171 11.816 2.84651L6.19102 8.44093ZM6.19102 16.3159C5.89219 16.6745 5.35781 16.6745 5.02734 16.3159L0.247113 11.5347C-0.0823711 11.2358 -0.0823711 10.7015 0.247113 10.371C0.576563 10.0441 1.11094 10.0441 1.44035 10.371L5.625 14.5581L14.3086 5.87101C14.6391 5.54405 15.1734 5.54405 15.4723 5.87101C15.8309 6.20147 15.8309 6.73585 15.4723 7.03468L6.19102 16.3159Z" fill="#F82058"/>
</g>
</g>
<defs>
<clipPath id="clip0_2847_32730">
<rect width="15.75" height="18" fill="white"/>
</clipPath>
<clipPath id="clip1_2847_32730">
<rect width="15.75" height="18" fill="white"/>
</clipPath>
</defs>
</svg>
