<svg width="34" height="35" viewBox="0 0 34 35" fill="none" xmlns="http://www.w3.org/2000/svg">
<circle cx="17" cy="17.5" r="17" fill="#7B68EE"/>
<g clip-path="url(#clip0_1562_21416)">
<path d="M22.985 16.7473L16.626 23.1063C15.3698 24.3624 13.3323 24.5608 11.9619 23.4308C10.3932 22.1386 10.3091 19.8066 11.7155 18.4001L19.1444 10.9713C19.9317 10.1839 21.2119 10.0336 22.0714 10.7368C23.0632 11.5483 23.1173 13.0088 22.2337 13.8923L15.9228 20.2032C15.5922 20.5338 15.0513 20.5338 14.7207 20.2032C14.3901 19.8727 14.3901 19.3317 14.7207 19.0012L19.9798 13.7421C20.2262 13.4956 20.2262 13.0869 19.9798 12.8405C19.7334 12.5941 19.3247 12.5941 19.0783 12.8405L13.9033 18.0154C13.1159 18.8028 12.9657 20.083 13.6689 20.9425C14.4803 21.9342 15.9408 21.9883 16.8244 21.1048L23.0331 14.896C24.2893 13.6399 24.4876 11.6023 23.3577 10.232C22.0594 8.65725 19.7334 8.57911 18.327 9.98555L10.9522 17.3603C9.2272 19.0853 8.94471 21.8922 10.5014 23.7734C12.2985 25.9312 15.49 26.0454 17.4254 24.11L23.8866 17.6488C24.133 17.4024 24.133 16.9937 23.8866 16.7473C23.6402 16.5008 23.2314 16.5008 22.985 16.7473Z" fill="white"/>
</g>
<defs>
<clipPath id="clip0_1562_21416">
<rect x="6.80078" y="7.30078" width="20.4" height="20.4" rx="6" fill="white"/>
</clipPath>
</defs>
</svg>
