<svg width="30" height="30" viewBox="0 0 30 30" fill="none" xmlns="http://www.w3.org/2000/svg">
<circle cx="15" cy="15" r="15" fill="white"/>
<circle cx="15" cy="15" r="14.5" stroke="#7F7F88" stroke-opacity="0.7" stroke-dasharray="2 2"/>
<circle cx="15" cy="15" r="15" fill="white"/>
<circle cx="15" cy="15" r="14.5" stroke="#7F7F88" stroke-opacity="0.7" stroke-dasharray="2 2"/>
<g clip-path="url(#clip0_1967_19570)">
<path d="M10.6921 7.74117C10.9232 7.55634 10.9606 7.21922 10.7758 6.98819C10.591 6.75715 10.2539 6.71969 10.0228 6.90452L8.23712 8.33309C8.00609 8.51792 7.96863 8.85504 8.15345 9.08607C8.33828 9.31711 8.6754 9.35456 8.90644 9.16974L10.6921 7.74117Z" fill="#7F7F88" fill-opacity="0.7"/>
<path d="M19.9779 6.90452C19.7468 6.71969 19.4097 6.75715 19.2249 6.98819C19.0401 7.21922 19.0775 7.55634 19.3085 7.74117L21.0943 9.16974C21.3253 9.35456 21.6624 9.31711 21.8472 9.08607C22.0321 8.85504 21.9946 8.51792 21.7636 8.33309L19.9779 6.90452Z" fill="#7F7F88" fill-opacity="0.7"/>
<path d="M15.5361 12.3228C15.5361 12.027 15.2962 11.7871 15.0004 11.7871C14.7045 11.7871 14.4646 12.027 14.4646 12.3228V15.327C14.4646 15.5547 14.3776 15.7738 14.2214 15.9395L13.182 17.042C12.979 17.2573 12.989 17.5963 13.2043 17.7993C13.4196 18.0023 13.7586 17.9923 13.9616 17.777L15.001 16.6745C15.3447 16.31 15.5361 15.828 15.5361 15.327V12.3228Z" fill="#7F7F88" fill-opacity="0.7"/>
<path fill-rule="evenodd" clip-rule="evenodd" d="M15.0003 7.50141C10.7596 7.50141 7.32178 10.9392 7.32178 15.18C7.32178 19.4207 10.7596 22.8586 15.0003 22.8586C19.2411 22.8586 22.6789 19.4207 22.6789 15.18C22.6789 10.9392 19.2411 7.50141 15.0003 7.50141ZM8.39321 15.18C8.39321 11.531 11.3513 8.57284 15.0003 8.57284C18.6494 8.57284 21.6075 11.531 21.6075 15.18C21.6075 18.829 18.6494 21.7871 15.0003 21.7871C11.3513 21.7871 8.39321 18.829 8.39321 15.18Z" fill="#7F7F88" fill-opacity="0.7"/>
</g>
<defs>
<clipPath id="clip0_1967_19570">
<rect width="17.1429" height="17.1429" fill="white" transform="translate(6.42871 6.42969)"/>
</clipPath>
</defs>
</svg>
