<svg width="13" height="13" viewBox="0 0 13 13" fill="none" xmlns="http://www.w3.org/2000/svg">
<g clip-path="url(#clip0_2185_22081)">
<path d="M10.1309 9.75508C9.56973 8.78008 8.51602 8.125 7.3125 8.125H5.6875C4.48398 8.125 3.43027 8.78008 2.86914 9.75508C3.76289 10.7504 5.05781 11.375 6.5 11.375C7.94219 11.375 9.23711 10.7479 10.1309 9.75508ZM13 6.5C13 10.0902 10.0902 13 6.5 13C2.90977 13 0 10.0902 0 6.5C0 2.90977 2.90977 0 6.5 0C10.0902 0 13 2.90977 13 6.5ZM6.5 6.90625C7.51055 6.90625 8.32812 6.08867 8.32812 5.07812C8.32812 4.06758 7.51055 3.25 6.5 3.25C5.48945 3.25 4.67188 4.06758 4.67188 5.07812C4.67188 6.08867 5.48945 6.90625 6.5 6.90625Z" fill="url(#paint0_linear_2185_22081)"/>
</g>
<defs>
<linearGradient id="paint0_linear_2185_22081" x1="13" y1="6.5" x2="0" y2="6.5" gradientUnits="userSpaceOnUse">
<stop stop-color="#F63E8B"/>
<stop offset="1" stop-color="#7B68EE"/>
</linearGradient>
<clipPath id="clip0_2185_22081">
<rect width="13" height="13" fill="white"/>
</clipPath>
</defs>
</svg>
