<svg width="30" height="30" viewBox="0 0 30 30" fill="none" xmlns="http://www.w3.org/2000/svg">
<circle cx="15" cy="15" r="15" fill="white"/>
<circle cx="15" cy="15" r="14.5" stroke="#7F7F88" stroke-opacity="0.7" stroke-dasharray="2 2"/>
<path d="M15.0299 14.6457C13.1924 14.6457 11.6924 13.1457 11.6924 11.3082C11.6924 9.4707 13.1924 7.9707 15.0299 7.9707C16.8674 7.9707 18.3674 9.4707 18.3674 11.3082C18.3674 13.1457 16.8674 14.6457 15.0299 14.6457ZM15.0299 9.38634C13.9705 9.38634 13.0986 10.2488 13.0986 11.3176C13.0986 12.3863 13.9611 13.2488 15.0299 13.2488C16.0986 13.2488 16.9611 12.3863 16.9611 11.3176C16.9611 10.2488 16.0986 9.38634 15.0299 9.38634Z" fill="#7F7F88" fill-opacity="0.7"/>
<path d="M19.8953 20.7118C19.5109 20.7118 19.1922 20.393 19.1922 20.0086C19.1922 18.2086 17.3266 16.7461 15.0297 16.7461C12.7328 16.7461 10.8672 18.2086 10.8672 20.0086C10.8672 20.393 10.5484 20.7118 10.1641 20.7118C9.77969 20.7118 9.46094 20.393 9.46094 20.0086C9.46094 17.4399 11.9547 15.3398 15.0297 15.3398C18.1047 15.3398 20.5984 17.4305 20.5984 20.0086C20.5984 20.393 20.2797 20.7118 19.8953 20.7118Z" fill="#7F7F88" fill-opacity="0.7"/>
</svg>
