<svg width="24" height="25" viewBox="0 0 24 25" fill="none" xmlns="http://www.w3.org/2000/svg">
<path d="M11.4604 15.2294C9.50039 15.2294 7.90039 13.6294 7.90039 11.6694C7.90039 9.70937 9.50039 8.10938 11.4604 8.10938C13.4204 8.10938 15.0204 9.70937 15.0204 11.6694C15.0204 13.6294 13.4204 15.2294 11.4604 15.2294ZM11.4604 9.61938C10.3304 9.61938 9.40039 10.5394 9.40039 11.6794C9.40039 12.8194 10.3204 13.7394 11.4604 13.7394C12.6004 13.7394 13.5204 12.8194 13.5204 11.6794C13.5204 10.5394 12.6004 9.61938 11.4604 9.61938Z" fill="#717171"/>
<path d="M16.6495 21.7007C16.2395 21.7007 15.8995 21.3607 15.8995 20.9507C15.8995 19.0307 13.9095 17.4707 11.4595 17.4707C9.00953 17.4707 7.01953 19.0307 7.01953 20.9507C7.01953 21.3607 6.67953 21.7007 6.26953 21.7007C5.85953 21.7007 5.51953 21.3607 5.51953 20.9507C5.51953 18.2107 8.17953 15.9707 11.4595 15.9707C14.7395 15.9707 17.3995 18.2007 17.3995 20.9507C17.3995 21.3607 17.0595 21.7007 16.6495 21.7007Z" fill="#717171"/>
<path d="M11.5 23.5C5.85 23.5 1.25 18.9 1.25 13.25C1.25 7.6 5.85 3 11.5 3C12.89 3 14.23 3.26999 15.49 3.79999C15.85 3.94999 16.03 4.34997 15.91 4.71997C15.8 5.04997 15.75 5.4 15.75 5.75C15.75 6.34 15.91 6.91998 16.22 7.41998C16.38 7.69998 16.59 7.94997 16.83 8.15997C17.7 8.94997 18.99 9.20003 20 8.84003C20.37 8.70003 20.79 8.89001 20.94 9.26001C21.48 10.53 21.75 11.88 21.75 13.26C21.75 18.9 17.15 23.5 11.5 23.5ZM11.5 4.5C6.68 4.5 2.75 8.42 2.75 13.25C2.75 18.08 6.68 22 11.5 22C16.32 22 20.25 18.08 20.25 13.25C20.25 12.29 20.09 11.34 19.79 10.43C18.41 10.67 16.9 10.24 15.84 9.27002C15.49 8.97002 15.18 8.6 14.94 8.19C14.5 7.47 14.26 6.62 14.26 5.75C14.26 5.48 14.28 5.22002 14.33 4.96002C13.42 4.65002 12.47 4.5 11.5 4.5Z" fill="#717171"/>
<path d="M19 10.5C17.82 10.5 16.7 10.06 15.83 9.27002C15.48 8.97002 15.17 8.6 14.93 8.19C14.49 7.47 14.25 6.62 14.25 5.75C14.25 5.24 14.33 4.74001 14.49 4.26001C14.71 3.58001 15.09 2.95 15.6 2.44C16.5 1.52 17.71 1 19.01 1C20.37 1 21.66 1.58002 22.54 2.58002C23.32 3.45002 23.76 4.57 23.76 5.75C23.76 6.13 23.71 6.50999 23.61 6.87C23.51 7.31999 23.32 7.79001 23.06 8.20001C22.48 9.18001 21.56 9.91 20.48 10.25C20.03 10.42 19.53 10.5 19 10.5ZM19 2.5C18.11 2.5 17.28 2.84998 16.67 3.47998C16.32 3.83998 16.07 4.24997 15.92 4.71997C15.81 5.04997 15.76 5.4 15.76 5.75C15.76 6.34 15.92 6.91998 16.23 7.41998C16.39 7.69998 16.6 7.94997 16.84 8.15997C17.71 8.94997 19 9.20003 20.01 8.84003C20.77 8.60003 21.39 8.09999 21.79 7.42999C21.97 7.13999 22.09 6.83002 22.16 6.52002C22.23 6.26002 22.26 6.01 22.26 5.75C22.26 4.95 21.96 4.18002 21.42 3.58002C20.81 2.89002 19.93 2.5 19 2.5Z" fill="#717171"/>
<path d="M20.49 6.48047H17.5C17.09 6.48047 16.75 6.14047 16.75 5.73047C16.75 5.32047 17.09 4.98047 17.5 4.98047H20.49C20.9 4.98047 21.24 5.32047 21.24 5.73047C21.24 6.14047 20.91 6.48047 20.49 6.48047Z" fill="#717171"/>
<path d="M19 8.00952C18.59 8.00952 18.25 7.66952 18.25 7.25952V4.26953C18.25 3.85953 18.59 3.51953 19 3.51953C19.41 3.51953 19.75 3.85953 19.75 4.26953V7.25952C19.75 7.67952 19.41 8.00952 19 8.00952Z" fill="#717171"/>
</svg>
