<svg width="8" height="8" viewBox="0 0 8 8" fill="none" xmlns="http://www.w3.org/2000/svg">
<path d="M4 8C6.20937 8 8 6.20937 8 4C8 1.79063 6.20937 0 4 0C1.79063 0 0 1.79063 0 4C0 6.20937 1.79063 8 4 8ZM2.73438 2.73438C2.88125 2.5875 3.11875 2.5875 3.26406 2.73438L3.99844 3.46875L4.73281 2.73438C4.87969 2.5875 5.11719 2.5875 5.2625 2.73438C5.40781 2.88125 5.40937 3.11875 5.2625 3.26406L4.52812 3.99844L5.2625 4.73281C5.40937 4.87969 5.40937 5.11719 5.2625 5.2625C5.11562 5.40781 4.87812 5.40937 4.73281 5.2625L3.99844 4.52812L3.26406 5.2625C3.11719 5.40937 2.87969 5.40937 2.73438 5.2625C2.58906 5.11562 2.5875 4.87812 2.73438 4.73281L3.46875 3.99844L2.73438 3.26406C2.5875 3.11719 2.5875 2.87969 2.73438 2.73438Z" fill="#CFCFCF"/>
</svg>
