<svg width="86" height="60" viewBox="0 0 86 60" fill="none" xmlns="http://www.w3.org/2000/svg">
<path d="M41.269 18.7496L47.769 16.0496L42.819 13.3496L41.269 18.7496Z" fill="#18437E"/>
<path d="M32.269 10.1L41.269 11.15L75.619 5L32.269 10.1Z" fill="#7B68EE"/>
<path d="M41.269 11.2V18.75L43.219 14L75.619 5L41.269 11.2Z" fill="#FFC5DA"/>
<path d="M43.2188 14L55.9188 19.8L75.6188 5L43.2188 14Z" fill="#7B68EE"/>
<path d="M19.3691 22.75C19.7691 22.9 20.2191 23 20.6691 23.05C21.1191 23.1 21.5691 23.15 22.0191 23.15C22.9191 23.15 23.7691 23.05 24.6691 22.9C24.8691 22.85 25.1191 22.8 25.3191 22.75C25.5191 22.7 25.7191 22.65 25.9691 22.55C26.3691 22.4 26.7691 22.2 27.1191 21.95C27.8691 21.45 28.5691 20.9 29.2191 20.35C29.5691 20.05 29.9191 19.75 30.2191 19.45C30.5191 19.15 30.9191 18.9 31.2691 18.6C32.0191 18.05 32.8191 17.6 33.6191 17.25C34.0191 17.1 34.4691 16.95 34.9691 16.9C35.4191 16.85 35.9191 16.85 36.3691 16.95C36.8191 17.05 37.2691 17.2 37.6691 17.45C38.0691 17.7 38.4191 17.95 38.7691 18.3C38.9691 18.5 38.8691 18.6 38.6691 18.4C38.3191 18.1 37.9691 17.85 37.5691 17.65C37.1691 17.45 36.7691 17.3 36.3191 17.2C35.4691 17.05 34.5691 17.2 33.7691 17.55C32.9691 17.9 32.2191 18.35 31.5191 18.9C31.1691 19.15 30.8191 19.45 30.4691 19.75L29.4691 20.65C28.8191 21.25 28.0691 21.8 27.3191 22.3C26.9191 22.55 26.5191 22.75 26.0691 22.9C25.8691 23 25.6191 23.05 25.4191 23.1C25.2191 23.15 24.9691 23.2 24.7691 23.25C23.8691 23.4 22.9691 23.45 22.0691 23.45C21.6191 23.45 21.1691 23.4 20.6691 23.3C20.2191 23.2 19.7691 23.1 19.3691 22.95C19.0191 22.75 19.1191 22.65 19.3691 22.75Z" fill="#41454C"/>
<path d="M39.519 49.2496L55.169 43.7996L42.919 40.5996L39.519 49.2496Z" fill="#FFE200"/>
<path d="M42.9688 40.6L66.2188 51.55L80.1688 18L72.0687 21.9L42.9688 40.6Z" fill="#FF519A"/>
<path d="M39.5189 49.2504L39.1689 37.0004L76.4189 20.9004L43.0189 40.6004L39.5189 49.2504Z" fill="#18437E"/>
<path d="M0.518937 48.6492C1.61894 47.7992 2.71894 46.9992 3.91894 46.2492C4.21894 46.0492 4.51894 45.8992 4.81894 45.6992C4.96894 45.5992 5.11894 45.5492 5.26894 45.4492L5.71894 45.1992L6.16894 44.9992L6.41894 44.8992L6.66894 44.7992L7.16894 44.5992C7.31894 44.5492 7.51894 44.4992 7.66894 44.4492C8.01894 44.3492 8.31894 44.1992 8.66894 44.1492C8.81894 44.0992 9.01894 44.0492 9.16894 44.0492L9.66894 43.9492L10.1689 43.8492C10.3189 43.7992 10.5189 43.7992 10.6689 43.7992C11.0189 43.7492 11.3689 43.7492 11.7189 43.7492H12.2189C12.3689 43.7492 12.5689 43.7492 12.7189 43.7492L13.2189 43.7992L13.7189 43.8492C14.4189 43.8992 15.1189 44.0492 15.7689 44.2492C16.4689 44.3992 17.1189 44.6992 17.7189 44.9992C18.3689 45.3492 18.9189 45.7492 19.4189 46.2492C19.5189 46.3492 19.6689 46.4992 19.7689 46.6492C19.8189 46.6992 19.8189 46.6992 19.8689 46.7492L19.9689 46.8492L20.1189 46.8992C20.2189 47.0492 20.3189 47.1992 20.4189 47.3492C20.5189 47.4992 20.5689 47.6492 20.6689 47.8492C20.9689 48.4992 21.2189 49.1492 21.3689 49.8492C21.5689 50.5492 21.6689 51.2492 21.7689 51.9492C21.8189 52.2992 21.8189 52.6492 21.7689 52.9992C21.7689 53.3492 21.6689 53.6992 21.6189 54.0492C21.5189 54.3992 21.3689 54.7492 21.1189 55.0492L21.0189 55.1492L20.9189 55.2492C20.8689 55.2992 20.8689 55.2992 20.8189 55.3492L20.7189 55.4492C20.6689 55.4992 20.5689 55.5492 20.4689 55.5992C20.3689 55.6492 20.3189 55.6992 20.2189 55.6992C19.8689 55.8492 19.4689 55.8492 19.1189 55.8492C18.9189 55.8492 18.7689 55.7992 18.5689 55.7492C18.4189 55.6992 18.2189 55.6492 18.0689 55.5492C17.7189 55.3992 17.4189 55.1992 17.1689 54.9492C16.8689 54.6992 16.6189 54.4492 16.4189 54.1492C15.9689 53.5492 15.6689 52.9492 15.4689 52.2492C15.4189 52.0992 15.3689 51.8992 15.3189 51.7492L15.2689 51.5992C15.2689 51.5492 15.2689 51.4992 15.2689 51.4492L15.2189 51.1992C15.2189 51.1492 15.2189 51.0992 15.2189 51.0492V50.8992V50.6492C15.2189 50.5492 15.2189 50.4492 15.2189 50.3992V50.1492C15.2689 49.4492 15.4189 48.7492 15.6189 48.0492C15.8189 47.3992 16.1189 46.7492 16.4689 46.0992C16.8189 45.4992 17.1689 44.8992 17.6189 44.3492C17.8189 44.0992 18.0689 43.7992 18.3189 43.5492C18.5689 43.2992 18.8689 43.0992 19.1689 42.8992C19.4689 42.6992 19.7689 42.4992 20.0689 42.3492C20.3689 42.1992 20.7189 42.0992 21.0689 41.9992C21.7689 41.7992 22.4689 41.6992 23.1689 41.6992C23.8689 41.6992 24.5689 41.7992 25.2689 41.8992C26.6189 42.1992 27.9689 42.6492 29.1689 43.2992C30.4189 43.8992 31.6189 44.5992 32.7689 45.3992C33.9189 46.1992 35.0189 47.0492 36.0189 47.9492C36.3189 48.2492 36.4689 48.3992 36.4689 48.4492C36.4689 48.4992 36.2689 48.3492 35.9689 48.0492C34.9189 47.1492 33.8189 46.2992 32.6689 45.5492C31.5189 44.7492 30.3189 44.0492 29.0689 43.4492C27.8189 42.8492 26.5189 42.3992 25.1689 42.0992C24.5189 41.9492 23.8189 41.8992 23.1689 41.8992C22.4689 41.8992 21.8189 41.9992 21.1689 42.1992C20.8689 42.2992 20.5189 42.3992 20.2189 42.5492C19.9189 42.6992 19.6189 42.8492 19.3189 43.0492C19.0189 43.2492 18.7689 43.4492 18.5189 43.6992C18.2689 43.9492 18.0689 44.1992 17.8189 44.4492C17.3689 44.9992 17.0189 45.5492 16.7189 46.1492C16.4189 46.7492 16.1189 47.3992 15.9189 48.0492C15.7189 48.6992 15.5689 49.3492 15.5189 50.0492C15.5189 50.3992 15.5189 50.6992 15.5189 51.0492C15.5189 51.1992 15.5689 51.3992 15.5689 51.5492C15.6189 51.6992 15.6689 51.8492 15.6689 52.0492C15.8689 52.6992 16.1689 53.2992 16.5689 53.8492C16.7689 54.0992 17.0189 54.3492 17.2689 54.5492C17.5189 54.7492 17.8189 54.8992 18.1189 55.0492C18.7189 55.3492 19.3689 55.3492 19.9689 55.1492C20.2689 55.0492 20.5189 54.8492 20.7189 54.5992C20.9189 54.3492 21.0689 54.0492 21.1689 53.7492C21.2689 53.3992 21.3189 53.0992 21.3189 52.7492C21.3189 52.3992 21.3189 52.0992 21.3189 51.7492C21.2689 51.0492 21.1189 50.3992 20.9189 49.7492C20.7189 49.0992 20.5189 48.4492 20.2189 47.7992C20.1689 47.6492 20.0689 47.4992 19.9689 47.3492C19.8689 47.1992 19.8189 47.0492 19.7189 46.9492L19.5689 46.7492L19.4689 46.6492C19.4189 46.5992 19.4189 46.5992 19.3689 46.5492C19.2689 46.4492 19.1689 46.2992 19.0189 46.1492C18.5689 45.6492 18.0189 45.2492 17.4189 44.9492C16.8189 44.6492 16.1689 44.3992 15.5189 44.1992C14.8689 43.9992 14.2189 43.8992 13.5189 43.8492C13.3689 43.8492 13.1689 43.7992 13.0189 43.7992L12.5189 43.7492C12.3689 43.7492 12.1689 43.7492 12.0189 43.7492H11.5189C11.1689 43.7492 10.8689 43.7492 10.5189 43.7992C10.3689 43.7992 10.1689 43.8492 10.0189 43.8492L9.51894 43.9492L9.01894 44.0492C8.86894 44.0992 8.66894 44.0992 8.51894 44.1492C8.16894 44.2492 7.86894 44.3492 7.51894 44.4492C7.36894 44.4992 7.16894 44.5492 7.01894 44.5992L6.56894 44.7992L6.31894 44.8992L6.06894 44.9992L5.61894 45.1992L5.16894 45.4492C5.01894 45.5492 4.86894 45.5992 4.71894 45.6992C4.41894 45.8992 4.11894 46.0492 3.81894 46.1992C2.66894 46.8992 1.51894 47.6992 0.418938 48.5492C-0.131062 49.2992 -0.181063 49.1492 0.518937 48.6492Z" fill="#41454C"/>
<path d="M39.1688 37L76.4188 20.9L80.2188 18L25.7188 35.45L39.1688 37Z" fill="#FF519A"/>
</svg>
