<svg width="26" height="26" viewBox="0 0 26 26" fill="none" xmlns="http://www.w3.org/2000/svg">
<path d="M9.20898 13.543L16.7923 13.543" stroke="black" stroke-linecap="round"/>
<path d="M9.20898 16.793L13.5423 16.793" stroke="black" stroke-linecap="round"/>
<path d="M5.95898 6.19297C5.95898 5.35289 5.95898 4.93285 6.12247 4.61198C6.26628 4.32974 6.49576 4.10027 6.778 3.95646C7.09887 3.79297 7.51891 3.79297 8.35898 3.79297H13.6315C13.9984 3.79297 14.1819 3.79297 14.3545 3.83441C14.5076 3.87116 14.6539 3.93177 14.7881 4.01401C14.9395 4.10677 15.0692 4.23649 15.3286 4.49591L19.3394 8.50669C19.5988 8.76612 19.7285 8.89583 19.8213 9.04721C19.9035 9.18142 19.9641 9.32773 20.0009 9.48079C20.0423 9.65342 20.0423 9.83686 20.0423 10.2037V19.8096C20.0423 20.6497 20.0423 21.0698 19.8788 21.3906C19.735 21.6729 19.5055 21.9023 19.2233 22.0461C18.9024 22.2096 18.4824 22.2096 17.6423 22.2096H8.35898C7.51891 22.2096 7.09887 22.2096 6.778 22.0461C6.49576 21.9023 6.26628 21.6729 6.12247 21.3906C5.95898 21.0698 5.95898 20.6497 5.95898 19.8096V6.19297Z" stroke="black"/>
<path d="M13.541 3.79297V7.89297C13.541 8.73305 13.541 9.15309 13.7045 9.47395C13.8483 9.7562 14.0778 9.98567 14.36 10.1295C14.6809 10.293 15.1009 10.293 15.941 10.293H20.041" stroke="black"/>
<circle cx="17.5" cy="6.5" r="6.5" fill="white"/>
<g clip-path="url(#clip0_6805_18402)">
<path d="M17.5007 11.9154C20.4925 11.9154 22.9173 9.49056 22.9173 6.4987C22.9173 3.50684 20.4925 1.08203 17.5007 1.08203C14.5088 1.08203 12.084 3.50684 12.084 6.4987C12.084 9.49056 14.5088 11.9154 17.5007 11.9154ZM19.8916 5.50423L17.1833 8.21256C16.9844 8.41146 16.6628 8.41146 16.466 8.21256L15.1118 6.8584C14.9129 6.6595 14.9129 6.33789 15.1118 6.14111C15.3107 5.94434 15.6323 5.94222 15.8291 6.14111L16.8236 7.13558L19.1722 4.78483C19.3711 4.58594 19.6927 4.58594 19.8895 4.78483C20.0863 4.98372 20.0884 5.30534 19.8895 5.50212L19.8916 5.50423Z" fill="#00B000"/>
</g>
<defs>
<clipPath id="clip0_6805_18402">
<rect width="10.8333" height="10.8333" fill="white" transform="translate(12.084 1.08203)"/>
</clipPath>
</defs>
</svg>
