<svg width="26" height="26" viewBox="0 0 26 26" fill="none" xmlns="http://www.w3.org/2000/svg">
<path d="M9.20898 13.543L16.7923 13.543" stroke="black" stroke-linecap="round"/>
<path d="M9.20898 16.793L13.5423 16.793" stroke="black" stroke-linecap="round"/>
<path d="M5.95898 6.19297C5.95898 5.35289 5.95898 4.93285 6.12247 4.61198C6.26628 4.32974 6.49576 4.10027 6.778 3.95646C7.09887 3.79297 7.51891 3.79297 8.35898 3.79297H13.6315C13.9984 3.79297 14.1819 3.79297 14.3545 3.83441C14.5076 3.87116 14.6539 3.93177 14.7881 4.01401C14.9395 4.10677 15.0692 4.23649 15.3286 4.49591L19.3394 8.50669C19.5988 8.76612 19.7285 8.89583 19.8213 9.04721C19.9035 9.18142 19.9641 9.32773 20.0009 9.48079C20.0423 9.65342 20.0423 9.83686 20.0423 10.2037V19.8096C20.0423 20.6497 20.0423 21.0698 19.8788 21.3906C19.735 21.6729 19.5055 21.9023 19.2233 22.0461C18.9024 22.2096 18.4824 22.2096 17.6423 22.2096H8.35898C7.51891 22.2096 7.09887 22.2096 6.778 22.0461C6.49576 21.9023 6.26628 21.6729 6.12247 21.3906C5.95898 21.0698 5.95898 20.6497 5.95898 19.8096V6.19297Z" stroke="black"/>
<path d="M13.541 3.79297V7.89297C13.541 8.73305 13.541 9.15309 13.7045 9.47395C13.8483 9.7562 14.0778 9.98567 14.36 10.1295C14.6809 10.293 15.1009 10.293 15.941 10.293H20.041" stroke="black"/>
<circle cx="17.5" cy="6.5" r="6.5" fill="white"/>
<g clip-path="url(#clip0_6805_18401)">
<path d="M17.415 11.83C20.4059 11.83 22.83 9.40594 22.83 6.415C22.83 3.42406 20.4059 1 17.415 1C14.4241 1 12 3.42406 12 6.415C12 9.40594 14.4241 11.83 17.415 11.83ZM15.7017 4.70166C15.9005 4.50283 16.222 4.50283 16.4187 4.70166L17.4129 5.69582L18.407 4.70166C18.6059 4.50283 18.9274 4.50283 19.1241 4.70166C19.3208 4.90049 19.3229 5.22201 19.1241 5.41872L18.1299 6.41288L19.1241 7.40704C19.3229 7.60588 19.3229 7.92739 19.1241 8.12411C18.9253 8.32083 18.6038 8.32294 18.407 8.12411L17.4129 7.12995L16.4187 8.12411C16.2199 8.32294 15.8984 8.32294 15.7017 8.12411C15.5049 7.92528 15.5028 7.60376 15.7017 7.40704L16.6958 6.41288L15.7017 5.41872C15.5028 5.21989 15.5028 4.89838 15.7017 4.70166Z" fill="#A8A8A8"/>
</g>
<defs>
<clipPath id="clip0_6805_18401">
<rect width="10.83" height="10.83" fill="white" transform="translate(12 1)"/>
</clipPath>
</defs>
</svg>
