<svg width="11" height="14" viewBox="0 0 11 14" fill="none" xmlns="http://www.w3.org/2000/svg">
<path d="M10.0938 11.7879H0.90625C0.543945 11.7879 0.25 12.0821 0.25 12.4447C0.25 12.8297 0.543945 13.125 0.90625 13.125H10.0938C10.4561 13.125 10.75 12.8308 10.75 12.4682C10.75 12.1051 10.4574 11.7879 10.0938 11.7879ZM8.52148 5.6793L6.15625 8.19492V1.53398C6.15625 1.16922 5.86367 0.875 5.5 0.875C5.13633 0.875 4.84375 1.16922 4.84375 1.5318V8.19273L2.4777 5.6793C2.34863 5.53984 2.17445 5.47148 2 5.47148C1.83851 5.47148 1.67707 5.53049 1.55047 5.6502C1.28644 5.89818 1.27375 6.31384 1.52228 6.57798L5.02228 10.2995C5.27007 10.5645 5.72993 10.5645 5.97767 10.2995L9.47767 6.57798C9.72633 6.31375 9.71351 5.89821 9.44948 5.6502C9.18594 5.40039 8.77031 5.38945 8.52148 5.6793Z" fill="white"/>
</svg>
