<svg width="322" height="125" viewBox="0 0 322 125" fill="none" xmlns="http://www.w3.org/2000/svg">
<path d="M49.7891 66.5V55.9312H51.1074V66.5H49.7891ZM57.8604 66.5V58.6045H59.1348V59.791H59.252C59.4521 59.3711 59.7402 59.0464 60.1162 58.8169C60.4922 58.5825 60.9707 58.4653 61.5518 58.4653C62.4404 58.4653 63.1216 58.7192 63.5952 59.2271C64.0737 59.73 64.313 60.4502 64.313 61.3877V66.5H63.0386V61.6953C63.0386 60.9824 62.8872 60.4551 62.5845 60.1133C62.2866 59.7666 61.8228 59.5933 61.1929 59.5933C60.7729 59.5933 60.4092 59.6836 60.1016 59.8643C59.7939 60.0449 59.5547 60.3013 59.3838 60.6333C59.2178 60.9653 59.1348 61.3633 59.1348 61.8271V66.5H57.8604ZM69.8428 66.6392C69.0908 66.6392 68.4438 66.4731 67.9019 66.1411C67.3647 65.8091 66.9497 65.3403 66.6567 64.7349C66.3687 64.1245 66.2246 63.4067 66.2246 62.5815V62.5742C66.2246 61.7588 66.3687 61.0435 66.6567 60.4282C66.9497 59.813 67.3623 59.332 67.8945 58.9854C68.4268 58.6387 69.0493 58.4653 69.7622 58.4653C70.48 58.4653 71.0952 58.6313 71.6079 58.9634C72.1255 59.2954 72.521 59.7593 72.7944 60.355C73.0728 60.9458 73.2119 61.6343 73.2119 62.4204V62.9185H66.8838V61.9004H72.5601L71.9302 62.8306V62.3252C71.9302 61.7051 71.8374 61.1948 71.6519 60.7944C71.4663 60.394 71.21 60.0962 70.8828 59.9009C70.5557 59.7007 70.1797 59.6006 69.7549 59.6006C69.3301 59.6006 68.9492 59.7056 68.6123 59.9155C68.2803 60.1206 68.0166 60.4258 67.8213 60.8311C67.626 61.2363 67.5283 61.7344 67.5283 62.3252V62.8306C67.5283 63.3921 67.6235 63.873 67.814 64.2734C68.0044 64.6689 68.2754 64.9741 68.627 65.189C68.9785 65.3989 69.3936 65.5039 69.8721 65.5039C70.2285 65.5039 70.5386 65.4551 70.8022 65.3574C71.0659 65.2598 71.2832 65.1353 71.4541 64.9839C71.625 64.8325 71.7446 64.6787 71.813 64.5225L71.8423 64.4565H73.1167L73.1021 64.5151C73.0337 64.7837 72.9116 65.0449 72.7358 65.2988C72.5649 65.5479 72.3428 65.7749 72.0693 65.98C71.7959 66.1802 71.4712 66.3413 71.0952 66.4634C70.7241 66.5806 70.3066 66.6392 69.8428 66.6392ZM77.2769 66.5L74.3545 58.6045H75.7021L77.8628 65.1084H77.98L80.1406 58.6045H81.4883L78.5659 66.5H77.2769ZM86.1025 66.6392C85.3506 66.6392 84.7036 66.4731 84.1616 66.1411C83.6245 65.8091 83.2095 65.3403 82.9165 64.7349C82.6284 64.1245 82.4844 63.4067 82.4844 62.5815V62.5742C82.4844 61.7588 82.6284 61.0435 82.9165 60.4282C83.2095 59.813 83.6221 59.332 84.1543 58.9854C84.6865 58.6387 85.3091 58.4653 86.022 58.4653C86.7397 58.4653 87.355 58.6313 87.8677 58.9634C88.3853 59.2954 88.7808 59.7593 89.0542 60.355C89.3325 60.9458 89.4717 61.6343 89.4717 62.4204V62.9185H83.1436V61.9004H88.8198L88.1899 62.8306V62.3252C88.1899 61.7051 88.0972 61.1948 87.9116 60.7944C87.7261 60.394 87.4697 60.0962 87.1426 59.9009C86.8154 59.7007 86.4395 59.6006 86.0146 59.6006C85.5898 59.6006 85.209 59.7056 84.8721 59.9155C84.54 60.1206 84.2764 60.4258 84.0811 60.8311C83.8857 61.2363 83.7881 61.7344 83.7881 62.3252V62.8306C83.7881 63.3921 83.8833 63.873 84.0737 64.2734C84.2642 64.6689 84.5352 64.9741 84.8867 65.189C85.2383 65.3989 85.6533 65.5039 86.1318 65.5039C86.4883 65.5039 86.7983 65.4551 87.062 65.3574C87.3257 65.2598 87.543 65.1353 87.7139 64.9839C87.8848 64.8325 88.0044 64.6787 88.0728 64.5225L88.1021 64.4565H89.3765L89.3618 64.5151C89.2935 64.7837 89.1714 65.0449 88.9956 65.2988C88.8247 65.5479 88.6025 65.7749 88.3291 65.98C88.0557 66.1802 87.731 66.3413 87.355 66.4634C86.9839 66.5806 86.5664 66.6392 86.1025 66.6392ZM91.4492 66.5V58.6045H92.7236V59.7764H92.8408C92.9922 59.3613 93.2485 59.0391 93.6099 58.8096C93.9712 58.5801 94.418 58.4653 94.9502 58.4653C95.0723 58.4653 95.1919 58.4727 95.3091 58.4873C95.4312 58.4971 95.5239 58.5068 95.5874 58.5166V59.7544C95.4556 59.73 95.3262 59.7129 95.1992 59.7031C95.0771 59.6885 94.9453 59.6812 94.8037 59.6812C94.3984 59.6812 94.0396 59.7617 93.7271 59.9229C93.4146 60.084 93.168 60.3086 92.9873 60.5967C92.8115 60.8848 92.7236 61.2217 92.7236 61.6074V66.5H91.4492ZM104.296 66.6392C103.632 66.6392 103.051 66.4707 102.553 66.1338C102.055 65.7969 101.669 65.3232 101.396 64.7129C101.122 64.0977 100.985 63.3799 100.985 62.5596V62.5449C100.985 61.7197 101.122 61.002 101.396 60.3916C101.669 59.7812 102.052 59.3076 102.545 58.9707C103.043 58.6338 103.627 58.4653 104.296 58.4653C104.657 58.4653 104.997 58.5239 105.314 58.6411C105.636 58.7534 105.922 58.9121 106.171 59.1172C106.42 59.3223 106.615 59.5664 106.757 59.8496H106.874V55.4697H108.148V66.5H106.874V65.2402H106.757C106.596 65.5332 106.393 65.7847 106.149 65.9946C105.905 66.1997 105.626 66.3584 105.314 66.4707C105.001 66.583 104.662 66.6392 104.296 66.6392ZM104.589 65.5112C105.067 65.5112 105.48 65.3916 105.827 65.1523C106.173 64.9131 106.439 64.5737 106.625 64.1343C106.811 63.6899 106.903 63.165 106.903 62.5596V62.5449C106.903 61.9346 106.811 61.4097 106.625 60.9702C106.439 60.5308 106.173 60.1914 105.827 59.9521C105.48 59.7129 105.067 59.5933 104.589 59.5933C104.11 59.5933 103.698 59.7129 103.351 59.9521C103.009 60.1865 102.746 60.5234 102.56 60.9629C102.379 61.4023 102.289 61.9297 102.289 62.5449V62.5596C102.289 63.1699 102.379 63.6973 102.56 64.1416C102.746 64.5811 103.009 64.9204 103.351 65.1597C103.698 65.394 104.11 65.5112 104.589 65.5112ZM110.595 66.5V58.6045H111.869V59.7764H111.986C112.138 59.3613 112.394 59.0391 112.755 58.8096C113.117 58.5801 113.563 58.4653 114.096 58.4653C114.218 58.4653 114.337 58.4727 114.455 58.4873C114.577 58.4971 114.669 58.5068 114.733 58.5166V59.7544C114.601 59.73 114.472 59.7129 114.345 59.7031C114.223 59.6885 114.091 59.6812 113.949 59.6812C113.544 59.6812 113.185 59.7617 112.873 59.9229C112.56 60.084 112.313 60.3086 112.133 60.5967C111.957 60.8848 111.869 61.2217 111.869 61.6074V66.5H110.595ZM119.311 66.6392C118.559 66.6392 117.912 66.4731 117.37 66.1411C116.833 65.8091 116.417 65.3403 116.125 64.7349C115.836 64.1245 115.692 63.4067 115.692 62.5815V62.5742C115.692 61.7588 115.836 61.0435 116.125 60.4282C116.417 59.813 116.83 59.332 117.362 58.9854C117.895 58.6387 118.517 58.4653 119.23 58.4653C119.948 58.4653 120.563 58.6313 121.076 58.9634C121.593 59.2954 121.989 59.7593 122.262 60.355C122.541 60.9458 122.68 61.6343 122.68 62.4204V62.9185H116.352V61.9004H122.028L121.398 62.8306V62.3252C121.398 61.7051 121.305 61.1948 121.12 60.7944C120.934 60.394 120.678 60.0962 120.351 59.9009C120.023 59.7007 119.647 59.6006 119.223 59.6006C118.798 59.6006 118.417 59.7056 118.08 59.9155C117.748 60.1206 117.484 60.4258 117.289 60.8311C117.094 61.2363 116.996 61.7344 116.996 62.3252V62.8306C116.996 63.3921 117.091 63.873 117.282 64.2734C117.472 64.6689 117.743 64.9741 118.095 65.189C118.446 65.3989 118.861 65.5039 119.34 65.5039C119.696 65.5039 120.006 65.4551 120.27 65.3574C120.534 65.2598 120.751 65.1353 120.922 64.9839C121.093 64.8325 121.212 64.6787 121.281 64.5225L121.31 64.4565H122.584L122.57 64.5151C122.501 64.7837 122.379 65.0449 122.204 65.2988C122.033 65.5479 121.811 65.7749 121.537 65.98C121.264 66.1802 120.939 66.3413 120.563 66.4634C120.192 66.5806 119.774 66.6392 119.311 66.6392ZM126.825 66.6392C126.327 66.6392 125.878 66.5439 125.478 66.3535C125.082 66.1631 124.767 65.8921 124.533 65.5405C124.303 65.189 124.188 64.7739 124.188 64.2954V64.2808C124.188 63.812 124.301 63.4116 124.525 63.0796C124.75 62.7427 125.077 62.479 125.507 62.2886C125.937 62.0981 126.457 61.9858 127.067 61.9517L129.967 61.7759V62.7939L127.221 62.9697C126.62 63.0039 126.181 63.1284 125.902 63.3433C125.629 63.5581 125.492 63.8608 125.492 64.2515V64.2661C125.492 64.6665 125.644 64.979 125.946 65.2036C126.249 65.4233 126.63 65.5332 127.089 65.5332C127.523 65.5332 127.909 65.4478 128.246 65.2769C128.583 65.1011 128.847 64.8643 129.037 64.5664C129.232 64.2686 129.33 63.9316 129.33 63.5557V61.0947C129.33 60.6064 129.181 60.2354 128.883 59.9814C128.59 59.7227 128.148 59.5933 127.558 59.5933C127.084 59.5933 126.696 59.6787 126.393 59.8496C126.09 60.0156 125.888 60.2524 125.785 60.5601L125.778 60.582H124.503L124.511 60.5381C124.579 60.123 124.75 59.7617 125.023 59.4541C125.302 59.1416 125.661 58.8999 126.1 58.729C126.54 58.5532 127.04 58.4653 127.602 58.4653C128.246 58.4653 128.791 58.5703 129.235 58.7803C129.684 58.9902 130.023 59.293 130.253 59.6885C130.487 60.0791 130.604 60.5479 130.604 61.0947V66.5H129.33V65.3354H129.213C129.047 65.6138 128.844 65.8506 128.605 66.0459C128.371 66.2412 128.104 66.3901 127.807 66.4927C127.509 66.5903 127.182 66.6392 126.825 66.6392ZM132.934 66.5V58.6045H134.208V59.8057H134.325C134.501 59.3809 134.77 59.0513 135.131 58.8169C135.497 58.5825 135.939 58.4653 136.457 58.4653C136.813 58.4653 137.133 58.5239 137.416 58.6411C137.699 58.7583 137.943 58.9219 138.148 59.1318C138.354 59.3369 138.517 59.5762 138.639 59.8496H138.756C138.898 59.5713 139.088 59.3296 139.328 59.1245C139.567 58.9146 139.843 58.7534 140.155 58.6411C140.473 58.5239 140.812 58.4653 141.173 58.4653C141.71 58.4653 142.165 58.5654 142.536 58.7656C142.912 58.9658 143.197 59.2588 143.393 59.6445C143.588 60.0254 143.686 60.4917 143.686 61.0435V66.5H142.411V61.3364C142.411 60.9458 142.35 60.6235 142.228 60.3696C142.111 60.1108 141.93 59.918 141.686 59.791C141.442 59.6592 141.134 59.5933 140.763 59.5933C140.397 59.5933 140.077 59.6763 139.804 59.8423C139.53 60.0083 139.318 60.2305 139.167 60.5088C139.015 60.7822 138.939 61.0874 138.939 61.4243V66.5H137.665V61.1387C137.665 60.8262 137.597 60.5552 137.46 60.3257C137.328 60.0913 137.138 59.9106 136.889 59.7837C136.645 59.6567 136.356 59.5933 136.024 59.5933C135.683 59.5933 135.373 59.6836 135.094 59.8643C134.821 60.0449 134.604 60.2891 134.442 60.5967C134.286 60.8994 134.208 61.2363 134.208 61.6074V66.5H132.934ZM149.208 66.6392C148.456 66.6392 147.809 66.4731 147.267 66.1411C146.73 65.8091 146.315 65.3403 146.022 64.7349C145.734 64.1245 145.59 63.4067 145.59 62.5815V62.5742C145.59 61.7588 145.734 61.0435 146.022 60.4282C146.315 59.813 146.728 59.332 147.26 58.9854C147.792 58.6387 148.415 58.4653 149.127 58.4653C149.845 58.4653 150.46 58.6313 150.973 58.9634C151.491 59.2954 151.886 59.7593 152.16 60.355C152.438 60.9458 152.577 61.6343 152.577 62.4204V62.9185H146.249V61.9004H151.925L151.295 62.8306V62.3252C151.295 61.7051 151.203 61.1948 151.017 60.7944C150.832 60.394 150.575 60.0962 150.248 59.9009C149.921 59.7007 149.545 59.6006 149.12 59.6006C148.695 59.6006 148.314 59.7056 147.978 59.9155C147.646 60.1206 147.382 60.4258 147.187 60.8311C146.991 61.2363 146.894 61.7344 146.894 62.3252V62.8306C146.894 63.3921 146.989 63.873 147.179 64.2734C147.37 64.6689 147.641 64.9741 147.992 65.189C148.344 65.3989 148.759 65.5039 149.237 65.5039C149.594 65.5039 149.904 65.4551 150.167 65.3574C150.431 65.2598 150.648 65.1353 150.819 64.9839C150.99 64.8325 151.11 64.6787 151.178 64.5225L151.208 64.4565H152.482L152.467 64.5151C152.399 64.7837 152.277 65.0449 152.101 65.2988C151.93 65.5479 151.708 65.7749 151.435 65.98C151.161 66.1802 150.836 66.3413 150.46 66.4634C150.089 66.5806 149.672 66.6392 149.208 66.6392ZM157.47 66.6392C156.806 66.6392 156.225 66.4707 155.727 66.1338C155.229 65.7969 154.843 65.3232 154.569 64.7129C154.296 64.0977 154.159 63.3799 154.159 62.5596V62.5449C154.159 61.7197 154.296 61.002 154.569 60.3916C154.843 59.7812 155.226 59.3076 155.719 58.9707C156.217 58.6338 156.801 58.4653 157.47 58.4653C157.831 58.4653 158.17 58.5239 158.488 58.6411C158.81 58.7534 159.096 58.9121 159.345 59.1172C159.594 59.3223 159.789 59.5664 159.931 59.8496H160.048V55.4697H161.322V66.5H160.048V65.2402H159.931C159.77 65.5332 159.567 65.7847 159.323 65.9946C159.079 66.1997 158.8 66.3584 158.488 66.4707C158.175 66.583 157.836 66.6392 157.47 66.6392ZM157.763 65.5112C158.241 65.5112 158.654 65.3916 159 65.1523C159.347 64.9131 159.613 64.5737 159.799 64.1343C159.984 63.6899 160.077 63.165 160.077 62.5596V62.5449C160.077 61.9346 159.984 61.4097 159.799 60.9702C159.613 60.5308 159.347 60.1914 159 59.9521C158.654 59.7129 158.241 59.5933 157.763 59.5933C157.284 59.5933 156.872 59.7129 156.525 59.9521C156.183 60.1865 155.919 60.5234 155.734 60.9629C155.553 61.4023 155.463 61.9297 155.463 62.5449V62.5596C155.463 63.1699 155.553 63.6973 155.734 64.1416C155.919 64.5811 156.183 64.9204 156.525 65.1597C156.872 65.394 157.284 65.5112 157.763 65.5112ZM170.155 66.6392C169.657 66.6392 169.208 66.5439 168.808 66.3535C168.412 66.1631 168.097 65.8921 167.863 65.5405C167.633 65.189 167.519 64.7739 167.519 64.2954V64.2808C167.519 63.812 167.631 63.4116 167.855 63.0796C168.08 62.7427 168.407 62.479 168.837 62.2886C169.267 62.0981 169.787 61.9858 170.397 61.9517L173.297 61.7759V62.7939L170.551 62.9697C169.95 63.0039 169.511 63.1284 169.232 63.3433C168.959 63.5581 168.822 63.8608 168.822 64.2515V64.2661C168.822 64.6665 168.974 64.979 169.276 65.2036C169.579 65.4233 169.96 65.5332 170.419 65.5332C170.854 65.5332 171.239 65.4478 171.576 65.2769C171.913 65.1011 172.177 64.8643 172.367 64.5664C172.562 64.2686 172.66 63.9316 172.66 63.5557V61.0947C172.66 60.6064 172.511 60.2354 172.213 59.9814C171.92 59.7227 171.479 59.5933 170.888 59.5933C170.414 59.5933 170.026 59.6787 169.723 59.8496C169.42 60.0156 169.218 60.2524 169.115 60.5601L169.108 60.582H167.833L167.841 60.5381C167.909 60.123 168.08 59.7617 168.354 59.4541C168.632 59.1416 168.991 58.8999 169.43 58.729C169.87 58.5532 170.37 58.4653 170.932 58.4653C171.576 58.4653 172.121 58.5703 172.565 58.7803C173.014 58.9902 173.354 59.293 173.583 59.6885C173.817 60.0791 173.935 60.5479 173.935 61.0947V66.5H172.66V65.3354H172.543C172.377 65.6138 172.174 65.8506 171.935 66.0459C171.701 66.2412 171.435 66.3901 171.137 66.4927C170.839 66.5903 170.512 66.6392 170.155 66.6392ZM180.189 66.6392C179.823 66.6392 179.484 66.583 179.171 66.4707C178.859 66.3584 178.581 66.1997 178.336 65.9946C178.092 65.7847 177.89 65.5332 177.729 65.2402H177.611V66.5H176.337V55.4697H177.611V59.8496H177.729C177.875 59.5664 178.07 59.3223 178.314 59.1172C178.563 58.9121 178.847 58.7534 179.164 58.6411C179.486 58.5239 179.828 58.4653 180.189 58.4653C180.858 58.4653 181.439 58.6338 181.933 58.9707C182.431 59.3076 182.816 59.7812 183.09 60.3916C183.363 61.002 183.5 61.7197 183.5 62.5449V62.5596C183.5 63.3799 183.363 64.0977 183.09 64.7129C182.816 65.3232 182.431 65.7969 181.933 66.1338C181.439 66.4707 180.858 66.6392 180.189 66.6392ZM179.896 65.5112C180.38 65.5112 180.792 65.394 181.134 65.1597C181.476 64.9204 181.737 64.5811 181.918 64.1416C182.104 63.6973 182.196 63.1699 182.196 62.5596V62.5449C182.196 61.9297 182.104 61.4023 181.918 60.9629C181.737 60.5234 181.476 60.1865 181.134 59.9521C180.792 59.7129 180.38 59.5933 179.896 59.5933C179.418 59.5933 179.005 59.7129 178.659 59.9521C178.312 60.1914 178.046 60.5308 177.86 60.9702C177.675 61.4097 177.582 61.9346 177.582 62.5449V62.5596C177.582 63.165 177.675 63.6899 177.86 64.1343C178.046 64.5737 178.312 64.9131 178.659 65.1523C179.005 65.3916 179.418 65.5112 179.896 65.5112ZM188.722 66.6392C187.975 66.6392 187.328 66.4756 186.781 66.1484C186.239 65.8164 185.819 65.3452 185.521 64.7349C185.229 64.1245 185.082 63.3994 185.082 62.5596V62.5449C185.082 61.7002 185.229 60.9727 185.521 60.3623C185.819 59.752 186.239 59.2832 186.781 58.9561C187.328 58.6289 187.975 58.4653 188.722 58.4653C189.474 58.4653 190.121 58.6289 190.663 58.9561C191.205 59.2832 191.623 59.752 191.916 60.3623C192.213 60.9727 192.362 61.7002 192.362 62.5449V62.5596C192.362 63.3994 192.213 64.1245 191.916 64.7349C191.623 65.3452 191.205 65.8164 190.663 66.1484C190.121 66.4756 189.474 66.6392 188.722 66.6392ZM188.722 65.5112C189.22 65.5112 189.643 65.394 189.989 65.1597C190.336 64.9253 190.6 64.5884 190.78 64.1489C190.966 63.7095 191.059 63.1797 191.059 62.5596V62.5449C191.059 61.9199 190.966 61.3877 190.78 60.9482C190.6 60.5088 190.336 60.1743 189.989 59.9448C189.643 59.7104 189.22 59.5933 188.722 59.5933C188.224 59.5933 187.802 59.7104 187.455 59.9448C187.108 60.1743 186.842 60.5088 186.657 60.9482C186.476 61.3877 186.386 61.9199 186.386 62.5449V62.5596C186.386 63.1797 186.476 63.7095 186.657 64.1489C186.842 64.5884 187.108 64.9253 187.455 65.1597C187.802 65.394 188.224 65.5112 188.722 65.5112ZM196.984 66.6392C196.388 66.6392 195.888 66.5269 195.482 66.3022C195.077 66.0728 194.772 65.7407 194.567 65.3062C194.367 64.8667 194.267 64.3369 194.267 63.7168V58.6045H195.541V63.4092C195.541 64.1172 195.678 64.6445 195.951 64.9912C196.229 65.3379 196.684 65.5112 197.313 65.5112C197.66 65.5112 197.965 65.46 198.229 65.3574C198.498 65.2549 198.722 65.1084 198.903 64.918C199.083 64.7227 199.218 64.4883 199.306 64.2148C199.398 63.9365 199.445 63.624 199.445 63.2773V58.6045H200.719V66.5H199.445V65.3208H199.328C199.201 65.5991 199.027 65.8384 198.808 66.0386C198.588 66.2339 198.324 66.3828 198.017 66.4854C197.714 66.5879 197.37 66.6392 196.984 66.6392ZM205.905 66.5586C205.094 66.5586 204.506 66.395 204.14 66.0679C203.778 65.7407 203.598 65.2012 203.598 64.4492V59.6592H202.353V58.6045H203.598V56.561H204.916V58.6045H206.645V59.6592H204.916V64.127C204.916 64.5908 205.004 64.9253 205.18 65.1304C205.355 65.3306 205.648 65.4307 206.059 65.4307C206.171 65.4307 206.266 65.4282 206.344 65.4233C206.427 65.4185 206.527 65.4111 206.645 65.4014V66.4854C206.522 66.5049 206.4 66.522 206.278 66.5366C206.156 66.5513 206.032 66.5586 205.905 66.5586ZM215.478 66.6392C214.892 66.6392 214.374 66.5513 213.925 66.3755C213.476 66.1948 213.114 65.9434 212.841 65.6211C212.572 65.2988 212.414 64.9204 212.365 64.4858H213.668C213.776 64.813 213.986 65.0767 214.298 65.2769C214.611 65.4771 215.019 65.5771 215.521 65.5771C215.878 65.5771 216.19 65.5259 216.459 65.4233C216.732 65.3159 216.947 65.1719 217.104 64.9912C217.26 64.8057 217.338 64.5933 217.338 64.354V64.3394C217.338 64.0708 217.23 63.8438 217.016 63.6582C216.801 63.4678 216.449 63.314 215.961 63.1968L214.738 62.9038C214.245 62.7866 213.839 62.6353 213.522 62.4497C213.205 62.2593 212.97 62.0273 212.819 61.7539C212.667 61.4756 212.592 61.1484 212.592 60.7725V60.7651C212.592 60.3257 212.719 59.9326 212.973 59.5859C213.231 59.2393 213.583 58.9658 214.027 58.7656C214.472 58.5654 214.972 58.4653 215.529 58.4653C216.081 58.4653 216.569 58.5532 216.994 58.729C217.423 58.8999 217.768 59.144 218.026 59.4614C218.29 59.7788 218.451 60.1523 218.51 60.582H217.257C217.174 60.2695 216.984 60.0156 216.686 59.8203C216.388 59.625 216 59.5273 215.521 59.5273C215.209 59.5273 214.931 59.5786 214.687 59.6812C214.442 59.7788 214.25 59.9155 214.108 60.0913C213.966 60.2671 213.896 60.4722 213.896 60.7065V60.7212C213.896 60.897 213.942 61.0532 214.035 61.1899C214.127 61.3267 214.271 61.4463 214.467 61.5488C214.662 61.6514 214.914 61.7417 215.221 61.8198L216.437 62.1128C217.179 62.2935 217.731 62.5522 218.092 62.8892C218.458 63.2261 218.642 63.6777 218.642 64.2441V64.2588C218.642 64.7275 218.502 65.1426 218.224 65.5039C217.946 65.8604 217.567 66.1387 217.089 66.3389C216.615 66.5391 216.078 66.6392 215.478 66.6392ZM223.263 66.6392C222.667 66.6392 222.167 66.5269 221.762 66.3022C221.356 66.0728 221.051 65.7407 220.846 65.3062C220.646 64.8667 220.546 64.3369 220.546 63.7168V58.6045H221.82V63.4092C221.82 64.1172 221.957 64.6445 222.23 64.9912C222.509 65.3379 222.963 65.5112 223.593 65.5112C223.939 65.5112 224.245 65.46 224.508 65.3574C224.777 65.2549 225.001 65.1084 225.182 64.918C225.363 64.7227 225.497 64.4883 225.585 64.2148C225.678 63.9365 225.724 63.624 225.724 63.2773V58.6045H226.999V66.5H225.724V65.3208H225.607C225.48 65.5991 225.307 65.8384 225.087 66.0386C224.867 66.2339 224.604 66.3828 224.296 66.4854C223.993 66.5879 223.649 66.6392 223.263 66.6392ZM232.609 66.6392C231.872 66.6392 231.232 66.4707 230.69 66.1338C230.148 65.7969 229.728 65.3208 229.43 64.7056C229.132 64.0903 228.983 63.3652 228.983 62.5303V62.5156C228.983 61.6953 229.13 60.9824 229.423 60.377C229.721 59.7715 230.141 59.3027 230.683 58.9707C231.225 58.6338 231.864 58.4653 232.602 58.4653C233.241 58.4653 233.793 58.5776 234.257 58.8022C234.721 59.0269 235.092 59.3296 235.37 59.7104C235.648 60.0864 235.827 60.5088 235.905 60.9775L235.912 61.0215H234.645L234.638 60.9995C234.54 60.6089 234.318 60.2769 233.971 60.0034C233.625 59.73 233.168 59.5933 232.602 59.5933C232.128 59.5933 231.718 59.7129 231.371 59.9521C231.024 60.1914 230.756 60.5308 230.565 60.9702C230.38 61.4048 230.287 61.9199 230.287 62.5156V62.5303C230.287 63.1357 230.382 63.6631 230.573 64.1123C230.763 64.5566 231.032 64.9009 231.378 65.145C231.725 65.3892 232.133 65.5112 232.602 65.5112C233.134 65.5112 233.568 65.3965 233.905 65.167C234.242 64.9375 234.484 64.603 234.63 64.1636L234.645 64.1196L235.905 64.1123L235.89 64.1929C235.783 64.6665 235.592 65.0889 235.319 65.46C235.045 65.8262 234.684 66.1143 234.235 66.3242C233.786 66.5342 233.244 66.6392 232.609 66.6392ZM241.002 66.6392C240.265 66.6392 239.625 66.4707 239.083 66.1338C238.542 65.7969 238.122 65.3208 237.824 64.7056C237.526 64.0903 237.377 63.3652 237.377 62.5303V62.5156C237.377 61.6953 237.523 60.9824 237.816 60.377C238.114 59.7715 238.534 59.3027 239.076 58.9707C239.618 58.6338 240.258 58.4653 240.995 58.4653C241.635 58.4653 242.187 58.5776 242.65 58.8022C243.114 59.0269 243.485 59.3296 243.764 59.7104C244.042 60.0864 244.22 60.5088 244.298 60.9775L244.306 61.0215H243.039L243.031 60.9995C242.934 60.6089 242.711 60.2769 242.365 60.0034C242.018 59.73 241.562 59.5933 240.995 59.5933C240.521 59.5933 240.111 59.7129 239.765 59.9521C239.418 60.1914 239.149 60.5308 238.959 60.9702C238.773 61.4048 238.681 61.9199 238.681 62.5156V62.5303C238.681 63.1357 238.776 63.6631 238.966 64.1123C239.157 64.5566 239.425 64.9009 239.772 65.145C240.119 65.3892 240.526 65.5112 240.995 65.5112C241.527 65.5112 241.962 65.3965 242.299 65.167C242.636 64.9375 242.877 64.603 243.024 64.1636L243.039 64.1196L244.298 64.1123L244.284 64.1929C244.176 64.6665 243.986 65.0889 243.712 65.46C243.439 65.8262 243.078 66.1143 242.628 66.3242C242.179 66.5342 241.637 66.6392 241.002 66.6392ZM249.389 66.6392C248.637 66.6392 247.99 66.4731 247.448 66.1411C246.911 65.8091 246.496 65.3403 246.203 64.7349C245.915 64.1245 245.771 63.4067 245.771 62.5815V62.5742C245.771 61.7588 245.915 61.0435 246.203 60.4282C246.496 59.813 246.908 59.332 247.44 58.9854C247.973 58.6387 248.595 58.4653 249.308 58.4653C250.026 58.4653 250.641 58.6313 251.154 58.9634C251.671 59.2954 252.067 59.7593 252.34 60.355C252.619 60.9458 252.758 61.6343 252.758 62.4204V62.9185H246.43V61.9004H252.106L251.476 62.8306V62.3252C251.476 61.7051 251.383 61.1948 251.198 60.7944C251.012 60.394 250.756 60.0962 250.429 59.9009C250.102 59.7007 249.726 59.6006 249.301 59.6006C248.876 59.6006 248.495 59.7056 248.158 59.9155C247.826 60.1206 247.562 60.4258 247.367 60.8311C247.172 61.2363 247.074 61.7344 247.074 62.3252V62.8306C247.074 63.3921 247.169 63.873 247.36 64.2734C247.55 64.6689 247.821 64.9741 248.173 65.189C248.524 65.3989 248.939 65.5039 249.418 65.5039C249.774 65.5039 250.084 65.4551 250.348 65.3574C250.612 65.2598 250.829 65.1353 251 64.9839C251.171 64.8325 251.291 64.6787 251.359 64.5225L251.388 64.4565H252.663L252.648 64.5151C252.58 64.7837 252.458 65.0449 252.282 65.2988C252.111 65.5479 251.889 65.7749 251.615 65.98C251.342 66.1802 251.017 66.3413 250.641 66.4634C250.27 66.5806 249.853 66.6392 249.389 66.6392ZM257.445 66.6392C256.859 66.6392 256.342 66.5513 255.893 66.3755C255.443 66.1948 255.082 65.9434 254.809 65.6211C254.54 65.2988 254.381 64.9204 254.333 64.4858H255.636C255.744 64.813 255.954 65.0767 256.266 65.2769C256.579 65.4771 256.986 65.5771 257.489 65.5771C257.846 65.5771 258.158 65.5259 258.427 65.4233C258.7 65.3159 258.915 65.1719 259.071 64.9912C259.228 64.8057 259.306 64.5933 259.306 64.354V64.3394C259.306 64.0708 259.198 63.8438 258.983 63.6582C258.769 63.4678 258.417 63.314 257.929 63.1968L256.706 62.9038C256.212 62.7866 255.807 62.6353 255.49 62.4497C255.172 62.2593 254.938 62.0273 254.787 61.7539C254.635 61.4756 254.56 61.1484 254.56 60.7725V60.7651C254.56 60.3257 254.687 59.9326 254.94 59.5859C255.199 59.2393 255.551 58.9658 255.995 58.7656C256.439 58.5654 256.94 58.4653 257.497 58.4653C258.048 58.4653 258.537 58.5532 258.961 58.729C259.391 58.8999 259.735 59.144 259.994 59.4614C260.258 59.7788 260.419 60.1523 260.478 60.582H259.225C259.142 60.2695 258.952 60.0156 258.654 59.8203C258.356 59.625 257.968 59.5273 257.489 59.5273C257.177 59.5273 256.898 59.5786 256.654 59.6812C256.41 59.7788 256.217 59.9155 256.076 60.0913C255.934 60.2671 255.863 60.4722 255.863 60.7065V60.7212C255.863 60.897 255.91 61.0532 256.002 61.1899C256.095 61.3267 256.239 61.4463 256.435 61.5488C256.63 61.6514 256.881 61.7417 257.189 61.8198L258.405 62.1128C259.147 62.2935 259.699 62.5522 260.06 62.8892C260.426 63.2261 260.609 63.6777 260.609 64.2441V64.2588C260.609 64.7275 260.47 65.1426 260.192 65.5039C259.914 65.8604 259.535 66.1387 259.057 66.3389C258.583 66.5391 258.046 66.6392 257.445 66.6392ZM265.15 66.6392C264.564 66.6392 264.047 66.5513 263.598 66.3755C263.148 66.1948 262.787 65.9434 262.514 65.6211C262.245 65.2988 262.086 64.9204 262.038 64.4858H263.341C263.449 64.813 263.659 65.0767 263.971 65.2769C264.284 65.4771 264.691 65.5771 265.194 65.5771C265.551 65.5771 265.863 65.5259 266.132 65.4233C266.405 65.3159 266.62 65.1719 266.776 64.9912C266.933 64.8057 267.011 64.5933 267.011 64.354V64.3394C267.011 64.0708 266.903 63.8438 266.688 63.6582C266.474 63.4678 266.122 63.314 265.634 63.1968L264.411 62.9038C263.917 62.7866 263.512 62.6353 263.195 62.4497C262.877 62.2593 262.643 62.0273 262.492 61.7539C262.34 61.4756 262.265 61.1484 262.265 60.7725V60.7651C262.265 60.3257 262.392 59.9326 262.646 59.5859C262.904 59.2393 263.256 58.9658 263.7 58.7656C264.145 58.5654 264.645 58.4653 265.202 58.4653C265.753 58.4653 266.242 58.5532 266.667 58.729C267.096 58.8999 267.44 59.144 267.699 59.4614C267.963 59.7788 268.124 60.1523 268.183 60.582H266.93C266.847 60.2695 266.657 60.0156 266.359 59.8203C266.061 59.625 265.673 59.5273 265.194 59.5273C264.882 59.5273 264.604 59.5786 264.359 59.6812C264.115 59.7788 263.922 59.9155 263.781 60.0913C263.639 60.2671 263.568 60.4722 263.568 60.7065V60.7212C263.568 60.897 263.615 61.0532 263.708 61.1899C263.8 61.3267 263.944 61.4463 264.14 61.5488C264.335 61.6514 264.586 61.7417 264.894 61.8198L266.11 62.1128C266.852 62.2935 267.404 62.5522 267.765 62.8892C268.131 63.2261 268.314 63.6777 268.314 64.2441V64.2588C268.314 64.7275 268.175 65.1426 267.897 65.5039C267.619 65.8604 267.24 66.1387 266.762 66.3389C266.288 66.5391 265.751 66.6392 265.15 66.6392ZM271.332 66.5732C271.073 66.5732 270.849 66.4805 270.658 66.2949C270.473 66.1045 270.38 65.8799 270.38 65.6211C270.38 65.3574 270.473 65.1328 270.658 64.9473C270.849 64.7617 271.073 64.6689 271.332 64.6689C271.596 64.6689 271.82 64.7617 272.006 64.9473C272.191 65.1328 272.284 65.3574 272.284 65.6211C272.284 65.8799 272.191 66.1045 272.006 66.2949C271.82 66.4805 271.596 66.5732 271.332 66.5732ZM111.635 90.5V79.9312H112.953V90.5H111.635ZM121.229 90.5L119.018 82.6045H120.292L121.845 88.918H121.962L123.727 82.6045H124.936L126.701 88.918H126.818L128.371 82.6045H129.638L127.426 90.5H126.144L124.379 84.3916H124.262L122.504 90.5H121.229ZM134.274 90.6392C133.527 90.6392 132.88 90.4756 132.333 90.1484C131.791 89.8164 131.371 89.3452 131.073 88.7349C130.78 88.1245 130.634 87.3994 130.634 86.5596V86.5449C130.634 85.7002 130.78 84.9727 131.073 84.3623C131.371 83.752 131.791 83.2832 132.333 82.9561C132.88 82.6289 133.527 82.4653 134.274 82.4653C135.026 82.4653 135.673 82.6289 136.215 82.9561C136.757 83.2832 137.174 83.752 137.467 84.3623C137.765 84.9727 137.914 85.7002 137.914 86.5449V86.5596C137.914 87.3994 137.765 88.1245 137.467 88.7349C137.174 89.3452 136.757 89.8164 136.215 90.1484C135.673 90.4756 135.026 90.6392 134.274 90.6392ZM134.274 89.5112C134.772 89.5112 135.194 89.394 135.541 89.1597C135.888 88.9253 136.151 88.5884 136.332 88.1489C136.518 87.7095 136.61 87.1797 136.61 86.5596V86.5449C136.61 85.9199 136.518 85.3877 136.332 84.9482C136.151 84.5088 135.888 84.1743 135.541 83.9448C135.194 83.7104 134.772 83.5933 134.274 83.5933C133.776 83.5933 133.354 83.7104 133.007 83.9448C132.66 84.1743 132.394 84.5088 132.208 84.9482C132.028 85.3877 131.938 85.9199 131.938 86.5449V86.5596C131.938 87.1797 132.028 87.7095 132.208 88.1489C132.394 88.5884 132.66 88.9253 133.007 89.1597C133.354 89.394 133.776 89.5112 134.274 89.5112ZM139.892 90.5V82.6045H141.166V83.7764H141.283C141.435 83.3613 141.691 83.0391 142.052 82.8096C142.414 82.5801 142.86 82.4653 143.393 82.4653C143.515 82.4653 143.634 82.4727 143.751 82.4873C143.874 82.4971 143.966 82.5068 144.03 82.5166V83.7544C143.898 83.73 143.769 83.7129 143.642 83.7031C143.52 83.6885 143.388 83.6812 143.246 83.6812C142.841 83.6812 142.482 83.7617 142.169 83.9229C141.857 84.084 141.61 84.3086 141.43 84.5967C141.254 84.8848 141.166 85.2217 141.166 85.6074V90.5H139.892ZM145.678 90.5V79.4697H146.952V90.5H145.678ZM150.651 90.5L147.567 86.6328L148.505 85.8198L152.255 90.5H150.651ZM146.791 87.6582L146.732 86.0542H147.069L150.482 82.6045H152.028L148.278 86.2227L147.97 86.5229L146.791 87.6582ZM156.605 90.6392C155.854 90.6392 155.207 90.4731 154.665 90.1411C154.127 89.8091 153.712 89.3403 153.419 88.7349C153.131 88.1245 152.987 87.4067 152.987 86.5815V86.5742C152.987 85.7588 153.131 85.0435 153.419 84.4282C153.712 83.813 154.125 83.332 154.657 82.9854C155.189 82.6387 155.812 82.4653 156.525 82.4653C157.243 82.4653 157.858 82.6313 158.371 82.9634C158.888 83.2954 159.284 83.7593 159.557 84.355C159.835 84.9458 159.975 85.6343 159.975 86.4204V86.9185H153.646V85.9004H159.323L158.693 86.8306V86.3252C158.693 85.7051 158.6 85.1948 158.415 84.7944C158.229 84.394 157.973 84.0962 157.646 83.9009C157.318 83.7007 156.942 83.6006 156.518 83.6006C156.093 83.6006 155.712 83.7056 155.375 83.9155C155.043 84.1206 154.779 84.4258 154.584 84.8311C154.389 85.2363 154.291 85.7344 154.291 86.3252V86.8306C154.291 87.3921 154.386 87.873 154.577 88.2734C154.767 88.6689 155.038 88.9741 155.39 89.189C155.741 89.3989 156.156 89.5039 156.635 89.5039C156.991 89.5039 157.301 89.4551 157.565 89.3574C157.829 89.2598 158.046 89.1353 158.217 88.9839C158.388 88.8325 158.507 88.6787 158.576 88.5225L158.605 88.4565H159.879L159.865 88.5151C159.796 88.7837 159.674 89.0449 159.499 89.2988C159.328 89.5479 159.105 89.7749 158.832 89.98C158.559 90.1802 158.234 90.3413 157.858 90.4634C157.487 90.5806 157.069 90.6392 156.605 90.6392ZM164.867 90.6392C164.203 90.6392 163.622 90.4707 163.124 90.1338C162.626 89.7969 162.24 89.3232 161.967 88.7129C161.693 88.0977 161.557 87.3799 161.557 86.5596V86.5449C161.557 85.7197 161.693 85.002 161.967 84.3916C162.24 83.7812 162.624 83.3076 163.117 82.9707C163.615 82.6338 164.198 82.4653 164.867 82.4653C165.229 82.4653 165.568 82.5239 165.885 82.6411C166.208 82.7534 166.493 82.9121 166.742 83.1172C166.991 83.3223 167.187 83.5664 167.328 83.8496H167.445V79.4697H168.72V90.5H167.445V89.2402H167.328C167.167 89.5332 166.964 89.7847 166.72 89.9946C166.476 90.1997 166.198 90.3584 165.885 90.4707C165.573 90.583 165.233 90.6392 164.867 90.6392ZM165.16 89.5112C165.639 89.5112 166.051 89.3916 166.398 89.1523C166.745 88.9131 167.011 88.5737 167.196 88.1343C167.382 87.6899 167.475 87.165 167.475 86.5596V86.5449C167.475 85.9346 167.382 85.4097 167.196 84.9702C167.011 84.5308 166.745 84.1914 166.398 83.9521C166.051 83.7129 165.639 83.5933 165.16 83.5933C164.682 83.5933 164.269 83.7129 163.922 83.9521C163.581 84.1865 163.317 84.5234 163.131 84.9629C162.951 85.4023 162.86 85.9297 162.86 86.5449V86.5596C162.86 87.1699 162.951 87.6973 163.131 88.1416C163.317 88.5811 163.581 88.9204 163.922 89.1597C164.269 89.394 164.682 89.5112 165.16 89.5112ZM175.912 90.5V83.6592H174.601V82.6045H175.912V81.7256C175.912 81.1982 175.998 80.7637 176.168 80.4219C176.344 80.0752 176.603 79.8188 176.945 79.6528C177.287 79.4819 177.707 79.3965 178.205 79.3965C178.361 79.3965 178.507 79.4038 178.644 79.4185C178.786 79.4282 178.922 79.4453 179.054 79.4697V80.4878C178.976 80.4731 178.886 80.4634 178.783 80.4585C178.681 80.4536 178.573 80.4512 178.461 80.4512C178.007 80.4512 177.68 80.561 177.479 80.7808C177.284 81.0005 177.187 81.3276 177.187 81.7622V82.6045H178.981V83.6592H177.187V90.5H175.912ZM183.742 90.6392C182.995 90.6392 182.348 90.4756 181.801 90.1484C181.259 89.8164 180.839 89.3452 180.541 88.7349C180.248 88.1245 180.102 87.3994 180.102 86.5596V86.5449C180.102 85.7002 180.248 84.9727 180.541 84.3623C180.839 83.752 181.259 83.2832 181.801 82.9561C182.348 82.6289 182.995 82.4653 183.742 82.4653C184.494 82.4653 185.141 82.6289 185.683 82.9561C186.225 83.2832 186.642 83.752 186.935 84.3623C187.233 84.9727 187.382 85.7002 187.382 86.5449V86.5596C187.382 87.3994 187.233 88.1245 186.935 88.7349C186.642 89.3452 186.225 89.8164 185.683 90.1484C185.141 90.4756 184.494 90.6392 183.742 90.6392ZM183.742 89.5112C184.24 89.5112 184.662 89.394 185.009 89.1597C185.355 88.9253 185.619 88.5884 185.8 88.1489C185.985 87.7095 186.078 87.1797 186.078 86.5596V86.5449C186.078 85.9199 185.985 85.3877 185.8 84.9482C185.619 84.5088 185.355 84.1743 185.009 83.9448C184.662 83.7104 184.24 83.5933 183.742 83.5933C183.244 83.5933 182.821 83.7104 182.475 83.9448C182.128 84.1743 181.862 84.5088 181.676 84.9482C181.496 85.3877 181.405 85.9199 181.405 86.5449V86.5596C181.405 87.1797 181.496 87.7095 181.676 88.1489C181.862 88.5884 182.128 88.9253 182.475 89.1597C182.821 89.394 183.244 89.5112 183.742 89.5112ZM189.359 90.5V82.6045H190.634V83.7764H190.751C190.902 83.3613 191.159 83.0391 191.52 82.8096C191.881 82.5801 192.328 82.4653 192.86 82.4653C192.982 82.4653 193.102 82.4727 193.219 82.4873C193.341 82.4971 193.434 82.5068 193.498 82.5166V83.7544C193.366 83.73 193.236 83.7129 193.109 83.7031C192.987 83.6885 192.855 83.6812 192.714 83.6812C192.309 83.6812 191.95 83.7617 191.637 83.9229C191.325 84.084 191.078 84.3086 190.897 84.5967C190.722 84.8848 190.634 85.2217 190.634 85.6074V90.5H189.359ZM199.32 90.5V82.6045H200.595V90.5H199.32ZM199.965 81.0811C199.726 81.0811 199.518 80.9956 199.342 80.8247C199.171 80.6489 199.086 80.4414 199.086 80.2021C199.086 79.958 199.171 79.7505 199.342 79.5796C199.518 79.4087 199.726 79.3232 199.965 79.3232C200.209 79.3232 200.417 79.4087 200.587 79.5796C200.758 79.7505 200.844 79.958 200.844 80.2021C200.844 80.4414 200.758 80.6489 200.587 80.8247C200.417 80.9956 200.209 81.0811 199.965 81.0811ZM205.802 90.5586C204.992 90.5586 204.403 90.395 204.037 90.0679C203.676 89.7407 203.495 89.2012 203.495 88.4492V83.6592H202.25V82.6045H203.495V80.561H204.813V82.6045H206.542V83.6592H204.813V88.127C204.813 88.5908 204.901 88.9253 205.077 89.1304C205.253 89.3306 205.546 89.4307 205.956 89.4307C206.068 89.4307 206.164 89.4282 206.242 89.4233C206.325 89.4185 206.425 89.4111 206.542 89.4014V90.4854C206.42 90.5049 206.298 90.522 206.176 90.5366C206.054 90.5513 205.929 90.5586 205.802 90.5586ZM209.486 90.5732C209.228 90.5732 209.003 90.4805 208.812 90.2949C208.627 90.1045 208.534 89.8799 208.534 89.6211C208.534 89.3574 208.627 89.1328 208.812 88.9473C209.003 88.7617 209.228 88.6689 209.486 88.6689C209.75 88.6689 209.975 88.7617 210.16 88.9473C210.346 89.1328 210.438 89.3574 210.438 89.6211C210.438 89.8799 210.346 90.1045 210.16 90.2949C209.975 90.4805 209.75 90.5732 209.486 90.5732Z" fill="#7F7F88" fill-opacity="0.75"/>
<path d="M127.389 120.472H122.87L123.542 117.323H127.821L128.037 116.308H123.752L124.387 113.369H128.9L129.122 112.34H123.435L121.486 121.5H127.173L127.389 120.472ZM129.89 116.581C129.89 117.033 130.021 117.402 130.284 117.685C130.55 117.969 130.948 118.197 131.477 118.371L132.524 118.707C132.842 118.809 133.064 118.94 133.191 119.101C133.318 119.257 133.381 119.435 133.381 119.634C133.381 119.841 133.314 120.025 133.178 120.186C133.043 120.347 132.857 120.474 132.62 120.567C132.383 120.656 132.11 120.7 131.801 120.7C131.373 120.7 131.02 120.603 130.741 120.408C130.461 120.214 130.279 119.966 130.195 119.666H129.071C129.105 120.051 129.238 120.391 129.471 120.688C129.708 120.979 130.021 121.208 130.411 121.373C130.804 121.538 131.251 121.621 131.75 121.621C132.279 121.621 132.751 121.532 133.166 121.354C133.58 121.176 133.906 120.931 134.143 120.618C134.384 120.305 134.505 119.949 134.505 119.551C134.505 119.09 134.376 118.713 134.118 118.421C133.864 118.125 133.449 117.886 132.874 117.704L131.947 117.406C131.638 117.304 131.401 117.177 131.236 117.025C131.071 116.868 130.988 116.686 130.988 116.479C130.988 116.28 131.05 116.104 131.172 115.952C131.299 115.8 131.471 115.681 131.687 115.597C131.907 115.508 132.156 115.463 132.436 115.463C132.702 115.463 132.939 115.501 133.146 115.578C133.358 115.654 133.532 115.762 133.667 115.901C133.802 116.041 133.893 116.21 133.94 116.409H135.025C134.966 116.033 134.824 115.705 134.6 115.425C134.38 115.146 134.088 114.928 133.724 114.771C133.364 114.615 132.941 114.537 132.455 114.537C131.968 114.537 131.53 114.623 131.141 114.797C130.756 114.966 130.451 115.205 130.227 115.514C130.002 115.819 129.89 116.174 129.89 116.581ZM138.136 121.551C138.258 121.551 138.379 121.547 138.498 121.538C138.616 121.53 138.722 121.515 138.815 121.494L139.012 120.567C138.965 120.571 138.917 120.575 138.866 120.58C138.819 120.584 138.768 120.588 138.713 120.592C138.663 120.592 138.603 120.592 138.536 120.592C138.265 120.592 138.053 120.535 137.901 120.421C137.749 120.302 137.672 120.114 137.672 119.856C137.672 119.771 137.679 119.678 137.691 119.577C137.704 119.471 137.723 119.359 137.749 119.24L138.529 115.571H140.072L140.275 114.657H138.72L139.094 112.886H137.983L137.622 114.657H136.466L136.276 115.571H137.425L136.568 119.577C136.547 119.682 136.53 119.786 136.517 119.888C136.504 119.985 136.498 120.078 136.498 120.167C136.498 120.628 136.653 120.975 136.961 121.208C137.27 121.437 137.662 121.551 138.136 121.551ZM142.014 117.45C142.12 117.061 142.274 116.72 142.478 116.428C142.685 116.136 142.932 115.91 143.22 115.749C143.508 115.584 143.827 115.501 144.179 115.501C144.521 115.501 144.807 115.578 145.036 115.73C145.268 115.882 145.444 116.085 145.562 116.339C145.681 116.589 145.74 116.864 145.74 117.165C145.74 117.22 145.738 117.277 145.734 117.336C145.734 117.391 145.732 117.429 145.728 117.45H142.014ZM143.5 121.621C144.033 121.621 144.502 121.538 144.909 121.373C145.319 121.208 145.656 120.986 145.918 120.707C146.18 120.423 146.358 120.106 146.451 119.754H145.29C145.146 120.017 144.936 120.228 144.661 120.389C144.386 120.546 144.022 120.624 143.569 120.624C143.294 120.624 143.026 120.561 142.763 120.434C142.501 120.302 142.283 120.095 142.109 119.812C141.94 119.524 141.855 119.145 141.855 118.675C141.855 118.616 141.855 118.559 141.855 118.504C141.86 118.445 141.864 118.388 141.868 118.333H146.8C146.821 118.201 146.84 118.03 146.857 117.818C146.874 117.607 146.883 117.435 146.883 117.304C146.883 116.712 146.762 116.21 146.521 115.8C146.284 115.385 145.969 115.072 145.575 114.86C145.182 114.645 144.75 114.537 144.28 114.537C143.76 114.537 143.282 114.638 142.846 114.841C142.41 115.04 142.033 115.326 141.716 115.698C141.398 116.071 141.153 116.517 140.979 117.038C140.806 117.554 140.719 118.127 140.719 118.758C140.719 119.371 140.844 119.892 141.094 120.319C141.348 120.747 141.684 121.07 142.103 121.291C142.526 121.511 142.992 121.621 143.5 121.621ZM144.915 113.705L146.711 111.547H145.378L143.938 113.705H144.915ZM149.479 117.45C149.585 117.061 149.739 116.72 149.942 116.428C150.15 116.136 150.397 115.91 150.685 115.749C150.973 115.584 151.292 115.501 151.644 115.501C151.986 115.501 152.272 115.578 152.5 115.73C152.733 115.882 152.909 116.085 153.027 116.339C153.146 116.589 153.205 116.864 153.205 117.165C153.205 117.22 153.203 117.277 153.199 117.336C153.199 117.391 153.197 117.429 153.192 117.45H149.479ZM150.964 121.621C151.498 121.621 151.967 121.538 152.374 121.373C152.784 121.208 153.12 120.986 153.383 120.707C153.645 120.423 153.823 120.106 153.916 119.754H152.754C152.611 120.017 152.401 120.228 152.126 120.389C151.851 120.546 151.487 120.624 151.034 120.624C150.759 120.624 150.49 120.561 150.228 120.434C149.966 120.302 149.748 120.095 149.574 119.812C149.405 119.524 149.32 119.145 149.32 118.675C149.32 118.616 149.32 118.559 149.32 118.504C149.325 118.445 149.329 118.388 149.333 118.333H154.265C154.286 118.201 154.305 118.03 154.322 117.818C154.339 117.607 154.348 117.435 154.348 117.304C154.348 116.712 154.227 116.21 153.986 115.8C153.749 115.385 153.434 115.072 153.04 114.86C152.646 114.645 152.215 114.537 151.745 114.537C151.225 114.537 150.746 114.638 150.311 114.841C149.875 115.04 149.498 115.326 149.181 115.698C148.863 116.071 148.618 116.517 148.444 117.038C148.271 117.554 148.184 118.127 148.184 118.758C148.184 119.371 148.309 119.892 148.559 120.319C148.812 120.747 149.149 121.07 149.568 121.291C149.991 121.511 150.457 121.621 150.964 121.621ZM164.891 120.472H160.486L162.219 112.34H161.051L159.102 121.5H164.675L164.891 120.472ZM168.439 120.675C168.054 120.675 167.739 120.575 167.494 120.376C167.248 120.173 167.125 119.917 167.125 119.608C167.125 119.249 167.28 118.961 167.589 118.745C167.898 118.525 168.332 118.4 168.89 118.371L170.712 118.282L170.541 119.069C170.473 119.378 170.337 119.653 170.134 119.894C169.935 120.135 169.688 120.326 169.392 120.465C169.1 120.605 168.782 120.675 168.439 120.675ZM168.097 121.621C168.376 121.621 168.643 121.58 168.896 121.5C169.15 121.415 169.385 121.297 169.601 121.145C169.821 120.992 170.009 120.812 170.166 120.605H170.268L170.077 121.5H171.137L172.089 117.012C172.111 116.915 172.125 116.822 172.134 116.733C172.142 116.64 172.146 116.547 172.146 116.454C172.146 116.064 172.043 115.728 171.835 115.444C171.632 115.157 171.345 114.934 170.972 114.778C170.6 114.617 170.162 114.537 169.658 114.537C169.197 114.537 168.776 114.611 168.395 114.759C168.014 114.907 167.695 115.118 167.437 115.394C167.178 115.669 166.999 115.994 166.897 116.371H168.052C168.124 116.185 168.23 116.028 168.37 115.901C168.509 115.774 168.681 115.679 168.884 115.616C169.087 115.548 169.315 115.514 169.569 115.514C170.031 115.514 170.39 115.611 170.648 115.806C170.907 115.997 171.036 116.265 171.036 116.612C171.036 116.663 171.031 116.712 171.023 116.758C171.019 116.805 171.01 116.864 170.998 116.936L170.896 117.399L168.954 117.488C168.006 117.531 167.276 117.746 166.764 118.136C166.256 118.525 166.002 119.056 166.002 119.729C166.002 120.084 166.093 120.406 166.275 120.694C166.461 120.977 166.711 121.204 167.024 121.373C167.341 121.538 167.699 121.621 168.097 121.621ZM180.132 114.657H179.027L178.151 118.771C178.075 119.13 177.94 119.452 177.745 119.735C177.555 120.015 177.313 120.235 177.021 120.396C176.734 120.556 176.406 120.637 176.038 120.637C175.589 120.637 175.255 120.533 175.035 120.326C174.819 120.114 174.711 119.79 174.711 119.354C174.711 119.274 174.719 119.158 174.736 119.005C174.753 118.849 174.774 118.709 174.8 118.586L175.631 114.657H174.521L173.664 118.745C173.634 118.885 173.611 119.043 173.594 119.221C173.577 119.395 173.568 119.532 173.568 119.634C173.568 120.01 173.651 120.349 173.816 120.649C173.985 120.95 174.222 121.187 174.527 121.36C174.836 121.534 175.198 121.621 175.612 121.621C175.955 121.621 176.262 121.574 176.533 121.481C176.804 121.388 177.038 121.263 177.237 121.106C177.44 120.946 177.605 120.768 177.732 120.573H177.834L177.625 121.5H178.678L180.132 114.657ZM183.528 121.621C183.964 121.621 184.37 121.525 184.747 121.335C185.127 121.145 185.441 120.889 185.686 120.567H185.788L185.591 121.5H186.645L188.676 111.94H187.565L186.721 115.92H186.619C186.539 115.645 186.399 115.404 186.2 115.197C186.006 114.989 185.766 114.829 185.483 114.714C185.204 114.596 184.899 114.537 184.569 114.537C184.074 114.537 183.612 114.645 183.185 114.86C182.758 115.076 182.383 115.379 182.062 115.768C181.74 116.153 181.488 116.608 181.306 117.133C181.128 117.658 181.04 118.229 181.04 118.847C181.04 119.41 181.152 119.9 181.376 120.319C181.6 120.734 181.901 121.056 182.277 121.284C182.658 121.508 183.075 121.621 183.528 121.621ZM183.877 120.637C183.373 120.637 182.965 120.455 182.652 120.091C182.339 119.727 182.182 119.257 182.182 118.682C182.182 118.22 182.243 117.797 182.366 117.412C182.493 117.027 182.669 116.693 182.893 116.409C183.117 116.126 183.38 115.908 183.68 115.755C183.981 115.599 184.304 115.521 184.651 115.521C185.18 115.521 185.599 115.692 185.908 116.035C186.217 116.373 186.372 116.832 186.372 117.412C186.372 117.865 186.308 118.288 186.181 118.682C186.058 119.071 185.883 119.412 185.654 119.704C185.43 119.996 185.166 120.224 184.861 120.389C184.56 120.554 184.232 120.637 183.877 120.637ZM190.396 117.45C190.502 117.061 190.656 116.72 190.859 116.428C191.067 116.136 191.314 115.91 191.602 115.749C191.89 115.584 192.209 115.501 192.561 115.501C192.903 115.501 193.189 115.578 193.417 115.73C193.65 115.882 193.826 116.085 193.944 116.339C194.063 116.589 194.122 116.864 194.122 117.165C194.122 117.22 194.12 117.277 194.116 117.336C194.116 117.391 194.114 117.429 194.109 117.45H190.396ZM191.881 121.621C192.415 121.621 192.884 121.538 193.291 121.373C193.701 121.208 194.037 120.986 194.3 120.707C194.562 120.423 194.74 120.106 194.833 119.754H193.671C193.528 120.017 193.318 120.228 193.043 120.389C192.768 120.546 192.404 120.624 191.951 120.624C191.676 120.624 191.407 120.561 191.145 120.434C190.883 120.302 190.665 120.095 190.491 119.812C190.322 119.524 190.237 119.145 190.237 118.675C190.237 118.616 190.237 118.559 190.237 118.504C190.242 118.445 190.246 118.388 190.25 118.333H195.182C195.203 118.201 195.222 118.03 195.239 117.818C195.256 117.607 195.265 117.435 195.265 117.304C195.265 116.712 195.144 116.21 194.903 115.8C194.666 115.385 194.351 115.072 193.957 114.86C193.563 114.645 193.132 114.537 192.662 114.537C192.142 114.537 191.663 114.638 191.228 114.841C190.792 115.04 190.415 115.326 190.098 115.698C189.78 116.071 189.535 116.517 189.361 117.038C189.188 117.554 189.101 118.127 189.101 118.758C189.101 119.371 189.226 119.892 189.476 120.319C189.729 120.747 190.066 121.07 190.485 121.291C190.908 121.511 191.374 121.621 191.881 121.621ZM196.153 121.5H197.258L198.115 117.457C198.208 117.029 198.339 116.68 198.508 116.409C198.682 116.134 198.902 115.931 199.168 115.8C199.435 115.664 199.75 115.597 200.114 115.597C200.229 115.597 200.377 115.605 200.559 115.622C200.741 115.639 200.88 115.658 200.978 115.679L201.212 114.632C201.145 114.606 201.03 114.585 200.87 114.568C200.713 114.547 200.561 114.537 200.413 114.537C200.015 114.537 199.666 114.617 199.365 114.778C199.065 114.939 198.802 115.188 198.578 115.527H198.477L198.661 114.657H197.607L196.153 121.5Z" fill="#7F7F88" fill-opacity="0.75"/>
<path d="M150.602 35.6328C148.551 35.6328 146.614 35.0859 144.791 33.9922C142.968 32.8984 141.487 31.3262 140.348 29.2754C139.254 27.2246 138.707 24.8092 138.707 22.0293C138.707 19.2493 139.391 16.5378 140.758 13.8945C141.214 12.9375 142.034 11.707 143.219 10.2031C144.449 8.69922 145.589 7.40039 146.637 6.30664L150.943 2L154.02 7.05859C151.878 8.38021 149.986 10.0208 148.346 11.9805C146.705 13.8945 145.885 15.6491 145.885 17.2441C145.885 18.0645 146.067 18.7253 146.432 19.2266C148.027 18.0872 149.804 17.5176 151.764 17.5176C153.176 17.5176 154.521 17.9505 155.797 18.8164C157.118 19.6367 158.167 20.7305 158.941 22.0977C159.762 23.4193 160.172 24.7865 160.172 26.1992C160.172 27.7943 159.693 29.321 158.736 30.7793C157.825 32.2376 156.617 33.4225 155.113 34.334C153.655 35.1999 152.151 35.6328 150.602 35.6328ZM175.143 35.6328C173.092 35.6328 171.155 35.0859 169.332 33.9922C167.509 32.8984 166.028 31.3262 164.889 29.2754C163.795 27.2246 163.248 24.8092 163.248 22.0293C163.248 20.0697 163.499 18.3151 164 16.7656C164.501 15.1706 165.367 13.5072 166.598 11.7754C167.783 10.1348 168.899 8.76758 169.947 7.67383C170.995 6.53451 172.818 4.64323 175.416 2L178.492 7.05859C176.35 8.38021 174.459 10.0208 172.818 11.9805C171.178 13.8945 170.357 15.6491 170.357 17.2441C170.357 18.0645 170.54 18.7253 170.904 19.2266C172.499 18.0872 174.277 17.5176 176.236 17.5176C177.649 17.5176 178.993 17.9505 180.27 18.8164C181.591 19.6367 182.639 20.7305 183.414 22.0977C184.234 23.4193 184.645 24.7865 184.645 26.1992C184.645 27.7943 184.189 29.321 183.277 30.7793C182.366 32.2376 181.158 33.4225 179.654 34.334C178.196 35.1999 176.692 35.6328 175.143 35.6328Z" fill="#EFEFEF"/>
</svg>
