<svg width="47" height="34" viewBox="0 0 47 34" fill="none" xmlns="http://www.w3.org/2000/svg">
<path d="M12.6016 33.6328C10.5508 33.6328 8.61393 33.0859 6.79102 31.9922C4.9681 30.8984 3.48698 29.3262 2.34766 27.2754C1.25391 25.2246 0.707031 22.8092 0.707031 20.0293C0.707031 17.2493 1.39062 14.5378 2.75781 11.8945C3.21354 10.9375 4.03385 9.70703 5.21875 8.20312C6.44922 6.69922 7.58854 5.40039 8.63672 4.30664L12.9434 0L16.0195 5.05859C13.8776 6.38021 11.9863 8.02083 10.3457 9.98047C8.70508 11.8945 7.88477 13.6491 7.88477 15.2441C7.88477 16.0645 8.06706 16.7253 8.43164 17.2266C10.0267 16.0872 11.804 15.5176 13.7637 15.5176C15.1764 15.5176 16.5208 15.9505 17.7969 16.8164C19.1185 17.6367 20.1667 18.7305 20.9414 20.0977C21.7617 21.4193 22.1719 22.7865 22.1719 24.1992C22.1719 25.7943 21.6934 27.321 20.7363 28.7793C19.8249 30.2376 18.6172 31.4225 17.1133 32.334C15.6549 33.1999 14.151 33.6328 12.6016 33.6328ZM37.1426 33.6328C35.0918 33.6328 33.1549 33.0859 31.332 31.9922C29.5091 30.8984 28.028 29.3262 26.8887 27.2754C25.7949 25.2246 25.248 22.8092 25.248 20.0293C25.248 18.0697 25.4987 16.3151 26 14.7656C26.5013 13.1706 27.3672 11.5072 28.5977 9.77539C29.7826 8.13477 30.8991 6.76758 31.9473 5.67383C32.9954 4.53451 34.8184 2.64323 37.416 0L40.4922 5.05859C38.3503 6.38021 36.459 8.02083 34.8184 9.98047C33.1777 11.8945 32.3574 13.6491 32.3574 15.2441C32.3574 16.0645 32.5397 16.7253 32.9043 17.2266C34.4993 16.0872 36.2767 15.5176 38.2363 15.5176C39.6491 15.5176 40.9935 15.9505 42.2695 16.8164C43.5911 17.6367 44.6393 18.7305 45.4141 20.0977C46.2344 21.4193 46.6445 22.7865 46.6445 24.1992C46.6445 25.7943 46.1888 27.321 45.2773 28.7793C44.3659 30.2376 43.1582 31.4225 41.6543 32.334C40.196 33.1999 38.6921 33.6328 37.1426 33.6328Z" fill="#EFEFEF"/>
</svg>
