<svg width="23" height="31" viewBox="0 0 23 31" fill="none" xmlns="http://www.w3.org/2000/svg">
<path d="M3.875 0C1.7377 0 0 1.7377 0 3.875V27.125C0 29.2623 1.7377 31 3.875 31H19.375C21.5123 31 23.25 29.2623 23.25 27.125V9.6875H15.5C14.4283 9.6875 13.5625 8.82168 13.5625 7.75V0H3.875ZM15.5 0V7.75H23.25L15.5 0ZM6.78125 15.5H16.4688C17.0016 15.5 17.4375 15.9359 17.4375 16.4688C17.4375 17.0016 17.0016 17.4375 16.4688 17.4375H6.78125C6.24844 17.4375 5.8125 17.0016 5.8125 16.4688C5.8125 15.9359 6.24844 15.5 6.78125 15.5ZM6.78125 19.375H16.4688C17.0016 19.375 17.4375 19.8109 17.4375 20.3438C17.4375 20.8766 17.0016 21.3125 16.4688 21.3125H6.78125C6.24844 21.3125 5.8125 20.8766 5.8125 20.3438C5.8125 19.8109 6.24844 19.375 6.78125 19.375ZM6.78125 23.25H16.4688C17.0016 23.25 17.4375 23.6859 17.4375 24.2188C17.4375 24.7516 17.0016 25.1875 16.4688 25.1875H6.78125C6.24844 25.1875 5.8125 24.7516 5.8125 24.2188C5.8125 23.6859 6.24844 23.25 6.78125 23.25Z" fill="#7B68EE"/>
</svg>
