<svg width="26" height="26" viewBox="0 0 26 26" fill="none" xmlns="http://www.w3.org/2000/svg">
<rect width="25.999" height="26" rx="12.9995" fill="white"/>
<g clip-path="url(#clip0_6856_20338)">
<path d="M13 24C15.9174 24 18.7153 22.8411 20.7782 20.7782C22.8411 18.7153 24 15.9174 24 13C24 10.0826 22.8411 7.28473 20.7782 5.22183C18.7153 3.15893 15.9174 2 13 2C10.0826 2 7.28473 3.15893 5.22183 5.22183C3.15893 7.28473 2 10.0826 2 13C2 15.9174 3.15893 18.7153 5.22183 20.7782C7.28473 22.8411 10.0826 24 13 24ZM17.8555 10.9805L12.3555 16.4805C11.9516 16.8844 11.2984 16.8844 10.8988 16.4805L8.14883 13.7305C7.74492 13.3266 7.74492 12.6734 8.14883 12.2738C8.55273 11.8742 9.20586 11.8699 9.60547 12.2738L11.625 14.2934L16.3945 9.51953C16.7984 9.11563 17.4516 9.11563 17.8512 9.51953C18.2508 9.92344 18.2551 10.5766 17.8512 10.9762L17.8555 10.9805Z" fill="#00B000"/>
</g>
<defs>
<clipPath id="clip0_6856_20338">
<rect width="22" height="22" fill="white" transform="translate(2 2)"/>
</clipPath>
</defs>
</svg>
