<svg width="48" height="22" viewBox="0 0 48 22" fill="none" xmlns="http://www.w3.org/2000/svg">
<path d="M0 2C0 0.89543 0.895431 0 2 0H46C47.1046 0 48 0.895431 48 2V20C48 21.1046 47.1046 22 46 22H2C0.895431 22 0 21.1046 0 20V2Z" fill="url(#paint0_linear_2332_26315)"/>
<path d="M10.9561 15H12.3418V11.8364H15.5913V10.7085H12.3418V8.41504H15.8975V7.24951H10.9561V15ZM17.4336 15H18.8193V12.0835H20.2856C20.2964 12.0835 20.3089 12.0835 20.3232 12.0835C20.3376 12.0835 20.3483 12.0835 20.3555 12.0835L21.8809 15H23.46L21.7681 11.8687C22.2264 11.7039 22.5827 11.4246 22.8369 11.0308C23.0947 10.6333 23.2236 10.1785 23.2236 9.6665V9.65576C23.2236 9.16162 23.118 8.73551 22.9067 8.37744C22.6955 8.01937 22.3911 7.74186 21.9937 7.54492C21.5962 7.34798 21.12 7.24951 20.5649 7.24951H17.4336V15ZM18.8193 11.02V8.3667H20.3931C20.8335 8.3667 21.179 8.48665 21.4297 8.72656C21.6839 8.96289 21.811 9.28337 21.811 9.68799V9.69873C21.811 10.1141 21.6893 10.4382 21.4458 10.6709C21.2023 10.9036 20.8604 11.02 20.4199 11.02H18.8193ZM24.9102 15H29.9268V13.8345H26.2959V11.6162H29.728V10.5151H26.2959V8.41504H29.9268V7.24951H24.9102V15ZM31.6455 15H36.6621V13.8345H33.0312V11.6162H36.4634V10.5151H33.0312V8.41504H36.6621V7.24951H31.6455V15Z" fill="white"/>
<defs>
<linearGradient id="paint0_linear_2332_26315" x1="48" y1="11" x2="0" y2="11" gradientUnits="userSpaceOnUse">
<stop stop-color="#F63E8B"/>
<stop offset="1" stop-color="#7B68EE"/>
</linearGradient>
</defs>
</svg>
