<svg xmlns="http://www.w3.org/2000/svg" fill-rule="evenodd" clip-rule="evenodd" image-rendering="optimizeQuality" shape-rendering="geometricPrecision" text-rendering="geometricPrecision" viewBox="0 0 1707 1707" id="Binoculars"><path fill="#7b00ab" d="M744 539c-3 0-5 0-7-1l-141-1c-12-4-20-17-16-31l28-98c15-56 48-89 93-89 32 0 63 15 82 40 13 19 18 40 12 62l-28 98c-4 14-14 20-23 20zM963 539c-11 0-21-6-24-18l-27-98c-6-22-2-45 14-63 18-23 50-39 80-39 25 0 72 12 95 89l27 99c4 12-4 26-16 31l-141 1c-4-3-5-2-8-2z" class="color00ab94 svgShape"></path><path fill="#db7fff" d="M934 1019l-160 0c-14,0 -25,-12 -25,-25l0 -1 -324 -357c-2,0 -4,1 -6,1 -3,0 -6,0 -9,-2 -12,-4 -19,-18 -15,-30 24,-68 89,-114 163,-114l593 0c72,0 137,46 162,114 4,12 -3,26 -15,30l2 3 -348 340c4,4 5,10 5,16 0,13 -11,25 -23,25z" class="color5fd3ae svgShape"></path><path fill="#7b00ab" d="M1001 617l-295 0c-14 0-25-11-25-25 0-14 11-25 25-25l295 0c13 0 25 11 25 25 0 14-12 25-25 25zM1001 710l-295 0c-14 0-25-11-25-25 0-14 11-25 25-25l295 0c13 0 25 11 25 25 0 14-12 25-25 25z" class="color00ab94 svgShape"></path><path fill="#533d5c" d="M399 1388c-221,0 -400,-179 -400,-400 0,-221 179,-399 400,-399 220,0 399,180 399,399 1,219 -178,400 -399,400z" class="color3d3d5c svgShape"></path><path fill="#ddbaeb" d="M399 1299c-172,0 -311,-140 -311,-311 0,-172 140,-311 311,-311 171,0 311,140 311,311 0,171 -139,311 -311,311z" class="colorbaebeb svgShape"></path><path fill="#ffffff" d="M399 1200c-14,0 -25,-11 -25,-25 0,-13 11,-24 25,-24 91,0 164,-74 164,-166 0,-14 11,-25 25,-25 14,0 25,11 25,25 -1,120 -97,215 -214,215zm-189 -188c-14,0 -25,-11 -25,-25 0,-117 96,-213 214,-213 14,0 25,11 25,25 0,14 -11,25 -25,25 -90,0 -165,74 -165,164 1,13 -10,24 -24,24z" class="colorffffff svgShape"></path><path fill="#533d5c" d="M1309 1388c-221,0 -400,-179 -400,-400 0,-221 179,-399 400,-399 219,0 398,180 398,399 2,219 -177,400 -398,400z" class="color3d3d5c svgShape"></path><path fill="#ddbaeb" d="M1309 1299c-172,0 -311,-140 -311,-311 0,-172 140,-311 311,-311 171,0 311,140 311,311 0,171 -139,311 -311,311z" class="colorbaebeb svgShape"></path><path fill="#ffffff" d="M1309 1200c-14,0 -25,-11 -25,-25 0,-13 11,-24 25,-24 90,0 164,-74 164,-166 0,-14 11,-25 25,-25 14,0 25,11 25,25 -2,120 -98,215 -214,215zm-189 -188c-14,0 -25,-11 -25,-25 0,-117 96,-213 214,-213 14,0 25,11 25,25 0,14 -11,25 -25,25 -90,0 -165,74 -165,164 1,13 -10,24 -24,24z" class="colorffffff svgShape"></path></svg>