<svg width="13" height="14" viewBox="0 0 13 14" fill="none" xmlns="http://www.w3.org/2000/svg">
<path d="M6.5 13.5C10.0902 13.5 13 10.5902 13 7C13 3.40977 10.0902 0.5 6.5 0.5C2.90977 0.5 0 3.40977 0 7C0 10.5902 2.90977 13.5 6.5 13.5ZM9.36914 5.80664L6.11914 9.05664C5.88047 9.29531 5.49453 9.29531 5.2584 9.05664L3.6334 7.43164C3.39473 7.19297 3.39473 6.80703 3.6334 6.5709C3.87207 6.33477 4.25801 6.33223 4.49414 6.5709L5.6875 7.76426L8.50586 4.94336C8.74453 4.70469 9.13047 4.70469 9.3666 4.94336C9.60273 5.18203 9.60527 5.56797 9.3666 5.8041L9.36914 5.80664Z" fill="#00B000"/>
</svg>
