<svg width="25" height="24" viewBox="0 0 25 24" fill="none" xmlns="http://www.w3.org/2000/svg">
<path d="M12.9004 18.75C12.4904 18.75 12.1504 18.41 12.1504 18V15C12.1504 14.59 12.4904 14.25 12.9004 14.25C13.3104 14.25 13.6504 14.59 13.6504 15V18C13.6504 18.41 13.3104 18.75 12.9004 18.75Z" fill="#717171"/>
<path d="M18.5013 22.5608H7.30133C5.48133 22.5608 3.82133 21.1608 3.52133 19.3708L2.19133 11.4008C1.97133 10.1608 2.58133 8.5708 3.57133 7.7808L10.5013 2.2308C11.8413 1.1508 13.9513 1.1608 15.3013 2.2408L22.2313 7.7808C23.2113 8.5708 23.8113 10.1608 23.6113 11.4008L22.2813 19.3608C21.9813 21.1308 20.2813 22.5608 18.5013 22.5608ZM12.8913 2.9308C12.3613 2.9308 11.8313 3.0908 11.4413 3.4008L4.51133 8.9608C3.95133 9.4108 3.55133 10.4508 3.67133 11.1608L5.00133 19.1208C5.18133 20.1708 6.23133 21.0608 7.30133 21.0608H18.5013C19.5713 21.0608 20.6213 20.1708 20.8013 19.1108L22.1313 11.1508C22.2413 10.4508 21.8413 9.3908 21.2913 8.9508L14.3613 3.4108C13.9613 3.0908 13.4213 2.9308 12.8913 2.9308Z" fill="#717171"/>
</svg>
