<svg xmlns="http://www.w3.org/2000/svg" data-name="Layer 1" viewBox="0 0 24 24" id="group"><path d="M17.233 15.328a4.773 4.773 0 00-4.7-4.078H11.469a4.773 4.773 0 00-4.7 4.078l-.51 3.566a.75.75 0 00.213.636c.2.2 1.427 1.22 5.53 1.22s5.327-1.016 5.53-1.22a.75.75 0 00.213-.636zM7.56 11.8a5.7 5.7 0 00-1.78 3.39l-.37 2.56c-2.97-.02-3.87-1.1-4.02-1.32a.739.739 0 01-.13-.56l.22-1.24A4.093 4.093 0 017.56 11.8zM22.74 15.87a.739.739 0 01-.13.56c-.15.22-1.05 1.3-4.02 1.32l-.37-2.56a5.7 5.7 0 00-1.78-3.39 4.093 4.093 0 016.08 2.83zM7.73 9.6A2.714 2.714 0 015.5 10.75 2.75 2.75 0 117.15 5.8 4.812 4.812 0 007 7 5.01 5.01 0 007.73 9.6zM21.25 8a2.748 2.748 0 01-2.75 2.75A2.714 2.714 0 0116.27 9.6 5.01 5.01 0 0017 7a4.812 4.812 0 00-.15-1.2A2.75 2.75 0 0121.25 8z"></path><circle cx="12" cy="7" r="3.75"></circle></svg>