<svg width="35" height="35" viewBox="0 0 35 35" fill="none" xmlns="http://www.w3.org/2000/svg">
<path d="M35 17.5C35 27.166 27.166 35 17.5 35C7.83398 35 0 27.166 0 17.5C0 7.83398 7.83398 0 17.5 0C27.166 0 35 7.83398 35 17.5ZM6.35264 8.6748C4.42969 11.0947 3.28125 14.1641 3.28125 17.5C3.28125 25.3545 9.64551 31.7188 17.5 31.7188C20.8359 31.7188 23.9053 30.5703 26.3252 28.6494L6.35264 8.6748ZM31.7188 17.5C31.7188 9.64551 25.3545 3.28125 17.5 3.28125C14.1641 3.28125 11.0947 4.42969 8.6748 6.35264L28.6494 26.3252C30.5703 23.9053 31.7188 20.8359 31.7188 17.5Z" fill="#F82058"/>
</svg>
