<svg width="22" height="22" viewBox="0 0 22 22" fill="none" xmlns="http://www.w3.org/2000/svg">
<path d="M1.71875 9.625C1.14727 9.625 0.6875 9.16523 0.6875 8.59375V2.40625C0.6875 1.83477 1.14727 1.375 1.71875 1.375C2.29023 1.375 2.75 1.83477 2.75 2.40625V5.84805L3.60938 4.83828C5.37109 2.72422 8.03086 1.375 11 1.375C16.3152 1.375 20.625 5.68477 20.625 11C20.625 16.3152 16.3152 20.625 11 20.625C8.83438 20.625 6.83203 19.9074 5.225 18.7C4.76953 18.3563 4.6793 17.7117 5.01875 17.2563C5.3582 16.8008 6.00703 16.7105 6.4625 17.05C7.72578 17.9996 9.29414 18.5625 11 18.5625C15.1766 18.5625 18.5625 15.1766 18.5625 11C18.5625 6.82344 15.1766 3.4375 11 3.4375C8.6668 3.4375 6.57852 4.49453 5.19063 6.16172L5.18633 6.17031L4.00039 7.5625H7.90625C8.47773 7.5625 8.9375 8.02227 8.9375 8.59375C8.9375 9.16523 8.47773 9.625 7.90625 9.625H1.71875Z" fill="black"/>
</svg>
