<svg width="40" height="40" viewBox="0 0 40 40" fill="none" xmlns="http://www.w3.org/2000/svg">
<g clip-path="url(#clip0_2147_18919)">
<path d="M7.92243 0.904222C8.46696 0.750316 9.0943 1.00344 9.37321 1.49641C10.4177 3.24016 11.2138 5.11594 12.106 6.93938C12.1748 7.10188 12.3302 7.3136 12.1646 7.46907C12.0506 7.62766 11.806 7.6011 11.6951 7.45032C10.3881 6.17688 9.04274 4.94016 7.79352 3.60891C7.48649 3.21828 7.0318 2.88547 6.97008 2.35735C6.85993 1.72141 7.29899 1.06047 7.92243 0.904222Z" fill="#FFF082"/>
<path d="M31.3674 0.914431C31.9791 0.715213 32.6963 1.05662 32.9362 1.65037C33.1354 2.10037 33.0487 2.66131 32.7135 3.02459C31.5385 4.39724 30.194 5.61053 28.9026 6.87068C28.6721 7.08474 28.4572 7.31599 28.2182 7.52068C28.044 7.67849 27.7315 7.49099 27.7596 7.2699C27.7979 7.09959 27.8924 6.94803 27.9635 6.78943C28.8197 5.03162 29.5932 3.22771 30.594 1.5449C30.7565 1.24412 31.0385 1.00974 31.3674 0.914431Z" fill="#FFF082"/>
<path d="M6.68749 22.1698C6.97734 22.1713 7.4078 21.9315 7.57968 22.2753C7.6664 22.487 7.48593 22.637 7.31093 22.7088C5.4789 23.6729 3.6953 24.7409 1.78437 25.5456C1.12499 25.8338 0.285148 25.4456 0.0742102 24.7589C-0.180477 24.0854 0.247648 23.2674 0.942179 23.0878C2.83124 22.6362 4.76796 22.4463 6.68749 22.1698Z" fill="#FFF082"/>
<path d="M32.5304 22.1341C32.6616 22.0451 32.8296 22.1169 32.9741 22.1224C34.9843 22.4177 37.014 22.6099 38.9952 23.0724C39.6593 23.2115 40.1226 23.9326 39.9694 24.5951C39.8687 25.1419 39.3835 25.5833 38.8296 25.6333C38.3218 25.6927 37.8882 25.3763 37.4335 25.2068C35.7859 24.4193 34.1976 23.5154 32.589 22.6529C32.3624 22.5771 32.346 22.2654 32.5304 22.1341Z" fill="#FFF082"/>
<path d="M19.8697 31.2847C20.0556 31.1511 20.3338 31.2894 20.3345 31.5199C20.69 33.5871 21.1549 35.641 21.3353 37.7339C21.4189 38.4503 20.7955 39.1394 20.0759 39.1371C19.333 39.1808 18.6611 38.48 18.7431 37.7386C18.9174 35.7058 19.365 33.7105 19.708 31.7027C19.7439 31.5605 19.7369 31.3777 19.8697 31.2847Z" fill="#FFF082"/>
<path d="M19.2002 1.77096C19.3111 1.50299 19.5502 1.27487 19.8455 1.23502C20.2424 1.14518 20.6588 1.39752 20.8002 1.77174C21.2978 2.9358 21.8142 4.09205 22.2939 5.26393C21.4049 6.46236 20.6846 7.77252 19.9103 9.04596C19.4564 9.89518 19.0025 10.7444 18.5424 11.5905C15.7221 17.146 13.6588 23.0936 12.5158 29.221C12.4221 29.8608 12.2572 30.4905 12.2103 31.1374C11.8689 31.3686 11.5033 31.5616 11.1533 31.7788C10.9072 31.9327 10.6033 32.0663 10.3127 31.9561C9.87205 31.842 9.59393 31.3295 9.73533 30.8967C10.5041 27.51 11.2525 24.1186 12.0338 20.7342C9.48689 18.5061 6.95018 16.2655 4.4033 14.0366C4.19158 13.8452 3.93768 13.6522 3.88221 13.3538C3.75643 12.8577 4.16814 12.3296 4.67986 12.3233C8.14002 11.9936 11.6017 11.6842 15.0619 11.3546C16.4595 8.16862 17.815 4.96315 19.2002 1.77096Z" fill="#FFC850"/>
<path d="M19.9109 9.04766C20.6852 7.77422 21.4055 6.46406 22.2945 5.26562C23.1703 7.30313 24.0391 9.34453 24.9305 11.3758C28.3938 11.6883 31.8555 12.0133 35.318 12.3375C35.6766 12.357 36.018 12.607 36.0969 12.9656C36.193 13.2891 36.0484 13.6352 35.7953 13.843C33.1844 16.1398 30.5711 18.432 27.9602 20.7281C28.725 24.1359 29.5 27.5422 30.2602 30.9508C30.3641 31.3445 30.1344 31.7805 29.7563 31.9242C29.493 32.0367 29.1945 31.9734 28.9586 31.8289C25.9727 30.0578 22.9867 28.2844 20.0008 26.5117C17.4047 28.0547 14.8047 29.593 12.2109 31.1391C12.2578 30.4922 12.4227 29.8625 12.5164 29.2227C13.6594 23.0953 15.7227 17.1477 18.543 11.5922C19.0031 10.7461 19.457 9.89688 19.9109 9.04766Z" fill="#FFDC64"/>
</g>
<defs>
<clipPath id="clip0_2147_18919">
<rect width="40" height="40" fill="white"/>
</clipPath>
</defs>
</svg>
