<svg width="15" height="18" viewBox="0 0 15 18" fill="none" xmlns="http://www.w3.org/2000/svg">
<g clip-path="url(#clip0_2147_13891)">
<path d="M1.75749 15.9219C1.75749 15.7993 1.75749 15.7103 1.75749 15.6213C1.75749 10.7639 1.75694 5.90702 1.7597 1.04961C1.7597 0.899288 1.76854 0.74233 1.8111 0.599741C1.91942 0.230558 2.2676 -0.00543168 2.66 9.50146e-05C3.03968 0.00562171 3.37073 0.249902 3.48237 0.611347C3.50669 0.689826 3.51885 0.772727 3.54261 0.879945C3.61335 0.879945 3.69349 0.879945 3.77363 0.879945C7.19465 0.879945 10.6157 0.879392 14.0367 0.880497C14.6485 0.880497 15.0597 1.295 14.9856 1.86646C14.963 2.0411 14.8729 2.22348 14.7668 2.36773C14.0848 3.29677 13.3895 4.21641 12.6992 5.13937C12.6622 5.18911 12.6263 5.2394 12.5804 5.3024C12.7153 5.48423 12.8496 5.66661 12.985 5.84789C13.5929 6.66031 14.2064 7.46887 14.8071 8.28627C15.1962 8.81572 14.9702 9.51651 14.3617 9.68563C14.2318 9.72155 14.0886 9.72044 13.9521 9.72044C10.5726 9.7221 7.19299 9.72155 3.81342 9.72155C3.72555 9.72155 3.63712 9.72155 3.53874 9.72155C3.53874 11.7924 3.53874 13.8417 3.53874 15.9219C3.84216 15.9219 4.14336 15.9159 4.44402 15.9236C4.80215 15.933 5.06135 16.1137 5.21001 16.4332C5.35537 16.746 5.31779 17.0544 5.11164 17.3329C4.95579 17.5429 4.74301 17.6745 4.47883 17.6756C3.25799 17.6811 2.03714 17.6861 0.816846 17.6745C0.350946 17.6684 -0.000552019 17.2688 6.50825e-07 16.7985C0.00055332 16.3282 0.352051 15.9441 0.817951 15.9242C1.11916 15.9114 1.42202 15.9219 1.75749 15.9219ZM3.53211 7.94582C6.47121 7.94582 9.3893 7.94582 12.3378 7.94582C12.2842 7.86845 12.2483 7.81263 12.2085 7.75902C11.7498 7.14556 11.2899 6.5332 10.8318 5.91918C10.5046 5.48036 10.5035 5.125 10.8279 4.69005C11.2816 4.08156 11.7376 3.47473 12.1919 2.86679C12.2355 2.80821 12.2759 2.74631 12.3289 2.66949C9.38156 2.66949 6.45905 2.66949 3.53156 2.66949C3.53211 4.43361 3.53211 6.17949 3.53211 7.94582Z" fill="#7B68EE"/>
</g>
<defs>
<clipPath id="clip0_2147_13891">
<rect width="15" height="17.6799" fill="white"/>
</clipPath>
</defs>
</svg>
