<svg width="15" height="15" viewBox="0 0 15 15" fill="none" xmlns="http://www.w3.org/2000/svg">
<path d="M7.49922 10.2055C6.00547 10.2055 4.79297 8.99297 4.79297 7.49922C4.79297 6.00547 6.00547 4.79297 7.49922 4.79297C8.99297 4.79297 10.2055 6.00547 10.2055 7.49922C10.2055 8.99297 8.99297 10.2055 7.49922 10.2055ZM7.49922 5.73047C6.52422 5.73047 5.73047 6.52422 5.73047 7.49922C5.73047 8.47422 6.52422 9.26797 7.49922 9.26797C8.47422 9.26797 9.26797 8.47422 9.26797 7.49922C9.26797 6.52422 8.47422 5.73047 7.49922 5.73047Z" fill="#00B000"/>
<path d="M7.50078 13.1383C5.15078 13.1383 2.93203 11.7633 1.40703 9.37578C0.744531 8.34453 0.744531 6.66328 1.40703 5.62578C2.93828 3.23828 5.15703 1.86328 7.50078 1.86328C9.84453 1.86328 12.0633 3.23828 13.5883 5.62578C14.2508 6.65703 14.2508 8.33828 13.5883 9.37578C12.0633 11.7633 9.84453 13.1383 7.50078 13.1383ZM7.50078 2.80078C5.48203 2.80078 3.55078 4.01328 2.20078 6.13203C1.73203 6.86328 1.73203 8.13828 2.20078 8.86953C3.55078 10.9883 5.48203 12.2008 7.50078 12.2008C9.51953 12.2008 11.4508 10.9883 12.8008 8.86953C13.2695 8.13828 13.2695 6.86328 12.8008 6.13203C11.4508 4.01328 9.51953 2.80078 7.50078 2.80078Z" fill="#00B000"/>
</svg>
