<svg width="26" height="23" viewBox="0 0 26 23" fill="none" xmlns="http://www.w3.org/2000/svg">
<path d="M8.66602 5.50977C8.22185 5.50977 7.85352 5.18393 7.85352 4.79102V1.91602C7.85352 1.5231 8.22185 1.19727 8.66602 1.19727C9.11018 1.19727 9.47852 1.5231 9.47852 1.91602V4.79102C9.47852 5.18393 9.11018 5.50977 8.66602 5.50977Z" fill="#717171"/>
<path d="M17.334 5.50977C16.8898 5.50977 16.5215 5.18393 16.5215 4.79102V1.91602C16.5215 1.5231 16.8898 1.19727 17.334 1.19727C17.7782 1.19727 18.1465 1.5231 18.1465 1.91602V4.79102C18.1465 5.18393 17.7782 5.50977 17.334 5.50977Z" fill="#717171"/>
<path d="M22.2077 9.42969H3.79102C3.34685 9.42969 2.97852 9.10385 2.97852 8.71094C2.97852 8.31802 3.34685 7.99219 3.79102 7.99219H22.2077C22.6518 7.99219 23.0202 8.31802 23.0202 8.71094C23.0202 9.10385 22.6518 9.42969 22.2077 9.42969Z" fill="#717171"/>
<path d="M17.3333 21.8014H8.66667C4.7125 21.8014 2.4375 19.7889 2.4375 16.291V8.14518C2.4375 4.64727 4.7125 2.63477 8.66667 2.63477H17.3333C21.2875 2.63477 23.5625 4.64727 23.5625 8.14518V16.291C23.5625 19.7889 21.2875 21.8014 17.3333 21.8014ZM8.66667 4.07227C5.56833 4.07227 4.0625 5.40435 4.0625 8.14518V16.291C4.0625 19.0318 5.56833 20.3639 8.66667 20.3639H17.3333C20.4317 20.3639 21.9375 19.0318 21.9375 16.291V8.14518C21.9375 5.40435 20.4317 4.07227 17.3333 4.07227H8.66667Z" fill="#717171"/>
<path d="M9.20833 13.8952C9.0675 13.8952 8.92666 13.8665 8.79666 13.8185C8.66666 13.7706 8.54751 13.7035 8.43918 13.6173C8.34168 13.5214 8.26582 13.416 8.21165 13.301C8.15749 13.186 8.125 13.0614 8.125 12.9369C8.125 12.6877 8.24418 12.4385 8.43918 12.2565C8.54751 12.1702 8.66666 12.1031 8.79666 12.0552C8.99166 11.9785 9.20835 11.9593 9.42501 11.9977C9.49001 12.0073 9.55501 12.0264 9.62001 12.0552C9.68501 12.0743 9.75 12.1031 9.815 12.1415C9.86916 12.1798 9.92332 12.2181 9.97749 12.2565C10.0208 12.3044 10.075 12.3523 10.1075 12.4002C10.1508 12.4577 10.1833 12.5152 10.205 12.5727C10.2375 12.6302 10.2592 12.6877 10.27 12.7452C10.2808 12.8123 10.2917 12.8698 10.2917 12.9369C10.2917 13.186 10.1725 13.4352 9.97749 13.6173C9.77166 13.7898 9.49 13.8952 9.20833 13.8952Z" fill="#717171"/>
<path d="M12.9993 13.8961C12.7177 13.8961 12.436 13.7907 12.2302 13.6182C12.1869 13.5702 12.1435 13.5223 12.1002 13.4744C12.0569 13.4169 12.0243 13.3594 12.0027 13.3019C11.9702 13.2444 11.9485 13.1869 11.9377 13.1294C11.9268 13.0623 11.916 13.0048 11.916 12.9377C11.916 12.8132 11.9485 12.6886 12.0027 12.5736C12.0568 12.4586 12.1327 12.3532 12.2302 12.2573C12.5335 11.989 13.021 11.9027 13.411 12.0561C13.5519 12.104 13.6602 12.1711 13.7685 12.2573C13.9635 12.4394 14.0827 12.6886 14.0827 12.9377C14.0827 13.0048 14.0719 13.0623 14.061 13.1294C14.0502 13.1869 14.0285 13.2444 13.996 13.3019C13.9744 13.3594 13.9418 13.4169 13.8985 13.4744C13.8552 13.5223 13.8118 13.5702 13.7685 13.6182C13.6602 13.7044 13.5519 13.7715 13.411 13.8194C13.281 13.8673 13.1402 13.8961 12.9993 13.8961Z" fill="#717171"/>
<path d="M9.20833 17.2496C9.0675 17.2496 8.92666 17.2209 8.79666 17.1729C8.66666 17.125 8.54751 17.0579 8.43918 16.9717C8.34168 16.8758 8.26582 16.78 8.21165 16.6554C8.15749 16.5404 8.125 16.4158 8.125 16.2913C8.125 16.0421 8.24418 15.7929 8.43918 15.6109C8.54751 15.5246 8.66666 15.4575 8.79666 15.4096C9.19749 15.2562 9.67416 15.3425 9.97749 15.6109C10.0208 15.6588 10.075 15.7067 10.1075 15.7546C10.1508 15.8121 10.1833 15.8696 10.205 15.9271C10.2375 15.9846 10.2592 16.0421 10.27 16.1092C10.2808 16.1667 10.2917 16.2338 10.2917 16.2913C10.2917 16.5404 10.1725 16.7896 9.97749 16.9717C9.77166 17.1442 9.49 17.2496 9.20833 17.2496Z" fill="#717171"/>
</svg>
