<svg width="24" height="25" viewBox="0 0 24 25" fill="none" xmlns="http://www.w3.org/2000/svg">
<path d="M10.1041 7.48051C11.5678 7.04984 12.3553 7.44136 13.0367 8.91784C14.1812 8.49319 15.3941 8.87718 15.9181 10.2377C15.9972 10.1632 16.071 10.0962 16.1418 10.0254C17.5663 8.60462 18.987 7.18085 20.4153 5.76385C21.1743 5.01018 22.2781 4.90101 23.1251 5.48C24.1747 6.19754 24.3042 7.67702 23.3818 8.62495C22.6018 9.42681 21.8015 10.2083 21.0094 10.9989C18.4615 13.5423 15.9129 16.0856 13.3642 18.629C13.3243 18.6689 13.2739 18.7028 13.2475 18.7502C13.2144 18.8105 13.167 18.897 13.1888 18.943C13.2106 18.9896 13.3085 19.0228 13.3733 19.0243C13.7964 19.0311 14.2203 19.0152 14.6434 19.0311C15.2526 19.0536 15.8737 19.0303 16.4663 19.1463C17.5301 19.3548 18.3139 19.9978 18.8312 20.9465C19.362 21.9193 18.8666 23.0057 17.7786 23.2339C16.2615 23.5516 14.7421 23.8595 13.2182 24.1456C12.1385 24.3489 11.0558 24.5462 9.9663 24.6825C7.58934 24.9791 5.52408 24.3098 3.82097 22.5991C3.21186 21.9855 2.5907 21.3832 1.98912 20.7628C-0.430015 18.2668 -0.672456 14.3261 1.42593 11.6637C1.57652 11.4725 1.7399 11.288 1.91157 11.1156C3.45279 9.57288 4.99251 8.02788 6.54278 6.49419C7.62322 5.42579 9.38354 5.72696 9.95802 7.0664C10.0137 7.19515 10.0521 7.32993 10.1041 7.48051ZM9.26383 23.7195C9.67794 23.6706 10.4038 23.6269 11.113 23.4936C13.237 23.0953 15.3534 22.6616 17.4729 22.2415C18 22.1369 18.1536 21.7988 17.8682 21.338C17.3472 20.4962 16.5792 20.0746 15.5914 20.0611C14.7918 20.0498 13.9914 20.0671 13.1926 20.0445C12.7401 20.0317 12.4171 19.7757 12.2311 19.3684C12.0383 18.9467 12.0986 18.5439 12.3764 18.1765C12.4555 18.0726 12.5533 17.9822 12.6467 17.8896C15.9528 14.5896 19.2603 11.2895 22.5664 7.98949C23.0566 7.50009 23.098 6.86763 22.6733 6.44148C22.2359 6.00178 21.5989 6.04168 21.0967 6.54162C20.6766 6.95949 20.258 7.37811 19.8393 7.79674C18.1295 9.50361 16.4203 11.2105 14.7097 12.9166C14.4356 13.1899 14.1412 13.2178 13.9131 13.0024C13.6805 12.7833 13.7053 12.4671 13.9801 12.1885C14.1909 11.9739 14.4078 11.7654 14.6171 11.55C14.8528 11.3069 14.9664 11.0162 14.9152 10.6774C14.8535 10.2723 14.6254 9.98773 14.2399 9.84844C13.8393 9.70388 13.4757 9.79499 13.1715 10.0849C12.8041 10.435 12.4532 10.8024 12.0888 11.1548C11.9073 11.3302 11.6905 11.3656 11.4676 11.2368C11.2696 11.1224 11.1747 10.9364 11.2237 10.7128C11.2478 10.6006 11.3216 10.4922 11.3969 10.4003C11.5038 10.2701 11.6378 10.1624 11.7492 10.0359C12.1234 9.60977 12.1038 8.9984 11.7086 8.61064C11.3118 8.22214 10.6974 8.21009 10.2833 8.6001C9.92038 8.94118 9.5778 9.30333 9.22091 9.65118C8.96718 9.89814 8.65924 9.91395 8.44465 9.70313C8.22179 9.48403 8.23609 9.19265 8.48456 8.93063C8.60728 8.80113 8.74432 8.68368 8.85725 8.54589C9.35644 7.93979 9.04699 7.06038 8.27826 6.89399C7.85888 6.80364 7.5291 6.96325 7.23848 7.25463C5.7635 8.73036 4.31263 10.2324 2.80152 11.6705C0.547275 13.8156 0.395938 17.6525 2.74731 20.0603C3.40385 20.7327 4.06492 21.402 4.7433 22.0525C5.9156 23.1759 7.32657 23.724 9.26383 23.7195Z" fill="white"/>
<path d="M16.3189 3.33811C16.2037 2.62886 16.099 1.9821 15.9944 1.3361C15.9567 1.10495 15.916 0.873804 15.8814 0.641905C15.8325 0.312878 15.9936 0.0666736 16.291 0.0102046C16.5899 -0.0470173 16.8429 0.139707 16.9024 0.487556C17.0462 1.32857 17.1779 2.17184 17.3157 3.01436C17.3857 3.43976 17.4573 3.86516 17.528 4.29056C17.6199 4.83943 17.4896 5.02616 16.934 5.11801C15.6736 5.32582 14.4125 5.53137 13.1506 5.73315C12.7741 5.79338 12.5181 5.63452 12.4662 5.32657C12.4142 5.01712 12.6311 4.77619 13.0158 4.71445C13.8786 4.57591 14.7407 4.43662 15.6036 4.29658C15.6495 4.28905 15.6932 4.27249 15.7933 4.24538C15.6668 4.16632 15.5795 4.1076 15.4884 4.05489C11.5325 1.77957 6.42248 2.48505 3.23386 5.74746C3.16836 5.81447 3.10511 5.88524 3.03434 5.94623C2.8062 6.14274 2.52009 6.14349 2.32132 5.9515C2.11879 5.75724 2.09469 5.42219 2.32057 5.22192C2.93721 4.67379 3.52148 4.06618 4.2119 3.62874C8.08944 1.17422 12.0671 1.01686 16.1126 3.23044C16.16 3.2568 16.2089 3.28089 16.3189 3.33811Z" fill="white"/>
</svg>
