<svg width="156" height="152" viewBox="0 0 156 152" fill="none" xmlns="http://www.w3.org/2000/svg">
<g clip-path="url(#clip0_79_15088)">
<path d="M151.246 64.6327C150.961 64.2275 150.758 63.7412 150.474 63.336C148.807 60.9046 148.442 58.2302 148.807 55.3531C149.051 53.2864 149.295 51.2198 149.417 49.1531C149.783 44.3714 148.117 40.4408 144.216 37.5231C142.103 35.9428 139.827 34.646 137.592 33.1872C135.479 31.8095 133.976 29.9859 133.122 27.6356C132.228 25.1638 131.375 22.6919 130.359 20.3011C128.652 16.3299 125.645 13.7769 121.378 12.8449C119.956 12.5207 118.493 12.2371 117.03 12.1966C111.91 12.0345 107.562 10.373 104.23 6.28027C103.052 4.82146 101.589 3.60578 100.085 2.51168C97.119 0.32346 93.8276 -0.446468 90.1703 0.282938C87.2852 0.850253 84.5626 1.98488 81.7588 2.9169C79.2394 3.72735 76.8012 3.8084 74.3225 2.95742C72.2501 2.26854 70.1776 1.62018 68.1459 0.890775C62.782 -0.973261 58.0682 0.201893 54.0047 4.09206C52.6637 5.38878 51.2821 6.6855 49.9818 8.02274C47.8281 10.292 45.2274 11.5887 42.0985 11.8724C40.92 11.9534 39.7822 12.156 38.6038 12.2371C31.3707 12.6423 26.4944 16.0867 24.422 23.1376C24.0969 24.1912 23.6905 25.2448 23.3655 26.2984C22.3496 29.7833 20.2365 32.3363 17.0669 34.1192C15.1164 35.2134 13.2472 36.3885 11.4999 37.7663C8.53347 40.1166 6.74551 43.0747 6.54233 46.9244C6.46106 48.8694 6.58296 50.774 6.86741 52.6786C7.43631 56.6903 7.68012 60.5805 5.07945 64.1464C2.88513 67.1856 0.975254 70.468 0 74.1555V77.8025C0.975254 81.5711 3.04767 84.7724 5.16072 87.9737C5.28263 88.1763 5.40453 88.4194 5.52644 88.622C7.15186 91.0129 7.55822 93.6468 7.1925 96.4429C6.94868 98.4285 6.74551 100.455 6.58296 102.481C6.13597 107.506 7.80203 111.639 12.0281 114.556C14.1412 116.015 16.3355 117.434 18.4892 118.811C20.5616 120.149 22.0245 121.972 22.8372 124.282C23.5686 126.389 24.3407 128.456 25.1128 130.522C26.982 135.507 30.5173 138.465 35.7593 139.316C36.8158 139.478 37.8724 139.721 38.9289 139.721C44.049 139.843 48.397 141.544 51.7291 145.637C53.0294 147.218 54.6549 148.595 56.3615 149.771C59.206 151.675 62.2537 152.323 65.6265 151.675C68.1459 151.189 70.5027 150.338 72.8596 149.446C76.1917 148.15 79.4426 148.028 82.7747 149.365C84.4814 150.054 86.2287 150.54 87.9354 151.108C93.0555 152.81 97.6473 151.837 101.589 148.15C103.092 146.772 104.555 145.354 105.937 143.895C108.091 141.626 110.691 140.369 113.82 140.086C114.958 139.964 116.136 139.802 117.315 139.721C124.548 139.316 129.384 135.871 131.537 128.82C131.984 127.321 132.594 125.903 133.082 124.403C133.894 121.891 135.52 120.027 137.714 118.609C139.99 117.15 142.346 115.853 144.419 114.192C147.385 111.841 149.173 108.883 149.376 105.034C149.458 103.089 149.336 101.184 149.051 99.2795C148.482 95.3083 148.198 91.4586 150.758 87.9332C152.993 84.8129 154.943 81.5306 155.959 77.762V74.4392C155.187 70.7921 153.277 67.6719 151.246 64.6327ZM148.442 80.2744C147.751 81.328 147.223 82.5032 146.451 83.4757C142.793 88.2979 141.899 93.7279 142.956 99.5631C143.159 100.819 143.24 102.076 143.322 103.332C143.525 105.966 142.631 108.113 140.396 109.613C138.73 110.747 137.064 111.923 135.316 112.936C131.172 115.326 128.368 118.73 126.946 123.309C126.58 124.525 126.052 125.66 125.726 126.875C124.507 131.414 121.46 133.48 116.868 133.683C115.039 133.764 113.251 134.048 111.423 134.331C108.131 134.818 105.246 136.195 102.808 138.546C101.061 140.248 99.3134 141.95 97.566 143.611C95.3311 145.799 92.7304 146.407 89.764 145.313C88.0167 144.665 86.1881 144.178 84.4407 143.53C80.0115 141.869 75.6228 141.95 71.2342 143.611C69.1618 144.381 67.0487 145.151 64.895 145.678C62.9039 146.164 61.0753 145.799 59.4499 144.543C58.2308 143.611 57.0524 142.639 56.0771 141.463C51.7291 136.155 45.9995 133.886 39.254 133.683C38.36 133.643 37.4254 133.48 36.5314 133.318C33.8901 132.873 31.9802 131.454 31.0049 128.942C30.0703 126.511 29.1763 124.039 28.2417 121.567C27.0633 118.447 25.0722 115.934 22.2683 114.111C20.1146 112.692 17.9609 111.274 15.7666 109.896C13.2066 108.235 12.2313 105.844 12.5564 102.845C12.7596 101.062 12.8408 99.32 13.0847 97.5775C13.8161 92.9174 12.8002 88.6626 10.1995 84.7319C9.22428 83.2731 8.33029 81.7332 7.39568 80.2339C5.56707 77.3973 5.60771 74.5202 7.43631 71.6836C8.12712 70.63 8.69601 69.4954 9.42745 68.4824C13.1253 63.5791 13.9786 58.1491 12.8815 52.2328C12.6377 50.9766 12.597 49.7204 12.5158 48.4642C12.3532 45.9518 13.2066 43.8852 15.3196 42.4264C17.0669 41.2512 18.8549 40.0355 20.6835 38.9414C24.7471 36.5506 27.5103 33.1467 28.8919 28.6487C29.2576 27.433 29.7859 26.2984 30.111 25.0827C31.33 20.5442 34.3777 18.4776 38.9695 18.2749C41.0419 18.1939 43.1143 17.7887 45.1461 17.4645C48.1938 16.9782 50.7945 15.5194 52.9888 13.4528C54.8174 11.7103 56.646 9.9273 58.4746 8.18483C60.6283 6.11818 63.1071 5.67243 65.9109 6.60445C67.9427 7.29333 69.9745 7.90117 71.9656 8.63058C76.1511 10.1704 80.2959 9.9273 84.4407 8.42797C86.5132 7.65804 88.6262 6.88811 90.7799 6.36132C92.8929 5.83452 94.8028 6.1587 96.5095 7.53647C97.6473 8.46849 98.8257 9.40051 99.7603 10.4946C104.108 15.722 109.757 18.0723 116.421 18.2344C116.624 18.2344 116.827 18.2749 117.03 18.2749C121.419 18.4776 124.386 20.4632 125.605 24.8396C125.97 26.1363 126.539 27.3925 126.946 28.6892C128.368 33.1872 131.131 36.5911 135.195 38.9414C136.779 39.8329 138.283 40.8865 139.827 41.8591C142.55 43.6015 143.687 46.0329 143.281 49.2341C143.078 51.1387 142.875 53.0433 142.672 54.9478C142.184 58.8785 142.793 62.6066 144.947 66.0105C146.126 67.915 147.263 69.8196 148.442 71.6836C150.27 74.6013 150.27 77.4378 148.442 80.2744Z" fill="#CFCFCF"/>
<g clip-path="url(#clip1_79_15088)">
<path d="M87.9704 58.8578C87.9704 60.2752 87.8439 61.702 87.5927 63.14C87.3415 64.5779 86.9637 65.8872 86.4613 67.0641C86.3031 67.7075 86.0761 68.3025 85.7784 68.8471C85.4788 69.3917 85.1904 69.9307 84.9075 70.4585C84.6563 70.7644 84.42 71.1075 84.2004 71.488C83.9809 71.8704 83.8078 72.2396 83.6831 72.5959C81.5153 75.746 79.1204 78.1426 76.4985 79.7895C73.8748 81.4363 71.2287 82.1712 68.5603 81.9977C66.8949 81.8914 65.4118 81.4158 64.1074 80.5709C62.803 79.726 61.8372 78.5734 61.2101 77.1187C60.5811 75.884 60.2053 74.5393 60.0787 73.0864C59.9522 71.6335 60.0787 70.1358 60.4565 68.5897C60.8342 66.637 61.4762 64.7215 62.388 62.8471C63.2979 60.9727 64.5075 59.0088 66.0166 56.9572L66.2529 56.9367C66.4092 56.9237 66.4967 56.9088 66.5116 56.8901C66.5264 56.8733 66.5357 56.8024 66.5357 56.6756L66.7721 56.3716L67.0084 56.3511L67.2447 56.3306C67.2763 56.3269 67.3229 56.3082 67.3861 56.2709C67.4178 56.2373 67.4494 56.2112 67.481 56.1926C67.5127 56.1739 67.5276 56.1348 67.5276 56.0713C67.5276 55.9464 67.5666 55.8643 67.6448 55.8251C67.7229 55.7878 67.6839 55.7114 67.5276 55.5995L67.8104 55.5752C68.5324 54.8516 69.2153 54.2324 69.8592 53.7195C70.503 53.2066 71.0761 52.8653 71.5785 52.6956L71.8149 52.675V52.9119C71.6883 52.9231 71.5637 52.9902 71.439 53.1096C71.3124 53.2308 71.1878 53.3614 71.0612 53.4975L71.2976 53.477C71.3608 53.4099 71.4222 53.3483 71.4855 53.2961C71.5488 53.2439 71.6102 53.1842 71.6734 53.1152C71.7367 53.0481 71.7832 52.9809 71.8149 52.9138C71.8149 52.7888 71.8223 52.7086 71.8391 52.675C71.8539 52.6433 71.9247 52.5575 72.0512 52.4195C72.3024 52.2722 72.5145 52.136 72.6876 52.0092C72.8606 51.8843 73.0709 51.8096 73.324 51.7891C73.0728 51.8115 72.8216 51.8805 72.5704 51.9962C72.3191 52.1137 72.0679 52.1827 71.8167 52.2032C71.5655 52.3505 71.3292 52.4419 71.1096 52.4773C70.89 52.5128 70.717 52.5352 70.5923 52.5464C70.4341 52.6862 70.2927 52.7702 70.168 52.7963C70.0415 52.8242 69.9168 52.8429 69.7903 52.8522C69.5707 52.8709 69.3195 53.0667 69.0367 53.4379C68.9101 53.449 68.8394 53.4472 68.8245 53.4323C68.8078 53.4173 68.8004 53.3334 68.8004 53.1749C68.8004 53.1432 68.8152 53.1115 68.8469 53.076C68.8785 53.0425 68.9008 53.0089 68.9176 52.9753C68.9325 52.9436 68.9715 52.9231 69.0348 52.9175L68.7985 52.938L68.5622 52.9585V52.7217V52.4848V51.9645C70.3206 50.6776 72.1107 49.7021 73.9343 49.0382C75.7561 48.3761 77.4829 48.0982 79.1167 48.2063C81.6604 48.3928 83.711 49.4168 85.2648 51.28C86.8167 53.1432 87.7192 55.6703 87.9704 58.8578ZM78.0765 69.9736C78.0765 69.8169 78.1398 69.7311 78.2644 69.7218C78.2644 69.6267 78.311 69.5222 78.4059 69.4029C78.5008 69.2854 78.5938 69.1735 78.6887 69.0709V68.7874L78.9715 68.5729V68.7613C79.3493 67.9425 79.7103 66.9895 80.0564 65.904C80.4007 64.8204 80.6519 63.7275 80.81 62.6271C80.9663 61.5267 81.0054 60.4692 80.9273 59.4527C80.8491 58.4362 80.5737 57.5709 80.1029 56.8565C79.5689 55.7394 78.6422 55.1425 77.3229 55.0698C76.9768 55.0996 76.5841 55.1425 76.145 55.1966C75.704 55.2507 75.2034 55.3496 74.6377 55.4932L74.8257 55.7132V55.9501L75.062 55.9296V56.1646C74.9354 56.1758 74.8573 56.2149 74.8257 56.2802C74.794 56.3455 74.7308 56.3828 74.6377 56.3903C74.5744 56.4593 74.5205 56.504 74.4721 56.5227C74.4256 56.5432 74.3698 56.5712 74.3065 56.6085C74.2432 56.6458 74.1967 56.6663 74.1651 56.6682C74.1651 56.7316 74.1483 56.7875 74.1185 56.8379C74.0869 56.8882 74.0553 56.9461 74.0236 57.0113C73.992 57.0785 73.9604 57.127 73.9287 57.1605C73.8338 57.2948 73.7799 57.3788 73.7631 57.4105C73.7464 57.444 73.7389 57.5074 73.7389 57.6007C73.0151 58.578 72.3024 59.5758 71.5953 60.5979C70.8882 61.6199 70.3002 62.7185 69.8294 63.8935L69.6414 64.619C69.5782 64.908 69.4777 65.2867 69.3344 65.7548C69.193 66.2229 69.0441 66.7097 68.8859 67.2114C68.7278 67.7131 68.5864 68.198 68.4617 68.6662C68.3351 69.1343 68.2737 69.4775 68.2737 69.6976C68.1156 70.6562 68.1472 71.4955 68.3686 72.2154C68.5882 72.9372 68.8711 73.5172 69.2172 73.9592C69.5931 74.5244 70.0173 74.7873 70.49 74.7444C70.8677 74.8377 71.2213 74.8302 71.5506 74.7221C71.88 74.6157 72.2187 74.4833 72.5629 74.3267C73.3798 74.0357 74.2283 73.5601 75.1066 72.8999C75.9849 72.2415 76.8819 71.4153 77.7918 70.4212V70.2328L78.0746 70.2086V69.9736H78.0765Z" fill="#FF0000"/>
<path d="M112.365 57.1509C112.536 58.4229 112.543 59.6874 112.385 60.9445C112.229 62.2015 111.922 63.4511 111.464 64.6933C111.378 65.3292 111.207 65.8813 110.95 66.3476C110.694 66.8138 110.379 67.2484 110.009 67.6531C109.81 68.0429 109.646 68.3712 109.518 68.6397C109.389 68.9083 109.283 69.2179 109.198 69.5686C107.342 72.5918 105.232 74.871 102.863 76.4078C100.494 77.9446 98.0699 78.6645 95.5875 78.5694C94.0468 78.4463 92.6344 78.0061 91.3505 77.2471C90.0665 76.488 89.0542 75.41 88.3118 74.0168C87.7405 72.866 87.3628 71.6127 87.1767 70.2568C86.9906 68.9009 86.9701 67.4592 87.1134 65.9298C87.426 64.2158 87.9898 62.4645 88.803 60.6778C89.6162 58.891 90.6787 57.039 91.9906 55.1217C92.1339 55.1087 92.212 55.1105 92.2269 55.1217C92.2418 55.1348 92.2474 55.1982 92.2474 55.3138C92.2474 55.2 92.2548 55.1348 92.2697 55.1198C92.2846 55.1049 92.3628 55.09 92.506 55.0769C92.4781 54.965 92.4707 54.8942 92.4856 54.8643C92.4986 54.8345 92.5637 54.758 92.6772 54.6331L92.8912 54.6144L93.1052 54.8102V54.5958C93.2485 54.4689 93.3267 54.3906 93.3415 54.3608C93.3564 54.3309 93.349 54.26 93.3192 54.1481C94.004 53.3443 94.6385 52.7307 95.2228 52.3092C95.8071 51.8877 96.3989 51.5352 96.998 51.2536L97.0408 51.5072C96.9831 51.7982 96.812 51.9567 96.5272 51.9809L96.7412 51.9623C96.7412 51.8485 96.7915 51.772 96.8901 51.7347C96.9906 51.6974 97.1115 51.6154 97.2548 51.4886C97.1395 51.4979 97.1115 51.4512 97.1692 51.3468C97.2251 51.2424 97.3125 51.1137 97.426 50.9589C97.5116 50.8078 97.6549 50.7108 97.854 50.6642C98.0531 50.6176 98.2113 50.5187 98.3248 50.3658C98.068 50.5318 97.8689 50.6343 97.7256 50.6754C97.5823 50.7164 97.4111 50.8171 97.212 50.9775C96.9831 50.998 96.7561 51.0614 96.5272 51.1659C96.2984 51.2722 96.1272 51.33 96.0137 51.3393C95.7569 51.3617 95.6006 51.3822 95.5429 51.4028C95.4852 51.4233 95.4145 51.5072 95.3289 51.6583C95.2135 51.6676 95.0944 51.6862 94.9642 51.7105C94.8358 51.7366 94.6571 51.8168 94.4301 51.9511L94.4729 51.7329L94.4301 51.4792V51.6079C94.3724 51.6993 94.3017 51.7478 94.2161 51.7553L94.1305 51.5053V51.248C93.9872 51.1174 93.9165 51.0391 93.9165 51.0092C93.9165 50.9813 93.9742 50.8899 94.0877 50.7369C95.5987 49.575 97.2046 48.6686 98.9016 48.0195C100.599 47.3705 102.232 47.1336 103.801 47.3108C106.168 47.5048 108.109 48.428 109.622 50.0823C111.138 51.7329 112.05 54.0903 112.365 57.1509ZM104.062 67.2727L104.276 67.254C104.276 67.198 104.304 67.1085 104.361 66.9892C104.389 66.9295 104.419 66.8847 104.447 66.853C104.56 66.7299 104.625 66.6516 104.64 66.6217C104.655 66.5919 104.648 66.521 104.62 66.4091L104.834 66.3905C105.204 65.5866 105.526 64.656 105.796 63.6041C106.068 62.5503 106.246 61.4704 106.332 60.3626C106.417 59.2547 106.397 58.1842 106.267 57.1509C106.138 56.1177 105.859 55.2075 105.433 54.4148C105.033 54.0213 104.605 53.7005 104.149 53.4543C103.691 53.2081 103.18 53.0403 102.608 52.9452C102.151 52.8426 101.695 52.8538 101.239 52.9787C100.781 53.1037 100.312 53.2604 99.8265 53.445C99.8544 53.5569 99.94 53.6073 100.083 53.5942L100.297 53.79L100.083 53.8087C100.111 53.9206 100.083 53.9952 99.9977 54.0306C99.9121 54.0661 99.8116 54.1481 99.6981 54.2712C99.6702 54.3309 99.6255 54.3775 99.5697 54.4111C99.4543 54.4783 99.3557 54.5156 99.2701 54.523C99.298 54.6349 99.3054 54.7058 99.2924 54.7356C99.2775 54.7655 99.2143 54.8438 99.1007 54.9669L98.9296 55.2392V55.4966C98.2727 56.4403 97.6382 57.4046 97.0259 58.3875C96.4119 59.3703 95.8499 60.3999 95.3363 61.4741L95.5503 61.4555C95.5503 61.5693 95.5429 61.6569 95.528 61.7147C95.5131 61.7744 95.4498 61.9516 95.3345 62.2463C95.2489 62.5111 95.1354 62.8935 94.9921 63.3914C94.8488 63.8913 94.7055 64.3967 94.5641 64.9096C94.4208 65.4225 94.3073 65.9037 94.2217 66.355C94.1361 66.8064 94.1212 67.129 94.1789 67.3249C94.1212 68.2462 94.1863 69.1042 94.3706 69.9024C94.5567 70.7007 94.9195 71.3199 95.461 71.7582C95.5466 71.9503 95.7252 72.092 95.9969 72.1834C96.2667 72.2748 96.5328 72.3662 96.7896 72.4576C97.0166 72.437 97.2883 72.4072 97.6028 72.3643C97.9173 72.3233 98.2299 72.23 98.5444 72.0883C99.458 71.7805 100.321 71.2956 101.133 70.6391C101.946 69.9826 102.794 69.1135 103.68 68.0355L103.894 67.7165C104.008 67.7072 104.065 67.6307 104.065 67.4871V67.2727H104.062Z" fill="#FF0000"/>
<path d="M79.1285 86.9732C76.8695 87.6931 74.5528 88.4429 72.1877 89.243C69.8226 90.0412 67.6083 90.9104 65.5428 91.8056C65.0999 92.0145 64.6979 92.2066 64.3351 92.3745C63.9741 92.5442 63.548 92.712 63.0586 92.8855C62.9972 92.7531 63.0623 92.6206 63.2577 92.4882C63.4531 92.3558 63.5442 92.2532 63.5331 92.1768C63.1051 92.477 62.8353 92.6057 62.7199 92.5516C62.6064 92.4976 62.5171 92.4062 62.4557 92.2737C62.6659 92.2439 61.5234 91.2815 61.3541 91.2927C61.1959 91.3804 61.0843 91.4158 61.0191 91.4009C60.9521 91.386 60.3288 91.3337 60.1818 91.3468C60.0348 91.358 59.9305 91.3002 59.8691 91.1696C61.4564 89.8137 63.2614 88.5436 65.2934 87.4134C67.3273 86.2831 69.2774 85.373 71.1289 84.6493C72.9823 83.9257 74.5565 83.4221 75.8386 83.0677C77.1207 82.7152 77.8018 82.5213 77.8762 82.4243C78.3861 82.3254 79.1992 82.1259 80.3213 81.8629C81.4415 81.5999 82.705 81.322 84.1099 81.0553C85.5148 80.7886 86.9681 80.5704 88.4717 80.4082C89.9733 80.2478 91.3206 80.1732 92.5115 80.1545C93.7006 80.1359 94.6477 80.1825 95.3492 80.2571C96.0508 80.3336 96.3262 80.4585 96.1773 80.6189C96.2648 80.6245 96.5457 80.6432 97.0258 80.6805C97.5041 80.7178 99.6179 81.2456 99.1118 81.3034C98.6056 81.3612 98.0753 81.4116 97.5245 81.4601C96.9719 81.5085 96.5569 81.5458 96.2796 81.5664C96.0024 81.5869 96.1847 81.5776 96.8267 81.5477C96.8379 81.6242 94.0057 82.497 93.5387 82.5642C93.9722 82.5735 98.4177 82.6686 99.0913 82.7302C99.7649 82.7917 99.631 82.9055 99.1955 83.0099C98.7601 83.1144 98.3749 83.189 98.0362 83.2356C98.2205 83.327 98.5089 83.3867 98.8997 83.4165C99.2904 83.4464 99.6886 83.4669 100.098 83.4799C100.506 83.4911 99.4374 83.7802 97.9581 83.81C96.4806 83.8436 94.657 83.9257 92.4966 84.1458C90.3362 84.3677 88.0307 84.7109 85.593 85.2312C83.1628 85.746 81.008 86.3577 79.1285 86.9732Z" fill="#FF0000"/>
<path d="M79.8482 95.195C77.1444 96.2525 74.37 97.351 71.5397 98.5185C68.7112 99.6842 66.0726 100.932 63.6182 102.204C63.0916 102.5 62.6171 102.769 62.1872 103.008C61.7593 103.247 61.2513 103.489 60.6688 103.741C60.5832 103.573 60.6521 103.398 60.881 103.217C61.1098 103.036 61.214 102.896 61.1936 102.799C60.6949 103.211 60.3748 103.392 60.2297 103.33C60.0864 103.267 59.971 103.153 59.8836 102.987C60.1385 102.937 60.3916 102.821 60.6446 102.637C60.8996 102.452 60.9833 102.277 60.8958 102.111C61.1712 102.163 61.3108 102.135 61.3145 102.023C61.3182 101.909 61.415 101.797 61.6048 101.684C61.335 101.652 61.201 101.581 61.2047 101.469C61.2085 101.355 61.2401 101.255 61.3015 101.163C61.3629 101.072 61.4355 100.966 61.5173 100.848C61.6011 100.729 61.6029 100.611 61.5248 100.492C61.402 100.675 61.201 100.855 60.92 101.04C60.639 101.223 60.4064 101.376 60.2185 101.491C59.9636 101.538 59.9487 101.46 60.1701 101.251C60.3934 101.044 60.6093 100.932 60.8158 100.917C60.5981 100.883 60.3916 100.906 60.1962 100.986C60.0008 101.064 59.8203 101.15 59.6528 101.242C59.4872 101.331 59.2974 101.437 59.0834 101.56C58.8713 101.682 58.661 101.754 58.4563 101.779C58.2702 101.9 58.1363 101.954 58.0544 101.937C57.9725 101.922 57.8739 102.021 57.7604 102.238C57.4496 101.999 57.2058 101.891 57.0272 101.915C56.8486 101.937 56.7165 101.868 56.6309 101.702C58.4638 99.8595 60.5683 98.1157 62.9632 96.5397C65.3599 94.9637 67.6711 93.6787 69.8798 92.638C72.0886 91.5973 73.9736 90.8587 75.5144 90.329C77.0533 89.8012 77.872 89.5121 77.9558 89.3816C78.5717 89.2249 79.5505 88.9209 80.9014 88.518C82.2505 88.1152 83.7727 87.6843 85.4697 87.261C87.1668 86.8376 88.9252 86.4739 90.7526 86.1811C92.5762 85.8883 94.2193 85.7167 95.6744 85.6272C97.1277 85.5376 98.2888 85.5432 99.1541 85.6011C100.018 85.6607 100.366 85.8081 100.196 86.0244C100.302 86.0282 100.65 86.0338 101.238 86.0561C101.826 86.0785 102.582 86.942 101.912 87.0353C101.24 87.1286 100.736 87.1994 100.399 87.2423C100.06 87.2852 100.284 87.261 101.067 87.1864C101.088 87.2852 101.032 87.343 100.903 87.3654C100.775 87.3859 100.617 87.4009 100.432 87.4083C100.246 87.4158 100.036 87.4232 99.798 87.4326C99.5598 87.4419 99.3663 87.4699 99.2155 87.5184C100.689 87.4307 101.571 87.4624 101.854 87.5445C102.137 87.6303 102.113 87.7067 101.782 87.7795C101.45 87.8522 100.931 87.9063 100.22 87.9548C99.5114 88.0033 98.9327 87.9828 98.4879 87.8876C98.2498 88.0368 98.2795 88.1096 98.5717 88.1096C98.8638 88.1096 99.2583 88.0835 99.757 88.0406C100.254 87.9958 100.751 87.9604 101.251 87.9268C101.75 87.8932 102.057 87.9082 102.174 87.9622C100.66 88.0891 99.584 88.2383 98.9383 88.3483C98.2926 88.4584 97.6878 88.5721 97.1221 88.6859C97.6524 88.6728 98.3019 88.643 99.0685 88.6076C99.8352 88.5721 100.628 88.5479 101.45 88.5385C102.273 88.5292 103.097 88.546 103.927 88.5908C104.755 88.6337 104.601 88.7885 104.078 88.947C103.555 89.1055 103.088 89.2249 102.679 89.3032C102.911 89.4114 103.268 89.4729 103.748 89.4897C104.229 89.5065 104.718 89.5121 105.219 89.5047C105.717 89.4972 105.466 89.7546 105.325 89.8404C105.334 89.8926 104.433 89.9299 102.626 90.0511C100.821 90.1761 98.5977 90.385 95.9721 90.7916C93.3484 91.1981 90.5553 91.7726 87.6152 92.582C84.6845 93.3803 82.0979 94.2923 79.8482 95.195Z" fill="#FF0000"/>
<path d="M62.8733 54.5731C63.0203 54.5601 63.2139 54.4929 63.4521 54.3717C63.6902 54.2523 63.9582 54.2747 64.2522 54.4444C63.9582 54.6291 63.6809 54.8436 63.4241 55.0823C63.1655 55.3229 62.8901 55.5355 62.5961 55.7201C62.5961 56.0353 62.5496 56.3244 62.4584 56.5893C62.3653 56.8541 62.3207 57.0649 62.3207 57.2215C62.1365 58.4189 61.915 59.6797 61.6582 61.002C61.3996 62.3244 61.1149 63.6597 60.8023 65.0082C60.4896 66.3566 60.1584 67.6864 59.8086 68.9976C59.4588 70.3087 59.1182 71.5714 58.787 72.7818C58.0148 75.6093 57.1662 78.3845 56.247 81.1056C55.8413 82.4037 55.3631 83.9834 54.8123 85.8448C54.2597 87.708 53.7088 89.56 53.1562 91.4008C52.6035 93.2435 52.0788 94.9165 51.5819 96.4179C51.0851 97.9193 50.7074 98.9786 50.4506 99.5941C50.3761 99.7974 50.3129 99.8925 50.257 99.8776C50.2012 99.8627 50.1361 99.8198 50.0635 99.7489C49.9891 99.6761 49.9333 99.5642 49.8979 99.4094C49.8235 99.4952 49.6951 99.7228 49.5109 100.094C49.3266 100.465 49.1145 100.928 48.8763 101.482C48.6363 102.035 48.3888 102.649 48.1301 103.322C47.8715 103.996 47.6333 104.637 47.4119 105.249C47.4119 104.934 47.4751 104.466 47.6054 103.843C47.7338 103.22 46.2693 102.593 46.5633 102.132C46.2675 101.726 44.3192 100.528 44.2094 100.913C44.0996 101.297 43.9694 101.575 43.8224 101.746C43.9694 101.416 44.0978 99.3777 44.0978 99.0644C44.87 95.6084 45.5883 92.3128 46.2507 89.1814C46.5447 87.8553 46.848 86.4789 47.1625 85.0521C47.4751 83.6272 47.7784 82.2489 48.0743 80.9228C48.3683 79.5968 48.6437 78.3416 48.9024 77.1554C49.1592 75.9711 49.3992 74.936 49.6206 74.0482C49.9147 72.8788 50.1361 71.9742 50.2831 71.3289C50.4301 70.6855 50.5492 70.1819 50.6422 69.8201C50.7334 69.4564 50.8078 69.1748 50.8637 68.9733C50.9195 68.7719 50.9921 68.5294 51.0851 68.2441C51.1763 67.9606 51.2972 67.5745 51.4442 67.0896C51.5912 66.6028 51.8108 65.8941 52.1067 64.9616C51.8108 65.1462 51.5001 65.3234 51.1688 65.4912C50.8376 65.661 50.5976 65.8307 50.4506 66.0004C50.0449 66.1962 49.5574 66.5264 48.988 66.9926C48.4167 67.4589 47.8287 67.9569 47.2202 68.4866C46.6136 69.0162 43.7703 66.4779 43.6586 66.31C43.5488 66.144 43.4186 66.0676 43.2716 66.0806C43.2716 66.1589 42.5719 66.4033 42.4993 66.3305C42.4621 66.2951 43.2455 64.8534 43.9619 64.2155C44.6802 63.5777 45.3501 62.9734 45.9772 62.4046C46.6024 61.8357 46.9895 61.4646 47.1365 61.293V60.9983C46.8425 61.3415 46.5205 61.6455 46.1707 61.914C45.8209 62.1826 45.5269 62.3878 45.2868 62.5276C45.0468 62.6675 44.9184 62.7104 44.8998 62.6526C44.8812 62.5948 45.0747 62.3915 45.4785 62.0371C46.2507 61.375 46.9318 60.7204 47.5217 60.0751C48.1097 59.4298 48.6902 58.7751 49.2615 58.1112C49.8309 57.4491 50.4208 56.7739 51.0274 56.0857C51.634 55.3993 52.3616 54.6832 53.2083 53.9334C53.9805 53.193 54.4681 52.7136 54.6709 52.4973C54.8737 52.2828 55.0207 52.1392 55.1119 52.0721C55.2031 52.0049 55.3333 51.9247 55.499 51.8296C55.6646 51.7363 56.0963 51.4398 56.7959 50.9418V50.6471L57.0713 50.621C57.4751 50.4271 57.8175 50.2555 58.0929 50.1119C58.3683 49.9683 58.5805 49.8899 58.7275 49.875C59.1313 50.1529 59.3899 50.4028 59.4997 50.6285C59.6095 50.8542 60.7874 52.1019 60.9362 52.0888C60.9362 51.9322 60.9828 51.8296 61.0739 51.7811C61.1651 51.7345 61.2116 51.6114 61.2116 51.4137L61.487 51.3876L61.7624 51.3615C61.8722 51.3503 62.4435 51.4547 62.5905 51.6375C62.5905 51.9135 62.637 52.2045 62.7282 52.5103C62.8194 52.8181 62.8659 53.1855 62.8659 53.6182C63.0129 53.6051 63.1041 53.5567 63.1413 53.4746C63.1767 53.3925 63.2697 53.4242 63.4167 53.566C63.4167 53.7226 63.3609 53.8756 63.2511 54.0248C63.1506 54.1833 63.0203 54.3624 62.8733 54.5731Z" fill="#FF0000"/>
</g>
</g>
<defs>
<clipPath id="clip0_79_15088">
<rect width="156" height="152" fill="white"/>
</clipPath>
<clipPath id="clip1_79_15088">
<rect width="70" height="58" fill="white" transform="translate(42.5 47.25)"/>
</clipPath>
</defs>
</svg>
