<svg width="17" height="17" viewBox="0 0 17 17" fill="none" xmlns="http://www.w3.org/2000/svg">
<g clip-path="url(#clip0_99_15398)">
<path d="M8.5 9.29688C8.13344 9.29688 7.83594 9.59414 7.83594 9.96094C7.83594 10.3262 8.10488 10.625 8.5 10.625C8.89512 10.625 9.16406 10.3277 9.16406 9.96094C9.16406 9.56582 8.86523 9.29688 8.5 9.29688ZM14.875 0H2.125C0.95459 0 0 0.95459 0 2.09512V11.6277C0 12.8563 0.95459 13.7826 2.125 13.7826H5.3125V16.5418C5.3125 16.8685 5.67873 17.0564 5.94734 16.8622L10.0938 13.7826H14.875C16.0454 13.7826 17 12.828 17 11.6875V2.09512C17 0.95459 16.0471 0 14.875 0ZM15.9375 11.6875C15.9375 12.2719 15.4594 12.75 14.875 12.75H10.0904C9.8604 12.75 9.63654 12.8246 9.4526 12.9627L6.375 15.2734V13.2812C6.375 12.9878 6.13713 12.75 5.84375 12.75H2.125C1.54062 12.75 1.0625 12.2719 1.0625 11.6875V2.125C1.0625 1.54062 1.54062 1.0625 2.125 1.0625H14.875C15.4594 1.0625 15.9375 1.54062 15.9375 2.125V11.6875ZM9.23379 3.1875H7.62676C6.64395 3.1875 5.84375 3.9877 5.84375 4.96719C5.84375 5.26084 6.08135 5.49844 6.375 5.49844C6.66865 5.49844 6.90625 5.26084 6.90625 4.96719C6.90625 4.57207 7.22832 4.25 7.62676 4.25H9.23611C9.70859 4.25 10.0938 4.63516 10.0938 5.10996C10.0938 5.43784 9.91216 5.73252 9.61131 5.8826L8.2543 6.58418C8.07832 6.67715 7.96875 6.85977 7.96875 7.05566V7.96875C7.96875 8.26094 8.20781 8.5 8.5 8.5C8.79219 8.5 9.03125 8.2624 9.03125 7.96875V7.38105L10.0938 6.82955C10.7495 6.50167 11.1562 5.84143 11.1562 5.10896C11.1562 4.04746 10.293 3.1875 9.23379 3.1875Z" fill="black"/>
</g>
<defs>
<clipPath id="clip0_99_15398">
<rect width="17" height="17" fill="white"/>
</clipPath>
</defs>
</svg>
