<svg width="15" height="15" viewBox="0 0 15 15" fill="none" xmlns="http://www.w3.org/2000/svg">
<rect width="15" height="14.1127" rx="4" fill="white"/>
<path d="M13.5891 8.72358C13.5543 9.00711 13.5287 9.29429 13.4812 9.57599C13.2434 11.0028 12.6598 12.2741 11.7306 13.3826C11.4983 13.6606 11.1361 13.6936 10.8654 13.4777C10.5233 13.2052 10.4483 12.8521 10.6861 12.5393C10.9971 12.1296 11.2953 11.7162 11.5257 11.2552C11.8623 10.5857 12.0836 9.88147 12.1769 9.13881C12.3928 7.42301 11.9922 5.8572 10.9971 4.44687C10.8599 4.25298 10.6971 4.07554 10.5544 3.88348C10.3624 3.62373 10.3953 3.31093 10.6312 3.06399C10.8818 2.80241 11.1965 2.74753 11.4654 2.9268C11.5166 2.95972 11.5641 3.00179 11.6044 3.04752C12.6068 4.1981 13.2415 5.52428 13.483 7.03338C13.5269 7.30228 13.5525 7.57483 13.5873 7.84739C13.5891 8.14006 13.5891 8.43091 13.5891 8.72358Z" fill="#7B68EE"/>
<path d="M6.79737 8.29175C6.79737 9.65817 6.79737 11.0246 6.79737 12.391C6.79737 12.7678 6.58518 13.0239 6.24128 13.066C6.04922 13.0898 5.88825 13.013 5.74374 12.8922C4.82547 12.1294 3.90538 11.3685 2.98711 10.6075C2.82797 10.4758 2.67065 10.3368 2.5042 10.2124C2.44566 10.1685 2.36335 10.1356 2.29201 10.1356C1.75788 10.1301 1.22192 10.1338 0.685956 10.1319C0.245115 10.1319 0 9.885 0 9.4405C0 8.6704 0 7.90213 0 7.13203C0 6.69119 0.250603 6.44241 0.691444 6.44241C1.2274 6.44241 1.76153 6.44424 2.29749 6.43875C2.36883 6.43875 2.45298 6.40583 2.50785 6.3601C3.58709 5.47293 4.66084 4.57844 5.73825 3.68944C6.05653 3.42604 6.43701 3.4553 6.67298 3.75712C6.77724 3.88883 6.79919 4.04431 6.79919 4.20711C6.79736 5.56805 6.79737 6.92898 6.79737 8.29175Z" fill="#7B68EE"/>
<path d="M10.5969 8.244C10.5951 9.37079 10.2695 10.3476 9.63474 11.222C9.42621 11.5073 9.0567 11.5768 8.77866 11.3848C8.43477 11.1488 8.32502 10.7775 8.5244 10.4683C8.72928 10.1519 8.93232 9.83724 9.04939 9.47506C9.42986 8.3007 9.27804 7.20134 8.57013 6.1843C8.47867 6.0526 8.3799 5.91175 8.33599 5.76175C8.25185 5.46908 8.44758 5.1453 8.75488 5.0008C9.01829 4.87824 9.32011 4.95507 9.51401 5.20018C10.2292 6.10381 10.5932 7.13366 10.5969 8.244Z" fill="#7B68EE"/>
</svg>
