<svg width="33" height="32" viewBox="0 0 33 32" fill="none" xmlns="http://www.w3.org/2000/svg">
<path d="M16.3698 3.19723C16.3184 1.70432 17.4882 0.281371 18.9667 0.0498719C20.3794 -0.220724 21.8815 0.636335 22.3888 1.978C22.7067 2.79082 22.6913 3.75179 22.2684 4.52551C21.8291 5.34965 21.042 6.00196 20.1119 6.17276C18.8381 6.44747 17.4265 5.81676 16.803 4.6675C16.5468 4.21891 16.4202 3.70858 16.3698 3.19723ZM19.0151 0.192887C17.803 0.387345 16.7845 1.39462 16.5776 2.60562C16.3657 3.70652 16.8647 4.91649 17.7948 5.54514C18.334 5.95772 19.0305 6.13263 19.7024 6.09353C20.5831 6.01945 21.4175 5.54205 21.9217 4.81566C22.7191 3.73327 22.6048 2.11278 21.6861 1.13637C21.0317 0.39249 19.9884 0.0375252 19.0151 0.192887Z" fill="#C8A265"/>
<path d="M19.0163 0.19427C19.9896 0.0389091 21.0329 0.393874 21.6873 1.13776C22.6061 2.11417 22.7203 3.73466 21.9229 4.81704C21.4187 5.54343 20.5843 6.02084 19.7036 6.09491C19.0317 6.13401 18.3352 5.9591 17.796 5.54652C16.8659 4.91787 16.3669 3.70791 16.5789 2.607C16.7857 1.39601 17.8043 0.388729 19.0163 0.19427ZM17.0326 3.22536C17.0266 3.43594 17.0658 3.63745 17.1297 3.83246C17.3095 4.38152 17.635 4.89791 18.1235 5.20641C18.8278 5.65121 19.7566 5.75005 20.5164 5.38807C21.5196 4.99813 22.071 3.84269 21.9404 2.80558C21.934 2.6802 21.912 2.5599 21.8781 2.44386C21.6264 1.58411 20.8668 0.887125 19.9898 0.704655C19.7945 0.664017 19.5934 0.649074 19.3887 0.666528C18.0728 0.667557 16.9287 1.91559 17.0326 3.22536Z" fill="#EFBB5E"/>
<path d="M17.0319 3.2232C16.928 1.91343 18.0721 0.6654 19.3881 0.664371C19.8239 0.627211 20.2432 0.736905 20.6258 0.928775C20.9421 1.08744 20.9624 1.50742 20.7053 1.7506C20.4763 1.96715 20.2485 2.18505 20.0297 2.41186C19.948 2.49653 19.8029 2.45092 19.7881 2.33421C19.7794 2.26548 19.8228 2.20062 19.8898 2.18283C19.926 2.17321 19.9642 2.16305 19.9998 2.15352C20.0607 2.1372 20.1055 2.08806 20.1144 2.02561C20.1251 1.95035 20.081 1.87615 20.009 1.85176C19.976 1.84058 19.943 1.82942 19.91 1.81826C19.7993 1.78079 19.7229 1.67929 19.7174 1.56252C19.7152 1.51609 19.7131 1.46968 19.711 1.42333C19.7064 1.32235 19.6185 1.24513 19.5178 1.25395C19.4417 1.26063 19.3802 1.31573 19.3545 1.38773C19.2421 1.70256 19.0119 1.94873 18.8006 2.20292C18.764 2.24694 18.726 2.30211 18.708 2.35647C18.5428 2.8566 18.8037 3.47251 18.4172 3.83034C18.4091 3.83781 18.4011 3.84526 18.393 3.85271C17.9396 4.27066 17.1504 4.12893 17.0522 3.52013C17.0366 3.42305 17.0291 3.32417 17.0319 3.2232Z" fill="#F6E2AD"/>
<path d="M19.3557 1.38839C19.3814 1.31639 19.4428 1.26128 19.519 1.25461C19.6197 1.24579 19.7076 1.32301 19.7122 1.42398C19.7143 1.47034 19.7164 1.51674 19.7186 1.56317C19.724 1.67995 19.8005 1.78144 19.9112 1.81892C19.9442 1.83008 19.9771 1.84123 20.0101 1.85241C20.0821 1.8768 20.1262 1.95101 20.1156 2.02627C20.1067 2.08872 20.0619 2.13786 20.001 2.15417C19.9214 2.17548 19.8289 2.19993 19.774 2.21453C19.7149 2.23263 19.6757 2.28891 19.6787 2.35069C19.6893 2.56804 19.7015 2.79574 19.8277 2.97591C19.8548 3.01457 19.8844 3.05151 19.9125 3.08948C20.0402 3.26241 20.2179 3.4338 20.2735 3.63707C20.322 3.81475 20.221 3.991 20.1229 4.14691C19.9626 4.40176 19.7913 4.65061 19.6313 4.90562C19.6091 4.94098 19.5796 4.9659 19.5397 4.97798C19.4528 5.00426 19.3569 4.95824 19.3232 4.87396C19.3061 4.8311 19.2883 4.78853 19.2703 4.74614C19.248 4.69346 19.2099 4.64917 19.1624 4.61726C19.1047 4.57849 19.0483 4.53807 18.9931 4.49605C18.8572 4.39249 18.934 4.1935 19.1048 4.19449C19.2159 4.19513 19.3064 4.103 19.3096 3.99196C19.3182 3.69266 19.3386 3.37307 19.0991 3.1611C18.889 2.96188 18.6263 2.69811 18.6982 2.39575C18.719 2.30825 18.7755 2.23475 18.8333 2.16586C19.0356 1.92483 19.2488 1.68762 19.3557 1.38839ZM19.125 2.62424C19.1748 2.71867 19.2915 2.63469 19.2878 2.528C19.2827 2.38362 19.1149 2.34043 19.1015 2.48427C19.0968 2.53474 19.1031 2.58275 19.125 2.62424Z" fill="#EEBB60"/>
<path d="M20.7154 1.74368C20.97 1.50298 21.3885 1.52901 21.5787 1.82331C21.7711 2.12128 21.9212 2.44237 21.9396 2.80616C22.0703 3.84327 21.5188 4.9987 20.5156 5.38865C19.8263 5.71704 18.9979 5.66616 18.3243 5.32178C17.7804 5.04378 17.8765 4.3261 18.3281 3.91482C18.4646 3.79044 18.5988 3.66349 18.7308 3.53424C18.9391 3.33025 19.2799 3.33675 19.3064 3.6271C19.3173 3.74702 19.3118 3.87221 19.3083 3.99404C19.3051 4.10508 19.2146 4.1972 19.1036 4.19656C18.9327 4.19558 18.8559 4.39457 18.9918 4.49813C19.047 4.54015 19.1034 4.58057 19.1611 4.61934C19.2086 4.65125 19.2467 4.69554 19.269 4.74822C19.287 4.79061 19.3048 4.83318 19.3219 4.87604C19.3557 4.96032 19.4515 5.00634 19.5384 4.98006C19.5783 4.96798 19.6079 4.94306 19.63 4.90769C19.79 4.65269 19.9613 4.40384 20.1217 4.14899C20.2198 3.99308 20.3208 3.81683 20.2722 3.63915C20.2166 3.43588 20.0389 3.26449 19.9112 3.09156C19.8831 3.05359 19.8535 3.01665 19.8264 2.97799C19.6879 2.78022 19.6867 2.52518 19.6743 2.28943C19.673 2.2648 19.6885 2.24238 19.7121 2.23517C19.7438 2.22547 19.7765 2.24666 19.7807 2.27952C19.7843 2.30786 19.7879 2.33617 19.7915 2.36445C19.8049 2.47013 19.9363 2.51166 20.0101 2.4348C20.2381 2.19733 20.4762 1.96982 20.7154 1.74368Z" fill="#EFD595"/>
<path d="M9.60459 8.5389C10.2471 8.05047 11.1968 7.96191 11.5291 8.69739C11.6724 9.01449 11.7682 9.35145 11.7963 9.70498C11.9558 11.058 11.2191 12.449 10.0451 13.1209C9.04774 13.7041 7.7732 13.7007 6.74647 13.2014C5.95121 12.8147 6.03172 11.7812 6.69217 11.1932C6.88158 11.0245 7.07043 10.8553 7.2555 10.6821C7.57925 10.379 8.10419 10.3737 8.09191 10.817C8.08768 10.9698 8.06089 11.1281 8.03142 11.2789C7.99793 11.4502 7.84399 11.5744 7.67009 11.5594C7.62691 11.5557 7.58377 11.5516 7.54068 11.5471C7.40656 11.533 7.28647 11.632 7.27967 11.7667C7.27409 11.8773 7.3475 11.9766 7.4547 12.0044C7.53604 12.0254 7.61738 12.0467 7.69872 12.0682C7.86068 12.1109 7.99361 12.2267 8.0487 12.3849C8.06656 12.4362 8.08416 12.4876 8.10238 12.5388C8.13469 12.6297 8.21061 12.698 8.30619 12.7107C8.46457 12.7318 8.6035 12.6129 8.62351 12.4544C8.63504 12.363 8.65079 12.2726 8.68066 12.1864C8.69649 12.1407 8.72239 12.0993 8.75434 12.063C8.95697 11.8328 9.24084 11.6391 9.35807 11.3606C9.44108 11.1634 9.45369 10.9343 9.40662 10.7256C9.34372 10.4467 9.12914 10.2266 8.89717 10.0388C8.73238 9.90539 8.62526 9.71245 8.61776 9.50056C8.6148 9.41681 8.61196 9.3331 8.60919 9.24942C8.59952 8.95688 8.85062 8.73073 9.14271 8.74956C9.23409 8.75545 9.32508 8.7323 9.40173 8.68222C9.47127 8.63678 9.53882 8.5889 9.60459 8.5389Z" fill="#EFD595"/>
<path d="M19.1225 18.6075C19.6348 18.1807 20.3933 18.1111 20.7601 18.668C21.2953 19.4807 21.5777 20.4586 21.5332 21.4359C21.5352 22.33 21.2091 23.1788 20.7812 23.9517C20.7425 24.0215 20.7894 24.1085 20.869 24.1136C20.9967 24.1218 21.0006 24.2618 20.8727 24.2674C20.4461 24.2859 20.0179 24.2836 19.5917 24.3065C19.0795 24.3469 18.5661 24.3644 18.0525 24.3774C17.6249 24.3882 17.3504 23.8847 17.714 23.6594C18.2511 23.3209 18.3385 22.5883 18.1801 22.0224C18.0556 21.6026 17.6451 21.3855 17.356 21.0913C16.9823 20.7559 17.4058 20.1448 17.7802 19.8103C18.2282 19.4099 18.6628 18.9947 19.1225 18.6075Z" fill="#EFD595"/>
<path d="M19.2876 2.52908C19.2913 2.63578 19.1746 2.71976 19.1248 2.62533C19.1029 2.58384 19.0966 2.53583 19.1013 2.48536C19.1147 2.34152 19.2825 2.38471 19.2876 2.52908Z" fill="#F8D996"/>
<path d="M6.18086 6.28211C7.13566 5.70696 8.31991 5.6123 9.39303 5.84997C10.8582 6.22757 12.1011 7.4077 12.4961 8.87695C12.6826 9.50355 12.703 10.1621 12.596 10.8017C12.5158 11.2817 12.847 11.78 13.3337 11.7815L13.2215 11.7856C13.0015 11.7879 12.7814 11.7921 12.5614 11.7966C12.4313 11.7993 12.3132 11.8718 12.2484 11.9846C12.018 12.3859 11.7539 12.7742 11.4367 13.1087C11.3035 13.2494 11.2117 13.1344 11.351 12.9997C12.1854 12.1766 12.5836 10.9718 12.5178 9.8122C12.455 8.47054 11.6854 7.18958 10.5402 6.48994C9.72125 5.96315 8.71397 5.76149 7.75197 5.88599C6.46998 6.03415 5.32277 6.85931 4.66326 7.95198C4.23421 8.6578 4.06856 9.49839 4.10355 10.3174C4.13053 10.9109 4.32806 11.4756 4.51867 12.0326C4.52451 12.0496 4.50137 12.061 4.49144 12.0459C4.04593 11.4337 3.9667 10.6456 3.98008 9.91201C3.99757 8.42321 4.88344 6.99924 6.18086 6.28211Z" fill="#BFA46C"/>
<path d="M4.66371 7.95294C5.32323 6.86026 6.47043 6.0351 7.75242 5.88694C8.71443 5.76245 9.7217 5.96411 10.5407 6.49089C11.6858 7.19053 12.4554 8.47149 12.5182 9.81316C12.5841 10.9727 12.1859 12.1775 11.3515 13.0006C11.07 13.273 10.7925 13.5493 10.5051 13.8167C10.5 13.8214 10.4946 13.8256 10.4887 13.8293C10.4816 13.8338 10.4739 13.8375 10.4659 13.8403C9.72583 14.0987 8.96732 14.4017 8.16912 14.3536C7.30177 14.296 6.43751 14.0161 5.74507 13.4822C5.62411 13.3952 5.5108 13.3 5.40372 13.1983C4.75266 12.5803 4.34487 11.7325 4.17083 10.8519C4.13613 10.6763 4.1122 10.4986 4.104 10.3183C4.06902 9.49935 4.23467 8.65875 4.66371 7.95294ZM5.11437 8.68447C4.60816 9.83682 4.79232 11.2443 5.56193 12.2382C6.57435 13.5789 8.60022 13.9647 10.0448 13.12C11.2187 12.4481 11.9554 11.0571 11.7959 9.7041C11.7494 9.11798 11.5167 8.57744 11.1901 8.09739C10.8777 7.63822 10.4549 7.25833 9.96222 7.00201C9.379 6.69859 8.73049 6.52545 8.06726 6.59481C6.79247 6.66478 5.61132 7.51155 5.11437 8.68447Z" fill="#EEBB5F"/>
<path d="M15.1282 15.6015C16.2353 15.3083 17.4268 15.3371 18.5297 15.6376C18.967 15.8197 19.4012 16.0121 19.8086 16.2549C21.072 17.0005 21.9907 18.2499 22.4187 19.6439C22.4243 19.6621 22.4415 19.6741 22.4605 19.673C22.4818 19.6717 22.5004 19.687 22.5034 19.7081C22.6226 20.5511 22.692 21.4087 22.5825 22.2574C22.4984 22.8978 22.2564 23.5029 21.9712 24.0788C21.9436 24.1346 21.8874 24.1702 21.8252 24.1721C21.3057 24.148 21.0026 23.5717 21.1935 23.088C21.4014 22.5613 21.5343 22.0081 21.533 21.4363C21.5958 20.0566 21.0073 18.6758 19.9753 17.7601C19.0102 16.901 17.7046 16.4041 16.4061 16.5255C15.0727 16.5903 13.8143 17.292 12.983 18.3229C12.0694 19.466 11.7103 21.0433 12.0899 22.4621C12.235 23.0867 12.5385 23.6608 12.9089 24.1793C13.0198 24.3378 12.9578 24.5603 12.7789 24.6338C12.754 24.6441 12.7291 24.6542 12.7041 24.6642C12.6667 24.6792 12.6271 24.6876 12.5869 24.6893C12.5479 24.6909 12.5089 24.6924 12.4698 24.6938C12.1183 24.7064 11.7769 24.5461 11.6003 24.2418C11.3294 23.7753 11.1326 23.2678 10.989 22.7467C10.9315 22.5378 10.8995 22.3228 10.8871 22.1065C10.8239 21.0027 10.8741 19.8624 11.3584 18.8508C12.0622 17.2817 13.4882 16.0913 15.1282 15.6015Z" fill="#EEBB5F"/>
<path d="M16.3789 18.0563C16.3843 17.837 16.5636 17.6622 16.7829 17.6645C17.0014 17.6669 17.1779 17.8441 17.179 18.0626C17.1793 18.1364 17.1797 18.2102 17.18 18.284C17.1811 18.5137 17.3316 18.716 17.552 18.7805C17.61 18.7975 17.668 18.8143 17.7262 18.8311C17.8901 18.8783 17.9911 19.0428 17.9591 19.2103C17.9575 19.2183 17.956 19.2264 17.9545 19.2344C17.921 19.4101 17.7445 19.5202 17.5721 19.4727C17.3819 19.4202 17.1924 19.5592 17.1849 19.7564C17.1777 19.9491 17.1711 20.1418 17.1687 20.3348C17.1923 20.589 17.144 20.9038 17.3549 21.0931C17.644 21.3874 18.0545 21.6045 18.179 22.0243C18.3375 22.5902 18.25 23.3227 17.7129 23.6612C17.421 23.8421 17.2256 24.1196 17.0426 24.4033C17.0423 24.4038 17.0419 24.4043 17.0415 24.4047C17.0351 24.4119 17.0399 24.4234 17.0495 24.4239C17.4542 24.4458 17.8598 24.4601 18.2644 24.4833C17.6873 24.4898 17.1101 24.4704 16.5337 24.4823C16.4335 24.4843 16.3539 24.3968 16.3668 24.2974C16.3772 24.2164 16.3267 24.1399 16.2479 24.1184C16.0179 24.0555 15.7879 23.993 15.5579 23.9306C15.4041 23.8889 15.3013 23.744 15.3135 23.5851C15.3285 23.3903 15.508 23.2511 15.7003 23.2851C15.7446 23.2929 15.789 23.3008 15.8333 23.3088C16.1144 23.3592 16.3772 23.1447 16.386 22.8592C16.3973 22.4892 16.4057 22.1187 16.3589 21.7506C16.342 21.3966 15.843 21.2999 15.5968 21.045C15.2796 20.7165 15.1139 20.256 15.2416 19.7885C15.302 19.3516 15.636 19.085 15.9997 18.8859C16.2156 18.7678 16.3652 18.5535 16.3722 18.3075C16.3747 18.2238 16.3769 18.14 16.3789 18.0563ZM16.0101 19.9613C16.0098 19.9832 16.0087 20.0052 16.0064 20.0269C16.0012 20.0755 16.0045 20.1211 16.0145 20.1643C16.0629 20.3743 16.3705 20.2645 16.3709 20.049C16.3713 19.8337 16.039 19.7108 16.0127 19.9246C16.0112 19.9366 16.0103 19.9488 16.0101 19.9613ZM17.4504 22.5136C17.4257 22.2725 17.1643 22.3485 17.1648 22.5909C17.1654 22.8262 17.4214 22.9095 17.4492 22.6759C17.4556 22.6223 17.4559 22.5678 17.4504 22.5136Z" fill="#EEBB5F"/>
<path d="M5.11565 8.68462C5.6126 7.51169 6.79376 6.66492 8.06854 6.59496C8.72358 6.52646 9.36427 6.6945 9.94187 6.99098C10.3597 7.20544 10.4292 7.75999 10.1009 8.09582C9.93205 8.2685 9.75302 8.43033 9.55837 8.5734C9.42287 8.673 9.23586 8.60108 9.17318 8.44503C9.155 8.39975 9.12388 8.36059 9.08252 8.33472C9.01277 8.29108 8.93978 8.25333 8.86566 8.21771C8.7216 8.14848 8.62738 8.00642 8.6254 7.8466C8.62487 7.80372 8.62439 7.76085 8.62393 7.71798C8.62216 7.55137 8.48372 7.4188 8.31724 7.42544C8.18475 7.43072 8.07392 7.52438 8.06594 7.65674C8.05247 7.8802 8.05161 8.11799 7.85453 8.24632C7.51443 8.53489 7.15759 8.87916 7.19362 9.32373C7.20324 9.44241 7.23475 9.55871 7.29173 9.66515C7.50381 9.98242 7.58559 10.3708 7.3081 10.6327C7.12205 10.8084 6.93183 10.9796 6.74078 11.1499C6.10696 11.715 5.07569 11.6226 4.90567 10.7907C4.76222 10.0887 4.82564 9.3448 5.11565 8.68462Z" fill="#F5E2AD"/>
<path d="M8.06494 7.6539C8.07292 7.52154 8.18374 7.42788 8.31624 7.4226C8.48272 7.41596 8.62116 7.54853 8.62293 7.71514C8.62338 7.75801 8.62387 7.80088 8.6244 7.84376C8.62638 8.00358 8.7206 8.14564 8.86466 8.21487C8.94056 8.25134 9.01527 8.29005 9.08653 8.33502C9.12452 8.359 9.15317 8.39504 9.16997 8.43671C9.23147 8.58923 9.11149 8.74577 8.94779 8.73007C8.93264 8.72861 8.91749 8.72712 8.90235 8.72559C8.73788 8.70903 8.59599 8.8396 8.60128 9.00482C8.60654 9.16879 8.61187 9.33282 8.61768 9.49698C8.62518 9.70888 8.7323 9.90181 8.89708 10.0352C9.12905 10.2231 9.34364 10.4432 9.40653 10.722C9.45361 10.9307 9.44099 11.1599 9.35798 11.357C9.24076 11.6355 8.95688 11.8292 8.75426 12.0594C8.72231 12.0957 8.69641 12.1371 8.68058 12.1828C8.6507 12.269 8.63496 12.3594 8.62342 12.4508C8.60341 12.6093 8.46449 12.7282 8.30611 12.7072C8.21053 12.6945 8.13461 12.6261 8.1023 12.5352C8.08408 12.484 8.06648 12.4326 8.04862 12.3813C7.99353 12.2231 7.8606 12.1073 7.69864 12.0646C7.6173 12.0431 7.53596 12.0218 7.45462 12.0008C7.34742 11.9731 7.27401 11.8737 7.27959 11.7631C7.28639 11.6284 7.40648 11.5294 7.54059 11.5435C7.58369 11.548 7.62683 11.5522 7.67001 11.5559C7.84391 11.5708 7.99784 11.4466 8.03133 11.2753C8.11217 10.8618 8.17283 10.3911 7.80312 10.1356C7.62718 9.98435 7.4214 9.85779 7.29073 9.66231C7.23375 9.55587 7.20223 9.43957 7.19262 9.32089C7.15659 8.87631 7.51343 8.53205 7.85353 8.24348C8.05061 8.11514 8.05147 7.87736 8.06494 7.6539ZM7.87992 8.83441C7.8253 8.84694 7.78863 8.89293 7.78847 8.94898C7.7883 9.00855 7.79191 9.06751 7.79981 9.12542C7.82633 9.31962 8.02973 9.27101 8.03563 9.0751C8.03679 9.03676 8.03787 8.99844 8.03888 8.96013C8.04106 8.87739 7.9606 8.81589 7.87992 8.83441ZM8.62393 11.2819C8.68789 11.3684 8.80531 11.2846 8.808 11.1771C8.81274 10.9878 8.56146 10.9654 8.57919 11.1539C8.58376 11.2025 8.59755 11.2462 8.62393 11.2819Z" fill="#EEBA5F"/>
<path d="M7.78919 8.95265C7.78935 8.89661 7.82603 8.85062 7.88065 8.83809C7.96133 8.81957 8.04179 8.88106 8.0396 8.96381C8.03859 9.00212 8.03752 9.04044 8.03636 9.07878C8.03045 9.27469 7.82705 9.3233 7.80054 9.1291C7.79263 9.07119 7.78902 9.01223 7.78919 8.95265Z" fill="#FAE6B0"/>
<path d="M8.80758 11.1809C8.80489 11.2884 8.68747 11.3722 8.62351 11.2857C8.59713 11.25 8.58334 11.2063 8.57877 11.1577C8.56104 10.9692 8.81232 10.9916 8.80758 11.1809Z" fill="#F4CF82"/>
<path d="M26.329 11.4729C26.1629 11.477 26.1606 11.3411 26.3266 11.3359C26.4947 11.3307 26.4971 11.4687 26.329 11.4729Z" fill="#389AC3"/>
<path d="M28.0044 11.3219C29.0385 11.2643 30.0745 11.2829 31.1106 11.2592C31.6085 11.3039 31.9283 11.6587 31.9714 12.1567C32.0133 12.6415 31.9881 13.1342 31.9975 13.6194C32.0051 14.5338 31.3974 15.2129 30.483 15.2153C30.3069 15.2158 30.1314 15.2209 29.9573 15.2399C28.9366 15.3099 27.9139 15.3006 26.8932 15.3439C25.4189 15.4498 23.9393 15.4097 22.4649 15.5013C21.6316 15.5058 20.8 15.5501 19.9681 15.5874C19.0135 15.6303 18.0632 15.4586 17.1091 15.4052C16.4425 15.368 15.7705 15.4296 15.1269 15.6C13.9684 15.9159 12.7564 15.7863 11.5711 15.8511C10.1276 15.9293 8.68098 15.9108 7.23952 16.0126C5.88762 16.0275 4.53704 16.101 3.18566 16.1297C2.51468 16.144 1.84185 16.0303 1.17229 16.0762C0.913204 16.0939 0.655153 16.1366 0.400135 16.1997C0.388758 16.2026 0.380712 16.2042 0.36903 16.2051C0.244495 16.2153 0.133723 16.1174 0.130927 15.9925C0.105227 14.8447 0.00954929 13.6947 0.0926316 12.549C0.0953947 12.5109 0.108062 12.4755 0.130858 12.4448C0.163872 12.4004 0.214267 12.3701 0.269145 12.3631C1.57889 12.1953 2.90559 12.3285 4.21357 12.1553C4.32691 12.145 4.43635 12.1995 4.50078 12.2933C4.97559 12.9847 5.56005 13.6189 6.32484 13.9898C7.60374 14.6473 9.27465 14.6761 10.4774 13.8345L10.497 13.8221C11.1095 13.5121 11.5753 13.0159 11.9536 12.4578C12.2204 12.0644 12.6441 11.7923 13.1194 11.7862C13.1873 11.7853 13.2552 11.79 13.3226 11.7989C14.1335 11.9055 14.9546 11.8923 15.7576 11.7284C16.2433 11.6944 16.731 11.6893 17.2187 11.6923C17.8134 11.7006 18.4039 11.609 18.9997 11.6049C20.0748 11.7098 21.1696 11.6903 22.2375 11.5205C23.1152 11.4979 23.9887 11.394 24.8674 11.4043C25.9086 11.5329 26.9683 11.4722 28.0044 11.3219Z" fill="#29ABE3"/>
<path d="M28.6355 19.4467C29.3259 19.4307 30.0162 19.4208 30.7062 19.4003C31.5482 19.3754 32.3212 20.0094 32.287 20.8511C32.143 21.8347 32.323 22.8183 32.3755 23.8009C32.4547 25.2074 32.393 26.617 32.464 28.0245C32.4739 28.3875 32.489 28.7502 32.5056 29.1128C32.5518 30.1174 32.0034 30.9493 31.0009 31.0288C29.2549 31.0844 27.5089 31.1554 25.7618 31.1708C23.6382 31.2984 21.5105 31.3447 19.3828 31.3807C17.3271 31.5052 15.2683 31.5484 13.2095 31.5834C11.5561 31.6914 9.89852 31.7254 8.24305 31.7634C7.61852 31.7655 6.99399 31.7871 6.36946 31.782C4.66768 31.6811 2.96694 31.9414 1.26619 31.8643C0.93901 31.8848 0.732204 31.5978 0.7178 31.2973C0.612854 30.2633 0.646808 29.2211 0.570671 28.185C0.577873 27.6129 0.567584 27.0409 0.538775 26.4698C0.52546 26.2242 0.521319 25.9778 0.515741 25.7316C0.495963 24.8583 0.472276 23.9796 0.441629 23.1066C0.428663 22.7373 0.397127 22.3686 0.345345 22.0014C0.318251 21.1225 0.991032 20.3663 1.87006 20.3463C2.42921 20.3335 2.98824 20.3182 3.5462 20.2708C5.27678 20.2471 7.0053 20.1628 8.73486 20.1257C9.89817 20.0429 10.7392 21.0339 10.8588 22.194C10.8758 22.3594 10.8978 22.5243 10.9253 22.6887C10.9237 22.6621 10.9641 22.6558 10.9709 22.6815C11.1552 23.3719 11.4309 24.0405 11.8465 24.6241C11.8844 24.6773 11.9468 24.7072 12.0122 24.7054C12.2236 24.6996 12.4355 24.6944 12.6467 24.6847C13.8793 24.6364 15.1078 24.5201 16.3424 24.4841C16.9824 24.4625 17.6234 24.4872 18.2644 24.48C17.8586 24.4567 17.4519 24.4424 17.0461 24.4204C17.0378 24.4199 17.0337 24.4101 17.0392 24.4039C17.041 24.4019 17.0436 24.4007 17.0463 24.4006C17.8948 24.376 18.7442 24.3718 19.5906 24.3051C20.3318 24.2651 21.0792 24.3016 21.8134 24.1722C21.8207 24.1709 21.828 24.1702 21.8354 24.1699C21.8907 24.1682 21.9407 24.1365 21.9654 24.0869C22.2527 23.5079 22.497 22.8996 22.5816 22.2555C22.759 20.8807 23.706 19.619 25.0915 19.5747C25.6059 19.5583 26.1204 19.5451 26.6351 19.5385C26.8598 19.5356 27.0838 19.5583 27.3073 19.582C28.2268 19.6795 29.1571 19.5363 30.0801 19.529C29.5543 19.5341 29.0306 19.4899 28.5069 19.4508L28.6355 19.4467ZM12.6417 24.8347C12.4986 24.8359 12.499 24.9596 12.6421 24.9597C12.7878 24.9598 12.7875 24.8334 12.6417 24.8347Z" fill="#29ABE3"/>
<path d="M31.9053 11.6766C31.8893 11.5986 31.9848 11.5399 32.0435 11.5937C32.06 11.6088 32.0693 11.6302 32.0693 11.6526C32.0673 12.2726 32.0933 12.8916 32.1044 13.5116C32.1178 14.0508 32.1476 14.5889 32.1538 15.127C32.1538 15.1726 32.117 15.2096 32.0715 15.21L32.0375 15.2103C31.3441 15.2227 30.6516 15.2288 29.9592 15.2412C30.1333 15.2222 30.3089 15.217 30.4849 15.2166C31.3993 15.2141 32.007 14.5351 31.9994 13.6207C31.9868 12.9739 32.0359 12.3136 31.9053 11.6766Z" fill="#4D97B8"/>
<path d="M20.6598 11.6673C20.4881 11.6719 20.4845 11.5319 20.6562 11.5277C20.8273 11.5234 20.8309 11.6627 20.6598 11.6673Z" fill="#309BC6"/>
<path d="M13.335 11.7831C13.7576 11.7561 14.1809 11.7396 14.6044 11.7318C14.7546 11.729 14.7637 11.86 14.6135 11.8653C14.187 11.8803 13.7591 11.8578 13.334 11.8025C13.3218 11.8009 13.3227 11.7836 13.335 11.7831Z" fill="#2C9BC8"/>
<path d="M1.7736 12.1478C2.64019 12.1272 3.50585 12.068 4.37236 12.0493C4.44681 12.0477 4.51675 12.0847 4.55776 12.1468C4.89111 12.6417 5.25534 13.1304 5.74509 13.4823C6.43753 14.0163 7.30179 14.2962 8.16913 14.3538C8.5517 14.3768 8.60672 14.4857 8.22359 14.4756C7.56372 14.4581 6.90437 14.2893 6.32538 13.9916C5.56059 13.6207 4.97613 12.9865 4.50131 12.2951C4.43688 12.2013 4.32745 12.1468 4.21411 12.1571C3.40026 12.1386 2.58745 12.1396 1.7736 12.1478Z" fill="#8BA397"/>
<path d="M1.27164 12.2851C1.02482 12.2952 0.991459 12.1555 1.23848 12.1538C1.41854 12.1526 1.59874 12.1565 1.77372 12.1477C2.0067 12.1453 2.01064 12.2656 1.77769 12.2703C1.60893 12.2736 1.44022 12.2781 1.27164 12.2851Z" fill="#339FCA"/>
<path d="M0.044897 12.5966C0.0452858 12.5943 0.0456757 12.5928 0.0467722 12.5908C0.0578456 12.5703 0.0916561 12.5793 0.0900779 12.6025C0.00802341 13.8086 0.120043 15.0193 0.136028 16.2272C0.154548 16.5235 0.177183 16.8188 0.19879 17.1151C0.200506 16.6859 0.543252 16.3373 0.972377 16.3307C1.75975 16.3188 2.54743 16.3103 3.33277 16.2498C2.98501 16.2302 2.63827 16.1942 2.29257 16.1582L2.17733 16.1448C3.86573 16.1448 5.55207 16.0348 7.24047 16.0162C8.68193 15.9144 10.1285 15.9329 11.5721 15.8547C12.7573 15.7899 13.9694 15.9195 15.1279 15.6037C13.4878 16.0934 12.0618 17.2838 11.3581 18.8529C10.8261 19.9641 10.8179 21.2306 10.9084 22.4334C10.9126 22.4982 10.9218 22.6278 10.9259 22.6927C10.8984 22.5283 10.8764 22.3633 10.8594 22.198C10.7398 21.0379 9.89875 20.0469 8.73543 20.1297C7.00588 20.1668 5.27736 20.2511 3.54678 20.2748C2.79786 20.3384 2.047 20.3442 1.29653 20.3636C0.72701 20.3784 0.229658 19.949 0.209079 19.3797C0.194675 18.8446 0.176155 18.3106 0.151462 17.7777C0.113393 16.686 0.0804683 15.5944 0.0640062 14.5027C0.056817 13.8681 -0.0631392 13.2272 0.044897 12.5966Z" fill="#4E4E4E"/>
<path d="M32.1532 15.131C32.1614 15.7175 32.181 16.3029 32.2046 16.8883C32.2478 17.7269 32.254 18.5675 32.2839 19.406C32.2921 19.8495 32.3178 20.2919 32.2983 20.7353L32.288 20.8568C32.3221 20.0151 31.5492 19.381 30.7071 19.406C30.0323 19.426 29.3571 19.4359 28.682 19.4513C28.6517 19.452 28.6214 19.4499 28.5915 19.4454C28.02 19.3584 27.4359 19.3236 26.866 19.4303C26.8247 19.438 26.8226 19.4932 26.8627 19.5058C26.8826 19.5121 26.8782 19.5415 26.8573 19.5417C25.4033 19.5548 23.9512 19.6245 22.4982 19.6746C22.4571 19.677 22.4199 19.6509 22.4076 19.6117C21.9749 18.2322 21.0611 16.9978 19.8087 16.2587C19.5327 16.0942 19.6293 15.6079 19.9502 15.5936C20.7885 15.5561 21.6265 15.5112 22.4663 15.5066C23.9406 15.415 25.4202 15.4551 26.8946 15.3491C27.9152 15.3059 28.9379 15.3152 29.9586 15.2452C30.6054 15.2337 31.2522 15.2275 31.8999 15.2167C31.9746 15.2155 32.0352 15.2766 32.0338 15.3513C32.0309 15.5123 32.1522 15.5112 32.153 15.3502C32.1532 15.3046 32.1533 15.2589 32.1532 15.2133V15.131Z" fill="#4E4E4E"/>
<path d="M32.036 15.2681C32.0367 15.2364 32.0625 15.211 32.0943 15.2107C32.127 15.2104 32.1537 15.2368 32.1537 15.2696C32.1536 15.2939 32.1536 15.3182 32.1535 15.3426C32.1527 15.504 32.0314 15.5052 32.0344 15.3438C32.0348 15.3185 32.0354 15.2933 32.036 15.2681Z" fill="#383837"/>
<path d="M1.1575 16.2037C1.03951 16.206 1.0286 16.0894 1.14627 16.0805C1.48957 16.0547 1.83482 16.0723 2.17736 16.1437C2.18983 16.1451 2.18933 16.1632 2.17679 16.1639C1.8371 16.1835 1.49738 16.197 1.1575 16.2037Z" fill="#4EA1CC"/>
<path d="M0.152959 16.4735C0.143446 16.3356 0.246825 16.2172 0.384544 16.2058C0.741625 16.2104 1.09838 16.2066 1.455 16.1955C2.01315 16.1781 2.57156 16.194 3.12849 16.2346C3.19673 16.2396 3.26501 16.2441 3.33332 16.2479C2.54798 16.3085 1.7603 16.3169 0.972932 16.3289C0.543807 16.3354 0.201062 16.6841 0.199345 17.1132C0.183776 16.8997 0.167672 16.6867 0.152959 16.4735Z" fill="#325061"/>
<path d="M12.9828 18.3243C13.8142 17.2934 15.0725 16.5917 16.4059 16.5269C17.3019 16.4431 18.2014 16.6538 18.99 17.0747C19.5749 17.3869 19.6315 18.1849 19.1222 18.6093C18.6119 19.039 18.1325 19.5033 17.6314 19.9435C17.4506 20.1024 17.1775 19.9701 17.1866 19.7296C17.1936 19.5461 17.3703 19.4167 17.5473 19.4655C17.5559 19.4679 17.5645 19.4703 17.5732 19.4727C17.7456 19.5202 17.9217 19.41 17.9552 19.2343C17.9567 19.2263 17.9582 19.2183 17.9598 19.2102C17.9918 19.0427 17.8908 18.8782 17.7269 18.831C17.6687 18.8142 17.6107 18.7974 17.5527 18.7804C17.3323 18.7159 17.1818 18.5136 17.1807 18.2839C17.1803 18.2101 17.18 18.1363 17.1796 18.0625C17.1786 17.844 17.0021 17.6668 16.7836 17.6644C16.5643 17.6621 16.385 17.8369 16.3796 18.0562C16.3775 18.1399 16.3753 18.2237 16.3729 18.3075C16.3658 18.5534 16.2163 18.7678 16.0004 18.8859C15.6366 19.0849 15.3027 19.3515 15.2422 19.7884C14.9952 20.6932 15.3471 22.0432 14.6547 22.6759C14.5388 22.7818 14.4222 22.8871 14.305 22.9916C13.5633 23.6532 12.3545 23.5049 12.1088 22.5419C12.1022 22.5159 12.0958 22.4897 12.0897 22.4635C11.7101 21.0447 12.0692 19.4674 12.9828 18.3243Z" fill="#F7E2AD"/>
<path d="M0.209331 19.3789C0.221678 19.7205 0.244313 20.0632 0.270035 20.4047C0.314277 20.9367 0.329711 21.4707 0.346173 22.0047C0.344115 22.7136 0.300902 23.4235 0.348231 24.1314C0.249458 23.6365 0.279296 23.1303 0.269007 22.6302C0.242256 21.5468 0.175378 20.4634 0.209331 19.3789Z" fill="#8DAAB7"/>
<path d="M26.8591 19.4997C26.8204 19.4877 26.8212 19.4338 26.8611 19.4263C27.4052 19.3237 27.9625 19.3503 28.5095 19.4283C28.524 19.4304 28.5228 19.4511 28.5081 19.4515C27.9614 19.4731 27.4158 19.5232 26.8682 19.5011C26.8647 19.501 26.8624 19.5008 26.8591 19.4997Z" fill="#2E4F64"/>
<path d="M16.0064 20.0241C16.0088 20.0023 16.0098 19.9803 16.0102 19.9584C16.0103 19.9459 16.0112 19.9337 16.0127 19.9217C16.039 19.7079 16.3713 19.8308 16.3709 20.0462C16.3705 20.2616 16.0629 20.3714 16.0145 20.1615C16.0045 20.1182 16.0012 20.0726 16.0064 20.0241Z" fill="#F7E5AB"/>
<path d="M26.9744 19.5385C26.9572 19.5331 26.9617 19.5069 26.9797 19.5073C27.4901 19.5192 27.9988 19.4742 28.5085 19.4542C29.0322 19.4933 29.5559 19.5375 30.0816 19.5324C29.0466 19.5406 28.0023 19.7196 26.9744 19.5385Z" fill="#48A2CE"/>
<path d="M32.2883 20.8543C32.2894 20.8405 32.31 20.8403 32.3116 20.854C32.3417 21.1244 32.3786 21.3949 32.4045 21.6661C32.4457 22.2803 32.4611 22.8966 32.4673 23.5129C32.4673 24.4996 32.5105 25.4853 32.5486 26.471C32.5805 27.2097 32.6278 27.9474 32.6412 28.6872C32.6454 28.9965 32.5006 28.9918 32.488 28.6827C32.479 28.4644 32.4712 28.2461 32.4652 28.0277C32.3943 26.6202 32.456 25.2106 32.3768 23.8041C32.3243 22.8215 32.1442 21.8379 32.2883 20.8543Z" fill="#63A2C0"/>
<path d="M15.6467 21.7348C15.8614 21.524 16.3446 21.4488 16.359 21.7494C16.4058 22.1175 16.3974 22.488 16.386 22.858C16.3773 23.1435 16.1145 23.358 15.8334 23.3076C15.789 23.2996 15.7447 23.2918 15.7004 23.2839C15.508 23.2499 15.3286 23.3891 15.3136 23.5839C15.3013 23.7428 15.4042 23.8877 15.558 23.9294C15.7794 23.9895 16.0008 24.0497 16.2222 24.1102C16.3157 24.1357 16.3758 24.2265 16.3634 24.3227C16.3514 24.4167 16.2728 24.4882 16.1781 24.4915C15.1416 24.5275 14.1091 24.6154 13.0745 24.6676C12.9934 24.6716 12.9675 24.5545 13.0422 24.5224C13.0844 24.5043 13.0991 24.4519 13.0726 24.4143C13.0485 24.3801 13.0245 24.3459 13.0006 24.3117C12.9484 24.2373 12.9627 24.1352 13.033 24.0776C13.9373 23.3362 14.8117 22.5546 15.6467 21.7348Z" fill="#EDD595"/>
<path d="M0.328908 23.6483C0.326222 23.5021 0.450696 23.4975 0.448892 23.6437C0.446395 23.8461 0.43857 24.0487 0.425692 24.2511C0.423792 24.281 0.382018 24.2841 0.37543 24.2549C0.369977 24.2276 0.358905 24.1755 0.351431 24.1424C0.349622 24.1344 0.348401 24.1263 0.347865 24.1181C0.337631 23.9616 0.331787 23.805 0.328908 23.6483Z" fill="#2D9AC7"/>
<path d="M17.1659 22.5879C17.1654 22.3455 17.4268 22.2694 17.4515 22.5106C17.457 22.5647 17.4567 22.6192 17.4503 22.6729C17.4225 22.9065 17.1665 22.8231 17.1659 22.5879Z" fill="#EDD693"/>
<path d="M0.363026 24.4289C0.365076 24.3997 0.406758 24.3965 0.413204 24.4251C0.53667 25.1011 0.502718 25.7904 0.539758 26.4736C0.568566 27.0446 0.578855 27.6167 0.571653 28.1887C0.556346 28.5775 0.531931 28.9663 0.52049 29.3551C0.52032 29.3609 0.516493 29.3659 0.51097 29.3676C0.502279 29.3703 0.493486 29.3637 0.4935 29.3546C0.494535 28.7085 0.442897 28.0633 0.427608 27.4171C0.429666 26.4417 0.308258 25.4673 0.358673 24.4909C0.359851 24.4741 0.361366 24.4525 0.363026 24.4289Z" fill="#6FA3BF"/>
<path d="M12.6433 24.9596C12.5002 24.9595 12.4998 24.8358 12.6429 24.8346C12.7887 24.8334 12.789 24.9597 12.6433 24.9596Z" fill="#0DADF5"/>
<path d="M0.572043 28.1876C0.64818 29.2236 0.614226 30.2659 0.719172 31.2999C0.733577 31.6004 0.940383 31.8874 1.26757 31.8668C2.41482 31.9189 3.56208 31.8174 4.70965 31.7768C5.0349 31.7652 5.04351 31.8952 4.71947 31.9255C3.88093 31.9594 3.04136 31.9419 2.20282 31.9821C1.82831 31.9903 1.44865 32.0315 1.07722 31.9625C0.773704 31.9101 0.60188 31.6024 0.582331 31.3174C0.519569 30.6682 0.53809 30.0149 0.520599 29.3636C0.531917 28.9716 0.55661 28.5796 0.572043 28.1876Z" fill="#449CC4"/>
</svg>
