<svg width="23" height="23" viewBox="0 0 23 23" fill="none" xmlns="http://www.w3.org/2000/svg">
<path fill-rule="evenodd" clip-rule="evenodd" d="M14.1656 18.8803C16.3791 16.0576 19.1673 11.9567 19.1673 9.20898C19.1673 4.65263 15.7348 0.958984 11.5007 0.958984C7.26647 0.958984 3.83398 4.65263 3.83398 9.20898C3.83398 11.9567 6.62221 16.0576 8.83572 18.8803C9.99055 20.3529 10.568 21.0892 11.5007 21.0892C12.4333 21.0892 13.0107 20.3529 14.1656 18.8803ZM11.5007 12.459C9.91283 12.459 8.62565 11.1718 8.62565 9.58398C8.62565 7.99617 9.91283 6.70898 11.5007 6.70898C13.0885 6.70898 14.3757 7.99617 14.3757 9.58398C14.3757 11.1718 13.0885 12.459 11.5007 12.459Z" fill="#7B68EE"/>
</svg>
