<svg width="10" height="8" viewBox="0 0 10 8" fill="none" xmlns="http://www.w3.org/2000/svg">
<path d="M8.57221 0.0681762C8.61412 0.0227254 8.65604 0 8.73988 0C8.80275 0 8.86563 0.0227254 8.92851 0.0681762L9.51536 0.727212C9.55728 0.772662 9.59919 0.840839 9.59919 0.909015C9.59919 0.999916 9.55728 1.06809 9.51536 1.11354L3.22768 7.93115C3.18576 7.9766 3.12288 7.99933 3.06001 7.99933C2.97617 7.99933 2.91329 7.9766 2.87137 7.93115L0.0838358 4.88595C0.0209589 4.8405 0 4.79505 0 4.70415C0 4.63597 0.0209589 4.5678 0.0838358 4.49962L0.670686 3.86331C0.712604 3.81786 0.775481 3.77241 0.859316 3.77241C0.922193 3.77241 0.98507 3.81786 1.02699 3.86331L3.06001 6.06767L8.57221 0.0681762Z" fill="white"/>
</svg>
