<svg width="156" height="152" viewBox="0 0 156 152" fill="none" xmlns="http://www.w3.org/2000/svg">
<path d="M151.285 64.6341C151.001 64.2287 150.798 63.7424 150.513 63.337C148.847 60.905 148.481 58.2298 148.847 55.352C149.091 53.2848 149.334 51.2176 149.456 49.1504C149.822 44.3675 148.156 40.4358 144.254 37.5174C142.14 35.9366 139.864 34.6395 137.628 33.1803C135.515 31.8022 134.011 29.9782 133.157 27.6273C132.263 25.1548 131.409 22.6822 130.393 20.2908C128.686 16.3185 125.678 13.7649 121.41 12.8327C119.988 12.5084 118.525 12.2247 117.061 12.1841C111.94 12.022 107.591 10.3601 104.258 6.26629C103.079 4.8071 101.616 3.5911 100.112 2.49671C97.1446 0.307916 93.8522 -0.462214 90.1941 0.267383C87.3082 0.834847 84.5849 1.96978 81.7803 2.90204C79.2602 3.7127 76.8214 3.79377 74.342 2.94257C72.2691 2.25351 70.1961 1.60498 68.1638 0.875381C62.7985 -0.989146 58.0835 0.186317 54.0189 4.0775C52.6776 5.37456 51.2956 6.67163 49.9949 8.00922C47.8407 10.2791 45.2393 11.5761 42.1095 11.8599C40.9308 11.9409 39.7927 12.1436 38.614 12.2247C31.3789 12.63 26.5014 16.0753 24.4284 23.1281C24.1032 24.182 23.6968 25.2358 23.3716 26.2897C22.3554 29.7755 20.2418 32.3291 17.0714 34.1126C15.1204 35.207 13.2507 36.3824 11.5029 37.7606C8.53572 40.1115 6.74728 43.0704 6.54405 46.9211C6.46276 48.8667 6.5847 50.7717 6.86922 52.6768C7.43827 56.6896 7.68214 60.5808 5.08078 64.1477C2.88588 67.1877 0.97551 70.4709 0 74.1594V77.8074C0.97551 81.577 3.04847 84.7791 5.16208 87.9812C5.28401 88.1839 5.40595 88.4271 5.52789 88.6297C7.15374 91.0212 7.56021 93.6558 7.19439 96.4526C6.95051 98.4388 6.74728 100.465 6.5847 102.492C6.13759 107.518 7.80408 111.653 12.0313 114.571C14.1449 116.03 16.3398 117.449 18.4941 118.827C20.567 120.165 22.0303 121.989 22.8432 124.299C23.5748 126.407 24.3471 128.474 25.1194 130.541C26.9891 135.527 30.5253 138.486 35.7687 139.337C36.8255 139.499 37.8823 139.742 38.9391 139.742C44.0606 139.864 48.4097 141.566 51.7427 145.66C53.0434 147.241 54.6692 148.619 56.3764 149.794C59.2216 151.699 62.2701 152.348 65.6437 151.699C68.1638 151.213 70.5213 150.362 72.8788 149.47C76.2117 148.173 79.4635 148.051 82.7964 149.389C84.5036 150.078 86.2514 150.564 87.9585 151.132C93.0799 152.834 97.673 151.861 101.616 148.173C103.12 146.795 104.583 145.376 105.965 143.917C108.119 141.647 110.72 140.391 113.85 140.107C114.988 139.985 116.167 139.823 117.346 139.742C124.581 139.337 129.418 135.891 131.572 128.839C132.019 127.339 132.629 125.92 133.117 124.421C133.929 121.907 135.555 120.043 137.75 118.624C140.026 117.165 142.384 115.868 144.457 114.206C147.424 111.855 149.212 108.896 149.416 105.046C149.497 103.1 149.375 101.195 149.09 99.29C148.521 95.3177 148.237 91.467 150.798 87.9407C153.033 84.8196 154.984 81.5364 156 77.7668V74.4431C155.228 70.7951 153.318 67.6741 151.285 64.6341ZM148.481 80.2799C147.79 81.3338 147.261 82.5092 146.489 83.482C142.831 88.3055 141.937 93.7369 142.994 99.5737C143.197 100.83 143.278 102.087 143.359 103.343C143.563 105.978 142.668 108.126 140.433 109.626C138.766 110.761 137.1 111.936 135.352 112.95C131.206 115.341 128.402 118.746 126.979 123.326C126.613 124.542 126.085 125.677 125.76 126.893C124.54 131.433 121.492 133.5 116.899 133.703C115.07 133.784 113.281 134.067 111.452 134.351C108.16 134.838 105.274 136.216 102.835 138.567C101.087 140.269 99.3395 141.971 97.5917 143.633C95.3561 145.822 92.7548 146.43 89.7876 145.336C88.0398 144.687 86.2107 144.201 84.4629 143.552C80.0325 141.89 75.6427 141.971 71.2529 143.633C69.1799 144.403 67.0663 145.174 64.9121 145.7C62.9204 146.187 61.0913 145.822 59.4655 144.566C58.2461 143.633 57.0674 142.66 56.0918 141.485C51.7427 136.175 46.0116 133.905 39.2643 133.703C38.3701 133.662 37.4352 133.5 36.541 133.338C33.899 132.892 31.9886 131.473 31.0131 128.96C30.0782 126.528 29.184 124.056 28.2492 121.583C27.0704 118.462 25.0787 115.949 22.2742 114.125C20.1199 112.706 17.9656 111.288 15.7708 109.91C13.21 108.248 12.2345 105.856 12.5597 102.857C12.7629 101.073 12.8442 99.3305 13.0881 97.5876C13.8197 92.9262 12.8036 88.6703 10.2022 84.7385C9.2267 83.2793 8.33249 81.7391 7.39762 80.2394C5.56854 77.402 5.60918 74.5242 7.43827 71.6869C8.12925 70.633 8.6983 69.4981 9.42993 68.4847C13.1287 63.5802 13.9823 58.1488 12.8849 52.2309C12.641 50.9744 12.6003 49.7179 12.5191 48.4613C12.3565 45.9483 13.21 43.8811 15.3236 42.4219C17.0714 41.2464 18.8599 40.0304 20.6889 38.936C24.7536 36.5446 27.5175 33.1398 28.8995 28.6406C29.2653 27.4246 29.7937 26.2897 30.1189 25.0737C31.3383 20.534 34.3867 18.4668 38.9798 18.2641C41.0527 18.183 43.1257 17.7777 45.158 17.4535C48.2065 16.9671 50.8078 15.5079 53.0027 13.4407C54.8318 11.6977 56.6609 9.91428 58.49 8.17135C60.6442 6.10416 63.1237 5.6583 65.9282 6.59056C67.9606 7.27962 69.9929 7.88762 71.9845 8.61722C76.1711 10.1575 80.317 9.91428 84.4629 8.41455C86.5359 7.64442 88.6495 6.87429 90.8038 6.34736C92.9174 5.82043 94.8277 6.14469 96.5349 7.52282C97.673 8.45509 98.8517 9.38735 99.7866 10.4817C104.136 15.7105 109.786 18.0615 116.452 18.2236C116.655 18.2236 116.858 18.2641 117.061 18.2641C121.451 18.4668 124.418 20.4529 125.638 24.8305C126.003 26.1276 126.572 27.3841 126.979 28.6811C128.402 33.1803 131.166 36.5851 135.23 38.936C136.815 39.8278 138.319 40.8816 139.864 41.8544C142.587 43.5974 143.725 46.0293 143.319 49.2315C143.116 51.1365 142.912 53.0416 142.709 54.9467C142.221 58.8784 142.831 62.6074 144.985 66.0122C146.164 67.9173 147.302 69.8223 148.481 71.6869C150.31 74.6052 150.31 77.4426 148.481 80.2799Z" fill="#CFCFCF"/>
</svg>
