<svg width="38" height="36" viewBox="0 0 38 36" fill="none" xmlns="http://www.w3.org/2000/svg">
<path d="M13.6813 0.679597C16.3592 -0.0530263 19.2022 -0.193857 21.9433 0.259762C25.1481 0.778292 28.2009 2.13232 30.7318 4.12255C32.9863 5.88692 34.8285 8.15273 36.079 10.6995C37.2815 13.1312 37.9259 15.8176 38 18.5161V18.5803C37.9857 18.753 38.0039 18.9269 37.9763 19.0984C37.8922 19.8011 37.4649 20.4517 36.8538 20.8271C36.4261 21.0985 35.9092 21.2208 35.402 21.1972C35.2124 22.5748 34.8588 23.9318 34.3302 25.2225C33.635 26.9272 32.6555 28.5204 31.443 29.9208C29.1641 32.5586 26.0555 34.5025 22.6451 35.3968C20.2034 36.0421 17.6209 36.1727 15.1249 35.7738C12.5037 35.3615 9.98287 34.3598 7.80483 32.8744C5.24136 31.1377 3.15289 28.7394 1.80233 25.9889C-0.0903226 22.161 -0.505612 17.6662 0.619276 13.5612C1.43628 10.5412 3.07728 7.74277 5.31465 5.51681C7.60669 3.22442 10.5234 1.53635 13.6813 0.679597ZM14.8535 3.91529C12.3544 4.41939 9.99412 5.55325 8.04602 7.16464C5.68302 9.104 3.92763 11.7422 3.07689 14.6439C2.3956 16.9435 2.2688 19.3968 2.70077 21.7533C3.00865 23.4441 3.60618 25.0835 4.45576 26.586C5.85402 29.0667 7.94869 31.1628 10.4443 32.5962C13.0043 34.0808 15.9881 34.8403 18.961 34.8073C21.2337 34.7861 23.5013 34.3017 25.5735 33.3876C27.2544 32.6485 28.809 31.6354 30.1568 30.4051C32.8219 27.9825 34.6564 24.6979 35.2779 21.1881C34.713 21.1262 34.172 20.8696 33.7785 20.4673C33.3597 20.0448 33.108 19.4666 33.0941 18.8779C33.0902 18.4975 33.1026 18.1175 33.0879 17.7376C33.0347 16.111 32.6978 14.4935 32.0944 12.977C31.4981 11.4807 30.6481 10.0815 29.5891 8.85461C27.6507 6.5979 25.0058 4.93109 22.1015 4.14722C19.7501 3.5076 17.2421 3.42674 14.8535 3.91529Z" fill="#7B68EE"/>
</svg>
