<svg width="41" height="40" viewBox="0 0 41 40" fill="none" xmlns="http://www.w3.org/2000/svg">
<g clip-path="url(#clip0_2160_18016)">
<path d="M39.6907 17.0084C39.6161 16.9018 39.5628 16.7738 39.4881 16.6672C39.0509 16.0273 38.9549 15.3235 39.0509 14.5664C39.1149 14.0225 39.1789 13.4787 39.2109 12.9348C39.3069 11.6765 38.8696 10.6421 37.8459 9.8743C37.2914 9.45842 36.6942 9.11717 36.1077 8.73328C35.5532 8.37071 35.1586 7.89083 34.9347 7.27233C34.7001 6.62184 34.4761 5.97134 34.2095 5.34218C33.7617 4.29712 32.9725 3.6253 31.8528 3.38004C31.4796 3.29473 31.0957 3.22008 30.7118 3.20942C29.3682 3.16676 28.2271 2.72954 27.3527 1.6525C27.0435 1.2686 26.6596 0.948685 26.265 0.660762C25.4865 0.0849154 24.6228 -0.117697 23.663 0.0742516C22.9059 0.223545 22.1914 0.522132 21.4556 0.7674C20.7945 0.980677 20.1546 1.002 19.5041 0.778064C18.9603 0.596779 18.4164 0.426158 17.8832 0.234209C16.4756 -0.256327 15.2386 0.052924 14.1722 1.07665C13.8203 1.41789 13.4577 1.75914 13.1165 2.11104C12.5513 2.70822 11.8688 3.04946 11.0477 3.1241C10.7385 3.14543 10.4399 3.19875 10.1306 3.22008C8.23247 3.32672 6.95281 4.23314 6.40896 6.08865C6.32365 6.36591 6.21701 6.64317 6.1317 6.92043C5.8651 7.83751 5.31058 8.50933 4.47881 8.97854C3.96694 9.26647 3.47641 9.57572 3.01786 9.93829C2.2394 10.5568 1.77019 11.3352 1.71688 12.3483C1.69555 12.8602 1.72754 13.3614 1.80219 13.8626C1.95148 14.9183 2.01546 15.942 1.33298 16.8804C0.757131 17.6802 0.255932 18.544 0 19.5144V20.4741C0.255932 21.4659 0.799787 22.3083 1.35431 23.1508C1.3863 23.2041 1.41829 23.2681 1.45028 23.3214C1.87683 23.9506 1.98347 24.6437 1.8875 25.3795C1.82351 25.902 1.77019 26.4352 1.72754 26.9684C1.61024 28.2907 2.04745 29.3784 3.15649 30.1462C3.71101 30.5301 4.28686 30.9034 4.85204 31.2659C5.39589 31.6178 5.77979 32.0977 5.99307 32.7055C6.18502 33.2601 6.38763 33.8039 6.59024 34.3478C7.08078 35.6594 8.00853 36.4379 9.38416 36.6618C9.66142 36.7045 9.93868 36.7685 10.2159 36.7685C11.5596 36.8005 12.7006 37.2483 13.575 38.3254C13.9163 38.7413 14.3428 39.1038 14.7907 39.4131C15.5372 39.9143 16.337 40.0849 17.2221 39.9143C17.8832 39.7863 18.5017 39.5624 19.1202 39.3278C19.9947 38.9865 20.8478 38.9545 21.7222 39.3065C22.1701 39.4877 22.6286 39.6157 23.0765 39.765C24.4202 40.2129 25.6252 39.9569 26.6596 38.9865C27.0541 38.624 27.438 38.2507 27.8006 37.8668C28.3658 37.2697 29.0483 36.9391 29.8694 36.8644C30.168 36.8324 30.4772 36.7898 30.7865 36.7685C32.6846 36.6618 33.9536 35.7554 34.5188 33.8999C34.6361 33.5053 34.7961 33.1321 34.924 32.7375C35.1373 32.0764 35.5638 31.5858 36.1397 31.2126C36.7369 30.8287 37.3554 30.4875 37.8992 30.0503C38.6777 29.4318 39.1469 28.6533 39.2002 27.6402C39.2215 27.1284 39.1895 26.6272 39.1149 26.126C38.9656 25.0809 38.891 24.0679 39.5628 23.1401C40.1493 22.319 40.6612 21.4552 40.9277 20.4635V19.589C40.7251 18.6293 40.2239 17.8082 39.6907 17.0084ZM38.9549 21.1246C38.7737 21.4019 38.635 21.7111 38.4324 21.9671C37.4727 23.2361 37.2381 24.665 37.5153 26.2006C37.5686 26.5312 37.59 26.8618 37.6113 27.1924C37.6646 27.8855 37.43 28.4507 36.8435 28.8452C36.4063 29.1438 35.9691 29.4531 35.5105 29.7197C34.4228 30.3488 33.687 31.2446 33.3138 32.4496C33.2178 32.7695 33.0792 33.0681 32.9939 33.388C32.674 34.5824 31.8742 35.1262 30.6692 35.1796C30.1893 35.2009 29.7201 35.2755 29.2402 35.3502C28.3764 35.4781 27.6193 35.8407 26.9795 36.4592C26.5209 36.9071 26.0624 37.355 25.6038 37.7922C25.0173 38.368 24.3348 38.528 23.5564 38.2401C23.0978 38.0695 22.618 37.9415 22.1594 37.7709C20.9971 37.3336 19.8454 37.355 18.6937 37.7922C18.1498 37.9948 17.5953 38.1974 17.0301 38.336C16.5076 38.464 16.0277 38.368 15.6012 38.0375C15.2813 37.7922 14.972 37.5363 14.7161 37.227C13.575 35.83 12.0714 35.2329 10.3013 35.1796C10.0666 35.1689 9.82138 35.1262 9.58678 35.0836C8.89363 34.9663 8.39243 34.593 8.1365 33.9319C7.89123 33.2921 7.65662 32.6416 7.41136 31.9911C7.10211 31.17 6.57958 30.5088 5.84377 30.0289C5.27859 29.6557 4.71341 29.2825 4.13756 28.9199C3.46574 28.4827 3.20981 27.8535 3.29512 27.0644C3.34844 26.5952 3.36977 26.1366 3.43375 25.6781C3.6257 24.4517 3.3591 23.3321 2.67662 22.2977C2.42069 21.9138 2.18608 21.5085 1.94082 21.114C1.46094 20.3675 1.47161 19.6104 1.95148 18.8639C2.13276 18.5866 2.28206 18.2881 2.47401 18.0215C3.44441 16.7311 3.66835 15.3022 3.38043 13.7453C3.31645 13.4147 3.30578 13.0841 3.28446 12.7535C3.2418 12.0924 3.46574 11.5485 4.02026 11.1646C4.47881 10.8554 4.94801 10.5355 5.42789 10.2475C6.49427 9.61837 7.21941 8.72261 7.58198 7.53893C7.67795 7.21901 7.81658 6.92043 7.90189 6.60051C8.22181 5.40616 9.02159 4.86231 10.2266 4.80899C10.7705 4.78766 11.3143 4.68102 11.8475 4.59571C12.6473 4.46775 13.3298 4.08385 13.9056 3.53999C14.3855 3.08145 14.8654 2.61224 15.3452 2.1537C15.9104 1.60984 16.5609 1.49254 17.2967 1.73781C17.8299 1.91909 18.3631 2.07905 18.8856 2.271C19.984 2.67622 21.0717 2.61224 22.1594 2.21768C22.7033 2.01507 23.2578 1.81245 23.823 1.67383C24.3775 1.5352 24.8787 1.62051 25.3266 1.98308C25.6252 2.22834 25.9344 2.47361 26.1797 2.76153C27.3207 4.13717 28.803 4.75567 30.5519 4.79833C30.6052 4.79833 30.6585 4.80899 30.7118 4.80899C31.8635 4.86231 32.642 5.38483 32.9619 6.53653C33.0578 6.87777 33.2071 7.20835 33.3138 7.54959C33.687 8.73328 34.4122 9.62904 35.4785 10.2475C35.8944 10.4821 36.289 10.7594 36.6942 11.0153C37.4087 11.4739 37.7073 12.1137 37.6006 12.9561C37.5473 13.4573 37.494 13.9585 37.4407 14.4597C37.3127 15.4941 37.4727 16.4752 38.0379 17.371C38.3471 17.8722 38.6457 18.3734 38.9549 18.8639C39.4348 19.6317 39.4348 20.3782 38.9549 21.1246Z" fill="#CFCFCF"/>
<g clip-path="url(#clip1_2160_18016)">
<path d="M23.157 15.4949C23.157 15.8615 23.1245 16.2305 23.0599 16.6024C22.9953 16.9743 22.8982 17.3129 22.769 17.6173C22.7283 17.7837 22.6699 17.9375 22.5934 18.0784C22.5163 18.2192 22.4421 18.3586 22.3694 18.4951C22.3048 18.5742 22.244 18.663 22.1876 18.7614C22.1311 18.8603 22.0866 18.9558 22.0546 19.0479C21.4971 19.8626 20.8813 20.4824 20.2071 20.9083C19.5324 21.3342 18.852 21.5243 18.1658 21.4794C17.7376 21.4519 17.3562 21.3289 17.0208 21.1104C16.6854 20.8919 16.437 20.5938 16.2758 20.2176C16.1141 19.8983 16.0174 19.5505 15.9849 19.1748C15.9523 18.799 15.9849 18.4117 16.082 18.0118C16.1791 17.5068 16.3442 17.0114 16.5787 16.5267C16.8127 16.0419 17.1237 15.534 17.5117 15.0034L17.5725 14.9981C17.6127 14.9947 17.6352 14.9909 17.639 14.9861C17.6428 14.9817 17.6452 14.9634 17.6452 14.9306L17.706 14.852L17.7668 14.8467L17.8275 14.8414C17.8357 14.8404 17.8476 14.8356 17.8639 14.8259C17.872 14.8172 17.8802 14.8105 17.8883 14.8057C17.8965 14.8008 17.9003 14.7907 17.9003 14.7743C17.9003 14.742 17.9103 14.7208 17.9304 14.7106C17.9505 14.701 17.9405 14.6812 17.9003 14.6523L17.973 14.646C18.1587 14.4589 18.3343 14.2987 18.4998 14.1661C18.6654 14.0334 18.8128 13.9452 18.942 13.9013L19.0027 13.896V13.9572C18.9702 13.9601 18.9381 13.9775 18.9061 14.0083C18.8735 14.0397 18.8415 14.0735 18.8089 14.1087L18.8697 14.1034C18.886 14.086 18.9018 14.0701 18.918 14.0566C18.9343 14.0431 18.9501 14.0276 18.9664 14.0098C18.9826 13.9924 18.9946 13.9751 19.0027 13.9577C19.0027 13.9254 19.0046 13.9046 19.0089 13.896C19.0128 13.8878 19.031 13.8656 19.0635 13.8299C19.1281 13.7918 19.1826 13.7566 19.2271 13.7238C19.2716 13.6914 19.3257 13.6721 19.3908 13.6668C19.3262 13.6726 19.2616 13.6905 19.197 13.7204C19.1324 13.7508 19.0678 13.7686 19.0032 13.7739C18.9386 13.812 18.8778 13.8357 18.8214 13.8448C18.7649 13.854 18.7204 13.8598 18.6884 13.8627C18.6477 13.8989 18.6113 13.9206 18.5793 13.9273C18.5467 13.9345 18.5147 13.9394 18.4821 13.9418C18.4257 13.9466 18.3611 13.9972 18.2883 14.0932C18.2558 14.0961 18.2376 14.0956 18.2338 14.0918C18.2295 14.0879 18.2276 14.0662 18.2276 14.0252C18.2276 14.017 18.2314 14.0088 18.2395 13.9997C18.2477 13.991 18.2534 13.9823 18.2577 13.9736C18.2615 13.9654 18.2716 13.9601 18.2879 13.9587L18.2271 13.964L18.1663 13.9693V13.908V13.8468V13.7122C18.6185 13.3794 19.0788 13.1271 19.5477 12.9554C20.0162 12.7841 20.4602 12.7123 20.8803 12.7403C21.5344 12.7885 22.0617 13.0533 22.4613 13.5352C22.8603 14.017 23.0924 14.6706 23.157 15.4949ZM20.6129 18.3697C20.6129 18.3292 20.6291 18.307 20.6612 18.3046C20.6612 18.28 20.6732 18.253 20.6976 18.2221C20.722 18.1917 20.7459 18.1628 20.7703 18.1363V18.0629L20.843 18.0075V18.0562C20.9402 17.8444 21.033 17.598 21.122 17.3172C21.2105 17.037 21.2751 16.7543 21.3158 16.4698C21.356 16.1852 21.366 15.9117 21.3459 15.6488C21.3258 15.3859 21.255 15.1621 21.1339 14.9774C20.9966 14.6885 20.7583 14.5341 20.4191 14.5153C20.3301 14.523 20.2291 14.5341 20.1162 14.5481C20.0028 14.5621 19.8741 14.5876 19.7286 14.6248L19.7769 14.6817V14.743L19.8377 14.7377V14.7984C19.8052 14.8013 19.7851 14.8114 19.7769 14.8283C19.7688 14.8452 19.7525 14.8549 19.7286 14.8568C19.7123 14.8746 19.6985 14.8862 19.686 14.891C19.6741 14.8963 19.6597 14.9036 19.6434 14.9132C19.6272 14.9229 19.6152 14.9282 19.6071 14.9287C19.6071 14.9451 19.6028 14.9595 19.5951 14.9726C19.587 14.9856 19.5788 15.0005 19.5707 15.0174C19.5626 15.0348 19.5544 15.0473 19.5463 15.056C19.5219 15.0907 19.508 15.1124 19.5037 15.1206C19.4994 15.1293 19.4975 15.1457 19.4975 15.1698C19.3114 15.4226 19.1281 15.6806 18.9463 15.945C18.7644 16.2093 18.6132 16.4934 18.4922 16.7973L18.4438 16.9849C18.4276 17.0597 18.4017 17.1576 18.3649 17.2787C18.3285 17.3997 18.2903 17.5256 18.2496 17.6554C18.2089 17.7851 18.1725 17.9105 18.1405 18.0316C18.1079 18.1527 18.0922 18.2414 18.0922 18.2983C18.0515 18.5463 18.0596 18.7633 18.1166 18.9495C18.173 19.1362 18.2458 19.2862 18.3348 19.4005C18.4314 19.5466 18.5405 19.6147 18.662 19.6036C18.7592 19.6277 18.8501 19.6257 18.9348 19.5978C19.0195 19.5703 19.1066 19.536 19.1951 19.4955C19.4051 19.4203 19.6233 19.2973 19.8492 19.1265C20.075 18.9562 20.3057 18.7426 20.5397 18.4855V18.4368L20.6124 18.4305V18.3697H20.6129Z" fill="#FF0000"/>
<path d="M29.4314 15.0537C29.4754 15.3827 29.4773 15.7097 29.4366 16.0348C29.3964 16.3599 29.3175 16.6831 29.1998 17.0043C29.1778 17.1688 29.1337 17.3116 29.0677 17.4322C29.0017 17.5527 28.9208 17.6651 28.8256 17.7698C28.7744 17.8706 28.7323 17.9555 28.6993 18.025C28.6663 18.0944 28.639 18.1745 28.617 18.2652C28.1399 19.0471 27.5973 19.6365 26.9882 20.0339C26.3791 20.4314 25.7556 20.6176 25.1173 20.593C24.7211 20.5611 24.3579 20.4473 24.0277 20.251C23.6976 20.0547 23.4373 19.7759 23.2464 19.4156C23.0995 19.118 23.0023 18.7938 22.9545 18.4432C22.9066 18.0925 22.9014 17.7196 22.9382 17.3241C23.0186 16.8808 23.1636 16.4279 23.3727 15.9658C23.5818 15.5037 23.855 15.0248 24.1923 14.5289C24.2292 14.5255 24.2493 14.526 24.2531 14.5289C24.2569 14.5323 24.2584 14.5487 24.2584 14.5786C24.2584 14.5492 24.2603 14.5323 24.2641 14.5284C24.2679 14.5246 24.288 14.5207 24.3249 14.5173C24.3177 14.4884 24.3158 14.4701 24.3196 14.4624C24.323 14.4546 24.3397 14.4349 24.3689 14.4025L24.4239 14.3977L24.479 14.4484V14.3929C24.5158 14.3601 24.5359 14.3398 24.5397 14.3321C24.5435 14.3244 24.5416 14.3061 24.534 14.2771C24.7101 14.0692 24.8732 13.9105 25.0235 13.8015C25.1737 13.6925 25.3259 13.6014 25.48 13.5285L25.491 13.5941C25.4761 13.6694 25.4321 13.7104 25.3589 13.7166L25.4139 13.7118C25.4139 13.6824 25.4269 13.6626 25.4522 13.653C25.478 13.6433 25.5092 13.6221 25.546 13.5893C25.5163 13.5917 25.5092 13.5797 25.524 13.5526C25.5383 13.5256 25.5608 13.4924 25.59 13.4523C25.612 13.4133 25.6489 13.3882 25.7001 13.3761C25.7513 13.3641 25.7919 13.3385 25.8211 13.2989C25.7551 13.3419 25.7039 13.3684 25.6671 13.379C25.6302 13.3896 25.5862 13.4157 25.535 13.4571C25.4761 13.4625 25.4178 13.4789 25.3589 13.5059C25.3 13.5334 25.256 13.5483 25.2268 13.5507C25.1608 13.5565 25.1206 13.5618 25.1058 13.5671C25.0909 13.5724 25.0728 13.5941 25.0508 13.6332C25.0211 13.6356 24.9905 13.6404 24.957 13.6467C24.924 13.6535 24.878 13.6742 24.8196 13.7089L24.8306 13.6525L24.8196 13.5869V13.6202C24.8048 13.6438 24.7866 13.6564 24.7646 13.6583L24.7426 13.5936V13.5271C24.7058 13.4933 24.6876 13.4731 24.6876 13.4653C24.6876 13.4581 24.7024 13.4345 24.7316 13.3949C25.1201 13.0944 25.5331 12.86 25.9695 12.6921C26.4058 12.5243 26.826 12.463 27.2293 12.5089C27.838 12.559 28.3371 12.7978 28.7261 13.2256C29.116 13.6525 29.3505 14.2622 29.4314 15.0537ZM27.2963 17.6714L27.3514 17.6666C27.3514 17.6521 27.3585 17.629 27.3734 17.5981C27.3805 17.5827 27.3882 17.5711 27.3954 17.5629C27.4246 17.531 27.4413 17.5108 27.4451 17.5031C27.449 17.4953 27.4471 17.477 27.4399 17.4481L27.4949 17.4433C27.5901 17.2354 27.6729 16.9947 27.7423 16.7226C27.8121 16.4501 27.8581 16.1708 27.8801 15.8843C27.9021 15.5978 27.8968 15.3209 27.8633 15.0537C27.8303 14.7865 27.7586 14.5511 27.649 14.3461C27.5461 14.2443 27.436 14.1614 27.3188 14.0977C27.2011 14.034 27.0695 13.9906 26.9226 13.966C26.8049 13.9395 26.6877 13.9424 26.5705 13.9747C26.4527 14.007 26.3322 14.0475 26.2073 14.0953C26.2145 14.1242 26.2365 14.1373 26.2733 14.1339L26.3283 14.1845L26.2733 14.1893C26.2805 14.2183 26.2733 14.2376 26.2513 14.2467C26.2293 14.2559 26.2034 14.2771 26.1743 14.309C26.1671 14.3244 26.1556 14.3365 26.1412 14.3451C26.1116 14.3625 26.0862 14.3722 26.0642 14.3741C26.0714 14.403 26.0733 14.4214 26.0699 14.4291C26.0661 14.4368 26.0498 14.457 26.0207 14.4889L25.9766 14.5593V14.6259C25.8077 14.8699 25.6446 15.1193 25.4871 15.3735C25.3292 15.6277 25.1847 15.894 25.0527 16.1718L25.1077 16.167C25.1077 16.1964 25.1058 16.2191 25.102 16.234C25.0981 16.2494 25.0819 16.2953 25.0522 16.3715C25.0302 16.44 25.001 16.5389 24.9641 16.6676C24.9273 16.7969 24.8905 16.9276 24.8541 17.0603C24.8172 17.1929 24.7881 17.3174 24.766 17.4341C24.744 17.5508 24.7402 17.6343 24.755 17.6849C24.7402 17.9232 24.757 18.1451 24.8043 18.3515C24.8522 18.558 24.9455 18.7181 25.0847 18.8314C25.1067 18.8811 25.1527 18.9178 25.2225 18.9414C25.2919 18.9651 25.3603 18.9887 25.4264 19.0123C25.4847 19.007 25.5546 18.9993 25.6355 18.9882C25.7163 18.9776 25.7967 18.9535 25.8776 18.9168C26.1125 18.8372 26.3346 18.7118 26.5432 18.542C26.7523 18.3723 26.9705 18.1475 27.1982 17.8687L27.2533 17.7862C27.2825 17.7838 27.2973 17.764 27.2973 17.7269V17.6714H27.2963Z" fill="#FF0000"/>
<path d="M20.8841 22.7665C20.3032 22.9527 19.7074 23.1466 19.0993 23.3535C18.4911 23.5599 17.9217 23.7847 17.3906 24.0162C17.2767 24.0703 17.1733 24.1199 17.08 24.1633C16.9872 24.2072 16.8776 24.2507 16.7518 24.2955C16.736 24.2613 16.7527 24.227 16.803 24.1928C16.8532 24.1585 16.8767 24.132 16.8738 24.1122C16.7637 24.1899 16.6944 24.2232 16.6647 24.2092C16.6355 24.1952 16.6125 24.1715 16.5967 24.1373C16.6508 24.1296 16.357 23.8807 16.3135 23.8836C16.2728 23.9063 16.2441 23.9154 16.2274 23.9116C16.2101 23.9077 16.0498 23.8942 16.012 23.8976C15.9742 23.9005 15.9474 23.8855 15.9316 23.8518C16.3398 23.5011 16.8039 23.1726 17.3265 22.8803C17.8494 22.588 18.3509 22.3526 18.827 22.1655C19.3036 21.9783 19.7084 21.8481 20.0381 21.7564C20.3678 21.6653 20.5429 21.6151 20.562 21.59C20.6931 21.5645 20.9022 21.5129 21.1908 21.4448C21.4788 21.3768 21.8037 21.305 22.165 21.236C22.5263 21.167 22.9 21.1106 23.2866 21.0686C23.6727 21.0271 24.0192 21.0078 24.3254 21.003C24.6311 20.9982 24.8747 21.0103 25.0551 21.0295C25.2355 21.0493 25.3063 21.0816 25.268 21.1231C25.2905 21.1246 25.3628 21.1294 25.4862 21.139C25.6092 21.1487 26.1528 21.2852 26.0226 21.3001C25.8925 21.3151 25.7561 21.3281 25.6145 21.3407C25.4723 21.3532 25.3656 21.3628 25.2943 21.3682C25.223 21.3735 25.2699 21.371 25.435 21.3633C25.4379 21.3831 24.7096 21.6088 24.5895 21.6262C24.701 21.6286 25.8441 21.6532 26.0173 21.6691C26.1906 21.6851 26.1561 21.7145 26.0441 21.7415C25.9322 21.7685 25.8331 21.7878 25.746 21.7999C25.7934 21.8235 25.8676 21.8389 25.9681 21.8466C26.0685 21.8544 26.1709 21.8597 26.2762 21.863C26.381 21.8659 26.1063 21.9407 25.7259 21.9484C25.346 21.9571 24.8771 21.9783 24.3216 22.0352C23.766 22.0926 23.1732 22.1814 22.5463 22.316C21.9214 22.4491 21.3673 22.6073 20.8841 22.7665Z" fill="#FF0000"/>
<path d="M21.0698 24.8926C20.3745 25.1661 19.6611 25.4502 18.9333 25.7521C18.206 26.0536 17.5275 26.3763 16.8964 26.7052C16.7609 26.7819 16.6389 26.8514 16.5284 26.9131C16.4183 26.9749 16.2877 27.0376 16.1379 27.1027C16.1159 27.0593 16.1336 27.0139 16.1925 26.9671C16.2513 26.9203 16.2781 26.8842 16.2729 26.8591C16.1446 26.9657 16.0623 27.0125 16.025 26.9966C15.9882 26.9802 15.9585 26.9507 15.936 26.9078C16.0016 26.8948 16.0666 26.8649 16.1317 26.8171C16.1973 26.7694 16.2188 26.724 16.1963 26.6811C16.2671 26.6946 16.303 26.6874 16.304 26.6584C16.3049 26.629 16.3298 26.6001 16.3786 26.5706C16.3092 26.5624 16.2748 26.5441 16.2757 26.5152C16.2767 26.4858 16.2848 26.4597 16.3006 26.4361C16.3164 26.4124 16.3351 26.3849 16.3561 26.3546C16.3777 26.3237 16.3781 26.2933 16.358 26.2624C16.3265 26.3097 16.2748 26.3565 16.2025 26.4042C16.1303 26.4515 16.0705 26.4911 16.0221 26.521C15.9566 26.533 15.9528 26.5128 16.0097 26.4587C16.0671 26.4052 16.1226 26.3763 16.1757 26.3724C16.1198 26.3637 16.0666 26.3695 16.0164 26.3902C15.9662 26.4105 15.9197 26.4327 15.8767 26.4563C15.8341 26.4795 15.7853 26.507 15.7303 26.5388C15.6757 26.5702 15.6216 26.589 15.569 26.5952C15.5212 26.6266 15.4867 26.6406 15.4657 26.6362C15.4446 26.6324 15.4192 26.6579 15.3901 26.7139C15.3101 26.6522 15.2475 26.6242 15.2015 26.6305C15.1556 26.6362 15.1216 26.6184 15.0996 26.5755C15.5709 26.0989 16.1121 25.6479 16.7279 25.2403C17.3442 24.8328 17.9385 24.5004 18.5065 24.2313C19.0745 23.9621 19.5592 23.7711 19.9554 23.6341C20.3511 23.4976 20.5616 23.4229 20.5832 23.3891C20.7415 23.3486 20.9932 23.2699 21.3406 23.1658C21.6875 23.0616 22.0789 22.9502 22.5153 22.8407C22.9517 22.7312 23.4039 22.6371 23.8738 22.5614C24.3427 22.4857 24.7652 22.4413 25.1394 22.4181C25.5131 22.395 25.8117 22.3964 26.0342 22.4114C26.2562 22.4268 26.3457 22.4649 26.3021 22.5209C26.3294 22.5218 26.4189 22.5233 26.5701 22.5291C26.7213 22.5349 26.9155 22.7582 26.7433 22.7823C26.5706 22.8064 26.4409 22.8247 26.3543 22.8358C26.2672 22.8469 26.3246 22.8407 26.5261 22.8214C26.5313 22.8469 26.517 22.8619 26.4839 22.8677C26.4509 22.873 26.4103 22.8768 26.3629 22.8788C26.315 22.8807 26.261 22.8826 26.1997 22.885C26.1385 22.8874 26.0887 22.8947 26.05 22.9072C26.4289 22.8846 26.6557 22.8928 26.7285 22.914C26.8012 22.9362 26.795 22.9559 26.7098 22.9748C26.6246 22.9936 26.4911 23.0076 26.3083 23.0201C26.126 23.0326 25.9772 23.0273 25.8629 23.0027C25.8016 23.0413 25.8093 23.0601 25.8844 23.0601C25.9595 23.0601 26.061 23.0534 26.1892 23.0423C26.317 23.0307 26.4447 23.0215 26.5734 23.0129C26.7017 23.0042 26.7806 23.008 26.8108 23.022C26.4213 23.0548 26.1447 23.0934 25.9787 23.1219C25.8126 23.1503 25.6571 23.1798 25.5116 23.2092C25.648 23.2058 25.815 23.1981 26.0122 23.1889C26.2093 23.1798 26.4131 23.1735 26.6246 23.1711C26.8361 23.1687 27.0481 23.173 27.2615 23.1846C27.4744 23.1957 27.4347 23.2357 27.3003 23.2767C27.1658 23.3177 27.0457 23.3486 26.9404 23.3688C27.0002 23.3968 27.0921 23.4127 27.2156 23.4171C27.339 23.4214 27.4649 23.4229 27.5936 23.4209C27.7218 23.419 27.6572 23.4856 27.6208 23.5077C27.6232 23.5213 27.3916 23.5309 26.927 23.5623C26.4629 23.5946 25.8911 23.6486 25.2159 23.7537C24.5413 23.8589 23.823 24.0075 23.067 24.2168C22.3134 24.4232 21.6483 24.6591 21.0698 24.8926Z" fill="#FF0000"/>
<path d="M16.7042 14.3869C16.742 14.3835 16.7918 14.3662 16.853 14.3348C16.9143 14.3039 16.9832 14.3097 17.0588 14.3536C16.9832 14.4014 16.9119 14.4568 16.8458 14.5186C16.7793 14.5808 16.7085 14.6358 16.6329 14.6835C16.6329 14.7651 16.6209 14.8398 16.5975 14.9083C16.5736 14.9768 16.5621 15.0313 16.5621 15.0718C16.5147 15.3815 16.4578 15.7076 16.3917 16.0496C16.3252 16.3915 16.252 16.7369 16.1716 17.0856C16.0913 17.4344 16.0061 17.7783 15.9161 18.1174C15.8262 18.4565 15.7386 18.783 15.6534 19.0961C15.4549 19.8273 15.2367 20.545 15.0003 21.2488C14.896 21.5845 14.773 21.993 14.6314 22.4744C14.4893 22.9563 14.3476 23.4352 14.2055 23.9113C14.0634 24.3879 13.9285 24.8205 13.8007 25.2088C13.6729 25.5971 13.5758 25.8711 13.5098 26.0303C13.4906 26.0828 13.4744 26.1074 13.46 26.1036C13.4457 26.0997 13.4289 26.0886 13.4103 26.0703C13.3911 26.0515 13.3768 26.0225 13.3677 25.9825C13.3485 26.0047 13.3155 26.0635 13.2681 26.1595C13.2208 26.2555 13.1662 26.3751 13.105 26.5184C13.0432 26.6616 12.9796 26.8203 12.9131 26.9945C12.8466 27.1686 12.7853 27.3345 12.7284 27.4927C12.7284 27.4112 12.7447 27.2901 12.7782 27.129C12.8112 26.9679 12.4346 26.8059 12.5102 26.6867C12.4341 26.5816 11.9331 26.2719 11.9049 26.3713C11.8767 26.4706 11.8432 26.5425 11.8054 26.5869C11.8432 26.5015 11.8762 25.9743 11.8762 25.8933C12.0748 24.9995 12.2595 24.1472 12.4298 23.3373C12.5054 22.9944 12.5834 22.6384 12.6643 22.2694C12.7447 21.9009 12.8227 21.5444 12.8987 21.2015C12.9743 20.8585 13.0452 20.5339 13.1117 20.2272C13.1777 19.9209 13.2394 19.6532 13.2964 19.4236C13.372 19.1211 13.4289 18.8872 13.4667 18.7203C13.5045 18.5539 13.5351 18.4237 13.5591 18.3301C13.5825 18.236 13.6016 18.1632 13.616 18.1111C13.6304 18.059 13.649 17.9963 13.6729 17.9225C13.6964 17.8492 13.7275 17.7493 13.7653 17.6239C13.8031 17.498 13.8596 17.3147 13.9356 17.0736C13.8596 17.1213 13.7796 17.1671 13.6945 17.2106C13.6093 17.2545 13.5476 17.2983 13.5098 17.3422C13.4055 17.3929 13.2801 17.4783 13.1337 17.5988C12.9868 17.7194 12.8356 17.8482 12.6791 17.9852C12.5231 18.1222 11.792 17.4657 11.7633 17.4223C11.735 17.3794 11.7015 17.3596 11.6637 17.363C11.6637 17.3832 11.4838 17.4464 11.4652 17.4276C11.4556 17.4185 11.657 17.0456 11.8413 16.8806C12.026 16.7157 12.1982 16.5594 12.3595 16.4123C12.5203 16.2652 12.6198 16.1692 12.6576 16.1248V16.0486C12.582 16.1373 12.4992 16.216 12.4092 16.2854C12.3193 16.3549 12.2437 16.4079 12.182 16.4441C12.1202 16.4803 12.0872 16.4914 12.0824 16.4764C12.0776 16.4615 12.1274 16.4089 12.2312 16.3173C12.4298 16.146 12.6049 15.9767 12.7566 15.8098C12.9078 15.6429 13.0571 15.4736 13.204 15.3019C13.3504 15.1307 13.5021 14.9561 13.6581 14.7781C13.8141 14.6006 14.0012 14.4154 14.2189 14.2215C14.4175 14.03 14.5428 13.906 14.595 13.8501C14.6472 13.7946 14.685 13.7574 14.7084 13.7401C14.7319 13.7227 14.7653 13.702 14.8079 13.6774C14.8505 13.6533 14.9615 13.5766 15.1414 13.4478V13.3716L15.2123 13.3648C15.3161 13.3146 15.4041 13.2703 15.475 13.2331C15.5458 13.196 15.6003 13.1757 15.6381 13.1719C15.742 13.2437 15.8085 13.3084 15.8367 13.3667C15.8649 13.4251 16.1678 13.7478 16.2061 13.7444C16.2061 13.7039 16.2181 13.6774 16.2415 13.6648C16.2649 13.6528 16.2769 13.6209 16.2769 13.5698L16.3477 13.5631L16.4185 13.5563C16.4468 13.5534 16.5937 13.5804 16.6315 13.6277C16.6315 13.6991 16.6434 13.7743 16.6669 13.8534C16.6903 13.933 16.7023 14.028 16.7023 14.1399C16.7401 14.1366 16.7635 14.124 16.7731 14.1028C16.7822 14.0816 16.8061 14.0898 16.8439 14.1264C16.8439 14.167 16.8296 14.2065 16.8013 14.2451C16.7755 14.2861 16.742 14.3324 16.7042 14.3869Z" fill="#FF0000"/>
</g>
</g>
<defs>
<clipPath id="clip0_2160_18016">
<rect width="40.9384" height="40" fill="white"/>
</clipPath>
<clipPath id="clip1_2160_18016">
<rect width="18" height="15" fill="white" transform="translate(11.4648 12.4922)"/>
</clipPath>
</defs>
</svg>
