<svg width="345" height="373" viewBox="0 0 345 373" fill="none" xmlns="http://www.w3.org/2000/svg">
<path d="M167.447 134.506C166.101 134.506 164.756 133.928 164.083 132.771C163.987 132.579 163.987 132.29 164.275 132.097C164.467 132.001 164.756 132.001 164.948 132.29C165.813 133.735 167.928 133.831 169.274 133.06C170.619 132.29 171.485 130.652 171.581 128.725C171.677 126.99 171.292 125.16 170.716 123.425C170.043 123.714 169.37 123.811 168.601 123.811C167.447 123.811 166.294 123.522 165.621 122.847C164.659 122.076 164.275 120.728 164.756 119.668C165.044 118.993 165.621 118.512 166.39 118.319C167.351 118.03 168.601 118.319 169.37 118.897C170.331 119.668 170.908 120.824 171.292 121.98C173.599 120.631 175.138 117.741 175.234 115.043C175.33 110.804 172.734 107.142 170.523 104.733C170.331 104.541 170.331 104.252 170.523 104.059C170.716 103.866 171.004 103.866 171.196 104.059C173.503 106.564 176.195 110.514 176.099 115.043C176.003 118.126 174.272 121.402 171.581 122.944C171.581 123.04 171.581 123.04 171.677 123.136C172.254 125.063 172.638 126.894 172.542 128.821C172.35 131.037 171.389 132.964 169.754 133.928C168.985 134.313 168.216 134.506 167.447 134.506ZM167.159 119.09C166.967 119.09 166.774 119.09 166.582 119.186C166.198 119.282 165.813 119.475 165.525 120.053C165.236 120.728 165.525 121.595 166.101 122.076C166.678 122.558 167.543 122.847 168.505 122.751C169.178 122.751 169.754 122.558 170.331 122.366C169.947 121.209 169.466 120.246 168.697 119.571C168.312 119.282 167.736 119.09 167.159 119.09Z" fill="#FF41AA"/>
<path d="M230.22 251.185C230.028 251.185 229.836 251.088 229.836 250.896C229.74 250.703 229.836 250.414 230.028 250.221C232.335 249.065 233.777 246.078 233.777 242.321C233.777 241.357 233.681 240.586 233.585 239.815C232.816 240.779 231.662 241.357 230.605 241.357C229.74 241.357 228.875 240.972 228.202 240.297C227.625 239.719 227.433 238.948 227.529 238.177C227.625 237.214 228.298 236.54 229.259 236.154C230.509 235.672 231.951 235.865 232.912 236.636C233.2 236.925 233.489 237.214 233.777 237.599C234.45 235.094 233.104 232.396 232.143 230.951C231.662 230.277 231.182 229.602 230.797 228.928C229.644 227.29 228.49 225.652 227.817 223.629C226.952 220.738 227.721 216.98 230.701 215.824C230.989 215.728 231.182 215.824 231.278 216.113C231.374 216.402 231.278 216.595 230.989 216.691C228.682 217.559 227.913 220.834 228.682 223.243C229.259 225.074 230.317 226.615 231.47 228.253C231.951 228.928 232.431 229.602 232.912 230.373C234.066 232.204 235.7 235.672 234.258 238.756C234.642 239.719 234.835 240.875 234.835 242.321C234.738 246.464 233.2 249.74 230.605 251.088C230.413 251.185 230.317 251.185 230.22 251.185ZM230.509 237.021C230.124 237.021 229.836 237.118 229.451 237.214C229.067 237.407 228.49 237.696 228.394 238.467C228.298 238.948 228.49 239.43 228.875 239.815C229.259 240.297 229.932 240.586 230.509 240.586C231.662 240.586 232.624 239.719 233.104 238.852C232.816 238.274 232.528 237.888 232.143 237.599C231.758 237.214 231.086 237.021 230.509 237.021Z" fill="#FFAF00"/>
<path d="M116.788 285.486C116.692 285.486 116.5 285.39 116.404 285.293C116.212 285.101 116.212 284.811 116.404 284.619C118.999 282.114 120.538 278.452 120.538 274.887C120.538 273.731 120.345 272.575 120.057 271.419C119.192 271.612 118.23 271.708 117.365 271.611C115.25 271.226 113.424 269.781 112.559 267.854C112.078 266.794 112.174 265.445 112.655 264.482C113.039 263.807 113.52 263.422 114.193 263.325C115.154 263.133 116.116 263.518 117.077 264.578C118.711 266.12 119.961 268.143 120.73 270.263C121.403 269.974 121.979 269.492 122.46 269.01C124.19 267.083 124.479 264 123.421 260.531C122.652 258.219 121.499 256.388 120.057 255.039C118.423 253.498 116.212 252.727 114.289 252.92C114.001 252.92 113.808 252.727 113.808 252.438C113.808 252.149 114.001 251.956 114.289 251.956C116.596 251.763 118.903 252.63 120.826 254.268C122.46 255.714 123.614 257.737 124.479 260.146C125.728 263.903 125.248 267.372 123.325 269.492C122.748 270.166 121.979 270.648 121.114 271.033C121.499 272.286 121.595 273.538 121.595 274.887C121.595 278.838 119.961 282.595 117.173 285.293C116.981 285.39 116.885 285.486 116.788 285.486ZM114.577 264.193C114.481 264.193 114.385 264.193 114.385 264.193C114.001 264.289 113.712 264.482 113.52 264.867C113.136 265.541 113.136 266.601 113.52 267.372C114.193 269.01 115.827 270.263 117.558 270.552C118.327 270.648 119.096 270.648 119.768 270.455C119.096 268.432 117.942 266.601 116.404 265.156C115.731 264.482 115.154 264.193 114.577 264.193Z" fill="#FF0E41"/>
<path d="M254.06 102.709C253.867 102.709 253.771 102.612 253.675 102.516C253.483 102.323 253.579 102.034 253.771 101.842C255.213 100.878 256.078 98.8548 255.886 96.8314C255.79 95.8679 255.598 94.9044 255.213 93.9409C254.348 94.2299 253.387 94.4226 252.329 94.3263C250.599 94.1336 249.157 93.3628 248.292 92.1102C247.619 91.1467 247.523 90.1832 247.811 89.3161C248.003 88.738 248.484 88.2562 249.157 87.9672C249.926 87.5818 250.984 87.5818 251.753 87.9672C253.098 88.5453 253.964 89.7978 254.636 90.8577C255.021 91.5321 255.309 92.1102 255.598 92.6883C255.982 92.4956 256.271 92.2066 256.655 91.9175C258.578 89.8942 258.77 86.3292 257.136 83.6314C255.694 81.2227 252.906 79.5847 249.542 78.9103C249.253 78.9103 249.061 78.6212 249.157 78.3322C249.157 78.0431 249.445 77.8504 249.734 77.9467C253.291 78.6212 256.367 80.4519 258.001 83.0533C259.924 86.1365 259.635 90.1832 257.424 92.4956C257.04 92.881 256.559 93.2664 256.078 93.5555C256.559 94.7117 256.751 95.7715 256.847 96.8314C256.944 99.2402 255.982 101.553 254.252 102.709C254.252 102.709 254.156 102.709 254.06 102.709ZM250.503 88.5453C250.214 88.5453 249.83 88.6416 249.542 88.738C249.253 88.8343 248.869 89.1234 248.676 89.6051C248.484 90.1832 248.58 90.8577 249.061 91.5321C249.734 92.592 250.984 93.2664 252.329 93.3628C253.194 93.4591 253.964 93.3628 254.733 93.0737C254.444 92.4956 254.156 91.9175 253.771 91.3394C253.194 90.3759 252.425 89.2197 251.272 88.8343C251.176 88.6416 250.791 88.5453 250.503 88.5453Z" fill="#FF0E41"/>
<path d="M89.2951 136.432C89.1028 136.432 88.9105 136.335 88.8144 136.143C88.7183 135.854 88.9105 135.661 89.1028 135.565C91.6983 134.697 93.717 132.289 93.9093 129.494C93.9093 129.109 93.9093 128.724 93.9093 128.338C91.4099 129.013 88.6222 128.435 86.7957 126.604C85.8344 125.64 85.1615 124.099 85.8344 122.846C86.6996 121.305 88.8144 121.208 90.5447 122.075C92.5634 123.039 94.1015 124.966 94.6783 127.182C94.8706 127.086 95.0628 126.989 95.2551 126.893C97.6583 125.448 99.0041 122.557 98.7157 119.57C98.4273 116.487 96.5047 113.886 94.3899 111.188C92.3712 108.586 90.3525 105.889 89.8718 102.516C89.3912 98.8551 91.3138 94.9047 94.486 92.9777C94.6783 92.8813 94.9667 92.8813 95.1589 93.1704C95.2551 93.3631 95.2551 93.6522 94.9667 93.8449C92.0828 95.5792 90.3525 99.0478 90.8331 102.42C91.2176 105.503 93.1402 107.912 95.1589 110.61C97.1777 113.308 99.2925 116.102 99.677 119.474C99.9654 122.75 98.4273 126.026 95.7357 127.664C95.4473 127.856 95.1589 127.953 94.7744 128.146C94.8705 128.627 94.8705 129.205 94.8705 129.687C94.6783 132.77 92.3712 135.661 89.3912 136.624C89.3912 136.432 89.2951 136.432 89.2951 136.432ZM88.3338 122.365C87.5647 122.365 86.988 122.654 86.6996 123.135C86.2189 124.002 86.7957 125.062 87.4686 125.833C89.0067 127.375 91.506 127.953 93.717 127.278C93.2364 125.351 91.8905 123.617 90.0641 122.75C89.5834 122.461 88.9105 122.365 88.3338 122.365Z" fill="#00D339"/>
<path d="M288.666 191.543C288.57 191.543 288.378 191.543 288.282 191.543C287.993 191.543 287.801 191.254 287.897 190.965C287.897 190.676 288.185 190.484 288.474 190.58C290.396 190.773 292.031 189.038 292.415 187.208C292.704 185.473 292.223 183.546 290.973 181.427C290.493 180.559 289.916 179.789 289.339 179.018C288.666 178.054 287.993 177.091 287.416 176.127C286.455 174.489 285.59 172.081 286.263 169.672C287.032 166.781 290.3 164.854 293.184 165.432C293.473 165.529 293.569 165.722 293.569 166.011C293.473 166.3 293.28 166.396 292.992 166.396C290.589 165.914 287.801 167.552 287.128 169.961C286.551 172.081 287.416 174.297 288.185 175.742C288.762 176.705 289.435 177.669 290.012 178.536C290.589 179.307 291.165 180.174 291.742 181.041C293.184 183.354 293.665 185.57 293.28 187.497C292.8 189.52 290.973 191.543 288.666 191.543Z" fill="#FF41AA"/>
<path d="M55.4575 206.672H55.3613C55.0729 206.575 54.9768 206.383 54.9768 206.094C55.3613 204.456 54.4 202.914 53.4387 201.372C52.4775 199.734 51.42 197.615 52.2852 195.688C52.3813 195.399 52.5736 195.11 52.7658 194.917C51.1316 192.026 51.5162 188.076 53.3426 185.475C55.5536 182.391 59.3988 180.464 64.013 180.272C64.3013 180.272 64.4936 180.464 64.4936 180.753C64.4936 181.042 64.3013 181.235 64.013 181.235C59.7833 181.428 56.1304 183.259 54.1116 186.053C52.5736 188.269 52.0929 191.737 53.4387 194.242C53.9194 193.857 54.4962 193.472 54.9768 193.279C55.7458 192.894 56.7071 192.412 57.8607 192.508C59.0142 192.508 60.0717 193.086 60.5523 194.05C60.8407 194.724 60.8407 195.495 60.5523 196.169C60.1678 197.037 59.4949 197.711 58.6297 198C57.2839 198.386 55.6497 198 54.3039 196.94C53.9194 196.651 53.5349 196.266 53.2465 195.88C53.1504 195.977 53.1504 196.073 53.0542 196.169C52.3813 197.711 53.2465 199.542 54.1116 200.987C55.1691 202.625 56.2265 204.552 55.842 206.479C55.842 206.479 55.6497 206.672 55.4575 206.672ZM53.9194 194.917C54.2078 195.302 54.4962 195.688 54.8807 195.977C55.7458 196.651 57.0917 197.229 58.2452 196.844C58.822 196.651 59.3026 196.169 59.591 195.591C59.7833 195.11 59.7833 194.628 59.591 194.242C59.2065 193.568 58.4375 193.279 57.7646 193.183C56.8994 193.183 56.0342 193.568 55.3613 193.857C54.7846 194.242 54.3039 194.628 53.9194 194.917Z" fill="#FFAF00"/>
<path d="M68.916 326.82C69.1082 326.435 69.3966 326.146 70.3579 325.857C70.1656 325.472 69.8772 325.182 69.3966 324.99C68.7237 325.279 68.3392 325.568 67.9547 326.146C68.3392 326.242 68.5314 326.435 68.916 326.82Z" fill="white"/>
<path d="M74.6843 347.92C74.2997 348.209 73.8191 348.402 73.1462 348.305C73.3384 349.943 73.723 351.003 74.3959 352.448C75.3572 352.448 75.9339 352.256 76.2223 352.063C75.261 350.618 74.9726 349.558 74.6843 347.92Z" fill="white"/>
<path d="M105.638 295.698C105.445 295.505 105.253 295.505 104.965 295.409C104.869 296.083 104.58 296.758 104.196 297.529C104.484 297.529 104.58 297.625 104.772 297.818C105.349 297.143 105.542 296.662 105.638 295.698Z" fill="white"/>
<path d="M53.343 310.922C53.7275 311.308 53.9198 311.693 53.8237 312.368C54.4966 312.079 54.8811 311.789 55.554 311.115C55.554 310.537 55.4578 310.344 54.9772 309.862C54.4966 310.344 54.0159 310.73 53.343 310.922Z" fill="white"/>
<path d="M162.546 362.856C162.931 362.374 163.123 362.181 163.604 361.892C163.412 361.7 163.412 361.603 163.412 361.411C162.931 361.603 162.546 361.892 162.162 362.374C162.258 362.567 162.45 362.759 162.546 362.856Z" fill="white"/>
<path d="M152.739 345.415C153.22 344.548 153.508 344.066 154.278 343.295C153.893 342.91 153.605 342.717 153.124 342.621C152.547 343.006 152.067 343.681 151.49 344.644C152.163 344.741 152.451 344.933 152.739 345.415Z" fill="white"/>
<path d="M260.405 317.185C259.924 317.763 259.828 318.437 259.924 319.401C261.558 319.401 262.52 319.594 263.962 320.172C263.865 319.401 264.154 318.919 264.731 317.956C263.289 317.281 262.039 317.185 260.405 317.185Z" fill="white"/>
<path d="M163.025 371.719C163.602 372.008 163.986 372.104 164.659 371.911C164.948 370.851 165.14 370.177 165.621 369.213C165.236 369.213 164.948 369.117 164.755 368.924C164.275 370.081 163.794 370.659 163.025 371.719Z" fill="white"/>
<path d="M23.7341 87.4864C23.0612 87.7754 22.7728 88.3535 22.5806 89.317C24.0225 89.8951 24.7916 90.3769 25.849 91.3404C26.0412 90.6659 26.4258 90.2805 27.2909 89.6061C26.2335 88.6426 25.1761 88.0645 23.7341 87.4864Z" fill="white"/>
<path d="M336.539 123.136C336.539 122.462 336.442 122.076 335.962 121.595C334.904 121.884 334.231 121.98 333.078 122.076C333.27 122.462 333.27 122.751 333.27 122.943C334.52 122.847 335.385 122.943 336.539 123.136Z" fill="white"/>
<path d="M335.097 58.677C333.558 57.6171 332.501 57.1354 330.963 56.6536C330.675 57.9062 330.771 58.677 330.963 59.4478C331.924 59.5441 332.597 59.9295 333.558 60.604C333.751 59.5441 334.231 59.1587 335.097 58.677Z" fill="white"/>
<path d="M258.675 6.16663C257.137 5.78123 255.887 5.58853 254.638 5.87758C254.253 6.84109 254.253 7.51554 254.541 8.28634C256.079 7.99729 257.041 8.09364 258.483 8.57539C258.194 7.61189 258.194 6.93744 258.675 6.16663Z" fill="white"/>
<path d="M293.858 335.878C293.954 336.071 294.05 336.36 294.147 336.649C294.723 336.263 295.012 336.071 295.492 335.878C295.492 335.493 295.492 335.396 295.3 335.107C295.012 335.204 294.435 335.493 293.858 335.878Z" fill="white"/>
<path d="M227.144 348.788C226.567 347.921 226.375 346.765 226.856 344.26C225.798 344.26 224.837 344.549 223.587 345.223C223.491 347.15 223.587 348.306 224.26 350.041C225.125 349.27 225.798 348.981 227.144 348.788Z" fill="white"/>
<path d="M46.4205 276.043C46.1321 276.429 46.0359 276.621 45.6514 276.814C45.7476 277.007 45.8437 277.103 45.8437 277.2C46.2282 277.007 46.5166 276.814 46.805 276.429C46.7088 276.236 46.5166 276.14 46.4205 276.043Z" fill="white"/>
<path d="M190.038 18.8847C189.558 18.692 189.173 18.692 188.5 18.9811C188.789 20.0409 188.885 20.7154 188.693 21.7752C189.173 21.5825 189.558 21.6789 190.327 21.8716C190.423 20.8117 190.327 19.9446 190.038 18.8847Z" fill="white"/>
<path d="M0.183055 268.047C-0.105333 269.107 -0.105332 269.781 0.567572 270.841C2.49016 270.841 3.54758 270.938 5.37403 271.323C5.2779 270.649 5.37403 270.167 5.47016 269.781C3.25919 269.396 2.10564 268.914 0.183055 268.047Z" fill="white"/>
<path d="M300.202 301.384C299.913 302.444 299.913 303.118 300.586 304.178C302.509 304.178 303.566 304.274 305.393 304.66C305.296 303.985 305.393 303.504 305.489 303.118C303.374 302.733 302.124 302.251 300.202 301.384Z" fill="white"/>
<path d="M128.708 345.222C129.862 344.548 130.438 344.066 130.823 342.813C129.381 341.175 128.612 340.116 127.458 338.285C126.978 338.863 126.497 339.248 126.017 339.441C127.458 341.465 128.035 342.91 128.708 345.222Z" fill="white"/>
<path d="M74.3942 70.4313C74.1058 70.624 73.9135 70.7203 73.529 70.8167C74.1058 71.3948 74.3942 71.7802 74.6826 72.3583C75.0671 72.3583 75.2593 72.2619 75.5477 72.0692C75.3555 71.6838 74.9709 71.0094 74.3942 70.4313Z" fill="white"/>
<path d="M289.724 211.585C289.724 210.718 289.724 209.754 289.147 208.887C288.474 208.694 287.993 208.501 287.32 208.116C287.417 208.79 287.224 209.176 286.551 209.754C287.609 210.139 288.57 210.718 289.724 211.585Z" fill="white"/>
<path d="M60.4564 30.735C61.0332 31.024 61.2255 31.3131 61.5139 31.7948C62.0906 30.9277 62.5713 30.0605 62.6674 29.5788C62.2829 29.2897 61.8984 29.097 61.3216 29.0007C61.2255 29.4824 60.9371 29.9642 60.4564 30.735Z" fill="white"/>
<path d="M75.356 276.043C74.8753 276.14 74.6831 276.429 74.2986 277.007C75.4521 277.778 76.4134 279.03 77.3747 280.475C77.6631 280.09 78.0476 279.897 78.5282 279.801C77.5669 278.163 76.894 277.296 75.356 276.043Z" fill="white"/>
<path d="M112.462 346.765C112.846 347.054 113.134 347.343 113.327 348.017C114.769 347.247 115.538 346.572 116.691 345.512C116.403 344.645 116.018 344.163 115.73 343.971C114.769 345.416 113.903 345.994 112.462 346.765Z" fill="white"/>
<path d="M225.99 73.8044C225.51 73.8044 225.221 73.9008 224.933 74.2862C225.029 74.7679 225.125 75.057 225.413 75.346C225.894 75.2497 226.279 75.2497 226.855 75.4424C226.471 74.9606 226.183 74.5752 225.99 73.8044Z" fill="white"/>
<path d="M134.092 51.2582C134.765 51.1618 135.053 50.9691 135.438 50.391C135.245 49.7166 134.957 49.3312 134.573 49.0421C133.9 49.3312 133.419 49.3312 132.554 49.1385C133.323 49.9093 133.707 50.391 134.092 51.2582Z" fill="white"/>
<path d="M63.6276 123.136C63.6276 122.846 63.5315 122.654 63.3392 122.268C63.0508 122.557 62.7625 122.557 62.4741 122.654C62.4741 122.943 62.4741 123.136 62.5702 123.521C62.9547 123.328 63.2431 123.232 63.6276 123.136Z" fill="white"/>
<path d="M171.004 291.46C171.485 291.846 171.869 291.942 172.35 292.135C172.446 291.749 172.446 291.46 172.35 291.171C172.061 291.171 171.773 290.979 171.485 290.786C171.388 291.171 171.292 291.364 171.004 291.46Z" fill="white"/>
<path d="M328.56 184.222C329.714 184.992 330.483 185.378 331.636 185.667C331.829 184.8 331.829 184.125 331.636 183.547C330.867 183.547 330.483 183.162 329.714 182.68C329.521 183.547 329.233 183.836 328.56 184.222Z" fill="white"/>
<path d="M69.6843 242.514C69.492 242.032 69.4921 241.743 69.5882 241.261C68.8191 241.454 68.0501 241.743 67.6656 242.032C67.7617 242.418 67.954 242.707 68.1462 243.092C68.6269 242.803 69.0114 242.61 69.6843 242.514Z" fill="white"/>
<path d="M295.876 269.588C294.819 269.106 293.954 268.817 292.992 268.913C292.608 269.588 292.512 270.069 292.608 270.648C293.761 270.648 294.434 270.84 295.395 271.418C295.395 270.551 295.395 270.069 295.876 269.588Z" fill="white"/>
<path d="M120.633 314.005C120.056 313.909 119.768 313.812 119.383 313.427C119.287 313.62 119.191 313.716 118.999 313.812C119.383 314.198 119.768 314.391 120.345 314.583C120.537 314.391 120.633 314.198 120.633 314.005Z" fill="white"/>
<path d="M29.0228 222.184C28.7344 221.992 28.5422 221.991 28.2538 222.088C28.1576 222.377 28.0615 222.666 28.1576 222.859C28.446 222.955 28.6383 223.148 28.9267 223.437C28.9267 222.955 28.9267 222.666 29.0228 222.184Z" fill="white"/>
<path d="M222.049 326.146C222.049 326.531 222.049 326.821 221.761 327.206C222.914 327.591 223.683 327.784 224.837 327.88C225.222 327.302 225.222 326.821 225.222 326.531C223.972 326.724 223.203 326.531 222.049 326.146Z" fill="white"/>
<path d="M302.701 192.412C302.701 192.026 302.605 191.641 302.317 191.256C302.028 191.256 301.74 191.159 301.451 191.063C301.548 191.352 301.451 191.545 301.163 191.834C301.644 191.93 302.124 192.123 302.701 192.412Z" fill="white"/>
<path d="M344.134 215.247C343.942 214.476 344.038 213.513 344.999 211.778C344.134 211.489 343.365 211.489 342.308 211.682C341.731 213.127 341.539 213.994 341.635 215.44C342.5 215.151 343.077 215.151 344.134 215.247Z" fill="white"/>
<path d="M271.557 17.8239C272.038 17.9203 272.23 18.0166 272.518 18.3057C272.614 18.113 272.71 18.0166 272.807 18.0166C272.518 17.7276 272.23 17.5349 271.749 17.3422C271.653 17.5349 271.653 17.7276 271.557 17.8239Z" fill="white"/>
<path d="M279.055 83.4397C278.959 83.7288 278.959 83.9215 279.055 84.3069C279.92 84.0178 280.785 84.0178 281.939 84.1142C281.843 83.8251 281.939 83.6324 282.035 83.247C280.881 83.1507 280.209 83.1507 279.055 83.4397Z" fill="white"/>
<path d="M216.378 6.07045C216.089 6.26315 215.705 6.5522 215.513 6.9376C215.609 7.22665 215.609 7.41935 215.705 7.80476C215.897 7.61205 216.089 7.61205 216.474 7.7084C216.378 7.22665 216.378 6.7449 216.378 6.07045Z" fill="white"/>
<path d="M275.978 237.695C276.459 236.924 276.555 236.346 276.362 235.383C274.824 234.901 274.055 234.612 272.709 233.841C272.613 234.419 272.421 234.805 272.229 235.094C273.767 235.865 274.632 236.539 275.978 237.695Z" fill="white"/>
<path d="M245.409 25.1476C244.832 24.2804 244.351 23.7023 243.582 23.3169C243.006 23.7023 242.717 23.9914 242.525 24.4731C243.39 24.9549 243.775 25.4366 244.351 26.3038C244.64 25.6293 244.832 25.3403 245.409 25.1476Z" fill="white"/>
<path d="M153.318 306.104C153.702 307.164 154.087 307.742 155.048 308.513C155.817 307.357 156.49 306.779 157.355 306.394C157.067 305.334 156.682 304.756 156.106 303.792C155.337 304.852 154.568 305.334 153.318 306.104Z" fill="white"/>
<path d="M132.073 74.6716C132.362 75.4424 132.554 75.8278 132.938 76.3095C133.323 76.0205 133.515 75.7314 133.611 75.346C133.323 75.057 133.227 74.7679 133.035 74.3825C132.746 74.6716 132.458 74.7679 132.073 74.6716Z" fill="white"/>
<path d="M105.925 9.44162C105.733 9.73067 105.733 9.92337 105.733 10.3088C106.117 10.2124 106.406 10.3088 106.694 10.4051C106.886 10.1161 106.983 9.92337 106.983 9.63432C106.598 9.63432 106.31 9.63432 105.925 9.44162Z" fill="white"/>
<path d="M213.398 303.215C212.533 303.312 211.956 303.119 211.283 302.733C211.187 304.179 211.283 305.624 211.571 306.202C212.244 306.298 212.821 306.106 213.686 305.913C213.302 305.239 213.302 304.468 213.398 303.215Z" fill="white"/>
<path d="M285.494 146.934C284.629 146.549 283.956 146.645 283.091 147.127C282.899 148.091 282.995 148.861 283.283 149.536C284.34 149.632 285.013 150.018 286.071 150.692C285.686 149.343 285.494 148.476 285.494 146.934Z" fill="white"/>
<path d="M41.9032 290.784C41.9032 290.11 41.6149 289.628 41.0381 288.954C39.5961 290.206 37.6736 291.074 35.2703 291.844C35.6548 292.422 35.751 292.904 35.8471 293.675C38.3465 293.001 39.6923 292.422 41.9032 290.784Z" fill="white"/>
<path d="M290.108 49.1377C291.646 49.4268 292.415 49.6195 293.473 50.3903C293.761 49.8122 293.953 49.5231 294.338 49.4268C293.28 48.4633 292.319 48.0779 290.781 47.6925C290.397 48.0779 290.204 48.5596 290.108 49.1377Z" fill="white"/>
<path d="M109.963 26.6887C109.579 26.3996 109.29 26.0142 109.002 25.4361C108.233 26.496 107.656 27.1704 106.887 27.8449C107.079 28.5193 107.272 28.8084 107.752 29.1938C108.329 28.712 109.194 27.8449 109.963 26.6887Z" fill="white"/>
<path d="M330.964 248.488C330.675 248.681 330.291 248.777 329.81 248.681C329.906 250.03 330.195 250.8 330.579 251.957C331.348 251.957 331.733 251.86 332.021 251.668C331.348 250.704 331.156 249.837 330.964 248.488Z" fill="white"/>
<path d="M40.269 212.742C40.4612 212.26 40.7496 211.875 41.4225 211.586C40.269 210.237 39.4038 209.466 38.058 208.503C37.1928 208.985 36.8083 209.563 36.6161 209.948C38.3464 210.526 39.1154 211.393 40.269 212.742Z" fill="white"/>
<path d="M9.21974 146.068C8.4507 146.453 7.48941 146.453 5.56683 145.779C5.4707 146.646 5.56683 147.513 6.04747 148.477C7.58554 148.766 8.54683 148.766 9.98877 148.38C9.412 147.706 9.31587 147.128 9.21974 146.068Z" fill="white"/>
<path d="M126.882 300.517C127.459 300.806 127.843 300.806 128.42 300.613C128.612 299.554 128.804 298.975 129.189 298.012C128.804 298.012 128.516 297.916 128.324 297.819C127.939 298.975 127.555 299.554 126.882 300.517Z" fill="white"/>
<path d="M180.425 320.942C180.906 320.846 181.194 320.749 181.579 320.364C181.098 319.979 180.906 319.69 180.81 319.304C180.329 319.4 180.041 319.497 179.656 319.69C180.041 320.075 180.233 320.364 180.425 320.942Z" fill="white"/>
<path d="M82.0848 327.11C81.7964 326.531 81.508 326.146 80.8351 325.857C79.97 326.628 79.3932 326.917 78.3358 327.495C78.6241 327.784 78.8164 328.073 78.9125 328.266C80.0661 327.688 80.8351 327.399 82.0848 327.11Z" fill="white"/>
<path d="M145.915 356.785C146.396 357.267 147.069 357.749 147.838 357.942C148.319 357.653 148.703 357.46 149.28 357.267C148.799 356.978 148.703 356.689 148.703 355.918C147.934 356.304 147.069 356.496 145.915 356.785Z" fill="white"/>
<path d="M243.391 300.613C244.16 299.842 244.448 299.264 244.448 298.107C242.91 297.24 241.949 296.566 240.603 295.313C240.411 295.891 240.026 296.277 239.738 296.566C241.372 297.915 242.141 298.975 243.391 300.613Z" fill="white"/>
<path d="M273.189 283.848C272.805 284.523 272.517 285.293 272.613 286.257C273.093 286.642 273.382 287.028 273.766 287.606C273.862 287.028 274.247 286.835 275.016 286.546C274.343 285.775 273.862 285.004 273.189 283.848Z" fill="white"/>
<path d="M83.4316 15.8023C82.3742 14.8388 81.8936 14.2607 81.2207 13.0081C80.6439 13.2972 80.1632 13.6826 79.8749 14.2607C80.2594 15.1278 80.9323 16.0913 81.9897 17.2475C82.2781 16.3804 82.6626 15.995 83.4316 15.8023Z" fill="white"/>
<path d="M212.628 43.262C213.301 43.6474 213.685 43.8401 214.262 43.9365C214.358 43.4547 214.358 43.1656 214.262 42.8766C213.878 42.8766 213.589 42.6839 213.205 42.4912C213.109 42.8766 213.012 43.0693 212.628 43.262Z" fill="white"/>
<path d="M45.5561 174.202C47.0941 173.431 47.8632 172.756 48.8244 171.793C47.9593 171.022 47.2864 170.733 46.6135 170.637C46.1328 171.407 45.5561 171.697 44.5948 172.178C45.3638 172.756 45.5561 173.334 45.5561 174.202Z" fill="white"/>
<path d="M94.0054 36.6134C94.1015 36.517 94.2937 36.517 94.486 36.6134C94.486 36.1316 94.3899 35.7462 94.2937 35.2645C94.0054 35.2645 93.8131 35.2645 93.717 35.3608C93.9092 35.7462 94.0054 36.0353 94.0054 36.6134Z" fill="white"/>
<path d="M83.7198 321.038C83.7198 319.689 83.6237 318.919 83.3353 317.859C82.4701 318.148 82.0856 318.533 81.7011 318.919C81.9895 319.497 82.0856 320.075 81.9895 320.846C82.6624 320.653 83.143 320.749 83.7198 321.038Z" fill="white"/>
<path d="M321.351 108.684C321.639 108.395 321.928 108.106 322.505 108.106C321.928 106.757 321.447 105.986 320.582 104.926C319.813 105.119 319.332 105.408 319.14 105.697C320.39 106.564 320.774 107.335 321.351 108.684Z" fill="white"/>
<path d="M342.595 327.012C342.307 326.723 342.115 326.627 341.634 326.723C341.442 327.012 341.346 327.301 341.346 327.59C341.73 327.783 341.922 328.072 342.211 328.458C342.211 327.879 342.307 327.494 342.595 327.012Z" fill="white"/>
<path d="M202.92 0C202.247 0 201.574 0.0963503 200.901 0.578102C200.805 1.1562 200.709 1.44525 200.421 2.02336C200.901 1.92701 201.19 2.02336 201.67 2.50511C201.959 1.63795 202.343 0.963503 202.92 0Z" fill="white"/>
<path d="M18.5446 42.0085C18.9291 42.0085 19.1213 41.9122 19.5059 41.7195C18.9291 40.8523 18.6407 39.7925 18.3523 38.5399C18.0639 38.7326 17.7755 38.7326 17.391 38.7326C17.6794 40.0815 17.8717 40.756 18.5446 42.0085Z" fill="white"/>
<path d="M184.27 317.666C183.789 317.57 183.501 317.57 182.924 317.763C183.212 318.341 183.212 318.726 183.212 319.111C183.693 319.208 183.981 319.208 184.462 319.208C184.27 318.726 184.27 318.341 184.27 317.666Z" fill="white"/>
<path d="M287.993 269.492C287.417 269.203 287.032 268.721 286.551 267.276C285.975 267.565 285.59 268.046 285.206 268.721C285.686 269.781 286.071 270.262 286.936 271.033C287.032 270.359 287.321 269.973 287.993 269.492Z" fill="#FFAF00"/>
<path d="M301.739 264.866C302.22 265.444 302.412 266.118 302.316 267.178C304.912 266.793 306.45 266.215 308.757 265.348C308.757 263.806 308.468 263.035 308.084 262.457C305.873 263.902 304.239 264.384 301.739 264.866Z" fill="#FF0E41"/>
<path d="M40.9404 77.0804C41.421 77.6585 41.6133 78.3329 41.5172 79.3928C44.1126 79.0074 45.6507 78.4293 47.9578 77.5621C47.9578 76.0205 47.6694 75.2497 47.2849 74.6716C45.1701 76.2132 43.4397 76.695 40.9404 77.0804Z" fill="#FF0E41"/>
<path d="M262.519 240.296C262.231 240.586 262.231 240.875 262.135 241.356C263.192 241.453 264.25 241.934 265.403 242.513C265.499 242.127 265.595 241.934 265.884 241.645C264.73 240.875 263.961 240.586 262.519 240.296Z" fill="#FFAF00"/>
<path d="M274.824 282.21C275.401 281.535 275.978 281.343 277.035 281.439C276.65 280.379 276.074 279.801 275.016 278.741C274.247 278.645 273.767 278.934 273.19 279.608C274.055 280.379 274.632 281.15 274.824 282.21Z" fill="#FFAF00"/>
<path d="M315.486 197.133C314.717 196.555 314.428 196.265 314.044 195.495C313.755 195.687 313.563 195.784 313.275 195.784C313.563 196.555 313.948 197.036 314.717 197.711C315.101 197.614 315.293 197.422 315.486 197.133Z" fill="#008DF0"/>
<path d="M302.606 204.647C301.26 203.973 300.491 203.491 299.433 202.335C298.857 202.816 298.472 203.395 298.376 204.069C299.049 204.936 300.01 205.707 301.548 206.67C301.548 205.514 301.837 205.032 302.606 204.647Z" fill="#00D339"/>
<path d="M278.668 122.847C279.534 123.618 280.495 123.714 282.129 123.521C282.129 121.016 282.321 119.474 283.283 117.258C282.129 117.355 281.36 117.066 279.822 116.102C278.861 118.415 278.668 120.342 278.668 122.847Z" fill="#FFAF00"/>
<path d="M322.696 197.615C323.177 196.651 323.273 196.17 322.984 195.11C321.35 194.724 320.389 194.339 318.851 193.665C318.755 194.243 318.658 194.724 318.466 195.013C320.197 195.688 321.158 196.362 322.696 197.615Z" fill="#FFAF00"/>
<path d="M101.791 305.044C102.272 306.007 103.137 306.489 104.579 306.874C105.444 304.658 106.117 303.406 107.751 301.768C106.694 301.479 106.117 300.901 105.156 299.552C103.522 301.286 102.657 302.828 101.791 305.044Z" fill="#FFAF00"/>
<path d="M296.452 75.3451C296.933 76.3086 297.798 76.7904 299.24 77.1758C300.105 74.9597 300.778 73.7072 302.412 72.0692C301.355 71.7802 300.778 71.202 299.817 69.8531C298.182 71.5874 297.317 73.2254 296.452 75.3451Z" fill="#FFAF00"/>
<path d="M131.207 61.1811C130.15 61.1811 129.573 61.3738 128.804 62.1446C129.284 63.7825 129.38 64.8424 129.477 66.5767C130.053 66.2876 130.534 66.2876 130.919 66.2876C130.726 64.3606 130.919 63.1081 131.207 61.1811Z" fill="#FF41AA"/>
<path d="M81.0275 62.0483C79.3933 64.457 78.6243 66.095 77.8553 68.5037C79.7779 68.9855 81.0275 68.8891 82.1811 68.5037C82.2772 66.9621 82.9501 65.9986 84.0076 64.5534C82.4695 63.9753 81.7966 63.3972 81.0275 62.0483Z" fill="#FFAF00"/>
<path d="M39.98 121.016C39.3071 123.329 39.0187 125.256 39.4993 127.183C41.0374 127.665 42.0948 127.761 43.2484 127.376C42.8639 124.967 42.96 123.522 43.729 121.305C42.191 121.787 41.1335 121.884 39.98 121.016Z" fill="#FF41AA"/>
<path d="M294.243 96.1579C294.627 95.9652 294.916 95.8688 295.396 95.7725C294.819 94.9053 294.435 94.3272 294.147 93.6527C293.666 93.5564 293.377 93.7491 292.993 93.9418C293.185 94.4236 293.666 95.2907 294.243 96.1579Z" fill="#00D339"/>
<path d="M305.297 145.681C303.951 146.548 302.221 146.837 298.376 146.163C298.376 147.897 298.76 149.342 299.914 151.173C302.894 151.366 304.624 151.173 307.22 150.113C306.066 148.764 305.778 147.801 305.297 145.681Z" fill="#FF0E41"/>
<path d="M247.715 286.449C248.291 286.835 248.58 287.124 248.868 287.702C249.06 287.509 249.253 287.413 249.445 287.413C249.157 286.835 248.868 286.449 248.195 285.967C248.003 286.064 247.907 286.256 247.715 286.449Z" fill="#FFAF00"/>
<path d="M49.4005 175.261C49.016 175.935 49.1121 176.61 49.5927 177.669C51.2269 177.188 52.2844 177.091 53.9186 177.284C53.6302 176.513 53.7263 175.935 54.0147 174.779C52.3805 174.586 51.0347 174.779 49.4005 175.261Z" fill="#FF41AA"/>
<path d="M240.795 324.411C242.525 324.797 243.486 324.797 245.12 323.929C245.12 321.039 245.216 319.305 245.793 316.51C244.736 316.703 243.967 316.607 243.39 316.318C242.909 319.497 242.14 321.424 240.795 324.411Z" fill="#FF0E41"/>
<path d="M266.461 92.5914C268.191 92.9768 269.153 92.9768 270.787 92.1097C270.787 89.2192 270.883 87.4849 271.46 84.6907C270.402 84.8834 269.633 84.7871 269.057 84.498C268.48 87.6776 267.807 89.6046 266.461 92.5914Z" fill="#FF0E41"/>
<path d="M304.046 222.955C303.085 221.22 302.316 220.353 300.297 219.679C297.798 221.991 296.164 223.147 293.376 224.785C294.337 225.556 294.818 226.231 295.106 227.001C298.278 224.882 300.489 224.015 304.046 222.955Z" fill="#FFAF00"/>
<path d="M89.295 265.156C89.5834 265.542 89.7756 265.927 89.9679 266.505C90.8331 265.638 91.506 265.156 92.275 264.771C92.275 264.096 92.0827 263.807 91.7943 263.422C91.2176 263.615 90.3524 264.289 89.295 265.156Z" fill="#FFAF00"/>
<path d="M199.94 97.5061C198.594 97.5061 197.056 97.5061 195.806 98.4696C195.518 99.5295 195.23 100.3 194.653 101.264C195.614 101.071 196.287 101.36 197.248 102.42C197.729 100.782 198.594 99.3368 199.94 97.5061Z" fill="#00D339"/>
<path d="M59.7823 276.717C60.1668 275.85 60.6475 275.464 61.4165 274.983C60.1668 274.116 58.7249 273.345 58.052 273.248C57.5714 273.826 57.3791 274.501 57.1868 275.368C57.9559 275.464 58.7249 275.946 59.7823 276.717Z" fill="#FF0E41"/>
<path d="M246.562 265.06C246.754 265.831 247.235 266.216 248.004 266.794C249.254 265.06 251.08 263.614 253.291 262.073C252.714 261.591 252.426 261.109 252.234 260.242C249.638 261.687 248.389 262.747 246.562 265.06Z" fill="#008DF0"/>
<path d="M303.182 237.311C303.567 236.637 304.143 236.251 305.105 236.058C303.951 233.842 302.894 232.59 301.26 230.759C299.914 231.241 299.241 231.819 298.856 232.301C300.971 233.746 301.933 235.095 303.182 237.311Z" fill="#FF0E41"/>
<path d="M92.0822 147.898C92.0822 148.572 92.2744 149.054 92.8512 149.536C93.6202 149.439 94.1009 149.247 94.4854 148.765C94.2931 147.994 94.3893 147.416 94.5815 146.453C93.7164 147.127 93.2357 147.512 92.0822 147.898Z" fill="#00D339"/>
<path d="M76.2201 218.908C76.124 217.944 75.8356 217.366 74.8743 216.788C73.913 217.077 73.2401 217.463 72.7595 218.137C73.144 219.197 73.144 219.968 72.9517 221.317C74.1053 220.16 74.7782 219.486 76.2201 218.908Z" fill="#FF0E41"/>
<path d="M130.823 272.959C130.342 272.959 130.054 273.056 129.573 273.345C129.958 273.826 130.054 274.212 130.15 274.597C130.631 274.597 130.919 274.597 131.4 274.405C131.015 273.923 130.919 273.537 130.823 272.959Z" fill="#FF41AA"/>
<path d="M260.02 190.966C260.597 190.195 260.789 189.617 261.077 188.846C260.404 188.75 260.02 188.75 259.635 188.846C259.635 189.328 259.443 189.713 259.059 190.195C259.539 190.388 259.828 190.58 260.02 190.966Z" fill="#FF0E41"/>
<path d="M177.637 69.9492C178.887 68.2149 179.367 66.9623 179.944 65.228C178.502 64.939 177.637 64.939 176.772 65.228C176.676 66.3842 176.291 67.0587 175.426 68.1185C176.483 68.5039 177.06 68.9857 177.637 69.9492Z" fill="#FF0E41"/>
<path d="M222.625 267.949C221.952 268.238 221.471 268.238 220.702 268.142C220.991 269.395 221.471 270.551 221.856 271.033C222.433 270.936 222.913 270.647 223.49 270.262C223.105 269.684 222.913 269.009 222.625 267.949Z" fill="#008DF0"/>
<path d="M242.812 92.6876C242.043 94.2293 241.563 95.5782 241.755 97.1198C242.812 97.6979 243.485 97.7942 244.447 97.6979C244.447 95.9636 244.735 94.9037 245.6 93.3621C244.254 93.5548 243.581 93.4584 242.812 92.6876Z" fill="#00D339"/>
<path d="M277.418 228.736C277.226 229.699 277.034 230.085 276.553 230.759C276.842 230.952 277.034 231.144 277.13 231.337C277.707 230.759 277.995 230.181 278.283 229.217C277.995 228.928 277.707 228.736 277.418 228.736Z" fill="#00D339"/>
<path d="M206.379 299.745C206.091 300.13 205.994 300.42 206.187 300.998C206.667 301.19 207.052 301.287 207.34 301.19C207.533 300.709 207.821 300.42 208.302 299.938C207.533 299.938 207.052 299.938 206.379 299.745Z" fill="#FF41AA"/>
<path d="M285.975 152.137C286.552 152.041 287.033 152.137 287.609 152.619C288.282 150.885 288.475 149.632 288.667 147.898C287.706 147.32 287.129 147.32 286.648 147.32C286.937 149.15 286.648 150.307 285.975 152.137Z" fill="#FF0E41"/>
<path d="M184.463 88.1602C183.886 88.2565 183.213 88.3529 182.637 88.8346C182.541 89.3164 182.444 89.7018 182.252 90.1836C182.637 89.9909 182.925 90.1836 183.502 90.569C183.598 89.7018 183.982 89.0274 184.463 88.1602Z" fill="#008DF0"/>
<path d="M202.823 56.0754C201.574 56.3644 200.228 56.1717 197.536 54.6301C197.056 55.8827 197.056 57.1352 197.44 58.7732C199.651 59.6404 200.997 59.9294 203.208 59.8331C202.631 58.5805 202.535 57.7134 202.823 56.0754Z" fill="#00D339"/>
<path d="M49.6892 113.211C49.8815 112.537 49.9776 112.152 50.4583 111.67C50.1699 111.477 50.0737 111.381 50.0737 111.188C49.5931 111.67 49.3047 112.055 49.1124 112.826C49.2086 113.115 49.4008 113.211 49.6892 113.211Z" fill="#FFAF00"/>
<path d="M99.8686 108.104C100.349 108.296 100.638 108.2 101.214 108.007C100.83 106.755 100.734 105.31 100.83 103.575C100.349 103.672 100.061 103.672 99.4841 103.479C99.388 105.31 99.388 106.273 99.8686 108.104Z" fill="#FF41AA"/>
<path d="M39.9794 155.028C40.2678 155.509 40.6523 156.087 41.3252 156.376C41.8059 156.28 42.0943 156.184 42.671 156.184C42.3827 155.895 42.3827 155.606 42.4788 154.931C41.7097 155.124 40.9407 155.124 39.9794 155.028Z" fill="#00D339"/>
<path d="M220.127 108.105C218.877 107.43 218.108 107.141 216.57 107.43C215.897 109.743 215.32 111.092 214.263 113.115C215.128 113.211 215.705 113.501 216.089 113.79C217.339 111.477 218.396 110.128 220.127 108.105Z" fill="#008DF0"/>
<path d="M55.5526 131.808C54.3029 132.675 53.3416 133.542 52.7649 134.698C53.2455 135.565 53.8223 136.047 54.4952 136.336C55.2642 134.987 55.9371 134.313 57.2829 133.542C56.3216 133.06 55.7449 132.675 55.5526 131.808Z" fill="#FFAF00"/>
<path d="M271.171 205.611C272.806 205.033 273.671 204.455 274.92 202.913C273.094 201.757 272.325 200.697 271.748 199.348C270.21 199.734 269.249 200.312 267.807 201.372C269.249 202.624 270.114 203.684 271.171 205.611Z" fill="#00D339"/>
<path d="M92.8515 221.123C94.005 220.737 94.5818 220.352 95.4469 219.774C94.9663 219.196 94.4857 218.907 94.005 218.714C93.6205 219.196 93.1398 219.388 92.4669 219.581C92.8515 220.063 92.9476 220.448 92.8515 221.123Z" fill="#FF0E41"/>
<path d="M42.8643 241.067C43.3449 241.356 43.6333 241.356 44.2101 241.356C44.1139 240.682 44.2101 240.296 44.4023 239.911C44.0178 239.622 43.7294 239.526 43.1526 239.429C43.1526 240.007 43.0565 240.393 42.8643 241.067Z" fill="#FFAF00"/>
<path d="M267.999 156.953C268.192 158.302 267.903 159.073 267.326 160.229C269.537 160.326 271.748 160.133 272.71 159.748C272.806 158.688 272.613 157.821 272.229 156.568C271.172 157.05 270.018 157.05 267.999 156.953Z" fill="#00D339"/>
<path d="M147.548 101.264C146.971 102.613 147.067 103.576 147.836 105.022C149.374 105.311 150.432 105.214 151.489 104.733C151.682 103.095 152.162 102.035 153.316 100.397C151.201 100.975 149.855 101.36 147.548 101.264Z" fill="#FF41AA"/>
<path d="M259.059 287.604C258.002 287.604 257.329 288.086 256.271 288.953C258.194 291.265 259.54 294.252 260.789 297.817C261.655 297.143 262.424 297.047 263.577 296.95C262.52 293.096 261.559 290.976 259.059 287.604Z" fill="#008DF0"/>
<path d="M73.8165 100.107C74.2011 97.6979 74.4894 96.5417 75.7391 94.9038C74.874 94.5184 74.3933 94.133 74.201 93.5549C72.7591 95.1928 72.0862 96.6381 71.5094 99.1432C72.1823 99.6249 72.9514 99.914 73.8165 100.107Z" fill="#008DF0"/>
<path d="M56.0332 236.347C55.5525 237.022 54.9758 237.407 54.1106 237.889C55.7448 239.045 56.8022 239.912 57.8596 241.068C58.9171 240.779 59.3016 240.394 59.8784 239.816C59.1093 238.949 57.7635 237.696 56.0332 236.347Z" fill="#008DF0"/>
<path d="M225.702 66.8666C226.087 67.3484 226.183 67.9265 226.087 68.6973C228.106 68.5046 229.355 68.1192 231.182 67.4447C231.278 66.2885 230.989 65.6141 230.797 65.1323C228.971 66.2885 227.721 66.5776 225.702 66.8666Z" fill="#FF41AA"/>
<path d="M201.188 290.4C200.419 290.111 199.842 289.629 199.362 288.569C197.247 290.303 196.093 291.652 194.555 293.772C195.324 295.121 196.093 295.699 196.67 296.084C197.824 293.483 199.073 292.23 201.188 290.4Z" fill="#008DF0"/>
<path d="M147.261 314.198C147.838 315.354 147.934 316.799 146.876 319.882C148.222 320.075 149.472 319.882 151.106 319.208C151.587 316.799 151.587 315.354 151.01 313.138C149.856 313.909 148.991 314.101 147.261 314.198Z" fill="#FF0E41"/>
<path d="M267.999 225.363C268.383 224.496 268.48 223.918 268.191 222.954C266.557 222.665 265.692 222.376 264.154 221.798C264.154 222.376 263.961 222.762 263.865 223.147C265.5 223.725 266.461 224.303 267.999 225.363Z" fill="#FF0E41"/>
<path d="M283.38 183.258C283.187 182.583 282.995 182.102 282.418 181.524C281.842 182.198 281.361 182.487 280.688 182.68C280.784 183.354 280.976 183.836 281.265 184.414C281.938 183.932 282.514 183.643 283.38 183.258Z" fill="#00D339"/>
<path d="M287.417 257.641C286.456 258.122 285.975 258.508 285.59 259.568C286.744 260.917 287.321 261.88 288.09 263.422C288.474 262.94 288.955 262.747 289.339 262.554C288.282 260.82 287.898 259.568 287.417 257.641Z" fill="#FF41AA"/>
<path d="M310.199 211.103C310.968 210.332 311.737 209.368 311.929 208.116C311.449 207.345 311.16 206.767 310.872 205.803C310.487 206.478 309.911 206.671 308.757 206.767C309.43 207.923 309.718 209.272 310.199 211.103Z" fill="#FF0E41"/>
<path d="M269.055 133.638C267.806 132.481 267.037 132 265.21 131.903C263.768 134.312 262.807 135.661 260.981 137.781C261.942 138.166 262.519 138.648 262.903 139.13C264.922 136.625 266.556 135.372 269.055 133.638Z" fill="#FFAF00"/>
<path d="M252.715 111.959C253.772 112.537 255.022 113.019 256.368 112.827C257.041 112.056 257.521 111.574 258.386 110.996C257.521 110.803 257.137 110.225 256.752 109.069C255.791 110.225 254.541 110.996 252.715 111.959Z" fill="#008DF0"/>
<path d="M48.6315 256.676C47.1896 258.217 46.2283 259.084 44.3057 260.048C44.7863 261.011 45.3631 261.686 46.2283 262.168C47.5741 261.59 49.016 260.53 50.8425 258.988C49.4967 258.41 48.8238 257.928 48.6315 256.676Z" fill="#008DF0"/>
<path d="M69.2024 158.977C69.7792 158.013 70.0676 157.339 70.3559 156.375C69.5869 156.279 69.1063 156.279 68.6256 156.472C68.6256 157.05 68.4334 157.435 67.9527 158.013C68.6256 158.206 68.914 158.399 69.2024 158.977Z" fill="#FFAF00"/>
<path d="M171.292 288.279C170.042 285.967 169.081 284.714 167.543 283.172C166.39 284.521 165.909 285.485 165.717 286.545C166.87 287.219 167.351 288.183 168.12 289.628C169.081 288.568 169.946 288.279 171.292 288.279Z" fill="#FF41AA"/>
<path d="M64.5897 249.933C64.4935 249.74 64.3974 249.547 64.4935 249.162C63.7245 249.162 63.1477 249.258 62.4748 249.451C62.3787 249.933 62.4748 250.222 62.571 250.414C63.2439 250.029 63.8206 250.029 64.5897 249.933Z" fill="#FFAF00"/>
<path d="M284.051 257.061C282.033 256.965 280.783 257.158 279.149 257.639C279.63 258.892 280.11 259.663 280.783 260.144C281.744 259.663 282.513 259.663 283.763 259.759C283.379 258.699 283.475 258.025 284.051 257.061Z" fill="#00D339"/>
<path d="M121.017 73.9006C120.536 73.5152 120.152 72.9371 120.056 72.07C118.037 72.9371 116.787 73.7079 115.153 74.9605C115.441 76.2131 115.922 76.7912 116.307 77.1766C117.748 75.5386 118.998 74.7678 121.017 73.9006Z" fill="#00D339"/>
<path d="M286.935 57.4251C286.551 57.8105 286.359 58.1959 286.455 58.8704C286.935 59.1594 287.416 59.3521 287.897 59.3521C288.185 58.774 288.57 58.485 289.243 58.0996C288.281 57.9069 287.704 57.9069 286.935 57.4251Z" fill="#FF41AA"/>
<path d="M34.9813 164.758C34.9813 165.817 35.1735 166.877 35.8464 167.841C36.7116 168.034 37.1922 168.13 38.0574 168.612C37.8651 167.841 38.0574 167.455 38.8264 166.588C37.5768 166.299 36.4232 165.721 34.9813 164.758Z" fill="#00D339"/>
<path d="M69.5874 308.129C69.6835 307.55 69.4913 307.165 69.1067 306.587C67.8571 307.454 66.2229 307.936 64.3003 308.321C64.5887 308.803 64.5887 309.188 64.5887 309.863C66.6074 309.478 67.6648 309.188 69.5874 308.129Z" fill="#00D339"/>
<path d="M279.534 179.79C279.342 180.561 279.438 181.042 279.726 181.813C280.592 181.428 281.168 181.331 281.841 181.428C282.033 180.753 282.033 180.272 282.033 179.404C281.168 179.694 280.592 179.79 279.534 179.79Z" fill="#008DF0"/>
</svg>
