<svg width="15" height="13" viewBox="0 0 15 13" fill="none" xmlns="http://www.w3.org/2000/svg">
<g clip-path="url(#clip0_2147_13924)">
<path d="M7.5305 2.45545C8.05712 1.83554 8.65909 1.32238 9.35437 0.923157C10.4094 0.317595 11.5461 0.010777 12.7635 0.00359992C12.9931 0.00180566 13.1833 0.0708846 13.3547 0.229676C13.8176 0.660298 14.2868 1.08464 14.7596 1.5045C14.9273 1.65342 15 1.82836 15 2.04995C14.9973 4.85348 14.9991 7.65701 14.9982 10.4605C14.9982 10.8885 14.7981 11.0867 14.3729 11.0912C12.7958 11.1065 11.2536 11.3299 9.76705 11.8744C9.13008 12.1077 8.51555 12.3885 7.95215 12.7697C7.68391 12.951 7.42285 12.9366 7.16986 12.7653C6.07895 12.0251 4.86423 11.5945 3.58672 11.3182C2.62679 11.111 1.65431 11.015 0.672847 11.0114C0.19378 11.0096 0.00358852 10.8158 0.00358852 10.3367C0.00269139 7.5673 0.00448565 4.79696 0 2.02752C0 1.79068 0.0744617 1.61036 0.254785 1.45605C0.750897 1.02902 1.24073 0.594808 1.73056 0.1597C1.85257 0.0511478 1.98176 -0.000885727 2.15311 1.1402e-05C4.29007 0.00808556 6.06639 0.805634 7.47847 2.4106C7.48923 2.42316 7.50269 2.43213 7.5305 2.45545ZM2.69767 1.07926C2.69767 3.57597 2.69767 6.05205 2.69767 8.5335C4.39234 8.69858 5.8125 9.4091 6.97428 10.6633C6.98146 10.622 6.98595 10.6068 6.98595 10.5906C6.98595 8.26347 6.98684 5.93632 6.98325 3.61006C6.98325 3.54457 6.95455 3.46383 6.91059 3.41538C6.60377 3.07627 6.31669 2.71203 5.97309 2.41419C5.04097 1.60767 3.94109 1.17974 2.69767 1.07926ZM8.0616 10.6794C9.24133 9.40193 10.666 8.70037 12.349 8.53261C12.349 6.03949 12.349 3.56341 12.349 1.08464C12.3221 1.08464 12.305 1.08285 12.2889 1.08464C10.5924 1.26048 9.22069 2.01945 8.17733 3.37232C8.09031 3.48536 8.05801 3.59929 8.05891 3.74014C8.0625 5.97758 8.0616 8.21592 8.0616 10.4534C8.0616 10.5153 8.0616 10.5763 8.0616 10.6794ZM1.61483 1.73147C1.45245 1.87322 1.32596 1.99254 1.18959 2.09929C1.10078 2.16837 1.07476 2.24732 1.07476 2.35677C1.07745 4.82926 1.07656 7.30175 1.07745 9.77423C1.07745 9.82806 1.08194 9.88189 1.08463 9.942C2.55233 9.97968 3.97159 10.2228 5.35855 10.6696C5.31459 10.6202 5.26705 10.5825 5.21681 10.5476C4.32955 9.92944 3.3445 9.61275 2.26435 9.58943C1.79157 9.57866 1.61394 9.39385 1.61394 8.91658C1.61394 6.59481 1.61394 4.27393 1.61394 1.95216C1.61483 1.89206 1.61483 1.83195 1.61483 1.73147ZM13.4336 1.73057C13.4336 1.83285 13.4336 1.89295 13.4336 1.95306C13.4336 4.2856 13.4336 6.61813 13.4336 8.95067C13.4336 9.38039 13.2407 9.58045 12.8155 9.58763C12.2754 9.5966 11.747 9.67734 11.233 9.846C10.6714 10.0299 10.1528 10.2955 9.689 10.6696C11.0786 10.2201 12.5033 9.97878 13.9701 9.93931C13.9701 9.78141 13.9701 9.64236 13.9701 9.5033C13.9701 7.12053 13.971 4.73775 13.9674 2.35408C13.9674 2.2841 13.9468 2.19439 13.9019 2.14774C13.7664 2.00958 13.613 1.88757 13.4336 1.73057Z" fill="#696969"/>
</g>
<defs>
<clipPath id="clip0_2147_13924">
<rect width="15" height="12.8998" fill="white"/>
</clipPath>
</defs>
</svg>
