<svg width="12" height="12" viewBox="0 0 12 12" fill="none" xmlns="http://www.w3.org/2000/svg">
<g clip-path="url(#clip0_2147_17309)">
<path d="M6.00028 11.9765C4.22003 11.9765 2.43978 11.9765 0.659529 11.9765C0.207651 11.9765 0.000113594 11.7717 0.000113594 11.3252C0.000113594 8.67293 -0.000908755 6.02062 0.00318064 3.36796C0.00318064 3.24017 0.0290802 3.10454 0.0757675 2.98526C0.410757 2.13194 0.754267 1.28203 1.09573 0.431432C1.22659 0.104961 1.38335 0 1.73811 0C4.57888 0 7.41965 0 10.2601 0C10.6155 0 10.773 0.104961 10.9031 0.430068C11.246 1.28509 11.5905 2.1391 11.9275 2.99617C11.9715 3.1076 11.9964 3.23471 11.9964 3.35433C12.0001 6.01516 11.9994 8.676 11.9991 11.3372C11.9991 11.7662 11.7864 11.9765 11.3533 11.9765C9.56931 11.9765 7.78462 11.9765 6.00028 11.9765ZM1.09641 10.8768C4.37304 10.8768 7.63673 10.8768 10.8987 10.8768C10.8987 8.51924 10.8987 6.1709 10.8987 3.82359C7.62684 3.82359 4.3635 3.82359 1.09641 3.82359C1.09641 6.17874 1.09641 8.52367 1.09641 10.8768ZM1.35677 2.71502C4.46063 2.71502 7.54437 2.71502 10.638 2.71502C10.6223 2.66935 10.6114 2.63357 10.5975 2.59881C10.4114 2.13398 10.2222 1.67052 10.041 1.20365C10.0055 1.11232 9.95882 1.08778 9.86408 1.08812C8.87206 1.09187 7.88004 1.09051 6.88802 1.09051C5.31258 1.09051 3.73748 1.09221 2.16204 1.0871C2.03766 1.08676 1.98313 1.12731 1.94462 1.23807C1.88192 1.41834 1.80456 1.59316 1.73368 1.77071C1.60963 2.0815 1.48559 2.39196 1.35677 2.71502Z" fill="#717171"/>
<path d="M3.82861 9.79355C3.45409 9.79355 3.07991 9.79867 2.70573 9.79185C2.43958 9.78708 2.22148 9.58363 2.19183 9.33111C2.15911 9.05201 2.31417 8.80903 2.57623 8.73235C2.61645 8.72043 2.65973 8.71327 2.70164 8.71293C3.44625 8.71191 4.19052 8.7085 4.93513 8.71395C5.21049 8.716 5.41905 8.92217 5.45313 9.19957C5.48414 9.45004 5.31715 9.70052 5.06395 9.7714C4.99579 9.79049 4.9215 9.79321 4.8496 9.79355C4.50916 9.7956 4.16905 9.79458 3.82861 9.79458C3.82861 9.79423 3.82861 9.79389 3.82861 9.79355Z" fill="#717171"/>
</g>
<defs>
<clipPath id="clip0_2147_17309">
<rect width="12" height="11.9765" fill="white"/>
</clipPath>
</defs>
</svg>
