<svg width="19" height="18" viewBox="0 0 19 18" fill="none" xmlns="http://www.w3.org/2000/svg">
<path d="M9.85884 3.34643C5.7768 3.34643 3.4223 6.3696 2.47546 7.938C2.23928 8.32922 2.12119 8.52483 2.13346 8.83912C2.14574 9.1534 2.28351 9.3459 2.55906 9.73091C3.67122 11.2849 6.3243 14.37 9.85884 14.37C13.3934 14.37 16.0465 11.2849 17.1586 9.73091C17.4342 9.3459 17.5719 9.1534 17.5842 8.83912C17.5965 8.52483 17.4784 8.32922 17.2422 7.938C16.2954 6.3696 13.9409 3.34643 9.85884 3.34643Z" stroke="#A8A8A8" stroke-width="1.5"/>
<circle cx="9.85884" cy="8.85819" r="3.14958" fill="#979797"/>
<path d="M18.4376 1.69967L18.6291 1.52016L18.4496 1.32868L17.7315 0.562772L17.552 0.371295L17.3605 0.550805L0.562773 16.2987L0.371295 16.4782L0.550806 16.6697L1.26885 17.4356L1.44836 17.6271L1.63984 17.4476L18.4376 1.69967Z" fill="#A8A8A8" stroke="white" stroke-width="0.5"/>
</svg>
