<svg width="17" height="17" viewBox="0 0 17 17" fill="none" xmlns="http://www.w3.org/2000/svg">
<path d="M13.047 3.06445C12.4539 3.06445 12.0586 3.4598 12.0586 4.05283C12.0586 4.64585 12.4539 5.0412 13.047 5.0412C13.64 5.0412 14.0353 4.64585 14.0353 4.05283C14.0353 3.4598 13.5412 3.06445 13.047 3.06445Z" fill="white"/>
<path d="M8.59843 4.34961C6.32517 4.34961 4.44727 6.22752 4.44727 8.50077C4.44727 10.774 6.32517 12.6519 8.59843 12.6519C10.8717 12.6519 12.7496 10.774 12.7496 8.50077C12.7496 6.22752 10.8717 4.34961 8.59843 4.34961ZM8.59843 11.1694C7.11587 11.1694 5.92982 9.98333 5.92982 8.50077C5.92982 7.01821 7.11587 5.83217 8.59843 5.83217C10.081 5.83217 11.267 7.01821 11.267 8.50077C11.267 9.98333 10.081 11.1694 8.59843 11.1694Z" fill="white"/>
<path d="M11.8605 17H5.13953C2.37209 17 0 14.7267 0 11.8605V5.13953C0 2.27326 2.37209 0 5.13953 0H11.8605C14.6279 0 16.9012 2.27326 16.9012 5.0407V11.8605C17 14.7267 14.7267 17 11.8605 17ZM5.13953 1.63081C5.13953 1.60352 5.11713 1.58136 5.08984 1.58173C3.13799 1.60798 1.68023 3.17856 1.68023 5.0407V11.8605C1.68023 13.8372 3.26163 15.3198 5.13953 15.3198H11.8605C13.8372 15.3198 15.3198 13.7384 15.3198 11.8605V5.13953C15.3198 3.16279 13.7384 1.68023 11.8605 1.68023H5.18895C5.16166 1.68023 5.13953 1.65811 5.13953 1.63081Z" fill="white"/>
</svg>
