<svg width="21" height="21" viewBox="0 0 21 21" fill="none" xmlns="http://www.w3.org/2000/svg">
<g clip-path="url(#clip0_2160_18171)">
<path d="M16.6599 9.72412L10.114 16.27C8.82091 17.5631 6.7235 17.7673 5.31285 16.6041C3.69802 15.2739 3.61141 12.8733 5.05918 11.4256L12.7064 3.77835C13.5169 2.96785 14.8347 2.81317 15.7195 3.53706C16.7404 4.37231 16.796 5.87577 15.8865 6.78527L9.39012 13.2817C9.04984 13.622 8.493 13.622 8.15271 13.2817C7.81242 12.9414 7.81242 12.3846 8.15271 12.0443L13.5664 6.63059C13.8201 6.37692 13.8201 5.9562 13.5664 5.70253C13.3127 5.44886 12.892 5.44886 12.6383 5.70253L7.31127 11.0296C6.50077 11.8401 6.34609 13.1579 7.06997 14.0427C7.90523 15.0636 9.40869 15.1192 10.3182 14.2097L16.7094 7.81851C18.0025 6.52541 18.2067 4.428 17.0435 3.01734C15.7071 1.39633 13.3127 1.3159 11.865 2.76367L4.27342 10.3552C2.49773 12.1309 2.20694 15.0203 3.80939 16.9568C5.65932 19.178 8.94466 19.2955 10.9369 17.3033L17.588 10.6522C17.8417 10.3985 17.8417 9.97779 17.588 9.72412C17.3343 9.47045 16.9136 9.47045 16.6599 9.72412Z" fill="white"/>
</g>
<defs>
<clipPath id="clip0_2160_18171">
<rect width="20.9996" height="20.9996" rx="6" fill="white"/>
</clipPath>
</defs>
</svg>
