<svg width="12" height="12" viewBox="0 0 12 12" fill="none" xmlns="http://www.w3.org/2000/svg">
<path d="M4 2.875C3.795 2.875 3.625 2.705 3.625 2.5V1C3.625 0.795 3.795 0.625 4 0.625C4.205 0.625 4.375 0.795 4.375 1V2.5C4.375 2.705 4.205 2.875 4 2.875Z" fill="#FF519A"/>
<path d="M8 2.875C7.795 2.875 7.625 2.705 7.625 2.5V1C7.625 0.795 7.795 0.625 8 0.625C8.205 0.625 8.375 0.795 8.375 1V2.5C8.375 2.705 8.205 2.875 8 2.875Z" fill="#FF519A"/>
<path d="M10.25 4.91992H1.75C1.545 4.91992 1.375 4.74992 1.375 4.54492C1.375 4.33992 1.545 4.16992 1.75 4.16992H10.25C10.455 4.16992 10.625 4.33992 10.625 4.54492C10.625 4.74992 10.455 4.91992 10.25 4.91992Z" fill="#FF519A"/>
<path d="M8 11.375H4C2.175 11.375 1.125 10.325 1.125 8.5V4.25C1.125 2.425 2.175 1.375 4 1.375H8C9.825 1.375 10.875 2.425 10.875 4.25V8.5C10.875 10.325 9.825 11.375 8 11.375ZM4 2.125C2.57 2.125 1.875 2.82 1.875 4.25V8.5C1.875 9.93 2.57 10.625 4 10.625H8C9.43 10.625 10.125 9.93 10.125 8.5V4.25C10.125 2.82 9.43 2.125 8 2.125H4Z" fill="#FF519A"/>
<path d="M4.25 7.25001C4.185 7.25001 4.12 7.23501 4.06 7.21001C4 7.18501 3.945 7.15 3.895 7.105C3.85 7.055 3.81499 7.00001 3.78999 6.94001C3.76499 6.88001 3.75 6.81501 3.75 6.75001C3.75 6.62001 3.805 6.49001 3.895 6.39501C3.945 6.35001 4 6.315 4.06 6.29C4.15 6.25 4.25001 6.24 4.35001 6.26C4.38001 6.265 4.41 6.275 4.44 6.29C4.47 6.3 4.5 6.31501 4.53 6.33501C4.555 6.35501 4.58 6.37501 4.605 6.39501C4.625 6.42001 4.64999 6.44501 4.66499 6.47001C4.68499 6.50001 4.70001 6.53 4.71001 6.56C4.72501 6.59 4.73501 6.62 4.74001 6.65C4.74501 6.685 4.75 6.71501 4.75 6.75001C4.75 6.88001 4.695 7.01 4.605 7.105C4.51 7.195 4.38 7.25001 4.25 7.25001Z" fill="#FF519A"/>
<path d="M6 7.24945C5.87 7.24945 5.74 7.19444 5.645 7.10444C5.625 7.07944 5.60501 7.05445 5.58501 7.02945C5.56501 6.99945 5.54999 6.96945 5.53999 6.93945C5.52499 6.90945 5.51499 6.87945 5.50999 6.84945C5.50499 6.81445 5.5 6.78445 5.5 6.74945C5.5 6.68445 5.51499 6.61945 5.53999 6.55945C5.56499 6.49945 5.6 6.44445 5.645 6.39445C5.785 6.25445 6.01 6.20944 6.19 6.28944C6.255 6.31444 6.305 6.34945 6.355 6.39445C6.445 6.48945 6.5 6.61945 6.5 6.74945C6.5 6.78445 6.49501 6.81445 6.49001 6.84945C6.48501 6.87945 6.47501 6.90945 6.46001 6.93945C6.45001 6.96945 6.43499 6.99945 6.41499 7.02945C6.39499 7.05445 6.375 7.07944 6.355 7.10444C6.305 7.14944 6.255 7.18446 6.19 7.20946C6.13 7.23445 6.065 7.24945 6 7.24945Z" fill="#FF519A"/>
<path d="M4.25 8.99945C4.185 8.99945 4.12 8.98446 4.06 8.95946C4 8.93446 3.945 8.89944 3.895 8.85444C3.85 8.80444 3.81499 8.75445 3.78999 8.68945C3.76499 8.62945 3.75 8.56445 3.75 8.49945C3.75 8.36945 3.805 8.23945 3.895 8.14445C3.945 8.09945 4 8.06444 4.06 8.03944C4.245 7.95944 4.465 8.00445 4.605 8.14445C4.625 8.16945 4.64999 8.19445 4.66499 8.21945C4.68499 8.24945 4.70001 8.27945 4.71001 8.30945C4.72501 8.33945 4.73501 8.36945 4.74001 8.40445C4.74501 8.43445 4.75 8.46945 4.75 8.49945C4.75 8.62945 4.695 8.75944 4.605 8.85444C4.51 8.94444 4.38 8.99945 4.25 8.99945Z" fill="#FF519A"/>
</svg>
