<svg width="16" height="16" viewBox="0 0 16 16" fill="none" xmlns="http://www.w3.org/2000/svg">
<path d="M14.0993 4.11268C13.826 3.96602 13.2527 3.81268 12.4727 4.35935L11.4927 5.05268C11.4193 2.97935 10.5193 2.16602 8.33268 2.16602H4.33268C2.05268 2.16602 1.16602 3.05268 1.16602 5.33268V10.666C1.16602 12.1993 1.99935 13.8327 4.33268 13.8327H8.33268C10.5193 13.8327 11.4193 13.0193 11.4927 10.946L12.4727 11.6393C12.886 11.9327 13.246 12.026 13.5327 12.026C13.7793 12.026 13.9727 11.9527 14.0993 11.886C14.3727 11.746 14.8327 11.366 14.8327 10.4127V5.58602C14.8327 4.63268 14.3727 4.25268 14.0993 4.11268ZM7.33268 7.58602C6.64602 7.58602 6.07935 7.02602 6.07935 6.33268C6.07935 5.63935 6.64602 5.07935 7.33268 5.07935C8.01935 5.07935 8.58602 5.63935 8.58602 6.33268C8.58602 7.02602 8.01935 7.58602 7.33268 7.58602Z" fill="white"/>
</svg>
