<svg width="24" height="25" viewBox="0 0 24 25" fill="none" xmlns="http://www.w3.org/2000/svg">
<path d="M13.8959 7.48051C12.4322 7.04984 11.6447 7.44136 10.9633 8.91784C9.81885 8.49319 8.60589 8.87718 8.08186 10.2377C8.00281 10.1632 7.92902 10.0962 7.85824 10.0254C6.43372 8.60462 5.01296 7.18085 3.58467 5.76385C2.82573 5.01018 1.72195 4.90101 0.87491 5.48C-0.17466 6.19754 -0.304159 7.67702 0.618168 8.62495C1.39819 9.42681 2.19855 10.2083 2.99062 10.9989C5.5385 13.5423 8.08713 16.0856 10.6358 18.629C10.6757 18.6689 10.7261 18.7028 10.7525 18.7502C10.7856 18.8105 10.833 18.897 10.8112 18.943C10.7894 18.9896 10.6915 19.0228 10.6267 19.0243C10.2036 19.0311 9.7797 19.0152 9.35655 19.0311C8.74744 19.0536 8.12628 19.0303 7.53374 19.1463C6.46986 19.3548 5.68607 19.9978 5.16881 20.9465C4.63801 21.9193 5.13343 23.0057 6.2214 23.2339C7.73853 23.5516 9.25792 23.8595 10.7818 24.1456C11.8615 24.3489 12.9442 24.5462 14.0337 24.6825C16.4107 24.9791 18.4759 24.3098 20.179 22.5991C20.7881 21.9855 21.4093 21.3832 22.0109 20.7628C24.43 18.2668 24.6725 14.3261 22.5741 11.6637C22.4235 11.4725 22.2601 11.288 22.0884 11.1156C20.5472 9.57288 19.0075 8.02788 17.4572 6.49419C16.3768 5.42579 14.6165 5.72696 14.042 7.0664C13.9863 7.19515 13.9479 7.32993 13.8959 7.48051ZM14.7362 23.7195C14.3221 23.6706 13.5962 23.6269 12.887 23.4936C10.763 23.0953 8.64655 22.6616 6.52708 22.2415C6.00004 22.1369 5.84644 21.7988 6.1318 21.338C6.65282 20.4962 7.4208 20.0746 8.40863 20.0611C9.20823 20.0498 10.0086 20.0671 10.8074 20.0445C11.2599 20.0317 11.5829 19.7757 11.7689 19.3684C11.9617 18.9467 11.9014 18.5439 11.6236 18.1765C11.5445 18.0726 11.4467 17.9822 11.3533 17.8896C8.04723 14.5896 4.73965 11.2895 1.43358 7.98949C0.943428 7.50009 0.902016 6.86763 1.32666 6.44148C1.76411 6.00178 2.40108 6.04168 2.90328 6.54162C3.32341 6.95949 3.74203 7.37811 4.16066 7.79674C5.87054 9.50361 7.57966 11.2105 9.2903 12.9166C9.56436 13.1899 9.85875 13.2178 10.0869 13.0024C10.3195 12.7833 10.2947 12.4671 10.0199 12.1885C9.80906 11.9739 9.59222 11.7654 9.38291 11.55C9.14724 11.3069 9.03355 11.0162 9.08475 10.6774C9.14649 10.2723 9.37463 9.98773 9.76012 9.84844C10.1607 9.70388 10.5243 9.79499 10.8285 10.0849C11.1959 10.435 11.5468 10.8024 11.9112 11.1548C12.0927 11.3302 12.3095 11.3656 12.5324 11.2368C12.7304 11.1224 12.8253 10.9364 12.7763 10.7128C12.7522 10.6006 12.6784 10.4922 12.6031 10.4003C12.4962 10.2701 12.3622 10.1624 12.2508 10.0359C11.8766 9.60977 11.8962 8.9984 12.2914 8.61064C12.6882 8.22214 13.3026 8.21009 13.7167 8.6001C14.0796 8.94118 14.4222 9.30333 14.7791 9.65118C15.0328 9.89814 15.3408 9.91395 15.5553 9.70313C15.7782 9.48403 15.7639 9.19265 15.5154 8.93063C15.3927 8.80113 15.2557 8.68368 15.1427 8.54589C14.6436 7.93979 14.953 7.06038 15.7217 6.89399C16.1411 6.80364 16.4709 6.96325 16.7615 7.25463C18.2365 8.73036 19.6874 10.2324 21.1985 11.6705C23.4527 13.8156 23.6041 17.6525 21.2527 20.0603C20.5961 20.7327 19.9351 21.402 19.2567 22.0525C18.0844 23.1759 16.6734 23.724 14.7362 23.7195Z" fill="white"/>
<path d="M7.68114 3.33811C7.79634 2.62886 7.90099 1.9821 8.00565 1.3361C8.0433 1.10495 8.08395 0.873804 8.11859 0.641905C8.16753 0.312878 8.0064 0.0666736 7.709 0.0102046C7.41009 -0.0470173 7.15711 0.139707 7.09763 0.487556C6.95382 1.32857 6.82206 2.17184 6.68427 3.01436C6.61425 3.43976 6.54273 3.86516 6.47195 4.29056C6.3801 4.83943 6.51035 5.02616 7.06601 5.11801C8.32639 5.32582 9.58753 5.53137 10.8494 5.73315C11.2259 5.79338 11.4819 5.63452 11.5338 5.32657C11.5858 5.01712 11.3689 4.77619 10.9842 4.71445C10.1214 4.57591 9.25926 4.43662 8.39642 4.29658C8.35049 4.28905 8.30682 4.27249 8.20668 4.24538C8.33317 4.16632 8.42051 4.1076 8.51161 4.05489C12.4675 1.77957 17.5775 2.48505 20.7661 5.74746C20.8316 5.81447 20.8949 5.88524 20.9657 5.94623C21.1938 6.14274 21.4799 6.14349 21.6787 5.9515C21.8812 5.75724 21.9053 5.42219 21.6794 5.22192C21.0628 4.67379 20.4785 4.06618 19.7881 3.62874C15.9106 1.17422 11.9329 1.01686 7.88744 3.23044C7.84001 3.2568 7.79107 3.28089 7.68114 3.33811Z" fill="white"/>
</svg>
