<svg width="24" height="24" viewBox="0 0 24 24" fill="none" xmlns="http://www.w3.org/2000/svg">
<path d="M4.90039 10.75H6.90039C9.32039 10.75 10.6504 9.42 10.6504 7V5C10.6504 2.58 9.32039 1.25 6.90039 1.25H4.90039C2.48039 1.25 1.15039 2.58 1.15039 5V7C1.15039 9.42 2.48039 10.75 4.90039 10.75Z" fill="#6A58D7"/>
<path d="M16.9004 10.75H18.9004C21.3204 10.75 22.6504 9.42 22.6504 7V5C22.6504 2.58 21.3204 1.25 18.9004 1.25H16.9004C14.4804 1.25 13.1504 2.58 13.1504 5V7C13.1504 9.42 14.4804 10.75 16.9004 10.75Z" fill="#6A58D7"/>
<path d="M17.1629 13.9906C17.1629 13.5859 17.4912 13.2578 17.8961 13.2578C18.3011 13.2578 18.6293 13.5859 18.6293 13.9906V17.2759H21.9164C22.3214 17.2759 22.6496 17.604 22.6496 18.0087C22.6496 18.4134 22.3214 18.7415 21.9164 18.7415H18.6293V22.0268C18.6293 22.4315 18.3011 22.7596 17.8961 22.7596C17.4912 22.7596 17.1629 22.4315 17.1629 22.0268V18.7415H13.8758C13.4708 18.7415 13.1426 18.4134 13.1426 18.0087C13.1426 17.604 13.4708 17.2759 13.8758 17.2759H17.1629V13.9906Z" fill="#6A58D7"/>
<path d="M4.90039 22.75H6.90039C9.32039 22.75 10.6504 21.42 10.6504 19V17C10.6504 14.58 9.32039 13.25 6.90039 13.25H4.90039C2.48039 13.25 1.15039 14.58 1.15039 17V19C1.15039 21.42 2.48039 22.75 4.90039 22.75Z" fill="#6A58D7"/>
</svg>
