<svg width="16" height="17" viewBox="0 0 16 17" fill="none" xmlns="http://www.w3.org/2000/svg">
<path fill-rule="evenodd" clip-rule="evenodd" d="M11.2719 8.87131C11.2719 7.72847 12.6611 6.99551 13.7774 7.24063C14.525 7.40479 15.1523 6.77057 15.1523 6.00518V4.97141C15.1523 4.77695 14.9982 4.62387 14.804 4.61252C14.5641 4.59849 14.3208 4.7751 14.3208 5.01543V5.81553C14.3208 6.32848 13.9029 6.75188 13.3949 6.68143C13.2419 6.66021 13.0911 6.63371 12.9425 6.60204C11.8237 6.36358 10.4404 7.08322 10.4404 8.2271V11.1791C10.4404 14.0432 8.1306 16.353 5.26647 16.353C4.90102 16.353 4.68314 16.8102 5.04038 16.8872C5.37982 16.9604 5.73329 16.9997 6.098 16.9997C8.96213 16.9997 11.2719 14.69 11.2719 11.8258V8.87131ZM10.69 1.37104C10.8174 1.73019 11.3098 1.39525 11.2719 1.01605V1.00068C11.2719 0.805062 11.1133 0.646484 10.9177 0.646484C10.7105 0.646484 10.5457 0.824522 10.5908 1.02679C10.6169 1.14395 10.6501 1.25874 10.69 1.37104ZM3.08269 12.2058C3.25065 12.593 3.69582 12.2479 3.69582 11.8258C3.69582 10.5324 4.80452 9.42366 6.098 9.42366C6.46649 9.42366 6.83713 9.13551 6.83713 8.76702V7.07074C6.83713 6.83943 6.64953 6.64375 6.42136 6.60572C6.1932 6.5677 6.0056 6.74704 6.0056 6.97835V8.02789C6.0056 8.39638 5.63497 8.68453 5.26647 8.68453C3.973 8.68453 2.8643 9.79322 2.8643 11.0867C2.8643 11.4957 2.9391 11.8747 3.08269 12.2058Z" fill="#EE1D52"/>
<path fill-rule="evenodd" clip-rule="evenodd" d="M-nan -nanL10.4401 5.45083C11.2208 6.03637 12.139 6.43865 13.0978 6.62542C13.7648 6.75535 14.3206 6.19344 14.3206 5.51391C14.3206 4.93722 13.9067 4.45557 13.3997 4.18079C13.0775 4.00621 12.7869 3.78841 12.5186 3.54557C12.3617 3.40359 12.1933 3.27475 12.0232 3.14892C11.4819 2.74853 11.0557 2.18249 10.7893 1.54056C10.5831 1.04372 10.1383 0.646484 9.60033 0.646484C8.99259 0.646484 8.49992 1.13916 8.49992 1.7469V11.9182C8.49992 13.2117 7.39122 14.3204 6.09774 14.3204C5.77848 14.3204 5.45923 14.2514 5.16231 14.1284C4.39758 13.8116 3.68797 13.2566 3.24384 12.5581C3.00673 12.1852 2.86405 11.7402 2.86405 11.2715C2.86405 9.97801 3.97274 8.86931 5.26622 8.86931C5.63471 8.86931 6.00535 8.58117 6.00535 8.21267V7.69054C6.00535 7.17296 5.57316 6.75025 5.06669 6.85693C2.67095 7.36155 0.923828 9.4579 0.923828 11.9182C0.923828 13.0941 1.32294 14.2035 2.00828 15.0771C2.25216 15.388 2.56301 15.6407 2.91225 15.8255C3.633 16.2068 4.44961 16.4454 5.26622 16.4454C8.13035 16.4454 10.4401 14.1356 10.4401 11.2715V5.45083L-nan -nanZ" fill="white"/>
<path fill-rule="evenodd" clip-rule="evenodd" d="M14.0644 4.45223C14.1931 4.49521 14.3207 4.39573 14.3207 4.26004V4.07315C14.3207 3.96672 14.2346 3.88088 14.1283 3.87626C13.8948 3.86612 13.6891 4.31233 13.9073 4.39591C13.9596 4.41593 14.0119 4.43472 14.0644 4.45223ZM10.163 0.646739C10.3161 0.646739 10.4402 0.522644 10.4402 0.369565C10.4402 0.16546 10.2748 0 10.0707 0H9.00815C8.21724 0 7.57609 0.641157 7.57609 1.43207V11.2717C7.57609 12.5652 6.46739 13.6739 5.17391 13.6739C4.91258 13.6739 4.72949 13.9911 4.96696 14.1003C5.2733 14.241 5.61946 14.3206 6.00543 14.3206C7.29891 14.3206 8.40761 13.3043 8.40761 11.9185V1.66304C8.40761 1.10175 8.86262 0.646739 9.42391 0.646739H10.163ZM5.59557 6.67256C5.77207 6.65575 5.91304 6.5115 5.91304 6.33419C5.91304 6.15262 5.76517 6.00285 5.587 5.96789C5.45661 5.9423 5.32989 5.91304 5.17391 5.91304C2.30978 5.91304 0 8.22282 0 11.087C0 11.4637 0.0425517 11.8362 0.123089 12.198C0.226929 12.6645 0.831522 12.304 0.831522 11.8261C0.831522 9.16089 2.96715 6.92282 5.59557 6.67256Z" fill="#69C9D0"/>
</svg>
