<svg width="16" height="18" viewBox="0 0 16 18" fill="none" xmlns="http://www.w3.org/2000/svg">
<path d="M5.00464 13.9018C5.00464 14.2076 4.75441 14.4579 4.44857 14.4579C4.14273 14.4579 3.8925 14.2076 3.8925 13.9018V6.11679C3.8925 5.81095 4.14273 5.56071 4.44857 5.56071C4.75441 5.56071 5.00464 5.81095 5.00464 6.11679V13.9018ZM8.34107 13.9018C8.34107 14.2076 8.09084 14.4579 7.785 14.4579C7.47916 14.4579 7.22893 14.2076 7.22893 13.9018V6.11679C7.22893 5.81095 7.47916 5.56071 7.785 5.56071C8.09084 5.56071 8.34107 5.81095 8.34107 6.11679V13.9018ZM11.6775 13.9018C11.6775 14.2076 11.4273 14.4579 11.1214 14.4579C10.8156 14.4579 10.5654 14.2076 10.5654 13.9018V6.11679C10.5654 5.81095 10.8156 5.56071 11.1214 5.56071C11.4273 5.56071 11.6775 5.81095 11.6775 6.11679V13.9018ZM10.7774 0.784061L11.7088 2.22429H15.0139C15.3198 2.22429 15.57 2.47313 15.57 2.78036C15.57 3.08759 15.3198 3.33643 15.0139 3.33643H14.4579V15.0139C14.4579 16.5501 13.2136 17.7943 11.6775 17.7943H3.8925C2.35705 17.7943 1.11214 16.5501 1.11214 15.0139V3.33643H0.556071C0.248981 3.33643 0 3.08759 0 2.78036C0 2.47313 0.248981 2.22429 0.556071 2.22429H3.86122L4.76136 0.784061C5.0672 0.296317 5.60242 0 6.17587 0H9.39413C9.96758 0 10.5028 0.296317 10.7774 0.784061ZM5.17494 2.22429H10.3951L9.86332 1.3735C9.76253 1.21085 9.58528 1.11214 9.39413 1.11214H6.17587C5.98472 1.11214 5.80747 1.21085 5.70668 1.3735L5.17494 2.22429ZM2.22429 15.0139C2.22429 15.9349 2.97116 16.6821 3.8925 16.6821H11.6775C12.5985 16.6821 13.3457 15.9349 13.3457 15.0139V3.33643H2.22429V15.0139Z" fill="#FF0054"/>
</svg>
