<svg width="15" height="14" viewBox="0 0 15 14" fill="none" xmlns="http://www.w3.org/2000/svg">
<path d="M13.2949 0.00878904L9.58008 3.7207L9.55078 3.75H6.85254L10.5762 0.0292969L10.6055 0H13.125C13.1836 0 13.2393 0.00292967 13.2949 0.00878904ZM11.54 3.75L14.5898 0.703125C14.8477 1.02539 15 1.43262 15 1.875V3.75H11.54ZM5.91504 0H8.61328L4.89258 3.7207L4.86328 3.75H2.16504L5.88867 0.0292969L5.91797 0H5.91504ZM3.92578 0L0.205078 3.7207L0.175781 3.75H0V1.875C0 0.84082 0.84082 0 1.875 0H3.92871H3.92578ZM0 4.6875H15V11.25C15 12.2842 14.1592 13.125 13.125 13.125H1.875C0.84082 13.125 0 12.2842 0 11.25V4.6875ZM6.34277 6.61816C6.19043 6.7002 6.09375 6.8584 6.09375 7.03125V10.7812C6.09375 10.9541 6.1875 11.1123 6.34277 11.1943C6.49805 11.2764 6.67969 11.2676 6.82324 11.1709L9.63574 9.2959C9.76465 9.20801 9.84375 9.06152 9.84375 8.90625C9.84375 8.75098 9.76465 8.60449 9.63574 8.5166L6.82324 6.6416C6.67969 6.54492 6.49512 6.53613 6.34277 6.61816Z" fill="#7B68EE"/>
</svg>
