<svg width="15" height="15" viewBox="0 0 15 15" fill="none" xmlns="http://www.w3.org/2000/svg">
<path d="M7.51574 13.1255C7.33866 13.1255 7.19012 13.0655 7.07013 12.9455C6.95055 12.8259 6.89076 12.6776 6.89076 12.5005V11.7817C6.42202 11.6776 6.01057 11.4953 5.65642 11.2349C5.30226 10.9745 5.01581 10.6099 4.79706 10.1412C4.72415 9.99533 4.72144 9.8418 4.78894 9.68055C4.85685 9.51889 4.97935 9.4016 5.15643 9.32869C5.30226 9.26619 5.4533 9.2689 5.60954 9.33681C5.76579 9.40431 5.88558 9.51618 5.96891 9.67243C6.14599 9.98492 6.36994 10.222 6.64076 10.3837C6.91159 10.5449 7.24491 10.6255 7.64074 10.6255C8.06781 10.6255 8.42988 10.5293 8.72696 10.3368C9.02362 10.1439 9.17194 9.8443 9.17194 9.43806C9.17194 9.07348 9.05736 8.78433 8.8282 8.57058C8.59904 8.35725 8.06781 8.11518 7.2345 7.84435C6.33869 7.56311 5.72412 7.22728 5.3908 6.83688C5.05747 6.44606 4.89081 5.9694 4.89081 5.40692C4.89081 4.72985 5.10956 4.20382 5.54704 3.82883C5.98453 3.45384 6.43244 3.24031 6.89076 3.18823V2.50075C6.89076 2.32367 6.95055 2.17513 7.07013 2.05513C7.19012 1.93555 7.33866 1.87576 7.51574 1.87576C7.69282 1.87576 7.84136 1.93555 7.96135 2.05513C8.08093 2.17513 8.14072 2.32367 8.14072 2.50075V3.18823C8.53654 3.25073 8.88029 3.37843 9.17194 3.57134C9.4636 3.76384 9.70318 4.0007 9.89067 4.28195C9.98442 4.41736 10.0028 4.5684 9.94567 4.73506C9.88818 4.90172 9.77089 5.02151 9.59381 5.09443C9.44798 5.15692 9.29694 5.15942 9.1407 5.10193C8.98445 5.04484 8.83862 4.94339 8.70321 4.79756C8.56779 4.65173 8.40905 4.53965 8.22697 4.46132C8.04448 4.3834 7.81781 4.34445 7.54699 4.34445C7.08867 4.34445 6.73972 4.44611 6.50014 4.64944C6.26057 4.85235 6.14078 5.10484 6.14078 5.40692C6.14078 5.75066 6.29702 6.02148 6.60951 6.21939C6.92201 6.41731 7.46366 6.62563 8.23447 6.84438C8.9532 7.05271 9.49756 7.38332 9.86755 7.83623C10.2371 8.28955 10.4219 8.81307 10.4219 9.40681C10.4219 10.1464 10.2032 10.7089 9.76568 11.0943C9.32819 11.4797 8.78654 11.7192 8.14072 11.813V12.5005C8.14072 12.6776 8.08093 12.8259 7.96135 12.9455C7.84136 13.0655 7.69282 13.1255 7.51574 13.1255Z" fill="white"/>
</svg>
