<svg width="41" height="40" viewBox="0 0 41 40" fill="none" xmlns="http://www.w3.org/2000/svg">
<path d="M39.716 17.0153C39.6413 16.9086 39.5879 16.7805 39.5132 16.6738C39.0757 16.0336 38.9797 15.3293 39.0757 14.5717C39.1397 14.0275 39.2038 13.4833 39.2358 12.9391C39.3318 11.68 38.8943 10.645 37.8699 9.87667C37.3151 9.46051 36.7175 9.11906 36.1306 8.73491C35.5758 8.37211 35.181 7.89194 34.9569 7.27304C34.7221 6.62214 34.498 5.97123 34.2313 5.34166C33.7831 4.29595 32.9935 3.6237 31.8731 3.37827C31.4996 3.29291 31.1155 3.21822 30.7313 3.20755C29.3868 3.16486 28.2451 2.72737 27.3701 1.64964C27.0606 1.2655 26.6765 0.945379 26.2817 0.657273C25.5027 0.0810606 24.6384 -0.121681 23.6781 0.0703901C22.9204 0.219778 22.2055 0.518555 21.4692 0.763979C20.8077 0.977391 20.1674 0.998732 19.5165 0.774649C18.9723 0.593249 18.4281 0.42252 17.8946 0.230449C16.4861 -0.260398 15.2483 0.0490489 14.1812 1.07343C13.8291 1.41489 13.4663 1.75634 13.1248 2.10847C12.5593 2.70603 11.8764 3.04749 11.0547 3.12218C10.7453 3.14352 10.4465 3.19687 10.1371 3.21822C8.2377 3.32492 6.95723 4.23192 6.41303 6.08861C6.32766 6.36604 6.22096 6.64348 6.13559 6.92091C5.86883 7.83858 5.31396 8.51083 4.48165 8.98034C3.96946 9.26844 3.47861 9.57789 3.01978 9.94069C2.24082 10.5596 1.77132 11.3385 1.71797 12.3522C1.69662 12.8644 1.72864 13.366 1.80333 13.8675C1.95272 14.9239 2.01674 15.9482 1.33382 16.8872C0.757612 17.6875 0.256094 18.5519 0 19.5229V20.4832C0.256094 21.4756 0.800295 22.3186 1.35517 23.1616C1.38718 23.2149 1.41919 23.2789 1.4512 23.3323C1.87802 23.9619 1.98473 24.6554 1.8887 25.3917C1.82467 25.9146 1.77132 26.4481 1.72864 26.9816C1.61126 28.3048 2.04875 29.3932 3.1585 30.1615C3.71337 30.5456 4.28958 30.9191 4.85512 31.2819C5.39932 31.634 5.78346 32.1142 5.99687 32.7224C6.18895 33.2773 6.39169 33.8215 6.59443 34.3657C7.08528 35.6782 8.01362 36.4571 9.39012 36.6812C9.66756 36.7239 9.945 36.7879 10.2224 36.7879C11.5669 36.8199 12.7087 37.2681 13.5837 38.3458C13.9251 38.762 14.352 39.1248 14.8001 39.4342C15.5471 39.9357 16.3474 40.1065 17.233 39.9357C17.8946 39.8077 18.5135 39.5836 19.1324 39.3488C20.0074 39.0074 20.861 38.9754 21.736 39.3275C22.1842 39.5089 22.643 39.637 23.0912 39.7863C24.4357 40.2345 25.6414 39.9784 26.6765 39.0074C27.0713 38.6446 27.4554 38.2711 27.8182 37.887C28.3838 37.2894 29.0667 36.9586 29.8883 36.8839C30.1871 36.8519 30.4966 36.8093 30.806 36.7879C32.7054 36.6812 33.9752 35.7742 34.5407 33.9175C34.6581 33.5227 34.8182 33.1492 34.9462 32.7544C35.1596 32.0928 35.5864 31.602 36.1626 31.2285C36.7602 30.8444 37.3791 30.5029 37.9233 30.0654C38.7022 29.4465 39.1718 28.6676 39.2251 27.6539C39.2465 27.1417 39.2144 26.6402 39.1397 26.1387C38.9904 25.0929 38.9157 24.0792 39.5879 23.1509C40.1748 22.3293 40.687 21.4649 40.9537 20.4726V19.5976C40.751 18.6372 40.2495 17.8156 39.716 17.0153ZM38.9797 21.1341C38.7983 21.4116 38.6596 21.721 38.4568 21.9771C37.4965 23.2469 37.2617 24.6768 37.5392 26.2133C37.5925 26.5441 37.6138 26.8749 37.6352 27.2057C37.6885 27.8993 37.4538 28.4648 36.8669 28.8597C36.4294 29.1584 35.9919 29.4679 35.5331 29.7346C34.4447 30.3642 33.7084 31.2605 33.3349 32.4663C33.2389 32.7864 33.1002 33.0852 33.0148 33.4053C32.6947 34.6004 31.8944 35.1446 30.6886 35.198C30.2085 35.2193 29.739 35.294 29.2588 35.3687C28.3945 35.4968 27.6368 35.8596 26.9966 36.4785C26.5378 36.9266 26.0789 37.3748 25.6201 37.8123C25.0332 38.3885 24.3503 38.5486 23.5713 38.2605C23.1125 38.0897 22.6323 37.9617 22.1735 37.7909C21.0104 37.3535 19.858 37.3748 18.7056 37.8123C18.1614 38.015 17.6065 38.2178 17.0409 38.3565C16.5181 38.4845 16.0379 38.3885 15.6111 38.0577C15.291 37.8123 14.9815 37.5562 14.7254 37.2467C13.5837 35.8489 12.0791 35.2513 10.3078 35.198C10.073 35.1873 9.82762 35.1446 9.59287 35.102C8.89928 34.9846 8.39776 34.6111 8.14166 33.9495C7.89624 33.3093 7.66149 32.6584 7.41606 32.0075C7.10662 31.1858 6.58376 30.5243 5.84749 30.0441C5.28194 29.6706 4.7164 29.2972 4.14019 28.9344C3.46794 28.4969 3.21185 27.8673 3.29721 27.0777C3.35057 26.6082 3.37191 26.1493 3.43593 25.6905C3.628 24.4634 3.36124 23.343 2.67832 22.3079C2.42223 21.9238 2.18747 21.5183 1.94205 21.1235C1.46187 20.3765 1.47254 19.6189 1.95272 18.872C2.13412 18.5945 2.28351 18.2958 2.47558 18.029C3.4466 16.7379 3.67069 15.308 3.38258 13.7501C3.31856 13.4193 3.30788 13.0885 3.28654 12.7577C3.24386 12.0962 3.46794 11.552 4.02281 11.1678C4.48165 10.8584 4.95116 10.5382 5.43133 10.2501C6.49839 9.62057 7.22399 8.72424 7.58679 7.53981C7.68283 7.21969 7.82155 6.92091 7.90691 6.60079C8.22703 5.40569 9.02732 4.86149 10.2331 4.80813C10.7773 4.78679 11.3215 4.68009 11.855 4.59472C12.6553 4.46668 13.3382 4.08253 13.9145 3.53833C14.3946 3.0795 14.8748 2.60999 15.355 2.15116C15.9205 1.60696 16.5714 1.48958 17.3077 1.735C17.8412 1.9164 18.3748 2.07646 18.8976 2.26853C19.9967 2.67402 21.0851 2.60999 22.1735 2.21518C22.7177 2.01244 23.2726 1.8097 23.8381 1.67098C24.393 1.53226 24.8945 1.61763 25.3427 1.98043C25.6414 2.22585 25.9509 2.47127 26.1963 2.75938C27.3381 4.13589 28.8213 4.75478 30.5713 4.79746C30.6246 4.79746 30.678 4.80813 30.7313 4.80813C31.8837 4.86149 32.6627 5.38435 32.9828 6.53677C33.0788 6.87823 33.2282 7.20902 33.3349 7.55048C33.7084 8.73491 34.434 9.63124 35.5011 10.2501C35.9172 10.4849 36.312 10.7623 36.7175 11.0184C37.4324 11.4773 37.7312 12.1175 37.6245 12.9605C37.5712 13.462 37.5178 13.9635 37.4645 14.465C37.3364 15.5001 37.4965 16.4818 38.062 17.3781C38.3715 17.8796 38.6702 18.3811 38.9797 18.872C39.4599 19.6403 39.4599 20.3872 38.9797 21.1341Z" fill="#CFCFCF"/>
</svg>
