<svg width="18" height="22" viewBox="0 0 18 22" fill="none" xmlns="http://www.w3.org/2000/svg">
<path d="M8.73175 14.2178C8.98271 14.5893 9.20725 14.9277 9.4318 15.2594C10.2375 16.4602 11.0564 17.6478 11.8555 18.8552C12.615 20.0096 12.1329 21.4492 10.8517 21.8937C9.99315 22.1923 9.04875 21.8473 8.4874 21.018C7.37789 19.3793 6.26839 17.734 5.15888 16.0953C5.10605 16.0157 5.04661 15.9361 4.98717 15.8499C4.48525 16.1617 3.95692 16.3541 3.36915 16.3673C1.50676 16.4204 -0.0452225 14.8879 0.00100684 13.0104C0.0274236 11.929 0.50953 11.0731 1.38789 10.4561C2.0351 10.005 2.70212 9.57376 3.34273 9.11599C3.48802 9.00984 3.62671 8.86388 3.70596 8.70466C4.96736 6.15043 6.22216 3.59621 7.47695 1.03535C7.78075 0.418353 8.29588 0.0999041 8.95629 0.0202919C9.79503 -0.0792234 10.5479 0.199419 11.2678 0.590846C12.582 1.30072 13.6387 2.30914 14.5765 3.45689C15.9501 5.13538 17.02 6.98636 17.5814 9.09608C17.8191 9.99172 17.9446 10.894 17.7531 11.8228C17.654 12.2938 17.4691 12.7184 17.1323 13.0701C16.7955 13.415 16.3926 13.5942 15.9039 13.634C13.5792 13.8131 11.2612 14.0055 8.93648 14.1913C8.88365 14.1846 8.83081 14.1979 8.73175 14.2178ZM8.0185 2.91287C8.08454 3.29766 8.13077 3.7886 8.26285 4.25301C9.08177 7.17212 10.7064 9.57376 13.0311 11.4977C13.6783 12.0285 14.3915 12.4531 15.2237 12.6388C15.6662 12.7383 16.0162 12.5924 16.3266 12.3005C16.5775 12.0616 16.7096 11.7432 16.7691 11.4048C16.9011 10.7016 16.8417 9.99836 16.6436 9.31502C15.7652 6.33619 14.0878 3.90139 11.6574 1.99069C11.0894 1.54619 10.4621 1.20121 9.7488 1.03535C8.86384 0.829683 8.23644 1.24101 8.09114 2.14328C8.05152 2.36222 8.05152 2.58779 8.0185 2.91287ZM13.2028 12.8644C10.0988 10.5954 8.09115 7.62989 7.15335 3.91466C7.13354 3.95446 7.11372 3.981 7.09391 4.00754C6.26839 5.6993 5.44286 7.39106 4.61073 9.08282C4.54469 9.22214 4.57771 9.30838 4.65036 9.41453C5.48249 10.6353 6.31462 11.8626 7.12693 13.09C7.25902 13.2824 7.3845 13.3354 7.60904 13.3155C8.59967 13.2227 9.5969 13.1497 10.5875 13.0701C11.4527 13.0037 12.3112 12.9307 13.2028 12.8644ZM3.85125 9.95855C3.19744 10.4031 2.55683 10.8277 1.92283 11.2788C0.885969 12.0218 0.674635 13.3155 1.4077 14.3837C2.13416 15.4385 3.40877 15.7105 4.46544 15.0139C5.05322 14.6291 5.62118 14.2244 6.20235 13.833C6.26178 13.7932 6.32122 13.7468 6.38066 13.7003C5.53532 12.4531 4.69659 11.2124 3.85125 9.95855ZM5.79289 15.2992C6.08347 15.7304 6.35424 16.1285 6.62501 16.5332C7.52318 17.8601 8.41475 19.1869 9.31292 20.5138C9.5969 20.9318 10.013 21.1043 10.4356 20.9981C11.1753 20.8123 11.4593 20.0096 11.0102 19.3462C9.92051 17.7274 8.83081 16.1152 7.74112 14.5031C7.59583 14.2841 7.37789 14.2244 7.15995 14.3704C6.71087 14.6623 6.26839 14.9741 5.79289 15.2992Z" fill="black"/>
<path d="M11.5579 4.78392C12.7136 4.78392 13.7175 5.49379 14.0873 6.57519C14.4505 7.63669 14.1071 8.8176 13.2221 9.51421C13.1363 9.58719 13.0372 9.65353 12.9316 9.69334C12.707 9.76631 12.4759 9.66016 12.3636 9.4545C12.2513 9.2422 12.2976 8.99673 12.5089 8.83751C12.8985 8.53896 13.1627 8.16744 13.2221 7.66986C13.3014 7.00642 13.0769 6.46241 12.5353 6.07762C11.9938 5.69282 11.406 5.66629 10.805 5.9582C10.7324 5.99137 10.6663 6.04444 10.5937 6.07762C10.3493 6.19703 10.0786 6.12406 9.94647 5.89849C9.81439 5.67955 9.87382 5.40091 10.0918 5.24169C10.4616 4.96304 11.0428 4.78392 11.5579 4.78392Z" fill="black"/>
</svg>
