<svg width="16" height="16" viewBox="0 0 16 16" fill="none" xmlns="http://www.w3.org/2000/svg">
<path d="M6.47258 12.9452C7.8782 12.9452 9.1744 12.4907 10.2349 11.7331L14.2245 15.7227C14.4097 15.9079 14.6538 16.0005 14.9147 16.0005C15.4618 16.0005 15.849 15.5797 15.849 15.041C15.849 14.7885 15.7648 14.5444 15.5797 14.3676L11.6153 10.3949C12.4486 9.30066 12.9452 7.94554 12.9452 6.47258C12.9452 2.91224 10.0329 0 6.47258 0C2.92066 0 0 2.90382 0 6.47258C0 10.0329 2.91224 12.9452 6.47258 12.9452ZM6.47258 11.548C3.69501 11.548 1.3972 9.25015 1.3972 6.47258C1.3972 3.69501 3.69501 1.3972 6.47258 1.3972C9.25015 1.3972 11.548 3.69501 11.548 6.47258C11.548 9.25015 9.25015 11.548 6.47258 11.548Z" fill="#717171"/>
</svg>
