<svg width="41" height="40" viewBox="0 0 41 40" fill="none" xmlns="http://www.w3.org/2000/svg">
<g clip-path="url(#clip0_2160_18050)">
<path d="M39.6907 17.0084C39.6161 16.9018 39.5628 16.7738 39.4881 16.6672C39.0509 16.0273 38.9549 15.3235 39.0509 14.5664C39.1149 14.0225 39.1789 13.4787 39.2109 12.9348C39.3069 11.6765 38.8696 10.6421 37.8459 9.8743C37.2914 9.45842 36.6942 9.11717 36.1077 8.73328C35.5532 8.37071 35.1586 7.89083 34.9347 7.27233C34.7001 6.62184 34.4761 5.97134 34.2095 5.34218C33.7617 4.29712 32.9725 3.6253 31.8528 3.38004C31.4796 3.29473 31.0957 3.22008 30.7118 3.20942C29.3682 3.16676 28.2271 2.72954 27.3527 1.6525C27.0435 1.2686 26.6596 0.948685 26.265 0.660762C25.4865 0.0849154 24.6228 -0.117697 23.663 0.0742516C22.9059 0.223545 22.1914 0.522132 21.4556 0.7674C20.7945 0.980677 20.1546 1.002 19.5041 0.778064C18.9603 0.596779 18.4164 0.426158 17.8832 0.234209C16.4756 -0.256327 15.2386 0.052924 14.1722 1.07665C13.8203 1.41789 13.4577 1.75914 13.1165 2.11104C12.5513 2.70822 11.8688 3.04946 11.0477 3.1241C10.7385 3.14543 10.4399 3.19875 10.1306 3.22008C8.23247 3.32672 6.95281 4.23314 6.40896 6.08865C6.32365 6.36591 6.21701 6.64317 6.1317 6.92043C5.8651 7.83751 5.31058 8.50933 4.47881 8.97854C3.96694 9.26647 3.47641 9.57572 3.01786 9.93829C2.2394 10.5568 1.77019 11.3352 1.71688 12.3483C1.69555 12.8602 1.72754 13.3614 1.80219 13.8626C1.95148 14.9183 2.01546 15.942 1.33298 16.8804C0.757131 17.6802 0.255932 18.544 0 19.5144V20.4741C0.255932 21.4659 0.799787 22.3083 1.35431 23.1508C1.3863 23.2041 1.41829 23.2681 1.45028 23.3214C1.87683 23.9506 1.98347 24.6437 1.8875 25.3795C1.82351 25.902 1.77019 26.4352 1.72754 26.9684C1.61024 28.2907 2.04745 29.3784 3.15649 30.1462C3.71101 30.5301 4.28686 30.9034 4.85204 31.2659C5.39589 31.6178 5.77979 32.0977 5.99307 32.7055C6.18502 33.2601 6.38763 33.8039 6.59024 34.3478C7.08078 35.6594 8.00853 36.4379 9.38416 36.6618C9.66142 36.7045 9.93868 36.7685 10.2159 36.7685C11.5596 36.8005 12.7006 37.2483 13.575 38.3254C13.9163 38.7413 14.3428 39.1038 14.7907 39.4131C15.5372 39.9143 16.337 40.0849 17.2221 39.9143C17.8832 39.7863 18.5017 39.5624 19.1202 39.3278C19.9947 38.9865 20.8478 38.9545 21.7222 39.3065C22.1701 39.4877 22.6286 39.6157 23.0765 39.765C24.4202 40.2129 25.6252 39.9569 26.6596 38.9865C27.0541 38.624 27.438 38.2507 27.8006 37.8668C28.3658 37.2697 29.0483 36.9391 29.8694 36.8644C30.168 36.8324 30.4772 36.7898 30.7865 36.7685C32.6846 36.6618 33.9536 35.7554 34.5188 33.8999C34.6361 33.5053 34.7961 33.1321 34.924 32.7375C35.1373 32.0764 35.5638 31.5858 36.1397 31.2126C36.7369 30.8287 37.3554 30.4875 37.8992 30.0503C38.6777 29.4318 39.1469 28.6533 39.2002 27.6402C39.2215 27.1284 39.1895 26.6272 39.1149 26.126C38.9656 25.0809 38.891 24.0679 39.5628 23.1401C40.1493 22.319 40.6612 21.4552 40.9277 20.4635V19.589C40.7251 18.6293 40.2239 17.8082 39.6907 17.0084ZM38.9549 21.1246C38.7737 21.4019 38.635 21.7111 38.4324 21.9671C37.4727 23.2361 37.2381 24.665 37.5153 26.2006C37.5686 26.5312 37.59 26.8618 37.6113 27.1924C37.6646 27.8855 37.43 28.4507 36.8435 28.8452C36.4063 29.1438 35.9691 29.4531 35.5105 29.7197C34.4228 30.3488 33.687 31.2446 33.3138 32.4496C33.2178 32.7695 33.0792 33.0681 32.9939 33.388C32.674 34.5824 31.8742 35.1262 30.6692 35.1796C30.1893 35.2009 29.7201 35.2755 29.2402 35.3502C28.3764 35.4781 27.6193 35.8407 26.9795 36.4592C26.5209 36.9071 26.0624 37.355 25.6038 37.7922C25.0173 38.368 24.3348 38.528 23.5564 38.2401C23.0978 38.0695 22.618 37.9415 22.1594 37.7709C20.9971 37.3336 19.8454 37.355 18.6937 37.7922C18.1498 37.9948 17.5953 38.1974 17.0301 38.336C16.5076 38.464 16.0277 38.368 15.6012 38.0375C15.2813 37.7922 14.972 37.5363 14.7161 37.227C13.575 35.83 12.0714 35.2329 10.3013 35.1796C10.0666 35.1689 9.82138 35.1262 9.58678 35.0836C8.89363 34.9663 8.39243 34.593 8.1365 33.9319C7.89123 33.2921 7.65662 32.6416 7.41136 31.9911C7.10211 31.17 6.57958 30.5088 5.84377 30.0289C5.27859 29.6557 4.71341 29.2825 4.13756 28.9199C3.46574 28.4827 3.20981 27.8535 3.29512 27.0644C3.34844 26.5952 3.36977 26.1366 3.43375 25.6781C3.6257 24.4517 3.3591 23.3321 2.67662 22.2977C2.42069 21.9138 2.18608 21.5085 1.94082 21.114C1.46094 20.3675 1.47161 19.6104 1.95148 18.8639C2.13276 18.5866 2.28206 18.2881 2.47401 18.0215C3.44441 16.7311 3.66835 15.3022 3.38043 13.7453C3.31645 13.4147 3.30578 13.0841 3.28446 12.7535C3.2418 12.0924 3.46574 11.5485 4.02026 11.1646C4.47881 10.8554 4.94801 10.5355 5.42789 10.2475C6.49427 9.61837 7.21941 8.72261 7.58198 7.53893C7.67795 7.21901 7.81658 6.92043 7.90189 6.60051C8.22181 5.40616 9.02159 4.86231 10.2266 4.80899C10.7705 4.78766 11.3143 4.68102 11.8475 4.59571C12.6473 4.46775 13.3298 4.08385 13.9056 3.53999C14.3855 3.08145 14.8654 2.61224 15.3452 2.1537C15.9104 1.60984 16.5609 1.49254 17.2967 1.73781C17.8299 1.91909 18.3631 2.07905 18.8856 2.271C19.984 2.67622 21.0717 2.61224 22.1594 2.21768C22.7033 2.01507 23.2578 1.81245 23.823 1.67383C24.3775 1.5352 24.8787 1.62051 25.3266 1.98308C25.6252 2.22834 25.9344 2.47361 26.1797 2.76153C27.3207 4.13717 28.803 4.75567 30.5519 4.79833C30.6052 4.79833 30.6585 4.80899 30.7118 4.80899C31.8635 4.86231 32.642 5.38483 32.9619 6.53653C33.0578 6.87777 33.2071 7.20835 33.3138 7.54959C33.687 8.73328 34.4122 9.62904 35.4785 10.2475C35.8944 10.4821 36.289 10.7594 36.6942 11.0153C37.4087 11.4739 37.7073 12.1137 37.6006 12.9561C37.5473 13.4573 37.494 13.9585 37.4407 14.4597C37.3127 15.4941 37.4727 16.4752 38.0379 17.371C38.3471 17.8722 38.6457 18.3734 38.9549 18.8639C39.4348 19.6317 39.4348 20.3782 38.9549 21.1246Z" fill="#CFCFCF"/>
<g clip-path="url(#clip1_2160_18050)">
<path d="M19.9161 29.9922C17.4987 29.9922 12.3852 28.2643 13.1204 22.5948C13.1204 22.5948 14.4684 23.5235 14.2011 21.5041C13.9226 19.4738 12.3072 18.9555 13.5215 16.4069C13.5215 16.4069 13.6552 17.1952 13.9226 17.5192C13.9226 17.5192 14.1899 15.0354 15.6048 13.4695C15.6048 13.4695 15.1146 14.7762 16.4737 14.9706C17.8329 15.165 19.0918 11.0289 17.2536 9.99219C17.2536 9.99219 22.9241 11.5797 23.0244 15.8129C23.0244 15.8129 23.9713 15.0246 23.5702 13.9447C23.5702 13.9447 25.3304 15.6185 25.0853 17.7028C24.8514 19.7978 26.3999 19.5278 26.2662 18.4911C26.2662 18.4911 27.3803 20.7049 25.8652 22.26C25.8652 22.26 26.6116 22.4112 27.1463 21.5581C27.1352 21.5689 28.1267 29.9922 19.9161 29.9922Z" fill="#EF533D"/>
<path d="M19.917 29.9923C17.7781 29.9923 14.6253 28.88 15.2046 23.9124L15.9733 25.0355C15.9733 25.0355 14.7478 23.6748 16.2295 20.4566C17.7112 17.2493 17.0874 16.461 17.0874 16.461C17.0874 16.461 17.9675 16.5257 18.1011 17.7029C18.2348 18.88 21.2539 17.3789 19.3266 14.2363C19.3266 14.2363 21.9669 15.9966 21.9001 19.0095C21.8332 22.0117 23.5043 20.6402 23.1255 19.2039C23.1255 19.2039 24.674 21.4286 24.0279 24.1715C24.0279 24.1715 24.6072 23.7504 24.7966 22.5841C24.7966 22.5949 26.8687 29.9923 19.917 29.9923Z" fill="#F7973E"/>
<path d="M20.027 29.6147C17.2641 29.6147 16.5066 26.0618 18.0217 24.2691C19.5368 22.4765 18.0217 20.457 18.0217 20.457C18.0217 20.457 20.3278 21.3318 20.2609 23.6752C20.2609 23.6752 20.985 22.9948 20.6508 22.1633C20.6508 22.1633 22.2996 23.794 21.7092 25.6946C21.1187 27.5845 22.8901 27.1309 22.7675 26.0834C22.7564 26.0834 24.2715 29.6147 20.027 29.6147Z" fill="#FFE73F"/>
<path d="M27.0125 17.7035C27.0125 17.7035 27.7589 16.872 26.8231 16.1592C25.8984 15.4357 26.8231 13.9238 26.8231 13.9238C26.8231 13.9238 26.5668 14.7878 27.5695 15.5761C28.5721 16.3752 27.0125 17.7035 27.0125 17.7035Z" fill="#EF533D"/>
<path d="M16.9093 12.9936C16.9093 12.9936 16.1629 12.378 16.6531 11.6977C17.1321 11.0065 16.6977 10.3262 16.6977 10.3262C16.6977 10.3262 17.6892 10.8985 17.3884 11.6545C17.0987 12.4104 16.9093 12.9936 16.9093 12.9936Z" fill="#EF533D"/>
<path d="M13.4218 22.0115C13.4218 22.0115 13.7226 21.2663 13.2324 20.8668C12.7534 20.4672 13.2324 19.4629 13.2324 19.4629C13.2324 19.4629 13.1433 20.0676 13.8006 20.748C14.4579 21.4175 13.4218 22.0115 13.4218 22.0115Z" fill="#EF533D"/>
</g>
</g>
<defs>
<clipPath id="clip0_2160_18050">
<rect width="40.9384" height="40" fill="white"/>
</clipPath>
<clipPath id="clip1_2160_18050">
<rect width="14.8837" height="20" fill="white" transform="translate(13.0215 9.99219)"/>
</clipPath>
</defs>
</svg>
