<svg width="31" height="10" viewBox="0 0 31 10" fill="none" xmlns="http://www.w3.org/2000/svg">
<path d="M29.9102 0H1.03612C0.461885 0 0 0.461885 0 1.03612C0 1.32324 0.237184 1.56042 0.524302 1.56042C0.661619 1.56042 0.786452 1.66029 0.873836 1.79761C0.961219 1.93492 1.03612 2.09721 1.0486 2.23452L1.78512 8.96306C1.84754 9.54978 2.34687 9.99918 2.94608 9.99918H12.1588C12.6831 9.99918 13.1575 9.44991 13.2823 8.93809L13.869 6.8284C14.0063 6.31658 14.4682 5.97953 14.9925 5.97953H15.9288C16.4531 5.97953 16.915 6.5288 17.0523 7.04062L17.639 9.15031C17.7763 9.64965 18.2382 9.99918 18.7625 9.99918H27.9877C28.5869 9.99918 29.0863 9.35004 29.1487 8.76333L29.8977 2.03479C29.9226 1.77264 30.1473 1.56042 30.422 1.56042C30.7091 1.56042 30.9463 1.32324 30.9463 1.03612C30.9463 0.474368 30.4844 0 29.9102 0ZM12.4834 3.53279L12.0714 7.47754C11.984 8.36386 11.235 9.03796 10.3362 9.03796H4.63133C3.73253 9.03796 2.98353 8.36386 2.89614 7.47754L2.48419 3.53279C2.43426 3.04594 2.59654 2.54661 2.92111 2.18459C3.25816 1.82257 3.72004 1.61035 4.21938 1.61035H10.7607C11.26 1.61035 11.7219 1.82257 12.0589 2.18459C12.3835 2.55909 12.5458 3.04594 12.4834 3.53279ZM28.0501 7.47754C27.9503 8.36386 27.2013 9.03796 26.3149 9.03796H20.5976C19.6988 9.03796 18.9498 8.36386 18.8624 7.47754L18.4504 3.53279C18.4005 3.04594 18.5628 2.54661 18.8873 2.18459C19.2119 1.82257 19.6863 1.61035 20.1856 1.61035H26.7269C27.2262 1.61035 27.6881 1.82257 28.0252 2.18459C28.3622 2.55909 28.512 3.04594 28.4621 3.53279L28.0501 7.47754Z" fill="#1D1D1B"/>
</svg>
