<svg width="30" height="30" viewBox="0 0 30 30" fill="none" xmlns="http://www.w3.org/2000/svg">
<circle cx="15" cy="15" r="14.5" fill="white" stroke="#7F7F88" stroke-dasharray="2 2"/>
<path d="M12.1422 10.5366C11.8493 10.5366 11.6064 10.2937 11.6064 10.0008V7.85798C11.6064 7.56512 11.8493 7.32227 12.1422 7.32227C12.435 7.32227 12.6779 7.56512 12.6779 7.85798V10.0008C12.6779 10.2937 12.435 10.5366 12.1422 10.5366Z" fill="#7F7F88"/>
<path d="M17.856 10.5366C17.5632 10.5366 17.3203 10.2937 17.3203 10.0008V7.85798C17.3203 7.56512 17.5632 7.32227 17.856 7.32227C18.1489 7.32227 18.3917 7.56512 18.3917 7.85798V10.0008C18.3917 10.2937 18.1489 10.5366 17.856 10.5366Z" fill="#7F7F88"/>
<path d="M21.0702 13.4581H8.92732C8.63446 13.4581 8.3916 13.2153 8.3916 12.9224C8.3916 12.6296 8.63446 12.3867 8.92732 12.3867H21.0702C21.363 12.3867 21.6059 12.6296 21.6059 12.9224C21.6059 13.2153 21.363 13.4581 21.0702 13.4581Z" fill="#7F7F88"/>
<path d="M17.8566 22.6802H12.1423C9.53516 22.6802 8.03516 21.1802 8.03516 18.5731V12.5017C8.03516 9.89453 9.53516 8.39453 12.1423 8.39453H17.8566C20.4637 8.39453 21.9637 9.89453 21.9637 12.5017V18.5731C21.9637 21.1802 20.4637 22.6802 17.8566 22.6802ZM12.1423 9.46596C10.0994 9.46596 9.10658 10.4588 9.10658 12.5017V18.5731C9.10658 20.616 10.0994 21.6088 12.1423 21.6088H17.8566C19.8994 21.6088 20.8923 20.616 20.8923 18.5731V12.5017C20.8923 10.4588 19.8994 9.46596 17.8566 9.46596H12.1423Z" fill="#7F7F88"/>
<path d="M12.4994 16.786C12.4066 16.786 12.3137 16.7646 12.228 16.7289C12.1423 16.6932 12.0637 16.6431 11.9923 16.5789C11.928 16.5074 11.878 16.4289 11.8423 16.3431C11.8066 16.2574 11.7852 16.1646 11.7852 16.0717C11.7852 15.886 11.8637 15.7003 11.9923 15.5646C12.0637 15.5003 12.1423 15.4503 12.228 15.4146C12.3566 15.3574 12.4995 15.3431 12.6423 15.3717C12.6852 15.3789 12.728 15.3931 12.7709 15.4146C12.8137 15.4288 12.8566 15.4503 12.8994 15.4789C12.9352 15.5074 12.9709 15.536 13.0066 15.5646C13.0352 15.6003 13.0709 15.636 13.0923 15.6717C13.1209 15.7146 13.1423 15.7574 13.1566 15.8003C13.178 15.8431 13.1923 15.886 13.1995 15.9289C13.2066 15.9789 13.2137 16.0217 13.2137 16.0717C13.2137 16.2574 13.1352 16.4431 13.0066 16.5789C12.8709 16.7074 12.6852 16.786 12.4994 16.786Z" fill="#7F7F88"/>
<path d="M14.9994 16.7872C14.8137 16.7872 14.628 16.7086 14.4923 16.58C14.4637 16.5443 14.4352 16.5086 14.4066 16.4729C14.378 16.43 14.3566 16.3872 14.3423 16.3443C14.3209 16.3014 14.3066 16.2586 14.2994 16.2157C14.2923 16.1657 14.2852 16.1229 14.2852 16.0729C14.2852 15.98 14.3066 15.8872 14.3423 15.8014C14.378 15.7157 14.428 15.6372 14.4923 15.5657C14.6923 15.3657 15.0137 15.3014 15.2709 15.4157C15.3637 15.4514 15.4352 15.5015 15.5066 15.5657C15.6352 15.7015 15.7137 15.8872 15.7137 16.0729C15.7137 16.1229 15.7066 16.1657 15.6995 16.2157C15.6923 16.2586 15.678 16.3014 15.6566 16.3443C15.6423 16.3872 15.6209 16.43 15.5923 16.4729C15.5637 16.5086 15.5352 16.5443 15.5066 16.58C15.4352 16.6443 15.3637 16.6943 15.2709 16.73C15.1852 16.7657 15.0923 16.7872 14.9994 16.7872Z" fill="#7F7F88"/>
<path d="M12.4994 19.2872C12.4066 19.2872 12.3137 19.2657 12.228 19.23C12.1423 19.1943 12.0637 19.1443 11.9923 19.08C11.928 19.0086 11.878 18.9372 11.8423 18.8443C11.8066 18.7586 11.7852 18.6657 11.7852 18.5729C11.7852 18.3872 11.8637 18.2015 11.9923 18.0657C12.0637 18.0015 12.1423 17.9514 12.228 17.9157C12.4923 17.8014 12.8066 17.8657 13.0066 18.0657C13.0352 18.1015 13.0709 18.1372 13.0923 18.1729C13.1209 18.2157 13.1423 18.2586 13.1566 18.3014C13.178 18.3443 13.1923 18.3872 13.1995 18.4372C13.2066 18.48 13.2137 18.53 13.2137 18.5729C13.2137 18.7586 13.1352 18.9443 13.0066 19.08C12.8709 19.2086 12.6852 19.2872 12.4994 19.2872Z" fill="#7F7F88"/>
</svg>
