<svg width="16" height="16" viewBox="0 0 16 16" fill="none" xmlns="http://www.w3.org/2000/svg">
<g clip-path="url(#clip0_2148_26304)">
<path d="M11.2253 9.77464L8.00031 12.9996L4.77531 9.77464C2.59 10.4718 1.00031 12.4993 1.00031 14.9153C1.00031 15.5153 1.48563 15.9996 2.08375 15.9996H13.9181C14.5159 15.9996 15.0003 15.5153 15.0003 14.9153C15.0003 12.4996 13.4097 10.4715 11.2253 9.77464ZM13.9159 14.9715H2.08344C2.03753 14.9715 2.00019 14.9341 2.00019 14.8881C2.00019 13.1681 2.9955 11.6381 4.52988 10.9163L7.29406 13.7059C7.48931 13.9011 7.74531 13.9988 8.00125 13.9988C8.25716 13.9988 8.51313 13.9011 8.70844 13.7059L11.4719 10.9425C13.0059 11.6637 14.0016 13.1953 14.0016 14.9143C14.0003 14.9621 13.9628 14.9715 13.9159 14.9715ZM1.38813 2.48683L2.00031 2.62808V5.41902L1.02625 8.34027C0.975 8.49339 1.00094 8.66214 1.09469 8.79339C1.18894 8.92377 1.33981 9.00092 1.50031 9.00092H3.50031C3.66097 9.00092 3.81184 8.92377 3.90594 8.79339C3.97156 8.66302 4.02556 8.49505 3.97428 8.34277L3.00031 5.41839V2.8587L4.00031 3.08964L4.00036 3.99964C4.00036 4.17883 4.09649 4.34495 4.25227 4.4337L6.26383 5.58308C6.79946 5.88924 7.39946 6.04214 8.00008 6.04214C8.60071 6.04214 9.20071 5.8893 9.73633 5.58308L11.7479 4.4337C11.9036 4.34483 11.9999 4.17883 11.9999 3.99964L12.0003 3.08964L14.6125 2.48683C14.8396 2.43458 14.9997 2.23242 14.9997 1.99964C14.9997 1.76686 14.8395 1.56464 14.6125 1.51245L8.14063 0.0124523C8.06738 -0.00415078 7.98925 -0.00415078 7.91603 0.0124523L1.38813 1.51214C1.16094 1.56433 1 1.76714 1 1.99995C1 2.23277 1.16094 2.43464 1.38813 2.48683ZM11.0003 3.70902L9.24063 4.71433C8.47594 5.15089 7.52469 5.15089 6.76031 4.71433L5.00031 3.70902V3.32152L7.88813 3.98777C7.92475 3.99607 7.96094 4.00046 7.99853 4.00046C8.03613 4.00046 8.07613 3.99607 8.11272 3.98777L11.0005 3.32152V3.70902H11.0003ZM8.00031 1.01245L12.2753 1.99933L8.00031 2.9862L3.72531 1.99933L8.00031 1.01245ZM2.50031 7.08089L2.80647 7.99995H2.19406L2.50031 7.08089ZM11.5003 4.97152C11.2239 4.97152 11.0003 5.19517 11.0003 5.47152C11.0003 7.12589 9.65469 8.47152 8.02844 8.47152C6.40219 8.47152 5.00031 7.15277 5.00031 5.47152C5.00031 5.19514 4.77672 4.97152 4.52844 4.97152C4.28016 4.97152 4.00031 5.22464 4.00031 5.47152C4.00031 7.67714 5.79469 9.47152 7.97219 9.47152C10.1497 9.47152 11.9441 7.67714 11.9441 5.47152C12.0003 5.22464 11.7753 4.97152 11.5003 4.97152Z" fill="#717171"/>
</g>
<defs>
<clipPath id="clip0_2148_26304">
<rect width="16" height="16" fill="white"/>
</clipPath>
</defs>
</svg>
