<svg width="100" height="100" viewBox="0 0 100 100" fill="none" xmlns="http://www.w3.org/2000/svg">
<path d="M96.7729 31.9078C94.6998 26.4987 91.6292 21.4997 87.8154 17.1451C87.6589 16.8131 87.4047 16.5397 87.0917 16.3445C83.4539 12.3609 79.1707 8.94357 74.4377 6.30736C72.6579 5.31146 70.8195 4.43273 68.9419 3.67116C68.7268 3.59305 68.5116 3.51494 68.3161 3.4173C68.1009 3.33919 67.8858 3.24155 67.6511 3.16344C65.7931 2.47998 63.9155 1.89416 61.9988 1.4255C61.9597 1.4255 61.9206 1.40598 61.8815 1.40598C61.4708 1.30834 61.0405 1.2107 60.6298 1.11306C60.4342 1.07401 60.2386 1.03495 60.0626 0.995899C59.8083 0.937317 59.5345 0.898262 59.2803 0.83968C58.9478 0.781097 58.5957 0.722515 58.2633 0.663933C58.1655 0.644405 58.0481 0.624878 57.9503 0.60535C55.8772 0.273384 53.7845 0.0781097 51.6722 0H50.929H49.2275H48.4843C46.3916 0.0781097 44.2793 0.292912 42.2061 0.60535C42.1084 0.624878 41.991 0.644405 41.8932 0.663933C41.5607 0.722515 41.2087 0.781097 40.8762 0.83968C40.6219 0.878735 40.3481 0.937317 40.0939 0.995899C39.8983 1.03495 39.7027 1.07401 39.5267 1.11306C39.0964 1.2107 38.6857 1.30834 38.275 1.40598C38.2359 1.40598 38.1968 1.4255 38.1576 1.4255C36.241 1.89416 34.3438 2.46046 32.5054 3.16344C32.2902 3.24155 32.0751 3.33919 31.8404 3.4173C31.6253 3.49541 31.4101 3.57352 31.195 3.67116C29.3174 4.43273 27.479 5.31146 25.6992 6.30736C20.9857 8.94357 16.7025 12.3609 13.0452 16.3445C12.7323 16.5397 12.4976 16.8326 12.3215 17.1451C8.50773 21.4997 5.45668 26.4987 3.36397 31.9078C1.29083 37.2388 0.19558 42.9018 0 48.6038V49.131V51.2595V51.4548C0.039116 52.314 0.078232 53.1732 0.156464 54.0324C0.176022 54.1886 0.176022 54.3644 0.19558 54.5206C0.215138 54.6573 0.215138 54.8135 0.234696 54.9502C0.254254 55.2236 0.29337 55.5165 0.332486 55.7899C0.352044 55.9461 0.371602 56.0828 0.39116 56.239C0.410718 56.3952 0.430276 56.5319 0.449834 56.6882C0.469392 56.8834 0.508508 57.0592 0.528066 57.2544C0.528066 57.2935 0.547624 57.313 0.547624 57.3521C1.13436 61.2771 2.15138 65.1435 3.65734 68.8147C5.20243 72.6225 7.2169 76.2156 9.64209 79.5157C9.6812 79.5743 9.72032 79.6329 9.779 79.6915C9.95502 79.9258 10.1115 80.1406 10.2875 80.3749C10.3657 80.4921 10.4635 80.5897 10.5418 80.7069C10.62 80.8045 10.6982 80.9022 10.7569 80.9803C12.654 83.3822 14.7663 85.6083 17.0741 87.6196C17.0937 87.6391 17.1132 87.6587 17.1328 87.6782C17.3284 87.8539 17.524 88.0297 17.7391 88.1859C17.8564 88.2835 17.9934 88.4007 18.1107 88.4983C18.2476 88.6155 18.3845 88.7131 18.5019 88.8303C18.7561 89.0451 19.0299 89.2599 19.2842 89.4552L19.3037 89.4747C20.0078 90.0215 20.7315 90.5487 21.4551 91.0564C21.5333 91.115 21.6116 91.1541 21.6898 91.2127C21.9636 91.4079 22.257 91.6032 22.5308 91.779C22.6286 91.8375 22.7068 91.8961 22.8046 91.9547C23.1371 92.1695 23.45 92.3648 23.7825 92.5796C23.8216 92.5991 23.8607 92.6186 23.8999 92.6382C24.2519 92.853 24.604 93.0678 24.956 93.263C25.0929 93.3411 25.2494 93.4193 25.3863 93.5169C25.5036 93.595 25.6405 93.6536 25.7579 93.7317C25.8165 93.7708 25.8752 93.7903 25.9339 93.8293C26.2077 93.9855 26.4815 94.1222 26.7553 94.2785C26.9314 94.3761 27.0878 94.4542 27.2638 94.5518C27.5376 94.6885 27.8115 94.8252 28.0853 94.9619C28.2417 95.04 28.3982 95.1181 28.5547 95.1963C28.9263 95.372 29.2783 95.5282 29.6499 95.704C29.7086 95.7235 29.7673 95.7626 29.8259 95.7821C32.877 97.1295 36.0649 98.1644 39.3311 98.8674C40.8762 99.2189 42.4408 99.4728 44.025 99.6485C45.5701 99.8438 47.0956 99.9609 48.6407 100C48.6798 100 48.6994 100 48.7385 100H48.7581H51.2419H51.2615C51.3006 100 51.3202 100 51.3593 100C52.9044 99.9609 54.4494 99.8438 55.975 99.6485C57.5592 99.4728 59.1238 99.2189 60.6689 98.8674C63.9351 98.1644 67.123 97.1295 70.1741 95.7821C70.2327 95.7626 70.2914 95.7235 70.3501 95.704C70.7217 95.5478 71.0737 95.372 71.4453 95.1963C71.6018 95.1181 71.7583 95.04 71.9147 94.9619C72.1885 94.8252 72.4623 94.6885 72.7362 94.5518C72.9122 94.4737 73.0686 94.3761 73.2447 94.2785C73.5185 94.1418 73.7923 93.9855 74.0661 93.8293C74.1248 93.7903 74.1835 93.7708 74.2421 93.7317C74.379 93.6536 74.4964 93.595 74.6137 93.5169C74.7506 93.4388 74.9071 93.3607 75.044 93.263C75.3961 93.0482 75.7481 92.853 76.1001 92.6382C76.1393 92.6186 76.1784 92.5991 76.2175 92.5796C76.55 92.3843 76.8629 92.1695 77.1954 91.9547C77.2932 91.8961 77.3714 91.8375 77.4692 91.779C77.7626 91.5837 78.0364 91.4079 78.3102 91.2127C78.3884 91.1541 78.4667 91.115 78.5449 91.0564C79.2881 90.5487 79.9922 90.0215 80.6963 89.4747L80.7158 89.4552C80.9896 89.2404 81.2439 89.0451 81.4981 88.8303C81.6351 88.7131 81.772 88.6155 81.8893 88.4983C82.0067 88.4007 82.1436 88.2835 82.2609 88.1859C82.4565 88.0102 82.6716 87.8539 82.8672 87.6782C82.8868 87.6587 82.9063 87.6391 82.9259 87.6196C85.2337 85.6083 87.346 83.3822 89.2431 80.9803C89.3213 80.8826 89.3996 80.785 89.4582 80.7069C89.5365 80.5897 89.6343 80.4921 89.7125 80.3749C89.8885 80.1601 90.0645 79.9258 90.221 79.6915C90.2601 79.6329 90.2992 79.5743 90.3579 79.5157C92.7831 76.2156 94.8171 72.6225 96.3427 68.8147C97.8486 65.1435 98.8852 61.2771 99.4524 57.3521C99.4524 57.313 99.4719 57.2935 99.4719 57.2544C99.4915 57.0592 99.5306 56.8834 99.5502 56.6882C99.5697 56.5319 99.5893 56.3952 99.6088 56.239C99.6284 56.0828 99.648 55.9461 99.6675 55.7899C99.7066 55.5165 99.7262 55.2236 99.7653 54.9502C99.7849 54.8135 99.7849 54.6573 99.8044 54.5206C99.824 54.3644 99.824 54.1886 99.8435 54.0324C99.9218 53.1732 99.9609 52.314 100 51.4548V51.2595V49.131V48.6038C99.9413 42.9018 98.8461 37.2388 96.7729 31.9078ZM35.1457 6.405C39.3898 4.94044 43.849 4.12029 48.3474 3.94454C48.3865 3.94454 48.4256 3.94454 48.4647 3.94454C48.6603 3.94454 48.8363 3.92501 49.0319 3.92501C49.1101 3.92501 49.1883 3.92501 49.2666 3.92501C49.423 3.92501 49.5599 3.92501 49.7164 3.92501C49.8338 3.92501 49.9511 3.92501 50.0685 3.92501C50.1858 3.92501 50.3031 3.92501 50.4205 3.92501C50.577 3.92501 50.7139 3.92501 50.8703 3.92501C50.9486 3.92501 51.0268 3.92501 51.105 3.92501C51.3006 3.92501 51.4766 3.92501 51.6722 3.94454C51.7113 3.94454 51.7504 3.94454 51.7896 3.94454C56.2879 4.12029 60.7471 4.92091 64.9912 6.405C75.4743 9.95899 84.5492 17.4575 90.0645 27.0455C92.3137 30.9315 93.9761 35.1494 95.0127 39.504C95.0909 39.8164 95.1496 40.1289 95.2279 40.4413C95.2474 40.539 95.267 40.6171 95.2865 40.7147C95.7364 42.9408 96.0297 45.206 96.1666 47.4712C96.2253 48.428 96.2449 49.3849 96.2449 50.3222C96.2449 50.6542 96.2449 50.9861 96.2253 51.3181C96.2253 51.4743 96.2253 51.6501 96.2057 51.8063C96.1862 52.0992 96.1862 52.3726 96.1666 52.6655C96.1471 52.8608 96.1471 53.0756 96.1275 53.2709C96.108 53.4466 96.108 53.6419 96.0884 53.8176C96.0688 54.1301 96.0297 54.423 96.0102 54.7354C95.9906 54.833 95.9906 54.9502 95.9711 55.0478C95.9319 55.4189 95.8928 55.7899 95.8342 56.1609C95.8146 56.2585 95.8146 56.3562 95.795 56.4538C95.7364 56.8248 95.6777 57.1959 95.619 57.5669C95.5995 57.6645 95.5799 57.7817 95.5603 57.8793C95.5017 58.2308 95.443 58.5823 95.3648 58.9338C95.3452 59.051 95.3061 59.1877 95.2865 59.3048C95.2279 59.6173 95.1496 59.9492 95.0714 60.2617C95.0323 60.4179 94.9932 60.5741 94.954 60.7303C94.8954 60.9842 94.8367 61.238 94.7585 61.4919C94.6998 61.7067 94.6411 61.9215 94.5824 62.1363C94.5433 62.3121 94.4846 62.4878 94.426 62.6831C94.3477 62.976 94.2695 63.2494 94.1717 63.5423C94.113 63.6985 94.0739 63.8742 94.0153 64.0305C93.9175 64.3234 93.8197 64.6163 93.7219 64.9092C93.6632 65.0654 93.6241 65.2021 93.5654 65.3583C93.4676 65.6512 93.3503 65.9637 93.2329 66.2566C93.1743 66.3933 93.1351 66.53 93.0765 66.6667C92.9591 66.9596 92.8613 67.233 92.744 67.5259C92.6853 67.6821 92.6266 67.8188 92.5484 67.975C92.4506 68.2289 92.3333 68.4632 92.2355 68.717C92.1572 68.9123 92.0595 69.0881 91.9812 69.2833C91.8834 69.4982 91.7856 69.713 91.6879 69.9277C91.6292 70.0449 91.5705 70.1816 91.5118 70.2988C91.4336 70.4745 91.3358 70.6503 91.238 70.826C91.1402 71.0018 91.062 71.197 90.9642 71.3728C89.9276 73.3451 88.7542 75.2197 87.4633 77.0162C87.4633 77.0357 87.4438 77.0357 87.4438 77.0553C87.2482 77.3287 87.0331 77.602 86.8179 77.8754C86.7788 77.9145 86.7397 77.9731 86.7201 78.0121C86.5441 78.2464 86.3485 78.4808 86.1725 78.7151C86.1138 78.7932 86.0552 78.8713 85.9965 78.9299C85.84 79.1252 85.6836 79.3204 85.5075 79.5157C85.4293 79.6134 85.3315 79.711 85.2533 79.8086C85.1164 79.9649 84.9795 80.1211 84.8426 80.2968C84.7252 80.4335 84.6274 80.5507 84.5101 80.6678C84.3927 80.785 84.2949 80.9217 84.1776 81.0389C84.0407 81.1951 83.8842 81.3513 83.7473 81.5075C83.6691 81.5856 83.5909 81.6637 83.5126 81.7419C83.3366 81.9371 83.141 82.1129 82.965 82.3081C82.9454 82.3277 82.9259 82.3472 82.9063 82.3667C82.1827 83.0892 81.459 83.7922 80.6963 84.4562C80.6376 84.1633 80.5594 83.8899 80.5007 83.6165C80.266 82.6792 79.9922 81.7419 79.6793 80.8241C79.6206 80.6678 79.5619 80.4921 79.5032 80.3359C79.4641 80.2187 79.425 80.1015 79.3859 80.0039C79.2685 79.6915 79.1316 79.3595 79.0143 79.0471C78.9947 79.0275 78.9947 78.9885 78.9752 78.969C78.8969 78.7737 78.8187 78.5979 78.7405 78.4027C78.6818 78.266 78.6231 78.1488 78.5644 78.0121C78.5644 77.9926 78.5449 77.9731 78.5449 77.9535C77.7821 76.2546 76.8433 74.6534 75.7872 73.1302C75.7481 73.0717 75.6894 72.9936 75.6503 72.935C75.4938 72.7006 75.3178 72.4858 75.1614 72.2515C75.044 72.0953 74.9267 71.9586 74.8093 71.8024C74.7311 71.7048 74.6724 71.6266 74.5942 71.529C74.1835 71.0018 73.7532 70.494 73.3033 70.0059C73.2838 69.9863 73.2642 69.9668 73.2447 69.9473C72.9904 69.6739 72.7362 69.4005 72.4819 69.1271C72.3841 69.0295 72.3059 68.9514 72.2081 68.8537C72.1494 68.7952 72.0908 68.7366 72.0321 68.678C70.9368 67.604 69.7438 66.6081 68.5116 65.6903C68.4725 65.6512 68.4334 65.6317 68.3747 65.5927C68.2574 65.5145 68.14 65.4364 68.0227 65.3388C67.9053 65.2607 67.8076 65.1826 67.6902 65.1045C67.6511 65.0849 67.612 65.0654 67.5924 65.0264C66.0864 64.0109 64.5023 63.1322 62.8398 62.3902C62.6442 62.312 62.4487 62.2144 62.2531 62.1363C62.214 62.1168 62.1553 62.0972 62.1162 62.0777C61.9206 61.9996 61.7446 61.9215 61.549 61.8434C61.5294 61.8434 61.5099 61.8239 61.4903 61.8239C61.1578 61.6872 60.8254 61.57 60.4733 61.4528C60.3755 61.4138 60.2777 61.3943 60.1799 61.3552C59.9844 61.2966 59.7692 61.2185 59.5736 61.1599C59.3585 61.1014 59.1629 61.0232 58.9478 60.9647C58.8695 60.9451 58.7718 60.9061 58.6935 60.8866C58.3806 60.7889 58.0677 60.7108 57.7547 60.6327H57.7352C56.5813 60.3398 55.4078 60.125 54.2343 59.9688C54.0387 59.9492 53.8627 59.9297 53.6671 59.9102C53.5889 59.9102 53.5107 59.8907 53.4324 59.8907C53.1586 59.8711 52.8848 59.8321 52.6306 59.8125C52.5328 59.8125 52.435 59.793 52.3567 59.793C52.1025 59.7735 51.8678 59.754 51.6135 59.754C51.4962 59.754 51.3593 59.7344 51.2419 59.7344C51.0268 59.7344 50.8312 59.7149 50.6161 59.7149C50.4596 59.7149 50.2836 59.7149 50.1271 59.7149C49.9707 59.7149 49.7946 59.7149 49.6382 59.7149C49.423 59.7149 49.2275 59.7149 49.0123 59.7344C48.895 59.7344 48.7581 59.754 48.6407 59.754C48.3865 59.7735 48.1518 59.7735 47.8975 59.793C47.7997 59.793 47.7019 59.8125 47.6237 59.8125C47.3499 59.8321 47.0761 59.8516 46.8218 59.8907C46.7436 59.8907 46.6654 59.9102 46.5871 59.9102C46.3916 59.9297 46.2155 59.9492 46.02 59.9688C44.8465 60.125 43.673 60.3398 42.5191 60.6327H42.4995C42.1866 60.7108 41.8737 60.7889 41.5607 60.8866C41.4825 60.9061 41.3847 60.9451 41.3065 60.9647C41.0913 61.0232 40.8762 61.0818 40.6806 61.1599C40.485 61.2185 40.2699 61.2966 40.0743 61.3552C39.9765 61.3943 39.8787 61.4138 39.781 61.4528C39.4485 61.57 39.0964 61.6872 38.7639 61.8239C38.7444 61.8239 38.7248 61.8434 38.7053 61.8434C38.5097 61.9215 38.3337 61.9996 38.1381 62.0777C38.0794 62.0972 38.0403 62.1168 37.9816 62.1363C37.786 62.2144 37.5905 62.2925 37.3949 62.3902C35.7324 63.1322 34.1483 64.0109 32.6423 65.0264C32.6032 65.0459 32.5641 65.0654 32.5249 65.1045C32.4076 65.1826 32.3098 65.2607 32.1925 65.3193C32.0751 65.3974 31.9578 65.4755 31.8404 65.5731C31.8013 65.6122 31.7622 65.6317 31.7231 65.6708C30.4713 66.569 29.2979 67.5649 28.2026 68.6585C28.1439 68.717 28.0853 68.7756 28.0266 68.8342C27.9288 68.9319 27.8506 69.01 27.7528 69.1076C27.4985 69.381 27.2247 69.6544 26.99 69.9277C26.9705 69.9473 26.9509 69.9668 26.9314 69.9863C26.4815 70.4745 26.0512 70.9822 25.6405 71.5095C25.5623 71.6071 25.5036 71.6852 25.4254 71.7829C25.308 71.9391 25.1907 72.0758 25.0733 72.232C24.8973 72.4663 24.7409 72.6811 24.5844 72.9155C24.5453 72.974 24.4866 73.0521 24.4475 73.1107C23.3914 74.6339 22.4526 76.2546 21.6898 77.934C21.6898 77.9535 21.6703 77.9731 21.6703 77.9926C21.6116 78.1293 21.5529 78.2464 21.4942 78.3831C21.416 78.5784 21.3378 78.7542 21.2595 78.9494C21.24 78.969 21.24 79.008 21.2204 79.0275C21.0835 79.34 20.9662 79.6524 20.8488 79.9844C20.8097 80.1015 20.7706 80.2187 20.7315 80.3164C20.6728 80.4726 20.6141 80.6483 20.5554 80.8045C20.2425 81.7223 19.9687 82.6596 19.734 83.597C19.6558 83.8703 19.5971 84.1633 19.5384 84.4366C18.7757 83.7727 18.0325 83.0697 17.3284 82.3472C17.3088 82.3277 17.2893 82.3081 17.2697 82.2886C17.0741 82.0933 16.8981 81.9176 16.7221 81.7223C16.6439 81.6442 16.5656 81.5661 16.4874 81.488C16.3505 81.3318 16.194 81.1756 16.0571 81.0193C15.9398 80.9022 15.842 80.785 15.7246 80.6483C15.6073 80.5312 15.4899 80.3945 15.3921 80.2578C15.2552 80.1015 15.1183 79.9453 14.9814 79.7696C14.9032 79.6719 14.8054 79.5743 14.7272 79.4767C14.5707 79.2814 14.3947 79.0861 14.2382 78.8908C14.1795 78.8127 14.1209 78.7346 14.0622 78.676C13.8666 78.4417 13.6906 78.2074 13.5146 77.9731C13.4755 77.934 13.4363 77.8754 13.4168 77.8364C13.2016 77.563 13.0061 77.2896 12.7909 77.0162C12.7909 76.9967 12.7714 76.9967 12.7714 76.9772C11.461 75.1806 10.2875 73.306 9.27049 71.3337C9.1727 71.158 9.09447 70.9627 8.99668 70.787C8.89889 70.6112 8.82065 70.4355 8.72286 70.2597C8.66419 70.1426 8.60552 70.0059 8.54684 69.8887C8.44905 69.6739 8.35126 69.4591 8.25347 69.2443C8.17524 69.049 8.07745 68.8733 7.99922 68.678C7.88187 68.4437 7.78408 68.1898 7.68629 67.936C7.62762 67.7797 7.56894 67.643 7.49071 67.4868C7.37336 67.1939 7.25601 66.9205 7.15822 66.6276C7.09955 66.4909 7.06043 66.3542 7.00176 66.2175C6.88441 65.9246 6.78662 65.6122 6.66927 65.3193C6.6106 65.1631 6.57148 65.0264 6.51281 64.8701C6.41502 64.5772 6.31723 64.2843 6.21944 63.9914C6.16077 63.8352 6.12165 63.6594 6.06298 63.5032C5.98475 63.2298 5.88696 62.9369 5.80872 62.644C5.75005 62.4683 5.71093 62.2925 5.65226 62.0972C5.59359 61.8824 5.53491 61.6676 5.47624 61.4528C5.41756 61.199 5.33933 60.9451 5.28066 60.6913C5.24154 60.5351 5.20243 60.3788 5.16331 60.2226C5.08508 59.9102 5.0264 59.5977 4.94817 59.2658C4.92861 59.1486 4.8895 59.0119 4.86994 58.8947C4.79171 58.5433 4.73303 58.1918 4.67436 57.8403C4.6548 57.7426 4.63524 57.6255 4.61569 57.5278C4.55701 57.1568 4.49834 56.7858 4.43966 56.4148C4.42011 56.3171 4.42011 56.2195 4.40055 56.1219C4.34187 55.7508 4.30276 55.3798 4.26364 55.0088C4.24408 54.9112 4.24408 54.794 4.22453 54.6964C4.18541 54.3839 4.16585 54.091 4.14629 53.7786C4.12674 53.6028 4.10718 53.4075 4.10718 53.2318C4.08762 53.0365 4.08762 52.8217 4.06806 52.6264C4.0485 52.3335 4.02895 52.0601 4.02895 51.7672C4.02895 51.611 4.00939 51.4353 4.00939 51.279C4.00939 50.9471 3.98983 50.6151 3.98983 50.2831C3.98983 49.3263 4.00939 48.3695 4.06806 47.4321C4.18541 45.167 4.47878 42.9018 4.94817 40.6757C4.96773 40.578 4.98729 40.4999 5.00685 40.4023C5.06552 40.0898 5.14375 39.7774 5.22198 39.465C6.239 35.0908 7.90143 30.8924 10.1702 27.0064C15.5682 17.4575 24.6431 9.95899 35.1457 6.405Z" fill="#CFCFCF"/>
<path d="M33.4258 28.3344C33.3675 28.5095 33.3091 28.6846 33.2508 28.8597C33.2313 28.9375 33.2119 29.0154 33.1924 29.0932C33.1535 29.2488 33.0951 29.4045 33.0562 29.5796C33.0368 29.6768 33.0173 29.7547 32.9979 29.8519C32.959 30.0076 32.9201 30.1632 32.9006 30.3189C32.8812 30.4161 32.8617 30.494 32.8422 30.5912C32.8033 30.7469 32.7839 30.922 32.745 31.0776C32.7255 31.1554 32.7255 31.2333 32.7061 31.2916C32.6866 31.4667 32.6477 31.6613 32.6283 31.8364C32.6283 31.8753 32.6283 31.9336 32.6088 31.9726C32.3948 33.9375 32.4921 35.922 32.9395 37.848C33.7176 41.2527 35.5462 44.4045 38.0946 46.778C38.7755 47.42 39.5342 48.0037 40.3123 48.529C40.3317 48.529 40.3317 48.5484 40.3512 48.5484C40.4096 48.5873 40.4874 48.6457 40.5457 48.6846C42.0436 49.6574 43.6777 50.3772 45.3896 50.8442C45.4674 50.8636 45.5452 50.8831 45.6425 50.922C45.6814 50.922 45.7203 50.9414 45.7397 50.9414C45.9343 50.9803 46.1288 51.0387 46.3233 51.0776C46.3428 51.0776 46.3622 51.0776 46.3817 51.0971C46.5762 51.136 46.7902 51.1749 46.9847 51.2138C47.0237 51.2138 47.0626 51.2333 47.082 51.2333C47.2571 51.2722 47.4516 51.2916 47.6267 51.3111C47.7045 51.3111 47.7629 51.3305 47.8407 51.3305C47.9769 51.35 48.113 51.3694 48.2687 51.3694C48.4048 51.3889 48.5216 51.3889 48.6577 51.4084C48.6966 51.4084 48.755 51.4084 48.7939 51.4278C48.8134 51.4278 48.8523 51.4278 48.8717 51.4278C49.0273 51.4473 49.183 51.4473 49.3386 51.4473C49.4359 51.4473 49.5331 51.4473 49.6304 51.4473C49.7471 51.4473 49.8833 51.4473 50 51.4473C50.1167 51.4473 50.2529 51.4473 50.3696 51.4473C50.4669 51.4473 50.5641 51.4473 50.6614 51.4473C50.817 51.4473 50.9727 51.4278 51.1283 51.4278C51.1477 51.4278 51.1867 51.4278 51.2061 51.4278C51.245 51.4278 51.3034 51.4278 51.3423 51.4084C51.4784 51.3889 51.5952 51.3889 51.7313 51.3694C51.8675 51.35 52.0231 51.3305 52.1593 51.3305C52.2371 51.3305 52.2955 51.3111 52.3733 51.3111C52.5678 51.2916 52.7429 51.2527 52.9374 51.2333C52.9763 51.2333 53.0153 51.2138 53.0347 51.2138C53.2487 51.1749 53.4432 51.136 53.6378 51.0971C53.6572 51.0971 53.6767 51.0971 53.6961 51.0776C53.8906 51.0387 54.0852 50.9803 54.2797 50.9414C54.3186 50.9414 54.3381 50.922 54.377 50.922C54.4548 50.9025 54.5521 50.8831 54.6299 50.8442C56.3418 50.3772 57.9758 49.6574 59.4543 48.6846C59.5126 48.6457 59.5904 48.5873 59.6488 48.5484C59.6683 48.5484 59.6683 48.529 59.6877 48.529C60.4658 48.0037 61.2245 47.42 61.9054 46.778C64.4538 44.4045 66.3018 41.2527 67.0605 37.8675C67.5079 35.9414 67.6052 33.957 67.3912 31.992C67.3912 31.9531 67.3912 31.8947 67.3717 31.8558C67.3523 31.6807 67.3328 31.4862 67.2939 31.3111C67.2745 31.2333 67.2745 31.1554 67.255 31.0971C67.2356 30.9414 67.1967 30.7663 67.1578 30.6107C67.1383 30.5134 67.1188 30.4356 67.0994 30.3383C67.0605 30.1827 67.0216 30.027 67.0021 29.8714C66.9827 29.7741 66.9632 29.6963 66.9438 29.599C66.9049 29.4434 66.866 29.2877 66.8076 29.1126C66.7881 29.0348 66.7687 28.957 66.7492 28.8792C66.6909 28.7041 66.6325 28.529 66.5742 28.3539C66.5547 28.2955 66.5353 28.2372 66.5158 28.1982C66.438 27.9842 66.3602 27.7897 66.2824 27.5951C66.2824 27.5757 66.2824 27.5757 66.2629 27.5562V27.5368C66.1851 27.3228 66.0878 27.1087 65.9906 26.8753C65.9711 26.8364 65.9517 26.778 65.9322 26.7391C65.8544 26.564 65.7766 26.3889 65.6793 26.2138C65.6404 26.136 65.6015 26.0387 65.5431 25.9609C65.5237 25.922 65.5042 25.8831 65.4848 25.8442C64.6483 24.2294 63.5589 22.7702 62.275 21.5056C62.2361 21.4667 62.1972 21.4278 62.1388 21.3889C62.0221 21.2916 61.9248 21.1749 61.8081 21.0776C60.5437 19.9103 59.1041 18.9181 57.5673 18.1788C57.3144 18.0621 57.0421 17.9453 56.7697 17.8286C56.7503 17.8286 56.7308 17.8091 56.7114 17.8091C56.5752 17.7508 56.439 17.6924 56.3028 17.634C54.98 17.1087 53.5989 16.7586 52.1982 16.5835C51.5563 16.5056 50.9143 16.4473 50.2529 16.4473C50.1556 16.4473 50.0584 16.4473 49.9611 16.4473C49.8638 16.4473 49.7666 16.4473 49.6693 16.4473C49.0273 16.4667 48.3659 16.5056 47.724 16.5835C46.3233 16.7586 44.9422 17.1087 43.6193 17.634C43.4832 17.6924 43.347 17.7508 43.2108 17.8091C43.1914 17.8091 43.1719 17.8286 43.1525 17.8286C42.8801 17.9453 42.6272 18.0621 42.3549 18.1788C40.7986 18.9181 39.3785 19.9103 38.1141 21.0776C37.9974 21.1749 37.9001 21.2916 37.7834 21.3889C37.7445 21.4278 37.7056 21.4667 37.6472 21.5056C36.3633 22.7702 35.2739 24.2294 34.4374 25.8442C34.418 25.8831 34.3985 25.922 34.3791 25.9609C34.3401 26.0387 34.3012 26.136 34.2429 26.2138C34.1651 26.3889 34.0678 26.564 33.99 26.7391C33.9705 26.778 33.9511 26.8364 33.9316 26.8753C33.8344 27.0893 33.7371 27.3033 33.6593 27.5368V27.5562C33.6593 27.5757 33.6593 27.5757 33.6398 27.5951C33.562 27.7897 33.4842 28.0037 33.4064 28.1982C33.4647 28.2372 33.4453 28.2955 33.4258 28.3344Z" fill="#CFCFCF"/>
</svg>
