<svg width="22" height="20" viewBox="0 0 22 20" fill="none" xmlns="http://www.w3.org/2000/svg">
<path d="M0.18005 7.19776C0.172053 7.27773 0.164055 7.36571 0.164055 7.44568C0.164055 8.86924 1.32369 10.0289 2.74725 10.0289C3.539 10.0289 4.29077 9.66099 4.77862 9.03719C5.26647 9.66099 6.01823 10.0289 6.80999 10.0289C7.60174 10.0289 8.35351 9.66099 8.84135 9.03719C9.3292 9.66099 10.081 10.0289 10.8727 10.0289C11.6645 10.0289 12.4162 9.66099 12.9041 9.03719C13.3919 9.66099 14.1437 10.0289 14.9355 10.0289C15.7272 10.0289 16.479 9.66099 16.9668 9.03719C17.4547 9.66099 18.2064 10.0289 18.9982 10.0289C20.4218 10.0289 21.5814 8.86924 21.5814 7.44568C21.5814 7.31772 21.5734 7.19776 21.5574 7.0778C21.6134 7.04581 21.6534 6.99782 21.6854 6.93384C21.7413 6.81388 21.7253 6.67792 21.6454 6.56596L18.4784 2.47123V0.375883C18.4784 0.167948 18.3104 0 18.1025 0H3.547C3.33907 0 3.17112 0.167948 3.17112 0.375883V2.08735C3.17112 2.31128 3.09914 2.52721 2.97118 2.70316L0.0680849 6.69392C-0.0118902 6.79788 -0.0198877 6.94184 0.0360949 7.0538C0.0760825 7.11778 0.124068 7.16577 0.18005 7.19776ZM9.6571 6.07011L9.90502 3.11103H12.0084L12.1283 6.06211L9.6571 6.07011ZM12.3443 7.3817C12.3763 8.15746 11.7764 8.83725 11.0087 8.90123C10.5928 8.93322 10.1929 8.79726 9.88903 8.51735C9.58512 8.23743 9.41717 7.84556 9.41717 7.43768C9.41717 7.34971 9.42517 7.26974 9.44117 7.18176L12.3203 7.16577C12.3363 7.24574 12.3443 7.31772 12.3443 7.3817ZM1.2917 7.44568C1.2917 7.3737 1.2997 7.30972 1.3077 7.23775L4.2028 7.22175C4.2108 7.28573 4.21879 7.35771 4.21879 7.42969C4.22679 8.19745 3.61898 8.86124 2.85922 8.90923C2.45134 8.93322 2.05947 8.79726 1.75556 8.51735C1.45965 8.23743 1.2917 7.85355 1.2917 7.44568ZM1.88352 6.1181L4.08284 3.11103H5.60236L4.60267 6.02213L4.57868 6.1021L1.88352 6.1181ZM7.76969 8.55734C7.44179 8.83725 7.00992 8.95721 6.58606 8.89323C5.87428 8.78127 5.33844 8.14946 5.35444 7.42969C5.35444 7.35771 5.36244 7.28573 5.37043 7.22175L8.26553 7.20576C8.28153 7.28573 8.28953 7.36571 8.28953 7.45368C8.28153 7.86955 8.09759 8.27742 7.76969 8.55734ZM8.77737 3.11103L8.53745 6.07811L5.76231 6.0941L6.79399 3.11103H8.77737ZM17.3747 1.9354C17.3747 1.96739 17.3507 1.99138 17.3187 1.99138H4.36275C4.33076 1.99138 4.30677 1.96739 4.30677 1.9354V1.17563C4.30677 1.14364 4.33076 1.11965 4.36275 1.11965H17.3187C17.3507 1.11965 17.3747 1.14364 17.3747 1.17563V1.9354ZM15.0714 3.11103L16.0631 6.03812L13.24 6.05412L13.12 3.11103H15.0714ZM16.415 7.44568C16.415 7.84556 16.255 8.22144 15.9591 8.50135C15.6712 8.78127 15.2873 8.92522 14.8795 8.90923C14.1357 8.87724 13.5199 8.26943 13.4799 7.51766C13.4719 7.3977 13.4799 7.28573 13.5039 7.16577L16.375 7.14977C16.407 7.25374 16.415 7.34971 16.415 7.44568ZM16.255 3.11103H17.5746L19.8219 6.01413L17.2467 6.03012L16.255 3.11103ZM20.4777 7.50166C20.4537 8.26143 19.8379 8.87724 19.0862 8.91722C18.6783 8.93322 18.2944 8.79726 18.0065 8.51735C17.7106 8.23743 17.5506 7.86155 17.5506 7.45368C17.5506 7.34971 17.5586 7.25374 17.5826 7.15777L20.4457 7.14178C20.4697 7.25374 20.4857 7.3737 20.4777 7.50166Z" fill="#A8A8A8"/>
<path d="M21.533 18.8892H18.6859L19.0378 18.5373C19.5816 17.9935 20.1495 17.4337 20.6933 16.8739C21.573 15.9701 21.9409 14.8825 21.765 13.6349C21.509 11.7874 19.8935 10.3879 18.0061 10.3879C17.7502 10.3879 17.5023 10.4119 17.2464 10.4679C15.4869 10.8198 14.2153 12.3713 14.2153 14.1547C14.2153 15.2104 14.5832 16.1221 15.327 16.8739C15.8868 17.4417 16.4626 18.0095 17.0144 18.5613L17.3503 18.8972H9.16088V18.0735H14.2393C14.4152 18.0735 14.5512 17.9295 14.5512 17.7616V17.2737C14.5512 17.0978 14.4072 16.9618 14.2393 16.9618H9.16088V10.7478C9.16088 10.5798 9.02492 10.4439 8.85697 10.4439H8.35313C8.18518 10.4439 8.04922 10.5798 8.04922 10.7478V18.8972H3.50664V10.7318C3.50664 10.5638 3.37068 10.4279 3.20273 10.4279H2.69889C2.53094 10.4279 2.39498 10.5638 2.39498 10.7318V18.8812H0.31563C0.147682 18.8812 0.0117245 19.0172 0.0117245 19.1851V19.697C0.0117245 19.8649 0.147682 20.0009 0.31563 20.0009H21.541C21.709 20.0009 21.8449 19.8649 21.8449 19.697V19.1931C21.8369 19.0252 21.701 18.8892 21.533 18.8892ZM20.0455 16.2101C19.6376 16.6179 19.2297 17.0338 18.8299 17.4257L18.8139 17.4417C18.55 17.7056 18.286 17.9695 18.0221 18.2334C17.7822 17.9855 17.5343 17.7456 17.2943 17.5057L17.2703 17.4817C16.8785 17.0898 16.4306 16.6499 16.0067 16.2181C15.335 15.5383 15.039 14.6186 15.199 13.6829C15.3589 12.7631 15.9348 12.0034 16.7745 11.5955C17.1744 11.4036 17.5982 11.3076 18.0221 11.3076C18.47 11.3076 18.9178 11.4116 19.3337 11.6275C20.1335 12.0354 20.6853 12.7791 20.8452 13.6589C20.8692 13.8028 20.8852 13.9468 20.8932 14.1227C20.8852 14.9465 20.6053 15.6422 20.0455 16.2101Z" fill="#A8A8A8"/>
<path d="M18.03 12.3087C17.5741 12.3087 17.1423 12.4847 16.8224 12.8046C16.5025 13.1245 16.3265 13.5484 16.3185 14.0042C16.3185 14.9319 17.0783 15.6917 18.022 15.6997C18.9497 15.6997 19.7015 14.9479 19.7095 14.0202C19.7095 13.5644 19.5335 13.1405 19.2216 12.8126C18.9097 12.4847 18.4858 12.3087 18.03 12.3087ZM17.4941 13.4524C17.6381 13.3164 17.822 13.2365 18.014 13.2365H18.03C18.4618 13.2445 18.7977 13.5883 18.7897 14.0202C18.7817 14.4281 18.4459 14.756 18.03 14.756H18.022C17.814 14.756 17.6221 14.676 17.4862 14.5241C17.3422 14.3801 17.2702 14.1882 17.2702 13.9802C17.2622 13.7883 17.3422 13.5963 17.4941 13.4524Z" fill="#A8A8A8"/>
</svg>
