<svg width="15" height="17" viewBox="0 0 15 17" fill="none" xmlns="http://www.w3.org/2000/svg">
<path d="M7.5 2.125C8.97991 2.125 10.1786 3.31367 10.1786 4.78125V6.375H4.82143V4.78125C4.82143 3.31367 6.02009 2.125 7.5 2.125ZM2.67857 4.78125V6.375H2.14286C0.960938 6.375 0 7.32793 0 8.5V14.875C0 16.0471 0.960938 17 2.14286 17H12.8571C14.0391 17 15 16.0471 15 14.875V8.5C15 7.32793 14.0391 6.375 12.8571 6.375H12.3214V4.78125C12.3214 2.1416 10.1618 0 7.5 0C4.83817 0 2.67857 2.1416 2.67857 4.78125ZM8.57143 10.625V12.75C8.57143 13.3377 8.09263 13.8125 7.5 13.8125C6.90737 13.8125 6.42857 13.3377 6.42857 12.75V10.625C6.42857 10.0373 6.90737 9.5625 7.5 9.5625C8.09263 9.5625 8.57143 10.0373 8.57143 10.625Z" fill="#A8A8A8"/>
</svg>
