<svg width="21" height="21" viewBox="0 0 21 21" fill="none" xmlns="http://www.w3.org/2000/svg">
<path d="M16.6858 12.4591C16.4321 12.7129 16.0296 12.7129 15.7846 12.4591C15.5308 12.2054 15.5308 11.8029 15.7846 11.5579C17.5346 9.80792 17.5346 6.96422 15.7846 5.22301C14.0346 3.48179 11.1909 3.47304 9.44971 5.22301C7.70849 6.97297 7.69974 9.81667 9.44971 11.5579C9.70345 11.8116 9.70345 12.2141 9.44971 12.4591C9.19596 12.7129 8.79347 12.7129 8.54847 12.4591C6.29977 10.2104 6.29977 6.55298 8.54847 4.31303C10.7972 2.07307 14.4546 2.06432 16.6946 4.31303C18.9345 6.56173 18.9345 10.2104 16.6858 12.4591Z" fill="white"/>
<path d="M4.31338 8.54005C4.56712 8.2863 4.96962 8.2863 5.21461 8.54005C5.46836 8.79379 5.46836 9.19628 5.21461 9.44128C3.46465 11.1912 3.46465 14.0349 5.21461 15.7762C6.96458 17.5174 9.80827 17.5261 11.5495 15.7762C13.2907 14.0262 13.2995 11.1825 11.5495 9.44128C11.2957 9.18753 11.2957 8.78504 11.5495 8.54005C11.8032 8.2863 12.2057 8.2863 12.4507 8.54005C14.6994 10.7888 14.6994 14.4462 12.4507 16.6861C10.202 18.9261 6.54459 18.9348 4.30463 16.6861C2.06467 14.4374 2.06467 10.7888 4.31338 8.54005Z" fill="white"/>
</svg>
