<svg width="19" height="19" viewBox="0 0 19 19" fill="none" xmlns="http://www.w3.org/2000/svg">
<g clip-path="url(#clip0_2147_17089)">
<path d="M9.5 19C14.7467 19 19 14.7467 19 9.5C19 4.25329 14.7467 0 9.5 0C4.25329 0 0 4.25329 0 9.5C0 14.7467 4.25329 19 9.5 19Z" fill="#F6D738"/>
<path d="M9.49933 17.5651C13.9528 17.5651 17.5631 13.9548 17.5631 9.50128C17.5631 5.04778 13.9528 1.4375 9.49933 1.4375C5.04582 1.4375 1.43555 5.04778 1.43555 9.50128C1.43555 13.9548 5.04582 17.5651 9.49933 17.5651Z" fill="#F3CC30"/>
<path d="M13.7191 2.61719C14.521 3.87089 14.9878 5.36097 14.9878 6.95876C14.9878 11.411 11.3793 15.0225 6.92398 15.0225C5.37705 15.0225 3.93185 14.5857 2.70508 13.8317C4.13831 16.0698 6.64571 17.5509 9.5002 17.5509C13.9525 17.5509 17.564 13.9424 17.564 9.4901C17.564 6.58175 16.026 4.03546 13.7191 2.61719Z" fill="#EDBD31"/>
<path d="M2.84797 10.2393C2.84797 6.30765 6.03458 3.12104 9.96623 3.12104C12.2642 3.12104 14.3078 4.21017 15.6094 5.90072C14.3796 3.76734 12.0757 2.32812 9.43663 2.32812C5.50497 2.32812 2.31836 5.51474 2.31836 9.44639C2.31836 11.0801 2.86891 12.5851 3.79348 13.785C3.19206 12.7407 2.84797 11.5289 2.84797 10.2393Z" fill="#F7DB5E"/>
<path d="M4.57812 7.38281H6.25372C6.70553 7.38281 7.0975 7.4636 7.42663 7.62817C7.75576 7.79273 8.0071 8.02612 8.18064 8.33431C8.35419 8.6425 8.44395 9.00455 8.44395 9.42943C8.44395 9.85431 8.35718 10.2223 8.18364 10.5335C8.01009 10.8417 7.76175 11.0781 7.43261 11.2427C7.10348 11.4042 6.71151 11.488 6.25372 11.488H4.57812V7.38281ZM6.17592 10.6173C6.57387 10.6173 6.87309 10.5186 7.07057 10.3211C7.26805 10.1236 7.36679 9.82439 7.36679 9.42643C7.36679 8.63951 6.96883 8.24754 6.17592 8.24754H5.65828V10.6203H6.17592V10.6173Z" fill="#D49A34"/>
<path d="M11.7464 8.79003C11.9169 8.99948 12.0037 9.31365 12.0037 9.73554V11.48H10.9625V9.78342C10.9625 9.60389 10.9325 9.47224 10.8697 9.39444C10.8069 9.31664 10.7111 9.27775 10.5825 9.27775C10.4239 9.27775 10.2982 9.33161 10.2025 9.43633C10.1067 9.54105 10.0588 9.68168 10.0588 9.85523V11.4859H9.01758V7.24609H10.0588V8.9157C10.2862 8.62546 10.5914 8.47885 10.9744 8.47885C11.3185 8.47586 11.5758 8.58058 11.7464 8.79003Z" fill="#D49A34"/>
<path d="M12.4062 11.1764L12.6696 10.4672C12.8281 10.575 13.0047 10.6587 13.2051 10.7186C13.4056 10.7784 13.6001 10.8083 13.7916 10.8083C13.9113 10.8083 14.004 10.7904 14.0669 10.7575C14.1327 10.7216 14.1656 10.6737 14.1656 10.6139C14.1656 10.56 14.1417 10.5181 14.0938 10.4852C14.0459 10.4523 13.9532 10.4224 13.8215 10.3954L13.3488 10.2847C13.0496 10.2219 12.8341 10.1261 12.7025 9.99448C12.5708 9.86283 12.505 9.68031 12.505 9.44393C12.505 9.25543 12.5618 9.08787 12.6725 8.94425C12.7833 8.79763 12.9388 8.68393 13.1363 8.60315C13.3338 8.51937 13.5612 8.48047 13.8185 8.48047C14.031 8.48047 14.2374 8.51039 14.4409 8.57322C14.6444 8.63606 14.8359 8.71984 15.0094 8.83354L14.7341 9.52472C14.5815 9.42598 14.4229 9.34819 14.2614 9.29433C14.0998 9.24047 13.9472 9.21354 13.8066 9.21354C13.6899 9.21354 13.6001 9.23149 13.5373 9.2674C13.4714 9.3033 13.4385 9.35716 13.4385 9.42598C13.4385 9.46787 13.4565 9.50078 13.4954 9.52771C13.5343 9.55165 13.6061 9.57858 13.7138 9.60551L14.2045 9.71622C14.5157 9.78803 14.7401 9.89574 14.8748 10.0364C15.0094 10.177 15.0782 10.3685 15.0782 10.6079C15.0782 10.8951 14.9645 11.1225 14.7371 11.2871C14.5097 11.4516 14.1925 11.5354 13.7886 11.5354C13.2051 11.5265 12.7444 11.4098 12.4062 11.1764Z" fill="#D49A34"/>
</g>
<defs>
<clipPath id="clip0_2147_17089">
<rect width="19" height="19" fill="white"/>
</clipPath>
</defs>
</svg>
