<svg width="18" height="18" viewBox="0 0 18 18" fill="none" xmlns="http://www.w3.org/2000/svg">
<path d="M4.77 5.83594H1.5V8.43844H4.77V5.83594Z" fill="#7B68EE"/>
<path d="M4.77078 4.71766V1.59766C3.06078 1.91266 1.94328 3.01516 1.61328 4.71016H4.74828C4.75578 4.71016 4.76328 4.71766 4.77078 4.71766Z" fill="#7B68EE"/>
<path d="M4.77 12.2325V9.5625H1.5V12.21H4.68C4.71 12.21 4.74 12.225 4.77 12.2325Z" fill="#7B68EE"/>
<path d="M16.387 4.70977C16.0645 3.06727 15.0145 1.98727 13.3945 1.63477V4.70977H16.387Z" fill="#7B68EE"/>
<path d="M12.2695 8.4375V1.5075C12.232 1.5 12.187 1.5 12.142 1.5H5.89453V8.4375H12.2695Z" fill="#7B68EE"/>
<path d="M16.4995 9.5625H13.3945V12.21H16.4995V9.5625Z" fill="#7B68EE"/>
<path d="M13.3945 16.3659C14.9995 16.0134 16.0495 14.9484 16.3795 13.3359H13.3945V16.3659Z" fill="#7B68EE"/>
<path d="M4.67914 13.3353H1.61914C1.96414 15.0003 3.07414 16.0878 4.76914 16.4028V13.3203C4.73914 13.3278 4.70914 13.3353 4.67914 13.3353Z" fill="#7B68EE"/>
<path d="M16.4995 5.83594H13.3945V8.43844H16.4995V5.83594Z" fill="#7B68EE"/>
<path d="M5.89453 9.5625V16.5H12.142C12.187 16.5 12.232 16.5 12.2695 16.4925V9.5625H5.89453Z" fill="#7B68EE"/>
</svg>
