<svg width="30" height="30" viewBox="0 0 30 30" fill="none" xmlns="http://www.w3.org/2000/svg">
<path d="M20 15.7384H10C9.4875 15.7384 9.0625 15.3187 9.0625 14.8126C9.0625 14.3064 9.4875 13.8867 10 13.8867H20C20.5125 13.8867 20.9375 14.3064 20.9375 14.8126C20.9375 15.3187 20.5125 15.7384 20 15.7384Z" fill="#CFCFCF"/>
<path d="M15 20.6767C14.4875 20.6767 14.0625 20.257 14.0625 19.7508V9.87507C14.0625 9.36894 14.4875 8.94922 15 8.94922C15.5125 8.94922 15.9375 9.36894 15.9375 9.87507V19.7508C15.9375 20.257 15.5125 20.6767 15 20.6767Z" fill="#CFCFCF"/>
<path d="M18.75 28.0841H11.25C4.4625 28.0841 1.5625 25.2201 1.5625 18.517V11.1101C1.5625 4.40694 4.4625 1.54297 11.25 1.54297H18.75C25.5375 1.54297 28.4375 4.40694 28.4375 11.1101V18.517C28.4375 25.2201 25.5375 28.0841 18.75 28.0841ZM11.25 3.39468C5.4875 3.39468 3.4375 5.41921 3.4375 11.1101V18.517C3.4375 24.2079 5.4875 26.2324 11.25 26.2324H18.75C24.5125 26.2324 26.5625 24.2079 26.5625 18.517V11.1101C26.5625 5.41921 24.5125 3.39468 18.75 3.39468H11.25Z" fill="#CFCFCF"/>
</svg>
