<svg width="25" height="26" viewBox="0 0 25 26" fill="none" xmlns="http://www.w3.org/2000/svg">
<path d="M12.2556 22.4619C9.87987 22.4619 7.50418 22.0846 5.25085 21.3301C4.39438 21.0344 3.74183 20.4329 3.45634 19.6478C3.16065 18.8627 3.26261 17.996 3.73163 17.2211L4.90418 15.2736C5.14889 14.8658 5.3732 14.0501 5.3732 13.5709V10.6242C5.3732 6.83129 8.46261 3.74188 12.2556 3.74188C16.0485 3.74188 19.1379 6.83129 19.1379 10.6242V13.5709C19.1379 14.0399 19.3622 14.8658 19.6069 15.2838L20.7693 17.2211C21.2077 17.9552 21.2893 18.8423 20.9936 19.6478C20.6979 20.4533 20.0556 21.065 19.2501 21.3301C17.0069 22.0846 14.6312 22.4619 12.2556 22.4619ZM12.2556 5.27129C9.30889 5.27129 6.90261 7.66737 6.90261 10.6242V13.5709C6.90261 14.3152 6.59673 15.4164 6.21947 16.0587L5.04693 18.0062C4.82261 18.3834 4.76144 18.7811 4.89398 19.1176C5.01634 19.4642 5.32222 19.7293 5.74026 19.8721C10.0022 21.2995 14.5191 21.2995 18.781 19.8721C19.1481 19.7497 19.4336 19.4744 19.5661 19.1074C19.6987 18.7403 19.6681 18.3427 19.4642 18.0062L18.2916 16.0587C17.9042 15.396 17.6085 14.305 17.6085 13.5607V10.6242C17.6085 7.66737 15.2124 5.27129 12.2556 5.27129Z" fill="#292D32"/>
<path d="M14.1528 5.54635C14.0814 5.54635 14.01 5.53615 13.9387 5.51576C13.643 5.43419 13.3575 5.37301 13.0822 5.33223C12.2155 5.22007 11.3794 5.28125 10.5943 5.51576C10.3088 5.60752 10.003 5.51576 9.80924 5.30164C9.61552 5.08752 9.55434 4.78164 9.6665 4.50635C10.0845 3.43576 11.1041 2.73223 12.2665 2.73223C13.4288 2.73223 14.4485 3.42556 14.8665 4.50635C14.9685 4.78164 14.9175 5.08752 14.7238 5.30164C14.5708 5.46478 14.3567 5.54635 14.1528 5.54635Z" fill="#292D32"/>
<path d="M12.2552 24.7872C11.2458 24.7872 10.267 24.3794 9.55325 23.6657C8.83952 22.9519 8.43168 21.9731 8.43168 20.9637H9.96109C9.96109 21.5653 10.2058 22.1566 10.634 22.5849C11.0623 23.0131 11.6536 23.2578 12.2552 23.2578C13.5195 23.2578 14.5493 22.228 14.5493 20.9637H16.0787C16.0787 23.0743 14.3658 24.7872 12.2552 24.7872Z" fill="#292D32"/>
<circle cx="18.9962" cy="5.60784" r="4.82843" fill="#FF519A" stroke="#F1F3F6" stroke-width="1.5"/>
</svg>
