<svg width="20" height="20" viewBox="0 0 20 20" fill="none" xmlns="http://www.w3.org/2000/svg">
<path fill-rule="evenodd" clip-rule="evenodd" d="M4.04508 6.66732C3.19176 6.66732 2.5 7.35908 2.5 8.2124V12.3816C2.5 13.5786 2.5 14.177 2.66835 14.6582C2.96989 15.5199 3.64742 16.1974 4.50916 16.499C4.99028 16.6673 5.58876 16.6673 6.78571 16.6673H13.2143C14.4112 16.6673 15.0097 16.6673 15.4908 16.499C16.3526 16.1974 17.0301 15.5199 17.3316 14.6582C17.5 14.177 17.5 13.5786 17.5 12.3816V8.2124C17.5 7.35908 16.8082 6.66732 15.9549 6.66732C15.3697 6.66732 14.8347 6.33666 14.5729 5.81321L13.8889 4.44509L13.8836 4.4346C13.5448 3.76154 12.8564 3.33608 12.1028 3.33399L12.0911 3.33398H7.90893L7.89719 3.33399C7.14364 3.33608 6.45523 3.76154 6.11637 4.4346L6.11111 4.4451L5.42705 5.81322C5.16533 6.33667 4.63032 6.66732 4.04508 6.66732ZM11.3333 10.834C11.3333 11.5704 10.7364 12.1673 10 12.1673C9.26362 12.1673 8.66667 11.5704 8.66667 10.834C8.66667 10.0976 9.26362 9.50065 10 9.50065C10.7364 9.50065 11.3333 10.0976 11.3333 10.834ZM13.3333 10.834C13.3333 12.6749 11.8409 14.1673 10 14.1673C8.15905 14.1673 6.66667 12.6749 6.66667 10.834C6.66667 8.99304 8.15905 7.50065 10 7.50065C11.8409 7.50065 13.3333 8.99304 13.3333 10.834Z" fill="white"/>
</svg>
