<svg width="22" height="22" viewBox="0 0 22 22" fill="none" xmlns="http://www.w3.org/2000/svg">
<path d="M19.25 7.10352H2.75C2.37417 7.10352 2.0625 6.79185 2.0625 6.41602C2.0625 6.04018 2.37417 5.72852 2.75 5.72852H19.25C19.6258 5.72852 19.9375 6.04018 19.9375 6.41602C19.9375 6.79185 19.6258 7.10352 19.25 7.10352Z" fill="#7B68EE"/>
<path d="M16.5 11.6875H5.5C5.12417 11.6875 4.8125 11.3758 4.8125 11C4.8125 10.6242 5.12417 10.3125 5.5 10.3125H16.5C16.8758 10.3125 17.1875 10.6242 17.1875 11C17.1875 11.3758 16.8758 11.6875 16.5 11.6875Z" fill="#7B68EE"/>
<path d="M12.8327 16.2715H9.16602C8.79018 16.2715 8.47852 15.9598 8.47852 15.584C8.47852 15.2082 8.79018 14.8965 9.16602 14.8965H12.8327C13.2085 14.8965 13.5202 15.2082 13.5202 15.584C13.5202 15.9598 13.2085 16.2715 12.8327 16.2715Z" fill="#7B68EE"/>
</svg>
