<svg width="13" height="13" viewBox="0 0 13 13" fill="none" xmlns="http://www.w3.org/2000/svg">
<path d="M12.5805 6.48844L9.39459 8.5798L9.31641 12.2934C9.32618 12.3618 9.32618 12.4303 9.30664 12.4987C9.23823 12.8309 8.91573 13.0557 8.58345 12.9873C8.58345 12.9873 8.58345 12.9873 8.57368 12.9873C8.47595 12.9678 8.388 12.9287 8.30005 12.8603L5.32914 10.4757L1.68392 11.5703C1.58619 11.5996 1.48846 11.5996 1.39073 11.5898C1.26369 11.5605 1.14641 11.5018 1.05846 11.4041C0.902097 11.2282 0.853235 10.9839 0.931416 10.7591L2.28005 7.19208L0.110507 4.06481C-0.026311 3.86935 -0.036084 3.61526 0.0811886 3.41004C0.198461 3.20481 0.413461 3.07776 0.648007 3.08754L4.44959 3.27322L6.75596 0.243676C6.90255 0.0579942 7.13709 -0.0299602 7.37164 0.00913068C7.60618 0.0579943 7.79186 0.224131 7.8505 0.448903L8.85709 4.12344L12.4535 5.38413C12.6782 5.46231 12.8346 5.65776 12.8639 5.89231C12.8835 6.12685 12.7759 6.35163 12.5805 6.48844Z" fill="#FBD69E"/>
</svg>
