<svg width="63" height="56" viewBox="0 0 63 56" fill="none" xmlns="http://www.w3.org/2000/svg">
<path d="M19.1931 26.5994H4.41221C4.66433 11.8815 7.56378 9.45482 16.6088 4.09714C17.6488 3.46683 17.9955 2.14317 17.3652 1.07163C16.7664 0.0316097 15.4112 -0.315064 14.3712 0.315251C3.71886 6.6184 0 10.4633 0 28.774V45.761C0 51.1502 4.38069 55.4993 9.73837 55.4993H19.1931C24.7399 55.4993 28.9315 51.3077 28.9315 45.761V36.3062C28.9315 30.791 24.7399 26.5994 19.1931 26.5994Z" fill="#CFCFCF"/>
<path d="M53.2931 26.5994H38.5123C38.7644 11.8815 41.6638 9.45482 50.7089 4.09714C51.7489 3.46683 52.0955 2.14317 51.4652 1.07163C50.8349 0.0316097 49.5113 -0.315064 48.4397 0.315251C37.7874 6.6184 34.0685 10.4633 34.0685 28.8055V45.7925C34.0685 51.1817 38.4492 55.5309 43.8069 55.5309H53.2616C58.8084 55.5309 63 51.3393 63 45.7925V36.3378C63.0315 30.791 58.8399 26.5994 53.2931 26.5994Z" fill="#CFCFCF"/>
</svg>
