<svg width="24" height="24" viewBox="0 0 24 24" fill="none" xmlns="http://www.w3.org/2000/svg">
<path d="M5 10.75H7C9.42 10.75 10.75 9.42 10.75 7V5C10.75 2.58 9.42 1.25 7 1.25H5C2.58 1.25 1.25 2.58 1.25 5V7C1.25 9.42 2.58 10.75 5 10.75Z" fill="#6A58D7"/>
<path d="M17 10.75H19C21.42 10.75 22.75 9.42 22.75 7V5C22.75 2.58 21.42 1.25 19 1.25H17C14.58 1.25 13.25 2.58 13.25 5V7C13.25 9.42 14.58 10.75 17 10.75Z" fill="#6A58D7"/>
<path d="M17.2625 13.9906C17.2625 13.5859 17.5908 13.2578 17.9957 13.2578C18.4007 13.2578 18.7289 13.5859 18.7289 13.9906V17.2759H22.016C22.421 17.2759 22.7493 17.604 22.7493 18.0087C22.7493 18.4134 22.421 18.7415 22.016 18.7415H18.7289V22.0268C18.7289 22.4315 18.4007 22.7596 17.9957 22.7596C17.5908 22.7596 17.2625 22.4315 17.2625 22.0268V18.7415H13.9754C13.5705 18.7415 13.2422 18.4134 13.2422 18.0087C13.2422 17.604 13.5705 17.2759 13.9754 17.2759H17.2625V13.9906Z" fill="#6A58D7"/>
<path d="M5 22.75H7C9.42 22.75 10.75 21.42 10.75 19V17C10.75 14.58 9.42 13.25 7 13.25H5C2.58 13.25 1.25 14.58 1.25 17V19C1.25 21.42 2.58 22.75 5 22.75Z" fill="#6A58D7"/>
</svg>
