<svg width="24" height="18" viewBox="0 0 24 18" fill="none" xmlns="http://www.w3.org/2000/svg">
<path d="M11.2815 2.34766C10.6903 2.34766 10.2127 2.7411 10.2127 3.22809V3.75635C7.77459 4.16355 5.93766 5.94093 5.93766 8.07048V8.58774C5.93766 9.88088 5.35986 11.13 4.31782 12.0985L4.07067 12.3268C3.79012 12.5855 3.72332 12.9569 3.89366 13.2733C4.06399 13.5897 4.44808 13.7933 4.8689 13.7933H17.694C18.1148 13.7933 18.4956 13.5897 18.6693 13.2733C18.8429 12.9569 18.7728 12.5855 18.4922 12.3268L18.2451 12.0985C17.2031 11.13 16.6253 9.88363 16.6253 8.58774V8.07048C16.6253 5.94093 14.7883 4.16355 12.3502 3.75635V3.22809C12.3502 2.7411 11.8726 2.34766 11.2815 2.34766ZM12.7944 15.9201C13.1952 15.5899 13.419 15.1415 13.419 14.6737H11.2815H9.14394C9.14394 15.1415 9.36771 15.5899 9.76849 15.9201C10.1693 16.2503 10.7137 16.4346 11.2815 16.4346C11.8492 16.4346 12.3936 16.2503 12.7944 15.9201Z" fill="black"/>
<circle cx="15.6309" cy="7" r="2.5" fill="#FF519A" stroke="#F5F6F8"/>
</svg>
