<svg width="25" height="26" viewBox="0 0 25 26" fill="none" xmlns="http://www.w3.org/2000/svg">
<path d="M12.1957 22.5299C9.86565 22.5299 7.53565 22.1599 5.32565 21.4199C4.48565 21.1299 3.84565 20.5399 3.56565 19.7699C3.27565 18.9999 3.37565 18.1499 3.83565 17.3899L4.98565 15.4799C5.22565 15.0799 5.44565 14.2799 5.44565 13.8099V10.9199C5.44565 7.19992 8.47565 4.16992 12.1957 4.16992C15.9157 4.16992 18.9457 7.19992 18.9457 10.9199V13.8099C18.9457 14.2699 19.1656 15.0799 19.4056 15.4899L20.5457 17.3899C20.9757 18.1099 21.0557 18.9799 20.7656 19.7699C20.4756 20.5599 19.8456 21.1599 19.0556 21.4199C16.8556 22.1599 14.5257 22.5299 12.1957 22.5299ZM12.1957 5.66992C9.30565 5.66992 6.94565 8.01992 6.94565 10.9199V13.8099C6.94565 14.5399 6.64565 15.6199 6.27565 16.2499L5.12565 18.1599C4.90565 18.5299 4.84565 18.9199 4.97565 19.2499C5.09565 19.5899 5.39565 19.8499 5.80565 19.9899C9.98565 21.3899 14.4157 21.3899 18.5957 19.9899C18.9557 19.8699 19.2357 19.5999 19.3657 19.2399C19.4957 18.8799 19.4657 18.4899 19.2657 18.1599L18.1157 16.2499C17.7357 15.5999 17.4457 14.5299 17.4457 13.7999V10.9199C17.4457 8.01992 15.0957 5.66992 12.1957 5.66992Z" fill="#292D32"/>
<path d="M14.0564 5.93969C13.9864 5.93969 13.9164 5.92969 13.8464 5.90969C13.5564 5.82969 13.2764 5.76969 13.0064 5.72969C12.1564 5.61969 11.3364 5.67969 10.5664 5.90969C10.2864 5.99969 9.98638 5.90969 9.79638 5.69969C9.60638 5.48969 9.54638 5.18969 9.65638 4.91969C10.0664 3.86969 11.0664 3.17969 12.2064 3.17969C13.3464 3.17969 14.3464 3.85969 14.7564 4.91969C14.8564 5.18969 14.8064 5.48969 14.6164 5.69969C14.4664 5.85969 14.2564 5.93969 14.0564 5.93969Z" fill="#292D32"/>
<path d="M12.1953 24.8105C11.2053 24.8105 10.2453 24.4105 9.54531 23.7105C8.84531 23.0105 8.44531 22.0505 8.44531 21.0605H9.94531C9.94531 21.6505 10.1853 22.2305 10.6053 22.6505C11.0253 23.0705 11.6053 23.3105 12.1953 23.3105C13.4353 23.3105 14.4453 22.3005 14.4453 21.0605H15.9453C15.9453 23.1305 14.2653 24.8105 12.1953 24.8105Z" fill="#292D32"/>
<circle cx="18.8066" cy="6" r="4.75" fill="#FF519A" stroke="#F1F3F6" stroke-width="1.5"/>
</svg>
