<svg width="24" height="24" viewBox="0 0 24 24" fill="none" xmlns="http://www.w3.org/2000/svg">
<path d="M18.8468 14.2205C18.3718 13.7455 18.1127 13.0977 18.1127 12.45V9.34091C18.1127 6.70682 16.2559 4.46136 13.7946 3.9V3.29545C13.7946 2.56136 13.2332 2 12.4991 2C11.765 2 11.2037 2.56136 11.2037 3.29545V3.9C8.74229 4.46136 6.88548 6.70682 6.88548 9.34091V12.45C6.88548 13.0977 6.62639 13.7455 6.15139 14.2205C5.50366 14.825 5.1582 15.7318 5.1582 16.5955V17.1136C5.1582 17.8477 5.71957 18.4091 6.45366 18.4091H10.3832C10.34 18.5386 10.34 18.7114 10.34 18.8409C10.34 20.05 11.29 21 12.4991 21C13.7082 21 14.6582 20.05 14.6582 18.8409C14.6582 18.7114 14.6582 18.5386 14.615 18.4091H18.5446C19.2787 18.4091 19.84 17.8477 19.84 17.1136V16.5955C19.84 15.7318 19.4946 14.825 18.8468 14.2205ZM12.0673 3.29545C12.0673 3.03636 12.24 2.86364 12.4991 2.86364C12.7582 2.86364 12.9309 3.03636 12.9309 3.29545V3.77045C12.8014 3.72727 12.6287 3.72727 12.4991 3.72727C12.3696 3.72727 12.1968 3.72727 12.0673 3.77045V3.29545ZM12.4991 20.1364C11.765 20.1364 11.2037 19.575 11.2037 18.8409C11.2037 18.6682 11.2468 18.5386 11.29 18.4091H13.7082C13.7514 18.5386 13.7946 18.6682 13.7946 18.8409C13.7946 19.575 13.2332 20.1364 12.4991 20.1364ZM18.9764 17.1136C18.9764 17.3727 18.8037 17.5455 18.5446 17.5455H6.45366C6.19457 17.5455 6.02184 17.3727 6.02184 17.1136V16.5955C6.02184 15.9477 6.28093 15.3 6.75593 14.825C7.40366 14.1773 7.74911 13.3136 7.74911 12.45V9.34091C7.74911 6.70682 9.86502 4.59091 12.4991 4.59091C15.1332 4.59091 17.2491 6.70682 17.2491 9.34091V12.45C17.2491 13.3568 17.5946 14.2205 18.2423 14.825C18.7173 15.3 18.9764 15.9477 18.9764 16.5955V17.1136Z" fill="black"/>
<path d="M9.0451 9.98917C8.78601 9.98917 8.61328 10.1619 8.61328 10.421V12.3642C8.61328 12.6233 8.78601 12.796 9.0451 12.796C9.30419 12.796 9.47692 12.6233 9.47692 12.3642V10.421C9.47692 10.1619 9.30419 9.98917 9.0451 9.98917ZM12.4996 5.45508C10.9019 5.45508 9.47692 6.40508 8.91555 7.87326C8.82919 8.08917 8.91555 8.34826 9.17464 8.43462C9.21783 8.43462 9.26101 8.47781 9.34737 8.47781C9.5201 8.47781 9.69283 8.39144 9.73601 8.21871C10.211 7.05281 11.2906 6.31871 12.5428 6.31871C12.8019 6.31871 12.9746 6.14599 12.9746 5.8869C12.9746 5.62781 12.7587 5.45508 12.4996 5.45508Z" fill="black"/>
<circle cx="16.6309" cy="6" r="2.5" fill="#FF519A" stroke="#F5F6F8"/>
</svg>
