<svg width="24" height="22" viewBox="0 0 24 22" fill="none" xmlns="http://www.w3.org/2000/svg">
<path d="M11.9992 2C11.3671 2 10.8564 2.51071 10.8564 3.14284V3.82855C8.24926 4.35711 6.285 6.66422 6.285 9.42847V10.0999C6.285 11.7784 5.66715 13.3998 4.55288 14.657L4.2886 14.9534C3.9886 15.2891 3.91717 15.7712 4.09932 16.182C4.28146 16.5927 4.69216 16.8569 5.14216 16.8569H18.8563C19.3063 16.8569 19.7134 16.5927 19.8991 16.182C20.0848 15.7712 20.0098 15.2891 19.7098 14.9534L19.4455 14.657C18.3313 13.3998 17.7134 11.782 17.7134 10.0999V9.42847C17.7134 6.66422 15.7492 4.35711 13.1421 3.82855V3.14284C13.1421 2.51071 12.6313 2 11.9992 2ZM13.617 19.6176C14.0456 19.1891 14.2849 18.6069 14.2849 17.9998H11.9992H9.71353C9.71353 18.6069 9.95281 19.1891 10.3814 19.6176C10.8099 20.0462 11.3921 20.2855 11.9992 20.2855C12.6063 20.2855 13.1885 20.0462 13.617 19.6176Z" fill="black"/>
</svg>
