<svg width="28" height="28" viewBox="0 0 28 28" fill="none" xmlns="http://www.w3.org/2000/svg">
<circle cx="14" cy="14" r="14" fill="#7B68EE"/>
<path d="M11.2675 20.599L11.2674 20.5997H11.2796H11.2796H11.2797H11.2798H11.2799H11.28H11.28H11.2801H11.2802H11.2803H11.2804H11.2804H11.2805H11.2806H11.2807H11.2808H11.2808H11.2809H11.281H11.2811H11.2812H11.2812H11.2813H11.2814H11.2815H11.2816H11.2817H11.2817H11.2818H11.2819H11.282H11.2821H11.2821H11.2822H11.2823H11.2824H11.2825H11.2826H11.2826H11.2827H11.2828H11.2829H11.283H11.2831H11.2832H11.2832H11.2833H11.2834H11.2835H11.2836H11.2837H11.2837H11.2838H11.2839H11.284H11.2841H11.2842H11.2843H11.2843H11.2844H11.2845H11.2846H11.2847H11.2848H11.2849H11.285H11.285H11.2851H11.2852H11.2853H11.2854H11.2855H11.2856H11.2857H11.2857H11.2858H11.2859H11.286H11.2861H11.2862H11.2863H11.2864H11.2865H11.2866H11.2866H11.2867H11.2868H11.2869H11.287H11.2871H11.2872H11.2873H11.2874H11.2875H11.2875H11.2876H11.2877H11.2878H11.2879H11.288H11.2881H11.2882H11.2883H11.2884H11.2885H11.2886H11.2886H11.2887H11.2888H11.2889H11.289H11.2891H11.2892H11.2893H11.2894H11.2895H11.2896H11.2897H11.2898H11.2899H11.29H11.2901H11.2901H11.2902H11.2903H11.2904H11.2905H11.2906H11.2907H11.2908H11.2909H11.291H11.2911H11.2912H11.2913H11.2914H11.2915H11.2916H11.2917H11.2918H11.2919H11.292H11.2921H11.2922H11.2923H11.2924H11.2924H11.2925H11.2926H11.2927H11.2928H11.2929H11.293H11.2931H11.2932H11.2933H11.2934H11.2935H11.2936H11.2937H11.2938H11.2939H11.294H11.2941H11.2942H11.2943H11.2944H11.2945H11.2946H11.2947H11.2948H11.2949H11.295H11.2951H11.2952H11.2953H11.2954H11.2955H11.2956H11.2957H11.2958H11.2959H11.296H11.2961H11.2962H11.2963H11.2964H11.2965H11.2966H11.2967H11.2968H11.2969H11.297H11.2971H11.2972H11.2973H11.2974H11.2975H11.2976H11.2977H11.2978H11.298H11.2981H11.2982H11.2983H11.2984H11.2985H11.2986H11.2987H11.2988H11.2989H11.299H11.2991H11.2992H11.2993H11.2994H11.2995H11.2996H11.2997H11.2998H11.2999H11.3H11.3001H11.3002H11.3003H11.3004H11.3005H11.3007H11.3008H11.3009H11.301H11.3011H11.3012H11.3013H11.3014H11.3015H11.3016H11.3017H11.3018H11.3019H11.302H11.3021H11.3022H11.3023H11.3025H11.3026H11.3027H11.3028H11.3029H11.303H11.3031H11.3032H11.3033H11.3034H11.3035H11.3036H11.3037H11.3038H11.304H11.3041H11.3042H11.3043H11.3044H11.3045H11.3046H11.3047H11.3048H11.3049H11.305H11.3051H11.3052H11.3054H11.3055H11.3056H11.3057H11.3058H11.3059H11.306H11.3061H11.3062H11.3063H11.3064H11.3066H11.3067H11.3068H11.3069H11.307H11.3071H11.3072H11.3073H11.3074H11.3075H11.3077H11.3078H11.3079H11.308H11.3081H11.3082H11.3083H11.3084H11.3085H11.3086H11.3088H11.3089H11.309H11.3091H11.3092H11.3093H11.3094H11.3095H11.3096H11.3098H11.3099H11.31H11.3101H11.3102H11.3103H11.3104H11.3105H11.3106H11.3108H11.3109H11.311H11.3111H11.3112H11.3113H11.3114H11.3115H11.3116H11.3118H11.3119H11.312H11.3121H11.3122H11.3123H11.3124H11.3125H11.3127H11.3128H11.3129H11.313H11.3131H11.3132H11.3133H11.3135H11.3136H11.3137H11.3138H11.3139H11.314H11.3141H11.3142H11.3144H11.3145H11.3146H11.3147H11.3148H11.3149H11.315H11.3152H11.3153H11.3154H11.3155H11.3156H11.3157H11.3158H11.3159H11.3161H11.3162H11.3163H11.3164H11.3165H11.3166H11.3167H11.3169H11.317H11.3171H11.3172H11.3173H11.3174H11.3175H11.3177H11.3178H11.3179H11.318H11.3181H11.3182H11.3184H11.3185H11.3186H11.3187H11.3188H11.3189H11.319H11.3192H11.3193H11.3194H11.3195H11.3196H11.3197H11.3198H11.32H11.3201H11.3202H11.3203H11.3204H11.3205H11.3207H11.3208H11.3209H11.321H11.3211H11.3212H11.3213H11.3215H11.3216H11.3217H11.3218H11.3219H11.322H11.3222H11.3223H11.3224H11.3225H11.3226H11.3227H11.3229H11.323H11.3231H11.3232H11.3233H11.3234H11.3236H11.3237H11.3238H11.3239H11.324H11.3241H11.3243H11.3244H11.3245H11.3246H11.3247H11.3248H11.3249H11.3251H11.3252H11.3253H11.3254H11.3255H11.3256H11.3258H11.3259H11.326H11.3261H11.3262H11.3263H11.3265H11.3266H11.3267H11.3268H11.3269H11.327H11.3272H11.3273H11.3274H11.3275H11.3276H11.3278H11.3279H11.328H11.3281H11.3282H11.3283H11.3285H11.3286H11.3287H11.3288H11.3289H11.329H11.3292H11.3293H11.3294H11.3295H11.3296H11.3297H11.3299H11.33H11.3301H11.3302H11.3303H11.3304H11.3306H11.3307H11.3308H11.3309H11.331H11.3311H11.3313H11.3314H11.3315H11.3316H11.3317H11.3318H11.332H11.3321H11.3322H11.3323H11.3324H11.3326H11.3327H11.3328H11.3329C11.6366 20.5997 11.8922 20.3757 11.932 20.0727L11.9321 20.0727L11.9323 20.0707L13.2655 8.0718C13.2655 8.07162 13.2655 8.07143 13.2656 8.07125C13.3055 7.74133 13.0643 7.44685 12.7383 7.4071L12.7383 7.40707L12.7359 7.40684C12.4098 7.37501 12.1137 7.60584 12.0736 7.93426L12.0736 7.93426L12.0735 7.93532L10.7403 19.9343C10.7403 19.9344 10.7403 19.9346 10.7402 19.9348C10.7003 20.2647 10.9415 20.5592 11.2675 20.599Z" fill="white" stroke="white" stroke-width="0.2"/>
<path d="M15.2675 20.599L15.2674 20.5997H15.2796H15.2796H15.2797H15.2798H15.2799H15.28H15.28H15.2801H15.2802H15.2803H15.2804H15.2804H15.2805H15.2806H15.2807H15.2808H15.2808H15.2809H15.281H15.2811H15.2812H15.2812H15.2813H15.2814H15.2815H15.2816H15.2817H15.2817H15.2818H15.2819H15.282H15.2821H15.2821H15.2822H15.2823H15.2824H15.2825H15.2826H15.2826H15.2827H15.2828H15.2829H15.283H15.2831H15.2832H15.2832H15.2833H15.2834H15.2835H15.2836H15.2837H15.2837H15.2838H15.2839H15.284H15.2841H15.2842H15.2843H15.2843H15.2844H15.2845H15.2846H15.2847H15.2848H15.2849H15.285H15.285H15.2851H15.2852H15.2853H15.2854H15.2855H15.2856H15.2857H15.2857H15.2858H15.2859H15.286H15.2861H15.2862H15.2863H15.2864H15.2865H15.2866H15.2866H15.2867H15.2868H15.2869H15.287H15.2871H15.2872H15.2873H15.2874H15.2875H15.2875H15.2876H15.2877H15.2878H15.2879H15.288H15.2881H15.2882H15.2883H15.2884H15.2885H15.2886H15.2886H15.2887H15.2888H15.2889H15.289H15.2891H15.2892H15.2893H15.2894H15.2895H15.2896H15.2897H15.2898H15.2899H15.29H15.2901H15.2901H15.2902H15.2903H15.2904H15.2905H15.2906H15.2907H15.2908H15.2909H15.291H15.2911H15.2912H15.2913H15.2914H15.2915H15.2916H15.2917H15.2918H15.2919H15.292H15.2921H15.2922H15.2923H15.2924H15.2924H15.2925H15.2926H15.2927H15.2928H15.2929H15.293H15.2931H15.2932H15.2933H15.2934H15.2935H15.2936H15.2937H15.2938H15.2939H15.294H15.2941H15.2942H15.2943H15.2944H15.2945H15.2946H15.2947H15.2948H15.2949H15.295H15.2951H15.2952H15.2953H15.2954H15.2955H15.2956H15.2957H15.2958H15.2959H15.296H15.2961H15.2962H15.2963H15.2964H15.2965H15.2966H15.2967H15.2968H15.2969H15.297H15.2971H15.2972H15.2973H15.2974H15.2975H15.2976H15.2977H15.2978H15.298H15.2981H15.2982H15.2983H15.2984H15.2985H15.2986H15.2987H15.2988H15.2989H15.299H15.2991H15.2992H15.2993H15.2994H15.2995H15.2996H15.2997H15.2998H15.2999H15.3H15.3001H15.3002H15.3003H15.3004H15.3005H15.3007H15.3008H15.3009H15.301H15.3011H15.3012H15.3013H15.3014H15.3015H15.3016H15.3017H15.3018H15.3019H15.302H15.3021H15.3022H15.3023H15.3025H15.3026H15.3027H15.3028H15.3029H15.303H15.3031H15.3032H15.3033H15.3034H15.3035H15.3036H15.3037H15.3038H15.304H15.3041H15.3042H15.3043H15.3044H15.3045H15.3046H15.3047H15.3048H15.3049H15.305H15.3051H15.3052H15.3054H15.3055H15.3056H15.3057H15.3058H15.3059H15.306H15.3061H15.3062H15.3063H15.3064H15.3066H15.3067H15.3068H15.3069H15.307H15.3071H15.3072H15.3073H15.3074H15.3075H15.3077H15.3078H15.3079H15.308H15.3081H15.3082H15.3083H15.3084H15.3085H15.3086H15.3088H15.3089H15.309H15.3091H15.3092H15.3093H15.3094H15.3095H15.3096H15.3098H15.3099H15.31H15.3101H15.3102H15.3103H15.3104H15.3105H15.3106H15.3108H15.3109H15.311H15.3111H15.3112H15.3113H15.3114H15.3115H15.3116H15.3118H15.3119H15.312H15.3121H15.3122H15.3123H15.3124H15.3125H15.3127H15.3128H15.3129H15.313H15.3131H15.3132H15.3133H15.3135H15.3136H15.3137H15.3138H15.3139H15.314H15.3141H15.3142H15.3144H15.3145H15.3146H15.3147H15.3148H15.3149H15.315H15.3152H15.3153H15.3154H15.3155H15.3156H15.3157H15.3158H15.3159H15.3161H15.3162H15.3163H15.3164H15.3165H15.3166H15.3167H15.3169H15.317H15.3171H15.3172H15.3173H15.3174H15.3175H15.3177H15.3178H15.3179H15.318H15.3181H15.3182H15.3184H15.3185H15.3186H15.3187H15.3188H15.3189H15.319H15.3192H15.3193H15.3194H15.3195H15.3196H15.3197H15.3198H15.32H15.3201H15.3202H15.3203H15.3204H15.3205H15.3207H15.3208H15.3209H15.321H15.3211H15.3212H15.3213H15.3215H15.3216H15.3217H15.3218H15.3219H15.322H15.3222H15.3223H15.3224H15.3225H15.3226H15.3227H15.3229H15.323H15.3231H15.3232H15.3233H15.3234H15.3236H15.3237H15.3238H15.3239H15.324H15.3241H15.3243H15.3244H15.3245H15.3246H15.3247H15.3248H15.3249H15.3251H15.3252H15.3253H15.3254H15.3255H15.3256H15.3258H15.3259H15.326H15.3261H15.3262H15.3263H15.3265H15.3266H15.3267H15.3268H15.3269H15.327H15.3272H15.3273H15.3274H15.3275H15.3276H15.3278H15.3279H15.328H15.3281H15.3282H15.3283H15.3285H15.3286H15.3287H15.3288H15.3289H15.329H15.3292H15.3293H15.3294H15.3295H15.3296H15.3297H15.3299H15.33H15.3301H15.3302H15.3303H15.3304H15.3306H15.3307H15.3308H15.3309H15.331H15.3311H15.3313H15.3314H15.3315H15.3316H15.3317H15.3318H15.332H15.3321H15.3322H15.3323H15.3324H15.3326H15.3327H15.3328H15.3329C15.6366 20.5997 15.8922 20.3757 15.932 20.0727L15.9321 20.0727L15.9323 20.0707L17.2655 8.0718C17.2655 8.07162 17.2655 8.07143 17.2656 8.07125C17.3055 7.74133 17.0643 7.44685 16.7383 7.4071L16.7383 7.40706L16.7357 7.40681C16.4024 7.37507 16.1136 7.60647 16.0736 7.93426L16.0736 7.93426L16.0735 7.93532L14.7403 19.9343C14.7403 19.9344 14.7403 19.9346 14.7402 19.9348C14.7003 20.2647 14.9415 20.5592 15.2675 20.599Z" fill="white" stroke="white" stroke-width="0.2"/>
<path d="M8.33398 12.6H20.334C20.6625 12.6 20.934 12.3286 20.934 12C20.934 11.6714 20.6625 11.4 20.334 11.4H8.33398C8.00542 11.4 7.73398 11.6714 7.73398 12C7.73398 12.3286 8.00542 12.6 8.33398 12.6Z" fill="white" stroke="white" stroke-width="0.2"/>
<path d="M7.66602 16.6H19.666C19.9946 16.6 20.266 16.3286 20.266 16C20.266 15.6714 19.9946 15.4 19.666 15.4H7.66602C7.33745 15.4 7.06602 15.6714 7.06602 16C7.06602 16.3286 7.33745 16.6 7.66602 16.6Z" fill="white" stroke="white" stroke-width="0.2"/>
</svg>
