<svg width="20" height="20" viewBox="0 0 20 20" fill="none" xmlns="http://www.w3.org/2000/svg">
<g clip-path="url(#clip0_1011_1129)">
<path fill-rule="evenodd" clip-rule="evenodd" d="M1.47727 7.77367C6.06633 11.5615 13.9338 11.5615 18.5229 7.77367C18.6495 7.66779 18.7291 7.51611 18.7443 7.35175C18.7595 7.18738 18.7091 7.02368 18.604 6.89637C18.499 6.76906 18.3478 6.68848 18.1835 6.67223C18.0193 6.65597 17.8552 6.70536 17.7273 6.80961C13.5663 10.244 6.43383 10.244 2.27289 6.80961C2.14491 6.70536 1.98089 6.65597 1.81663 6.67223C1.65236 6.68848 1.5012 6.76906 1.39613 6.89637C1.29107 7.02368 1.24063 7.18738 1.25583 7.35175C1.27103 7.51611 1.35064 7.66779 1.47727 7.77367V7.77367Z" fill="#C3C6CE"/>
<path fill-rule="evenodd" clip-rule="evenodd" d="M9.37488 10.2085V12.9166C9.37488 13.0824 9.44073 13.2413 9.55794 13.3586C9.67515 13.4758 9.83412 13.5416 9.99988 13.5416C10.1656 13.5416 10.3246 13.4758 10.4418 13.3586C10.559 13.2413 10.6249 13.0824 10.6249 12.9166V10.2085C10.6249 10.0427 10.559 9.88376 10.4418 9.76655C10.3246 9.64934 10.1656 9.58349 9.99988 9.58349C9.83412 9.58349 9.67515 9.64934 9.55794 9.76655C9.44073 9.88376 9.37488 10.0427 9.37488 10.2085ZM12.9011 9.9088L13.6021 12.5247C13.6475 12.682 13.7528 12.8151 13.8953 12.8956C14.0378 12.976 14.2062 12.9974 14.3643 12.955C14.5224 12.9127 14.6575 12.81 14.7407 12.6691C14.8239 12.5281 14.8485 12.3602 14.8093 12.2013L14.1083 9.58505C14.0633 9.42728 13.9581 9.29351 13.8154 9.21263C13.6727 9.13175 13.5038 9.11023 13.3454 9.15273C13.1869 9.19523 13.0515 9.29833 12.9684 9.43978C12.8853 9.58123 12.8611 9.74969 12.9011 9.9088V9.9088ZM16.2296 8.70662L17.5836 11.0522C17.6671 11.1946 17.8035 11.2982 17.9631 11.3404C18.1226 11.3826 18.2924 11.3599 18.4353 11.2774C18.5782 11.1949 18.6827 11.0592 18.726 10.8999C18.7692 10.7406 18.7477 10.5707 18.6661 10.4272L17.3121 8.08162C17.2286 7.93924 17.0922 7.83565 16.9326 7.79347C16.7731 7.75128 16.6033 7.77392 16.4604 7.85644C16.3175 7.93897 16.213 8.07467 16.1697 8.23395C16.1265 8.39323 16.148 8.56314 16.2296 8.70662V8.70662ZM5.89145 9.58505L5.19051 12.2013C5.15122 12.3602 5.17582 12.5281 5.25903 12.6691C5.34223 12.81 5.4774 12.9127 5.63549 12.955C5.79357 12.9974 5.96197 12.976 6.10449 12.8956C6.24701 12.8151 6.35228 12.682 6.3977 12.5247L7.09863 9.9088C7.13864 9.74969 7.11448 9.58123 7.03137 9.43978C6.94826 9.29833 6.81286 9.19523 6.6544 9.15273C6.49593 9.11023 6.32711 9.13175 6.18437 9.21263C6.04163 9.29351 5.93642 9.42728 5.89145 9.58505V9.58505ZM2.68769 8.08162L1.33363 10.4272C1.25206 10.5707 1.23055 10.7406 1.27379 10.8999C1.31703 11.0592 1.42152 11.1949 1.56445 11.2774C1.70738 11.3599 1.87715 11.3826 2.03671 11.3404C2.19627 11.2982 2.33266 11.1946 2.41613 11.0522L3.77019 8.70662C3.85177 8.56314 3.87328 8.39323 3.83004 8.23395C3.7868 8.07467 3.68231 7.93897 3.53938 7.85644C3.39645 7.77392 3.22668 7.75128 3.06712 7.79347C2.90756 7.83565 2.77116 7.93924 2.68769 8.08162V8.08162Z" fill="#C3C6CE"/>
</g>
<defs>
<clipPath id="clip0_1011_1129">
<rect width="20" height="20" fill="white"/>
</clipPath>
</defs>
</svg>
