<svg width="20" height="20" viewBox="0 0 20 20" fill="none" xmlns="http://www.w3.org/2000/svg">
<g clip-path="url(#clip0_1011_1124)">
<path fill-rule="evenodd" clip-rule="evenodd" d="M1.47727 12.2263C6.06633 8.43852 13.9338 8.43852 18.5229 12.2263C18.6495 12.3322 18.7291 12.4839 18.7443 12.6483C18.7595 12.8126 18.7091 12.9763 18.604 13.1036C18.499 13.2309 18.3478 13.3115 18.1835 13.3278C18.0193 13.344 17.8552 13.2946 17.7273 13.1904C13.5663 9.75602 6.43383 9.75602 2.27289 13.1904C2.14491 13.2946 1.98089 13.344 1.81663 13.3278C1.65236 13.3115 1.5012 13.2309 1.39613 13.1036C1.29107 12.9763 1.24063 12.8126 1.25583 12.6483C1.27103 12.4839 1.35064 12.3322 1.47727 12.2263V12.2263Z" fill="#C3C6CE"/>
<path fill-rule="evenodd" clip-rule="evenodd" d="M9.37488 9.79151V7.08338C9.37488 6.91762 9.44073 6.75865 9.55794 6.64144C9.67515 6.52423 9.83412 6.45838 9.99988 6.45838C10.1656 6.45838 10.3246 6.52423 10.4418 6.64144C10.559 6.75865 10.6249 6.91762 10.6249 7.08338V9.79151C10.6249 9.95727 10.559 10.1162 10.4418 10.2335C10.3246 10.3507 10.1656 10.4165 9.99988 10.4165C9.83412 10.4165 9.67515 10.3507 9.55794 10.2335C9.44073 10.1162 9.37488 9.95727 9.37488 9.79151ZM12.9011 10.0912L13.6021 7.47526C13.6475 7.31802 13.7528 7.18487 13.8953 7.10441C14.0378 7.02395 14.2062 7.00261 14.3643 7.04497C14.5224 7.08732 14.6575 7.19 14.7407 7.33093C14.8239 7.47187 14.8485 7.63982 14.8093 7.7987L14.1083 10.4149C14.0633 10.5727 13.9581 10.7065 13.8154 10.7874C13.6727 10.8683 13.5038 10.8898 13.3454 10.8473C13.1869 10.8048 13.0515 10.7017 12.9684 10.5602C12.8853 10.4188 12.8611 10.2503 12.9011 10.0912ZM16.2296 11.2934L17.5836 8.94776C17.6671 8.80538 17.8035 8.7018 17.9631 8.65961C18.1226 8.61742 18.2924 8.64006 18.4353 8.72259C18.5782 8.80511 18.6827 8.94082 18.726 9.10009C18.7692 9.25937 18.7477 9.42928 18.6661 9.57276L17.3121 11.9184C17.2286 12.0608 17.0922 12.1643 16.9326 12.2065C16.7731 12.2487 16.6033 12.2261 16.4604 12.1436C16.3175 12.061 16.213 11.9253 16.1697 11.766C16.1265 11.6068 16.148 11.4369 16.2296 11.2934ZM5.89145 10.4149L5.19051 7.7987C5.15122 7.63982 5.17583 7.47187 5.25903 7.33093C5.34223 7.19 5.4774 7.08732 5.63549 7.04497C5.79357 7.00261 5.96197 7.02395 6.10449 7.10441C6.24701 7.18487 6.35228 7.31802 6.3977 7.47526L7.09863 10.0912C7.13864 10.2503 7.11448 10.4188 7.03137 10.5602C6.94826 10.7017 6.81286 10.8048 6.6544 10.8473C6.49593 10.8898 6.32711 10.8683 6.18437 10.7874C6.04163 10.7065 5.93642 10.5727 5.89145 10.4149ZM2.68769 11.9184L1.33363 9.57276C1.25206 9.42928 1.23055 9.25937 1.27379 9.10009C1.31703 8.94082 1.42152 8.80511 1.56445 8.72259C1.70738 8.64006 1.87715 8.61742 2.03671 8.65961C2.19627 8.7018 2.33266 8.80538 2.41613 8.94776L3.77019 11.2934C3.85177 11.4369 3.87328 11.6068 3.83004 11.766C3.7868 11.9253 3.68231 12.061 3.53938 12.1436C3.39645 12.2261 3.22668 12.2487 3.06712 12.2065C2.90756 12.1643 2.77116 12.0608 2.68769 11.9184Z" fill="#C3C6CE"/>
<circle cx="10" cy="15" r="2.5" stroke="#C3C6CE"/>
</g>
<defs>
<clipPath id="clip0_1011_1124">
<rect width="20" height="20" fill="white" transform="matrix(1 0 0 -1 0 20)"/>
</clipPath>
</defs>
</svg>
