<svg width="47" height="42" viewBox="0 0 47 42" fill="none" xmlns="http://www.w3.org/2000/svg">
    <rect x="0.5" y="0.5" width="46" height="41" rx="3.5" fill="#7B68EE" fill-opacity="0.2"
        stroke="#7B68EE" />
    <path
        d="M17.5815 29.5278C17.7912 29.6851 18.0233 29.7375 18.2778 29.6851C18.5324 29.6401 18.8094 29.5054 19.1089 29.2808L23.6797 25.9229L28.2617 29.2808C28.5612 29.5054 28.8382 29.6401 29.0928 29.6851C29.3473 29.7375 29.5757 29.6851 29.7778 29.5278C29.98 29.3706 30.0998 29.1685 30.1372 28.9214C30.1746 28.6668 30.1335 28.3636 30.0137 28.0117L28.2056 22.6323L32.8213 19.3193C33.1208 19.1097 33.3304 18.8926 33.4502 18.668C33.5775 18.4359 33.5999 18.1963 33.5176 17.9492C33.4352 17.7096 33.278 17.5337 33.0459 17.4214C32.8213 17.3091 32.5218 17.2529 32.1475 17.2529L26.4873 17.2979L24.769 11.8848C24.6567 11.5329 24.5107 11.2671 24.3311 11.0874C24.1514 10.9002 23.9342 10.8066 23.6797 10.8066C23.4251 10.8066 23.208 10.9002 23.0283 11.0874C22.8561 11.2671 22.7101 11.5329 22.5903 11.8848L20.8721 17.2979L15.2119 17.2529C14.8451 17.2529 14.5456 17.3091 14.3135 17.4214C14.0814 17.5337 13.9242 17.7096 13.8418 17.9492C13.7594 18.1963 13.7782 18.4359 13.8979 18.668C14.0252 18.8926 14.2386 19.1097 14.5381 19.3193L19.1538 22.6323L17.3457 28.0117C17.2259 28.3636 17.1847 28.6668 17.2222 28.9214C17.2596 29.1685 17.3794 29.3706 17.5815 29.5278Z"
        fill="#7B68EE" />
</svg>
