<svg width="13" height="14" viewBox="0 0 13 14" fill="none" xmlns="http://www.w3.org/2000/svg">
<g clip-path="url(#clip0_2450_20086)">
<path d="M6.5 13.5C10.0902 13.5 13 10.5902 13 7C13 3.40977 10.0902 0.5 6.5 0.5C2.90977 0.5 0 3.40977 0 7C0 10.5902 2.90977 13.5 6.5 13.5ZM6.5 3.75C6.8377 3.75 7.10938 4.02168 7.10938 4.35938V7.20312C7.10938 7.54082 6.8377 7.8125 6.5 7.8125C6.1623 7.8125 5.89062 7.54082 5.89062 7.20312V4.35938C5.89062 4.02168 6.1623 3.75 6.5 3.75ZM7.3125 9.4375C7.3125 9.88691 6.94941 10.25 6.5 10.25C6.05059 10.25 5.6875 9.88691 5.6875 9.4375C5.6875 8.98809 6.05059 8.625 6.5 8.625C6.94941 8.625 7.3125 8.98809 7.3125 9.4375Z" fill="#F82058"/>
</g>
<defs>
<clipPath id="clip0_2450_20086">
<rect width="13" height="13" fill="white" transform="translate(0 0.5)"/>
</clipPath>
</defs>
</svg>
