<svg width="13" height="14" viewBox="0 0 13 14" fill="none" xmlns="http://www.w3.org/2000/svg">
<path d="M6.5 13.5C10.0902 13.5 13 10.5902 13 7C13 3.40977 10.0902 0.5 6.5 0.5C2.90977 0.5 0 3.40977 0 7C0 10.5902 2.90977 13.5 6.5 13.5ZM4.44336 4.94336C4.68203 4.70469 5.06797 4.70469 5.3041 4.94336L6.49746 6.13672L7.69082 4.94336C7.92949 4.70469 8.31543 4.70469 8.55156 4.94336C8.78769 5.18203 8.79023 5.56797 8.55156 5.8041L7.3582 6.99746L8.55156 8.19082C8.79023 8.42949 8.79023 8.81543 8.55156 9.05156C8.31289 9.28769 7.92695 9.29023 7.69082 9.05156L6.49746 7.8582L5.3041 9.05156C5.06543 9.29023 4.67949 9.29023 4.44336 9.05156C4.20723 8.81289 4.20469 8.42695 4.44336 8.19082L5.63672 6.99746L4.44336 5.8041C4.20469 5.56543 4.20469 5.17949 4.44336 4.94336Z" fill="#F82058"/>
</svg>
