<svg width="12" height="12" viewBox="0 0 12 12" fill="none" xmlns="http://www.w3.org/2000/svg">
<path d="M10.6574 6.75234C10.3579 6.66445 10.0466 6.83658 9.96016 7.13461C9.45274 8.90391 7.82383 10.125 5.9793 10.125C4.42 10.125 3.00742 9.22781 2.31133 7.875H4.66445C4.975 7.875 5.22695 7.62305 5.22695 7.3125C5.22695 7.00195 4.99727 6.75 4.68555 6.75H0.935547C0.625 6.75 0.373047 7.00195 0.373047 7.3125V11.0625C0.373047 11.373 0.625 11.625 0.935547 11.625C1.24609 11.625 1.49805 11.373 1.49805 11.0625V8.66953C2.43086 10.2281 4.12773 11.25 5.9793 11.25C8.29961 11.25 10.3715 9.69586 11.0207 7.46953C11.1285 7.15078 10.9551 6.86016 10.6574 6.75234ZM11.0629 0.375C10.7535 0.375 10.5004 0.626953 10.5004 0.9375V3.33047C9.56992 1.7707 7.8707 0.75 6.00039 0.75C3.68008 0.75 1.60656 2.30414 0.959219 4.53047C0.872031 4.82812 1.04336 5.13984 1.34148 5.22656C1.64242 5.31518 1.95297 5.1416 2.03875 4.8443C2.54805 3.09609 4.17695 1.875 6.00039 1.875C7.55969 1.875 8.97227 2.77219 9.66836 4.125H7.31289C7.00352 4.125 6.75039 4.37813 6.75039 4.6875C6.75039 4.99687 7.00352 5.25 7.31289 5.25H11.0629C11.3734 5.25 11.6254 4.99805 11.6254 4.6875V0.9375C11.6254 0.626953 11.3746 0.375 11.0629 0.375Z" fill="black"/>
</svg>
