<svg width="30" height="30" viewBox="0 0 30 30" fill="none" xmlns="http://www.w3.org/2000/svg">
<g filter="url(#filter0_d_6789_14509)">
<rect x="2" y="1" width="26" height="26" rx="13" fill="white"/>
</g>
<g clip-path="url(#clip0_6789_14509)">
<path d="M15.0002 8C14.6677 8 14.4002 8.28159 14.4002 8.6051V20.7831C14.4002 21.1315 14.6677 21.4118 14.9777 21.4118C15.2877 21.4118 15.6002 21.1315 15.6002 20.7831V8.6051C15.6002 8.28159 15.3327 8 15.0002 8ZM12.6002 10.5147C12.2677 10.5147 12.0002 10.795 12.0002 11.1198V18.2448C12.0002 18.6168 12.2677 18.8971 12.5777 18.8971C12.8877 18.8971 13.2002 18.6168 13.2002 18.2684V11.1198C13.2002 10.795 12.9327 10.5147 12.6002 10.5147ZM17.4002 11.3529C17.0677 11.3529 16.8002 11.6332 16.8002 11.958V17.4066C16.8002 17.7785 17.0677 18.0588 17.3777 18.0588C17.6877 18.0588 18.0002 17.7785 18.0002 17.4301V11.958C18.0002 11.6332 17.7327 11.3529 17.4002 11.3529ZM19.8002 9.67647C19.4689 9.67647 19.2002 9.95806 19.2002 10.2816V19.1066C19.2002 19.455 19.4677 19.7353 19.7777 19.7353C20.1327 19.7353 20.4002 19.455 20.4002 19.1066V10.2816C20.4002 9.95806 20.1327 9.67647 19.8002 9.67647ZM10.2002 13.0294C9.8677 13.0294 9.6002 13.3097 9.6002 13.6345V15.7537C9.6002 16.1021 9.8677 16.3824 10.1777 16.3824C10.4877 16.3824 10.8002 16.1021 10.8002 15.7537V13.6345C10.8002 13.3097 10.5327 13.0294 10.2002 13.0294ZM7.8002 13.8676C7.46895 13.8676 7.2002 14.1479 7.2002 14.4727V14.9154C7.2002 15.2638 7.46895 15.5441 7.7777 15.5441C8.08645 15.5441 8.4002 15.2638 8.4002 14.9154V14.4727C8.4002 14.1479 8.13145 13.8676 7.8002 13.8676ZM22.2002 13.8676C21.8689 13.8676 21.6002 14.1492 21.6002 14.4727V14.9154C21.6002 15.2638 21.8677 15.5441 22.2002 15.5441C22.5327 15.5441 22.8002 15.2625 22.8002 14.939V14.4727C22.8002 14.1479 22.5327 13.8676 22.2002 13.8676Z" fill="#7B68EE"/>
</g>
<defs>
<filter id="filter0_d_6789_14509" x="0" y="0" width="30" height="30" filterUnits="userSpaceOnUse" color-interpolation-filters="sRGB">
<feFlood flood-opacity="0" result="BackgroundImageFix"/>
<feColorMatrix in="SourceAlpha" type="matrix" values="0 0 0 0 0 0 0 0 0 0 0 0 0 0 0 0 0 0 127 0" result="hardAlpha"/>
<feOffset dy="1"/>
<feGaussianBlur stdDeviation="1"/>
<feComposite in2="hardAlpha" operator="out"/>
<feColorMatrix type="matrix" values="0 0 0 0 0 0 0 0 0 0 0 0 0 0 0 0 0 0 0.1 0"/>
<feBlend mode="normal" in2="BackgroundImageFix" result="effect1_dropShadow_6789_14509"/>
<feBlend mode="normal" in="SourceGraphic" in2="effect1_dropShadow_6789_14509" result="shape"/>
</filter>
<clipPath id="clip0_6789_14509">
<rect width="16" height="13.4118" fill="white" transform="translate(7 8)"/>
</clipPath>
</defs>
</svg>
