<svg width="32" height="32" viewBox="0 0 32 32" fill="none" xmlns="http://www.w3.org/2000/svg">
<g filter="url(#filter0_d_6789_14540)">
<rect x="2" y="1" width="28" height="28" rx="14" fill="white"/>
</g>
<g clip-path="url(#clip0_6789_14540)">
<path d="M12.6667 8C11.7474 8 11 8.7474 11 9.66667V19.6667C11 20.5859 11.7474 21.3333 12.6667 21.3333H19.3333C20.2526 21.3333 21 20.5859 21 19.6667V12.1667H17.6667C17.2057 12.1667 16.8333 11.7943 16.8333 11.3333V8H12.6667ZM17.6667 8V11.3333H21L17.6667 8ZM13.9167 14.6667H18.0833C18.3125 14.6667 18.5 14.8542 18.5 15.0833C18.5 15.3125 18.3125 15.5 18.0833 15.5H13.9167C13.6875 15.5 13.5 15.3125 13.5 15.0833C13.5 14.8542 13.6875 14.6667 13.9167 14.6667ZM13.9167 16.3333H18.0833C18.3125 16.3333 18.5 16.5208 18.5 16.75C18.5 16.9792 18.3125 17.1667 18.0833 17.1667H13.9167C13.6875 17.1667 13.5 16.9792 13.5 16.75C13.5 16.5208 13.6875 16.3333 13.9167 16.3333ZM13.9167 18H18.0833C18.3125 18 18.5 18.1875 18.5 18.4167C18.5 18.6458 18.3125 18.8333 18.0833 18.8333H13.9167C13.6875 18.8333 13.5 18.6458 13.5 18.4167C13.5 18.1875 13.6875 18 13.9167 18Z" fill="#7B68EE"/>
</g>
<defs>
<filter id="filter0_d_6789_14540" x="0" y="0" width="32" height="32" filterUnits="userSpaceOnUse" color-interpolation-filters="sRGB">
<feFlood flood-opacity="0" result="BackgroundImageFix"/>
<feColorMatrix in="SourceAlpha" type="matrix" values="0 0 0 0 0 0 0 0 0 0 0 0 0 0 0 0 0 0 127 0" result="hardAlpha"/>
<feOffset dy="1"/>
<feGaussianBlur stdDeviation="1"/>
<feComposite in2="hardAlpha" operator="out"/>
<feColorMatrix type="matrix" values="0 0 0 0 0 0 0 0 0 0 0 0 0 0 0 0 0 0 0.1 0"/>
<feBlend mode="normal" in2="BackgroundImageFix" result="effect1_dropShadow_6789_14540"/>
<feBlend mode="normal" in="SourceGraphic" in2="effect1_dropShadow_6789_14540" result="shape"/>
</filter>
<clipPath id="clip0_6789_14540">
<rect width="10" height="13.3333" fill="white" transform="translate(11 8)"/>
</clipPath>
</defs>
</svg>
