<svg width="44" height="44" viewBox="0 0 44 44" fill="none" xmlns="http://www.w3.org/2000/svg">
<rect x="0.5" y="0.5" width="43" height="43" rx="5.5" fill="white" stroke="#E5E4E4"/>
<path d="M20.1443 16.627C20.931 14.666 21.3243 13.6855 22.0006 13.6855C22.6769 13.6855 23.0702 14.666 23.8568 16.627L23.8934 16.7184C24.3378 17.8262 24.56 18.3802 25.0129 18.7169C25.4657 19.0535 26.0602 19.1068 27.2491 19.2133L27.464 19.2325C29.4099 19.4068 30.3828 19.4939 30.5909 20.1129C30.7991 20.7319 30.0766 21.3892 28.6316 22.7039L28.1493 23.1427C27.4178 23.8082 27.052 24.1409 26.8815 24.5771C26.8497 24.6584 26.8233 24.7418 26.8024 24.8266C26.6903 25.2813 26.7975 25.764 27.0117 26.7295L27.0783 27.03C27.472 28.8043 27.6688 29.6915 27.3252 30.0741C27.1967 30.2171 27.0298 30.3201 26.8444 30.3707C26.3482 30.5061 25.6437 29.932 24.2348 28.7839C23.3096 28.0301 22.847 27.6531 22.3159 27.5683C22.107 27.535 21.8941 27.535 21.6852 27.5683C21.1541 27.6531 20.6915 28.0301 19.7664 28.7839C18.3574 29.932 17.6529 30.5061 17.1567 30.3707C16.9713 30.3201 16.8044 30.2171 16.676 30.0741C16.3323 29.6915 16.5292 28.8043 16.9228 27.03L16.9895 26.7295C17.2037 25.764 17.3108 25.2813 17.1988 24.8266C17.1779 24.7418 17.1514 24.6584 17.1196 24.5771C16.9491 24.1409 16.5834 23.8082 15.8519 23.1427L15.3696 22.7039C13.9246 21.3892 13.202 20.7319 13.4102 20.1129C13.6184 19.4939 14.5913 19.4068 16.5371 19.2325L16.7521 19.2133C17.941 19.1068 18.5354 19.0535 18.9883 18.7169C19.4411 18.3802 19.6633 17.8262 20.1077 16.7184L20.1443 16.627Z" stroke="black" stroke-width="1.25"/>
</svg>
