<svg width="26" height="26" viewBox="0 0 26 26" fill="none" xmlns="http://www.w3.org/2000/svg">
<path fill-rule="evenodd" clip-rule="evenodd" d="M10.8562 13.7303L7.85892 12.7312C5.50571 11.9468 4.3291 11.5546 4.3291 10.8338C4.3291 10.1131 5.50571 9.72087 7.85892 8.93647L17.8721 5.59875C19.5279 5.04682 20.3558 4.77085 20.7928 5.20787C21.2298 5.64488 20.9538 6.47278 20.4019 8.12857L17.0642 18.1417C16.2798 20.495 15.8876 21.6716 15.1668 21.6716C14.4461 21.6716 14.0539 20.495 13.2695 18.1417L12.2704 15.1445L16.9573 10.4576C17.3478 10.0671 17.3478 9.43392 16.9573 9.0434C16.5667 8.65287 15.9336 8.65287 15.5431 9.0434L10.8562 13.7303Z" fill="white"/>
</svg>
