<svg width="16" height="16" viewBox="0 0 16 16" fill="none" xmlns="http://www.w3.org/2000/svg">
<path d="M15.75 2.8125C15.75 4.36641 14.4914 5.625 12.9375 5.625C12.1324 5.625 11.4047 5.2875 10.8949 4.71445L5.58633 7.40039C5.61094 7.55508 5.625 7.71328 5.625 7.875C5.625 8.03672 5.61094 8.19492 5.58633 8.34961L10.8949 11.0039C11.4047 10.4625 12.1324 10.125 12.9375 10.125C14.4914 10.125 15.75 11.3836 15.75 12.9375C15.75 14.4914 14.4914 15.75 12.9375 15.75C11.3836 15.75 10.125 14.4914 10.125 12.9375C10.125 12.5965 10.1848 12.2379 10.2973 11.9637L5.175 9.4043C4.67227 10.1777 3.80391 10.6875 2.8125 10.6875C1.2593 10.6875 0 9.42891 0 7.875C0 6.32109 1.2593 5.0625 2.8125 5.0625C3.80391 5.0625 4.67227 5.57227 5.175 6.3457L10.2973 3.78633C10.1848 3.48047 10.125 3.15352 10.125 2.8125C10.125 1.2593 11.3836 0 12.9375 0C14.4914 0 15.75 1.2593 15.75 2.8125ZM2.78086 9.5625C3.74414 9.5625 4.46836 8.80664 4.46836 7.875C4.46836 6.94336 3.74414 6.1875 2.78086 6.1875C1.88051 6.1875 1.09336 6.94336 1.09336 7.875C1.09336 8.80664 1.88051 9.5625 2.78086 9.5625ZM12.9375 1.125C12.0059 1.125 11.25 1.88051 11.25 2.8125C11.25 3.74414 12.0059 4.5 12.9375 4.5C13.8691 4.5 14.625 3.74414 14.625 2.8125C14.625 1.88051 13.8691 1.125 12.9375 1.125ZM12.9375 14.625C13.8691 14.625 14.625 13.8691 14.625 12.9375C14.625 12.0059 13.8691 11.25 12.9375 11.25C12.0059 11.25 11.25 12.0059 11.25 12.9375C11.25 13.8691 12.0059 14.625 12.9375 14.625Z" fill="black"/>
</svg>
