<svg width="20" height="19" viewBox="0 0 20 19" fill="none" xmlns="http://www.w3.org/2000/svg">
<path d="M8.14435 3.62704C8.93095 1.66605 9.32425 0.685547 10.0006 0.685547C10.6769 0.685547 11.0702 1.66605 11.8568 3.62705L11.8934 3.71836C12.3378 4.82623 12.56 5.38016 13.0129 5.71685C13.4657 6.05354 14.0602 6.10678 15.2491 6.21326L15.464 6.2325C17.4099 6.40677 18.3828 6.4939 18.5909 7.11288C18.7991 7.73187 18.0766 8.38921 16.6316 9.7039L16.1493 10.1427C15.4178 10.8082 15.052 11.1409 14.8815 11.5771C14.8497 11.6584 14.8233 11.7418 14.8024 11.8266C14.6903 12.2813 14.7975 12.764 15.0117 13.7295L15.0783 14.03C15.472 15.8043 15.6688 16.6915 15.3252 17.0741C15.1967 17.2171 15.0298 17.3201 14.8444 17.3707C14.3482 17.5061 13.6437 16.932 12.2348 15.7839C11.3096 15.0301 10.847 14.6531 10.3159 14.5683C10.107 14.535 9.89414 14.535 9.68524 14.5683C9.15413 14.6531 8.69155 15.0301 7.76638 15.7839C6.35742 16.932 5.65295 17.5061 5.15675 17.3707C4.97133 17.3201 4.80442 17.2171 4.676 17.0741C4.33232 16.6915 4.52915 15.8043 4.92283 14.03L4.9895 13.7295C5.20371 12.764 5.31082 12.2813 5.19876 11.8266C5.17786 11.7418 5.15142 11.6584 5.11962 11.5771C4.94915 11.1409 4.5834 10.8082 3.85189 10.1427L3.36961 9.7039C1.92456 8.38921 1.20204 7.73187 1.41022 7.11288C1.6184 6.4939 2.59131 6.40677 4.53712 6.2325L4.75206 6.21326C5.94097 6.10678 6.53543 6.05354 6.98828 5.71685C7.44113 5.38016 7.66333 4.82623 8.10772 3.71836L8.14435 3.62704Z" stroke="black" stroke-width="1.25"/>
</svg>
