<svg width="24" height="24" viewBox="0 0 24 24" fill="none" xmlns="http://www.w3.org/2000/svg">
<rect x="0.5" y="0.5" width="23" height="23" rx="4.5" stroke="#EBECED"/>
<g clip-path="url(#clip0_5685_18121)">
<path d="M12.0003 17.9765C10.22 17.9765 8.43978 17.9765 6.65953 17.9765C6.20765 17.9765 6.00011 17.7717 6.00011 17.3252C6.00011 14.6729 5.99909 12.0206 6.00318 9.36796C6.00318 9.24017 6.02908 9.10454 6.07577 8.98526C6.41076 8.13194 6.75427 7.28203 7.09573 6.43143C7.22659 6.10496 7.38335 6 7.73811 6C10.5789 6 13.4196 6 16.2601 6C16.6155 6 16.773 6.10496 16.9031 6.43007C17.246 7.28509 17.5905 8.1391 17.9275 8.99617C17.9715 9.1076 17.9964 9.23471 17.9964 9.35433C18.0001 12.0152 17.9994 14.676 17.9991 17.3372C17.9991 17.7662 17.7864 17.9765 17.3533 17.9765C15.5693 17.9765 13.7846 17.9765 12.0003 17.9765ZM7.09641 16.8768C10.373 16.8768 13.6367 16.8768 16.8987 16.8768C16.8987 14.5192 16.8987 12.1709 16.8987 9.82359C13.6268 9.82359 10.3635 9.82359 7.09641 9.82359C7.09641 12.1787 7.09641 14.5237 7.09641 16.8768ZM7.35677 8.71502C10.4606 8.71502 13.5444 8.71502 16.638 8.71502C16.6223 8.66935 16.6114 8.63357 16.5975 8.59881C16.4114 8.13398 16.2222 7.67052 16.041 7.20365C16.0055 7.11232 15.9588 7.08778 15.8641 7.08812C14.8721 7.09187 13.88 7.09051 12.888 7.09051C11.3126 7.09051 9.73748 7.09221 8.16204 7.0871C8.03766 7.08676 7.98313 7.12731 7.94462 7.23807C7.88192 7.41834 7.80456 7.59316 7.73368 7.77071C7.60963 8.0815 7.48559 8.39196 7.35677 8.71502Z" fill="#717171"/>
<path d="M9.82861 15.7936C9.45409 15.7936 9.07991 15.7987 8.70573 15.7918C8.43958 15.7871 8.22148 15.5836 8.19183 15.3311C8.15911 15.052 8.31417 14.809 8.57623 14.7324C8.61645 14.7204 8.65973 14.7133 8.70164 14.7129C9.44625 14.7119 10.1905 14.7085 10.9351 14.714C11.2105 14.716 11.419 14.9222 11.4531 15.1996C11.4841 15.45 11.3172 15.7005 11.064 15.7714C10.9958 15.7905 10.9215 15.7932 10.8496 15.7936C10.5092 15.7956 10.1691 15.7946 9.82861 15.7946C9.82861 15.7942 9.82861 15.7939 9.82861 15.7936Z" fill="#717171"/>
</g>
<defs>
<clipPath id="clip0_5685_18121">
<rect width="12" height="11.9765" fill="white" transform="translate(6 6)"/>
</clipPath>
</defs>
</svg>
