<svg width="24" height="24" viewBox="0 0 24 24" fill="none" xmlns="http://www.w3.org/2000/svg">
<rect x="0.5" y="0.5" width="23" height="23" rx="4.5" stroke="#EBECED"/>
<path d="M9.82861 15.7936C9.45409 15.7936 9.07991 15.7987 8.70573 15.7918C8.43958 15.7871 8.22148 15.5836 8.19183 15.3311C8.15911 15.052 8.31417 14.809 8.57623 14.7324C8.61645 14.7204 8.65973 14.7133 8.70164 14.7129C9.44625 14.7119 10.1905 14.7085 10.9351 14.714C11.2105 14.716 11.419 14.9222 11.4531 15.1996C11.4841 15.45 11.3172 15.7005 11.064 15.7714C10.9958 15.7905 10.9215 15.7932 10.8496 15.7936C10.5092 15.7956 10.1691 15.7946 9.82861 15.7946C9.82861 15.7942 9.82861 15.7939 9.82861 15.7936Z" fill="#717171"/>
<circle cx="12" cy="12" r="8" fill="white"/>
<g clip-path="url(#clip0_5685_18110)">
<path d="M12.0026 18.6654C15.6849 18.6654 18.6693 15.681 18.6693 11.9987C18.6693 8.31641 15.6849 5.33203 12.0026 5.33203C8.32031 5.33203 5.33594 8.31641 5.33594 11.9987C5.33594 15.681 8.32031 18.6654 12.0026 18.6654ZM14.9453 10.7747L11.612 14.1081C11.3672 14.3529 10.9714 14.3529 10.7292 14.1081L9.0625 12.4414C8.81771 12.1966 8.81771 11.8008 9.0625 11.5586C9.30729 11.3164 9.70312 11.3138 9.94531 11.5586L11.1693 12.7826L14.0599 9.88932C14.3047 9.64453 14.7005 9.64453 14.9427 9.88932C15.1849 10.1341 15.1875 10.5299 14.9427 10.7721L14.9453 10.7747Z" fill="#00B000"/>
</g>
<defs>
<clipPath id="clip0_5685_18110">
<rect width="13.3333" height="13.3333" fill="white" transform="translate(5.33594 5.33203)"/>
</clipPath>
</defs>
</svg>
