<svg width="28" height="27" viewBox="0 0 28 27" fill="none" xmlns="http://www.w3.org/2000/svg">
<path fill-rule="evenodd" clip-rule="evenodd" d="M26.6061 4.30803C27.3327 5.73411 27.3327 7.60095 27.3327 11.3346V12.9136C27.3327 15.1658 27.3327 16.2919 27.0633 17.2104C26.4245 19.3892 24.7206 21.0931 22.5418 21.732C21.6233 22.0013 20.4972 22.0013 18.245 22.0013H17.5132L17.4264 22.0014C16.0661 22.0102 14.741 22.4348 13.629 23.2184L13.5583 23.2687L10.0773 25.7551C8.88401 26.6075 7.31592 25.3765 7.86055 24.015C8.24635 23.0505 7.53603 22.0013 6.49723 22.0013H5.69489C2.91752 22.0013 0.666016 19.7498 0.666016 16.9724V11.3346C0.666016 7.60095 0.666016 5.73411 1.39264 4.30803C2.03179 3.05362 3.05167 2.03375 4.30608 1.39459C5.73216 0.667969 7.599 0.667969 11.3327 0.667969H16.666C20.3997 0.667969 22.2665 0.667969 23.6926 1.39459C24.947 2.03375 25.9669 3.05362 26.6061 4.30803ZM8.66602 7.66797C8.11373 7.66797 7.66602 8.11568 7.66602 8.66797C7.66602 9.22025 8.11373 9.66797 8.66602 9.66797L13.9993 9.66797C14.5516 9.66797 14.9993 9.22025 14.9993 8.66797C14.9993 8.11568 14.5516 7.66797 13.9993 7.66797L8.66602 7.66797ZM8.66602 13.0013C8.11373 13.0013 7.66602 13.449 7.66602 14.0013C7.66602 14.5536 8.11373 15.0013 8.66602 15.0013H19.3327C19.885 15.0013 20.3327 14.5536 20.3327 14.0013C20.3327 13.449 19.885 13.0013 19.3327 13.0013H8.66602Z" fill="url(#paint0_linear_1272_6719)"/>
<defs>
<linearGradient id="paint0_linear_1272_6719" x1="27.3327" y1="13.3522" x2="0.666016" y2="13.3522" gradientUnits="userSpaceOnUse">
<stop stop-color="#F63E8B"/>
<stop offset="1" stop-color="#7B68EE"/>
</linearGradient>
</defs>
</svg>
