<svg width="30" height="30" viewBox="0 0 30 30" fill="none" xmlns="http://www.w3.org/2000/svg">
<circle cx="15" cy="15" r="15" fill="white"/>
<circle cx="15" cy="15" r="14.5" stroke="#7F7F88" stroke-opacity="0.7" stroke-dasharray="2 2"/>
<g clip-path="url(#clip0_1967_19865)">
<path d="M18.0801 11.7672C18.3379 11.7672 18.5488 12.0088 18.5488 12.2444C18.5488 12.5336 18.3379 12.7215 18.0801 12.7215H12.4551C12.1961 12.7215 11.9863 12.5336 11.9863 12.2444C11.9863 12.0088 12.1961 11.7672 12.4551 11.7672H18.0801ZM11.9863 17.9967C11.9863 17.7342 12.1961 17.5195 12.4551 17.5195H18.0801C18.3379 17.5195 18.5488 17.7342 18.5488 17.9967C18.5488 18.2591 18.3379 18.4738 18.0801 18.4738H12.4551C12.1961 18.4738 11.9863 18.2591 11.9863 17.9967ZM18.0801 14.63C18.3379 14.63 18.5488 14.8715 18.5488 15.1071C18.5488 15.3963 18.3379 15.5842 18.0801 15.5842H12.4551C12.1961 15.5842 11.9863 15.3963 11.9863 15.1071C11.9863 14.8715 12.1961 14.63 12.4551 14.63H18.0801ZM11.9649 8.99398L13.2959 7.63977C13.4775 7.45342 13.7764 7.45342 13.958 7.63977L15.2676 8.97221L16.5771 7.63977C16.7588 7.45342 17.0576 7.45342 17.2393 7.63977L18.5693 8.99398L20.1162 7.61806C20.2539 7.49478 20.4502 7.46529 20.6172 7.54264C20.7842 7.62 20.8926 7.78991 20.8926 7.97712V22.2907C20.8926 22.4786 20.7842 22.6217 20.6172 22.7261C20.4502 22.8036 20.2539 22.7738 20.1162 22.6486L18.5693 21.2739L17.2393 22.6277C17.0576 22.8156 16.7588 22.8156 16.5771 22.6277L15.2676 21.2947L13.958 22.6277C13.7764 22.8156 13.4775 22.8156 13.2959 22.6277L11.9649 21.2739L10.4201 22.6486C10.2815 22.7738 10.0853 22.8036 9.91762 22.7261C9.75013 22.6217 9.64258 22.4786 9.64258 22.2907V7.97712C9.64258 7.78991 9.75016 7.62 9.91762 7.54264C10.0853 7.46529 10.2815 7.49478 10.4201 7.61806L11.9649 8.99398ZM11.6775 20.2361C11.8633 20.096 12.1434 20.1049 12.3177 20.2838L13.627 21.6168L14.9365 20.2838C15.1182 20.096 15.417 20.096 15.5986 20.2838L16.9082 21.6168L18.2178 20.2838C18.3906 20.1049 18.6719 20.096 18.8564 20.2361L19.9551 21.2381V9.02857L18.8564 10.0061C18.6719 10.1716 18.3906 10.162 18.2178 9.98431L16.9082 8.65195L15.5986 9.98431C15.417 10.1707 15.1182 10.1707 14.9365 9.98431L13.627 8.65195L12.3177 9.98431C12.1434 10.162 11.8633 10.1716 11.6775 10.0061L10.5801 9.02857V21.2381L11.6775 20.2361Z" fill="#7F7F88" fill-opacity="0.7"/>
</g>
<defs>
<clipPath id="clip0_1967_19865">
<rect width="11.25" height="15.2679" fill="white" transform="translate(9.64258 7.5)"/>
</clipPath>
</defs>
</svg>
