<svg width="19" height="18" viewBox="0 0 19 18" fill="none" xmlns="http://www.w3.org/2000/svg">
<path d="M9.68359 3.48047C5.79542 3.48047 3.55273 6.36007 2.65087 7.85398C2.4259 8.22662 2.31342 8.41294 2.32511 8.7123C2.3368 9.01166 2.46803 9.19502 2.73049 9.56174C3.78984 11.0419 6.31692 13.9805 9.68359 13.9805C13.0503 13.9805 15.5773 11.0419 16.6367 9.56174C16.8992 9.19502 17.0304 9.01166 17.0421 8.7123C17.0538 8.41294 16.9413 8.22662 16.7163 7.85398C15.8145 6.36006 13.5718 3.48047 9.68359 3.48047Z" stroke="#A8A8A8" stroke-width="1.5"/>
<circle cx="9.68359" cy="8.73047" r="3" fill="#979797"/>
<path d="M17.8549 1.91192L18.0373 1.74094L17.8663 1.55855L17.1824 0.829014L17.0114 0.64663L16.829 0.817615L0.829015 15.8176L0.64663 15.9886L0.817616 16.171L1.50156 16.9005L1.67254 17.0829L1.85493 16.9119L17.8549 1.91192Z" fill="#A8A8A8" stroke="white" stroke-width="0.5"/>
</svg>
