<svg width="30" height="30" viewBox="0 0 30 30" fill="none" xmlns="http://www.w3.org/2000/svg">
<path d="M14.9764 25.0055C20.5002 25.0055 24.9782 20.5276 24.9782 15.0037C24.9782 9.47991 20.5002 5.00195 14.9764 5.00195C9.45256 5.00195 4.97461 9.47991 4.97461 15.0037C4.97461 20.5276 9.45256 25.0055 14.9764 25.0055Z" fill="#7B68EE" stroke="#7B68EE" stroke-width="1.5" stroke-linecap="round" stroke-linejoin="round"/>
<circle cx="15" cy="15" r="15" fill="white"/>
<circle cx="15" cy="15" r="14.5" stroke="#7F7F88" stroke-opacity="0.7" stroke-dasharray="2 2"/>
<path d="M19.512 15.8421H10.4894C10.027 15.8421 9.64355 15.4587 9.64355 14.9963C9.64355 14.5338 10.027 14.1504 10.4894 14.1504H19.512C19.9744 14.1504 20.3578 14.5338 20.3578 14.9963C20.3578 15.4587 19.9744 15.8421 19.512 15.8421Z" fill="#7F7F88" fill-opacity="0.7"/>
<path d="M15.0002 20.3549C14.5378 20.3549 14.1543 19.9715 14.1543 19.509V10.4865C14.1543 10.0241 14.5378 9.64062 15.0002 9.64062C15.4626 9.64062 15.846 10.0241 15.846 10.4865V19.509C15.846 19.9715 15.4626 20.3549 15.0002 20.3549Z" fill="#7F7F88" fill-opacity="0.7"/>
</svg>
