<svg width="12" height="11" viewBox="0 0 12 11" fill="none" xmlns="http://www.w3.org/2000/svg">
<path fill-rule="evenodd" clip-rule="evenodd" d="M11.5563 1.54967C11.88 2.15679 11.88 2.95155 11.88 4.54108V5.21328C11.88 6.17209 11.88 6.6515 11.76 7.04256C11.4754 7.97013 10.7163 8.69551 9.74567 8.96749C9.33645 9.08215 8.83477 9.08215 7.83143 9.08215H7.50543L7.46677 9.08221C6.86074 9.08592 6.27041 9.2667 5.77501 9.60029L5.74351 9.62172L4.19274 10.6803C3.66112 11.0431 2.96253 10.5191 3.20516 9.93942C3.37704 9.52881 3.06059 9.08215 2.59781 9.08215H2.24036C1.00304 9.08215 0 8.12363 0 6.94123V4.54108C0 2.95155 0 2.15679 0.323711 1.54967C0.608454 1.01563 1.06281 0.581447 1.62165 0.309342C2.25697 0 3.08864 0 4.752 0H7.128C8.79136 0 9.62303 0 10.2584 0.309342C10.8172 0.581447 11.2715 1.01563 11.5563 1.54967ZM4.158 4.54108C4.158 4.85457 3.89206 5.10871 3.564 5.10871C3.23594 5.10871 2.97 4.85457 2.97 4.54108C2.97 4.22758 3.23594 3.97344 3.564 3.97344C3.89206 3.97344 4.158 4.22758 4.158 4.54108ZM6.534 4.54108C6.534 4.85457 6.26806 5.10871 5.94 5.10871C5.61194 5.10871 5.346 4.85457 5.346 4.54108C5.346 4.22758 5.61194 3.97344 5.94 3.97344C6.26806 3.97344 6.534 4.22758 6.534 4.54108ZM8.316 5.10871C8.64406 5.10871 8.91 4.85457 8.91 4.54108C8.91 4.22758 8.64406 3.97344 8.316 3.97344C7.98794 3.97344 7.722 4.22758 7.722 4.54108C7.722 4.85457 7.98794 5.10871 8.316 5.10871Z" fill="#7B68EE"/>
</svg>
