<svg width="16" height="17" viewBox="0 0 16 17" fill="none" xmlns="http://www.w3.org/2000/svg">
<path d="M14.1003 4.23768C13.827 4.09102 13.2537 3.93768 12.4737 4.48435L11.4937 5.17768C11.4203 3.10435 10.5203 2.29102 8.33366 2.29102H4.33366C2.05366 2.29102 1.16699 3.17768 1.16699 5.45768V10.791C1.16699 12.3243 2.00033 13.9577 4.33366 13.9577H8.33366C10.5203 13.9577 11.4203 13.1443 11.4937 11.071L12.4737 11.7643C12.887 12.0577 13.247 12.151 13.5337 12.151C13.7803 12.151 13.9737 12.0777 14.1003 12.011C14.3737 11.871 14.8337 11.491 14.8337 10.5377V5.71102C14.8337 4.75768 14.3737 4.37768 14.1003 4.23768ZM7.33366 7.71102C6.64699 7.71102 6.08033 7.15102 6.08033 6.45768C6.08033 5.76435 6.64699 5.20435 7.33366 5.20435C8.02033 5.20435 8.58699 5.76435 8.58699 6.45768C8.58699 7.15102 8.02033 7.71102 7.33366 7.71102Z" fill="white"/>
</svg>
