<svg xmlns="http://www.w3.org/2000/svg" width="14.137" height="16.142" viewBox="0 0 14.137 16.142">
  <g id="video_play_icon" transform="translate(-629 -963.495)">
    <path id="Path_4208" data-name="Path 4208" d="M642.372,970.277a1.418,1.418,0,0,1,.678.789,1.51,1.51,0,0,1,0,1.009,1.418,1.418,0,0,1-.678.789l-11.1,6.56a1.423,1.423,0,0,1-1.009.189,1.523,1.523,0,0,1-.9-.5,1.426,1.426,0,0,1-.363-.978V965.01a1.42,1.42,0,0,1,.378-1.025,1.549,1.549,0,0,1,.915-.473,1.378,1.378,0,0,1,.977.2Z" transform="translate(0 0)" fill="#1a1818"/>
  </g>
</svg>
